<svg width="150" height="150" viewBox="0 0 150 150" fill="none" xmlns="http://www.w3.org/2000/svg">
<path d="M118.5 22H31.8333C25.8502 22 21 26.8502 21 32.8333V119.5C21 125.483 25.8502 130.333 31.8333 130.333H118.5C124.483 130.333 129.333 125.483 129.333 119.5V32.8333C129.333 26.8502 124.483 22 118.5 22Z" fill="#BFFFDC"/>
<path d="M31.8333 22H118.5C124.458 22 129.333 26.875 129.333 32.8333V43.6667H21V32.8333C21 26.875 25.875 22 31.8333 22Z" fill="#12738D"/>
<path d="M55.2875 104.604C54.2584 104.604 53.2292 104.225 52.4167 103.413L38.875 89.871C37.3042 88.3001 37.3042 85.7001 38.875 84.1293L52.4167 70.5876C53.9875 69.0168 56.5875 69.0168 58.1584 70.5876C59.7292 72.1585 59.7292 74.7585 58.1584 76.3293L47.4875 87.0001L58.1584 97.671C59.7292 99.2418 59.7292 101.842 58.1584 103.413C57.3459 104.225 56.3167 104.604 55.2875 104.604ZM95.0459 104.604C94.0167 104.604 92.9875 104.225 92.175 103.413C90.6042 101.842 90.6042 99.2418 92.175 97.671L102.846 87.0001L92.175 76.3293C90.6042 74.7585 90.6042 72.1585 92.175 70.5876C93.7459 69.0168 96.3459 69.0168 97.9167 70.5876L111.458 84.1293C113.029 85.7001 113.029 88.3001 111.458 89.871L97.9167 103.413C97.1042 104.225 96.075 104.604 95.0459 104.604ZM68.5584 112.729C68.1792 112.729 67.7459 112.675 67.3667 112.567C65.2 111.917 64.0084 109.642 64.6584 107.475L77.9292 64.1418C78.5792 62.0293 80.8542 60.7835 83.0209 61.4335C85.1875 62.0835 86.3792 64.3585 85.7292 66.5251L72.4584 109.858C71.9167 111.592 70.2917 112.729 68.5584 112.729Z" fill="#44A68A"/>
<path d="M114.316 135.495C114.353 135.558 114.402 135.614 114.46 135.659C114.518 135.703 114.585 135.736 114.656 135.755C114.726 135.774 114.8 135.778 114.873 135.768C114.946 135.759 115.016 135.735 115.079 135.698L117.786 134.135C118.7 135.112 119.766 135.934 120.944 136.567L120.137 139.579C120.118 139.65 120.113 139.724 120.122 139.797C120.132 139.87 120.156 139.94 120.192 140.003C120.229 140.067 120.278 140.122 120.336 140.167C120.394 140.212 120.461 140.244 120.532 140.263L124.845 141.42C124.916 141.439 124.99 141.444 125.063 141.435C125.135 141.425 125.205 141.402 125.269 141.365C125.332 141.328 125.388 141.279 125.433 141.221C125.477 141.163 125.51 141.097 125.529 141.026L126.338 138.005C127.674 138.049 129.008 137.874 130.288 137.487L131.85 140.193C131.924 140.321 132.045 140.414 132.188 140.453C132.331 140.491 132.483 140.471 132.611 140.397L136.477 138.165C136.746 138.01 136.837 137.669 136.683 137.402L135.12 134.695C136.097 133.782 136.917 132.715 137.55 131.537L140.562 132.344C140.633 132.363 140.707 132.368 140.78 132.358C140.852 132.349 140.922 132.325 140.986 132.289C141.049 132.252 141.105 132.203 141.15 132.145C141.194 132.087 141.227 132.02 141.246 131.949L142.403 127.636C142.422 127.565 142.427 127.491 142.418 127.418C142.408 127.345 142.384 127.275 142.348 127.212C142.311 127.148 142.262 127.093 142.204 127.048C142.146 127.004 142.079 126.971 142.008 126.952L138.988 126.143C139.032 124.806 138.858 123.472 138.472 122.192L141.176 120.631C141.444 120.476 141.534 120.138 141.38 119.87L139.147 116.003C138.992 115.735 138.654 115.645 138.386 115.799L135.679 117.362C134.766 116.385 133.699 115.564 132.521 114.93L133.328 111.918C133.347 111.847 133.352 111.773 133.343 111.7C133.333 111.628 133.309 111.557 133.273 111.494C133.236 111.43 133.187 111.375 133.129 111.33C133.071 111.286 133.004 111.253 132.934 111.234L128.619 110.079C128.549 110.06 128.475 110.055 128.402 110.065C128.329 110.075 128.259 110.098 128.195 110.135C128.132 110.172 128.076 110.22 128.032 110.279C127.987 110.337 127.955 110.403 127.936 110.474L127.127 113.492C125.791 113.448 124.457 113.623 123.177 114.01L121.616 111.306C121.462 111.038 121.119 110.947 120.853 111.101L116.988 113.333C116.924 113.369 116.868 113.418 116.823 113.476C116.778 113.534 116.745 113.601 116.726 113.672C116.707 113.743 116.703 113.817 116.712 113.89C116.722 113.963 116.746 114.033 116.783 114.096L118.345 116.802C117.369 117.716 116.548 118.782 115.915 119.961L112.903 119.153C112.832 119.134 112.758 119.129 112.685 119.138C112.612 119.148 112.542 119.172 112.478 119.208C112.414 119.245 112.359 119.294 112.314 119.353C112.269 119.411 112.237 119.478 112.218 119.549L111.062 123.862C111.043 123.932 111.038 124.006 111.048 124.079C111.057 124.152 111.081 124.222 111.118 124.285C111.154 124.349 111.203 124.404 111.261 124.449C111.32 124.494 111.386 124.526 111.457 124.545L114.476 125.355C114.432 126.691 114.607 128.026 114.993 129.305L112.289 130.866C112.226 130.903 112.17 130.951 112.125 131.009C112.08 131.067 112.048 131.134 112.029 131.204C112.009 131.275 112.004 131.349 112.014 131.422C112.023 131.495 112.047 131.565 112.084 131.628L114.316 135.495ZM119.967 129.655C118.931 127.861 118.65 125.728 119.186 123.727C119.723 121.726 121.032 120.02 122.826 118.984C123.714 118.471 124.695 118.138 125.712 118.004C126.73 117.87 127.763 117.937 128.754 118.202C129.745 118.468 130.674 118.926 131.488 119.551C132.302 120.175 132.985 120.954 133.498 121.842C134.012 122.731 134.345 123.712 134.479 124.729C134.613 125.747 134.545 126.78 134.28 127.771C134.014 128.763 133.556 129.692 132.931 130.506C132.306 131.32 131.527 132.003 130.639 132.516C129.75 133.029 128.769 133.362 127.752 133.495C126.735 133.629 125.701 133.562 124.71 133.296C123.719 133.03 122.79 132.572 121.976 131.947C121.162 131.322 120.479 130.544 119.967 129.655ZM100.396 117.269C100.429 117.302 100.468 117.329 100.511 117.347C100.554 117.365 100.6 117.374 100.646 117.374C100.693 117.375 100.739 117.365 100.782 117.348C100.825 117.33 100.864 117.303 100.897 117.27L102.296 115.871C103.015 116.318 103.802 116.646 104.627 116.839L104.627 118.814C104.626 118.86 104.635 118.907 104.652 118.95C104.67 118.993 104.696 119.033 104.728 119.066C104.761 119.099 104.8 119.125 104.844 119.143C104.887 119.16 104.933 119.169 104.98 119.169L107.809 119.168C107.856 119.168 107.902 119.159 107.945 119.141C107.988 119.124 108.027 119.098 108.06 119.065C108.093 119.032 108.119 118.993 108.137 118.95C108.155 118.907 108.164 118.86 108.163 118.814L108.163 116.835C108.987 116.642 109.774 116.316 110.493 115.869L111.893 117.268C111.925 117.301 111.964 117.328 112.007 117.346C112.05 117.364 112.096 117.373 112.142 117.373C112.188 117.373 112.234 117.364 112.277 117.347C112.32 117.329 112.359 117.303 112.392 117.27L114.391 115.27C114.424 115.237 114.45 115.198 114.468 115.155C114.486 115.113 114.496 115.067 114.496 115.02C114.496 114.974 114.487 114.928 114.47 114.885C114.452 114.842 114.426 114.803 114.393 114.77L112.991 113.371C113.439 112.651 113.767 111.864 113.961 111.039L115.937 111.04C115.983 111.04 116.029 111.031 116.072 111.014C116.115 110.996 116.154 110.97 116.187 110.937C116.22 110.904 116.246 110.865 116.264 110.822C116.282 110.779 116.291 110.733 116.291 110.686L116.289 107.859C116.291 107.661 116.13 107.506 115.937 107.504L113.958 107.505C113.765 106.681 113.439 105.893 112.992 105.174L114.391 103.775C114.424 103.742 114.451 103.703 114.469 103.66C114.487 103.617 114.496 103.571 114.496 103.524C114.496 103.478 114.487 103.432 114.469 103.389C114.451 103.346 114.425 103.307 114.392 103.274L112.393 101.276C112.36 101.243 112.321 101.217 112.278 101.199C112.235 101.181 112.189 101.171 112.142 101.171C112.096 101.171 112.049 101.18 112.006 101.198C111.963 101.216 111.924 101.242 111.891 101.275L110.493 102.675C109.774 102.227 108.986 101.9 108.162 101.706L108.16 99.7302C108.161 99.6837 108.152 99.6376 108.134 99.5945C108.117 99.5514 108.091 99.5123 108.058 99.4793C108.025 99.4463 107.986 99.4201 107.943 99.4022C107.901 99.3843 107.854 99.3752 107.808 99.3752L104.979 99.3777C104.933 99.3775 104.887 99.3865 104.843 99.4042C104.8 99.4219 104.761 99.448 104.728 99.4809C104.695 99.5138 104.669 99.553 104.652 99.596C104.634 99.6391 104.625 99.6852 104.625 99.7318L104.628 101.709C103.803 101.903 103.015 102.229 102.295 102.676L100.897 101.275C100.864 101.242 100.825 101.216 100.782 101.198C100.739 101.18 100.693 101.171 100.646 101.171C100.6 101.171 100.554 101.18 100.511 101.198C100.468 101.216 100.429 101.242 100.397 101.275L98.3966 103.274C98.3634 103.307 98.3369 103.346 98.3188 103.389C98.3008 103.432 98.2915 103.478 98.2914 103.525C98.2913 103.571 98.3004 103.617 98.3183 103.66C98.3361 103.703 98.3624 103.742 98.3955 103.775L99.7977 105.175C99.3499 105.893 99.0224 106.68 98.8281 107.504L96.8522 107.505C96.8057 107.505 96.7595 107.514 96.7164 107.531C96.6733 107.549 96.6342 107.575 96.6012 107.608C96.5681 107.64 96.542 107.679 96.5242 107.722C96.5063 107.765 96.4971 107.811 96.4972 107.858L96.4997 110.687C96.4988 110.733 96.5071 110.78 96.5245 110.823C96.5418 110.866 96.5677 110.906 96.6006 110.939C96.6335 110.972 96.6727 110.998 96.7159 111.016C96.7591 111.033 96.8053 111.042 96.852 111.042L98.8324 111.04C99.0247 111.864 99.3504 112.652 99.7965 113.371L98.3976 114.771C98.3645 114.804 98.3383 114.842 98.3203 114.885C98.3023 114.928 98.2929 114.974 98.2928 115.02C98.2926 115.067 98.3015 115.113 98.3191 115.155C98.3367 115.198 98.3627 115.237 98.3955 115.27L100.398 117.268L100.396 117.269ZM102.896 112.77C101.969 111.842 101.448 110.584 101.448 109.272C101.448 107.96 101.968 106.702 102.896 105.774C103.823 104.846 105.082 104.325 106.394 104.324C107.706 104.324 108.965 104.845 109.893 105.773C110.353 106.232 110.717 106.778 110.966 107.378C111.215 107.979 111.343 108.622 111.343 109.272C111.343 109.922 111.215 110.566 110.966 111.166C110.717 111.766 110.352 112.312 109.893 112.771C108.965 113.699 107.706 114.22 106.394 114.22C105.082 114.219 103.824 113.698 102.896 112.77ZM88.9648 137.417C89.0195 137.511 89.109 137.579 89.2138 137.607C89.3186 137.634 89.4301 137.62 89.524 137.565L91.5093 136.419C92.1791 137.136 92.9614 137.738 93.8255 138.203L93.2319 140.413C93.2176 140.465 93.2138 140.519 93.2207 140.572C93.2275 140.626 93.2449 140.677 93.2718 140.724C93.2987 140.77 93.3346 140.811 93.3774 140.844C93.4202 140.876 93.4691 140.9 93.5211 140.914L96.6861 141.76C96.738 141.774 96.7922 141.778 96.8456 141.771C96.8989 141.765 96.9503 141.747 96.9969 141.72C97.0435 141.693 97.0843 141.658 97.1169 141.615C97.1495 141.572 97.1733 141.523 97.1869 141.471L97.7803 139.256C98.7596 139.289 99.7377 139.161 100.676 138.878L101.821 140.862C101.848 140.909 101.883 140.95 101.926 140.983C101.968 141.016 102.017 141.04 102.069 141.054C102.122 141.068 102.176 141.072 102.23 141.065C102.283 141.057 102.335 141.039 102.381 141.012L105.216 139.375C105.413 139.261 105.479 139.011 105.366 138.815L104.22 136.83C104.936 136.16 105.538 135.378 106.001 134.515L108.212 135.105C108.264 135.119 108.318 135.123 108.372 135.116C108.425 135.109 108.476 135.092 108.523 135.065C108.569 135.038 108.61 135.002 108.643 134.96C108.675 134.917 108.699 134.868 108.713 134.816L109.561 131.653C109.575 131.601 109.579 131.547 109.573 131.493C109.566 131.439 109.548 131.388 109.521 131.341C109.494 131.294 109.458 131.253 109.415 131.22C109.372 131.188 109.323 131.164 109.271 131.151L107.057 130.559C107.089 129.579 106.961 128.6 106.678 127.662L108.661 126.517C108.857 126.403 108.924 126.155 108.811 125.959L107.173 123.123C107.119 123.029 107.029 122.961 106.925 122.933C106.821 122.905 106.709 122.92 106.616 122.973L104.63 124.119C103.961 123.403 103.178 122.8 102.314 122.336L102.906 120.127C102.921 120.075 102.925 120.02 102.918 119.967C102.911 119.913 102.894 119.861 102.867 119.815C102.84 119.768 102.803 119.727 102.76 119.694C102.717 119.661 102.668 119.638 102.616 119.624L99.4537 118.778C99.4016 118.764 99.3473 118.76 99.2937 118.767C99.2402 118.774 99.1885 118.792 99.1418 118.819C99.095 118.846 99.0541 118.882 99.0213 118.925C98.9886 118.967 98.9647 119.016 98.951 119.069L98.3585 121.28C97.3788 121.249 96.4005 121.378 95.4623 121.661L94.3171 119.678C94.2627 119.584 94.173 119.515 94.068 119.487C93.9629 119.459 93.851 119.473 93.7568 119.528L90.9221 121.164C90.8753 121.191 90.8342 121.227 90.8013 121.27C90.7683 121.312 90.7443 121.361 90.7303 121.413C90.7164 121.465 90.7129 121.519 90.7201 121.573C90.7273 121.626 90.745 121.678 90.7721 121.724L91.9183 123.71C91.2024 124.379 90.6006 125.161 90.1367 126.025L87.9274 125.433C87.8754 125.419 87.821 125.415 87.7674 125.421C87.7138 125.428 87.6619 125.446 87.6151 125.473C87.5683 125.5 87.5275 125.536 87.4948 125.579C87.4621 125.622 87.4382 125.671 87.4247 125.723L86.5772 128.886C86.563 128.938 86.5591 128.993 86.566 129.046C86.5728 129.099 86.5902 129.151 86.6171 129.197C86.644 129.244 86.6799 129.285 86.7227 129.317C86.7655 129.35 86.8144 129.374 86.8665 129.387L89.0811 129.981C89.0495 130.96 89.1781 131.939 89.4619 132.877L87.4783 134.022C87.4316 134.049 87.3906 134.084 87.3578 134.127C87.3249 134.169 87.3007 134.218 87.2867 134.27C87.2727 134.322 87.2691 134.376 87.276 134.429C87.283 134.483 87.3004 134.534 87.3273 134.581L88.9648 137.417ZM93.1078 133.133C92.3488 131.817 92.1432 130.254 92.5364 128.787C92.9295 127.319 93.8893 126.068 95.2046 125.308C96.5203 124.549 98.084 124.343 99.5517 124.736C101.019 125.129 102.271 126.088 103.031 127.404C103.791 128.72 103.997 130.284 103.603 131.752C103.21 133.22 102.25 134.471 100.934 135.231C99.6175 135.99 98.0537 136.196 96.5862 135.802C95.1187 135.409 93.8675 134.449 93.1078 133.133Z" fill="#2197A2"/>
</svg>
