<svg width="500" height="450" viewBox="0 0 500 450" fill="none" xmlns="http://www.w3.org/2000/svg">
<path d="M61.5 299.382C75.7944 299.382 87.3824 287.794 87.3824 273.5C87.3824 259.206 75.7944 247.618 61.5 247.618C47.2056 247.618 35.6176 259.206 35.6176 273.5C35.6176 287.794 47.2056 299.382 61.5 299.382Z" fill="#FE9967"/>
<path d="M63.6757 299.293C62.9559 299.35 62.2361 299.382 61.5 299.382C47.2081 299.382 35.6176 287.792 35.6176 273.5C35.6176 259.208 47.2081 247.618 61.5 247.618C62.2361 247.618 62.9559 247.65 63.6757 247.707C50.3949 248.807 39.961 259.936 39.961 273.5C39.961 287.064 50.3949 298.193 63.6757 299.293Z" fill="#EF8759"/>
<path d="M87.3824 273.5C87.3824 287.792 75.8 299.382 61.5 299.382C60.7721 299.382 60.0441 299.35 59.3324 299.293C72.6052 298.185 83.039 287.056 83.039 273.5C83.039 259.944 72.6052 248.815 59.3324 247.707C60.0441 247.65 60.7721 247.618 61.5 247.618C75.8 247.618 87.3824 259.208 87.3824 273.5Z" fill="#FFAC88"/>
<path d="M61.5 294.075C72.8632 294.075 82.0748 284.863 82.0748 273.5C82.0748 262.137 72.8632 252.925 61.5 252.925C50.1368 252.925 40.9251 262.137 40.9251 273.5C40.9251 284.863 50.1368 294.075 61.5 294.075Z" fill="#E2E2E2"/>
<path d="M63.6515 293.964C62.9478 294.036 62.2279 294.077 61.5 294.077C50.136 294.077 40.9235 284.864 40.9235 273.5C40.9235 262.136 50.136 252.924 61.5 252.924C62.2279 252.924 62.9478 252.964 63.6515 253.037C53.2985 254.113 45.2346 262.864 45.2346 273.5C45.2346 284.136 53.2985 292.888 63.6515 293.964Z" fill="#D3D3D3"/>
<path d="M63.3852 293.77C57.0484 289.978 52.7485 282.692 52.7485 274.309C52.7485 264.916 58.1451 256.899 65.762 253.637C65.3896 253.499 65.0477 253.325 64.736 253.12C56.4203 255.975 50.3787 264.371 50.3787 274.309C50.3787 282.969 54.9678 290.459 61.6485 294.136C62.1675 293.935 62.7463 293.808 63.3852 293.77Z" fill="#EDEDED"/>
<path d="M82.0747 273.5C82.0747 284.864 72.8622 294.077 61.4982 294.077C60.7703 294.077 60.0504 294.036 59.3468 293.964C69.6997 292.888 77.7717 284.136 77.7717 273.5C77.7717 262.864 69.6997 254.113 59.3468 253.037C60.0504 252.964 60.7703 252.924 61.4982 252.924C72.8622 252.924 82.0747 262.136 82.0747 273.5Z" fill="#EDEDED"/>
<path d="M53.6614 282.406C53.4552 282.406 53.2483 282.328 53.0903 282.17C52.7744 281.854 52.7728 281.343 53.0879 281.026L59.3792 274.708C59.6944 274.394 60.207 274.391 60.5238 274.706C60.8397 275.022 60.8413 275.534 60.5261 275.851L54.2348 282.168C54.0769 282.326 53.8691 282.406 53.6614 282.406ZM61.5008 271.947C61.0538 271.947 60.692 271.585 60.692 271.138V260.714C60.692 260.267 61.0538 259.905 61.5008 259.905C61.9479 259.905 62.3096 260.267 62.3096 260.714V271.138C62.3096 271.585 61.9479 271.947 61.5008 271.947Z" fill="#333333"/>
<path d="M61.5 275.862C62.8044 275.862 63.8618 274.804 63.8618 273.5C63.8618 272.196 62.8044 271.138 61.5 271.138C60.1956 271.138 59.1382 272.196 59.1382 273.5C59.1382 274.804 60.1956 275.862 61.5 275.862Z" fill="#666666"/>
<path d="M61.4999 258.642C61.9469 258.642 62.3087 258.28 62.3087 257.833V256.628C62.3087 256.181 61.9469 255.819 61.4999 255.819C61.0528 255.819 60.691 256.181 60.691 256.628V257.833C60.691 258.28 61.0528 258.642 61.4999 258.642ZM45.8336 272.691H44.6283C44.1813 272.691 43.8195 273.053 43.8195 273.5C43.8195 273.947 44.1813 274.309 44.6283 274.309H45.8336C46.2807 274.309 46.6425 273.947 46.6425 273.5C46.6425 273.053 46.2807 272.691 45.8336 272.691ZM61.4999 288.357C61.0528 288.357 60.691 288.719 60.691 289.166V290.372C60.691 290.819 61.0528 291.18 61.4999 291.18C61.9469 291.18 62.3087 290.819 62.3087 290.372V289.166C62.3087 288.719 61.9469 288.357 61.4999 288.357ZM78.3722 272.691H77.1669C76.7198 272.691 76.358 273.053 76.358 273.5C76.358 273.947 76.7198 274.309 77.1669 274.309H78.3722C78.8193 274.309 79.181 273.947 79.181 273.5C79.181 273.053 78.8193 272.691 78.3722 272.691Z" fill="#666666"/>
<path d="M48.1479 263.688C47.7712 263.445 47.2712 263.558 47.0311 263.933C46.9608 264.043 46.8936 264.155 46.8289 264.268C46.6061 264.656 46.7404 265.15 47.1274 265.372C47.2546 265.445 47.3928 265.479 47.5295 265.479C47.8099 265.479 48.0824 265.333 48.2317 265.073C48.2838 264.983 48.3367 264.892 48.3928 264.805C48.6337 264.429 48.5239 263.928 48.1479 263.688ZM57.2764 257.5C57.1406 257.074 56.6888 256.837 56.2607 256.974C53.5886 257.823 51.1234 259.345 49.1313 261.376C48.8185 261.695 48.8233 262.207 49.1424 262.52C49.2996 262.675 49.5042 262.751 49.7087 262.751C49.918 262.751 50.1281 262.67 50.2861 262.509C52.0941 260.666 54.3295 259.285 56.7504 258.516C57.1761 258.381 57.4115 257.926 57.2764 257.5Z" fill="white"/>
<g filter="url(#filter0_d_12756_1561)">
<path d="M70 131C70 130.448 70.4477 130 71 130H161.435C161.988 130 162.435 130.448 162.435 131V198.215C162.435 198.767 161.988 199.215 161.435 199.215H71C70.4477 199.215 70 198.767 70 198.215V131Z" fill="white"/>
</g>
<rect x="74.9087" y="137.592" width="27.2394" height="27.2394" fill="#7BC3F4"/>
<circle cx="144.798" cy="151.212" r="13.6197" fill="#D4EEFF"/>
<path fill-rule="evenodd" clip-rule="evenodd" d="M116.451 162.696C116.451 163.704 117.773 164.079 118.302 163.222L124.128 153.789C124.327 153.467 124.327 153.06 124.128 152.738L118.302 143.305C117.773 142.448 116.451 142.823 116.451 143.83V147.129C116.451 147.681 116.004 148.129 115.451 148.129H109.849C109.296 148.129 108.849 148.576 108.849 149.129V157.399C108.849 157.952 109.296 158.399 109.849 158.399H115.451C116.004 158.399 116.451 158.847 116.451 159.399V162.696Z" fill="#A1E0E9"/>
<rect x="76.6945" y="178.228" width="81.7182" height="3.12583" fill="#C4C4C4"/>
<rect x="76.6945" y="184.479" width="81.7182" height="3.12583" fill="#C4C4C4"/>
<rect x="76.6945" y="190.731" width="81.7182" height="3.12583" fill="#C4C4C4"/>
<g filter="url(#filter1_d_12756_1561)">
<path d="M70 312C70 311.448 70.4477 311 71 311H161.435C161.988 311 162.435 311.448 162.435 312V379.215C162.435 379.767 161.988 380.215 161.435 380.215H71C70.4477 380.215 70 379.767 70 379.215V312Z" fill="white"/>
</g>
<rect x="74.9087" y="318.592" width="27.2394" height="27.2394" fill="#7BC3F4"/>
<circle cx="144.798" cy="332.212" r="13.6197" fill="#D4EEFF"/>
<path fill-rule="evenodd" clip-rule="evenodd" d="M116.451 343.696C116.451 344.704 117.773 345.079 118.302 344.222L124.128 334.789C124.327 334.467 124.327 334.06 124.128 333.738L118.302 324.305C117.773 323.448 116.451 323.823 116.451 324.83V328.129C116.451 328.681 116.004 329.129 115.451 329.129H109.849C109.296 329.129 108.849 329.576 108.849 330.129V338.399C108.849 338.952 109.296 339.399 109.849 339.399H115.451C116.004 339.399 116.451 339.847 116.451 340.399V343.696Z" fill="#A1E0E9"/>
<rect x="76.6945" y="359.228" width="81.7182" height="3.12583" fill="#C4C4C4"/>
<rect x="76.6945" y="365.479" width="81.7182" height="3.12583" fill="#C4C4C4"/>
<rect x="76.6945" y="371.731" width="81.7182" height="3.12583" fill="#C4C4C4"/>
<g filter="url(#filter2_d_12756_1561)">
<path d="M171 131C171 130.448 171.448 130 172 130H262.435C262.988 130 263.435 130.448 263.435 131V198.215C263.435 198.767 262.988 199.215 262.435 199.215H172C171.448 199.215 171 198.767 171 198.215V131Z" fill="white"/>
</g>
<rect x="175.909" y="137.592" width="27.2394" height="27.2394" fill="#7BC3F4"/>
<circle cx="245.798" cy="151.212" r="13.6197" fill="#D4EEFF"/>
<path fill-rule="evenodd" clip-rule="evenodd" d="M217.451 162.696C217.451 163.704 218.773 164.079 219.302 163.222L225.128 153.789C225.327 153.467 225.327 153.06 225.128 152.738L219.302 143.305C218.773 142.448 217.451 142.823 217.451 143.83V147.129C217.451 147.681 217.004 148.129 216.451 148.129H210.849C210.296 148.129 209.849 148.576 209.849 149.129V157.399C209.849 157.952 210.296 158.399 210.849 158.399H216.451C217.004 158.399 217.451 158.847 217.451 159.399V162.696Z" fill="#A1E0E9"/>
<rect x="177.695" y="178.228" width="81.7182" height="3.12583" fill="#C4C4C4"/>
<rect x="177.695" y="184.479" width="81.7182" height="3.12583" fill="#C4C4C4"/>
<rect x="177.695" y="190.731" width="81.7182" height="3.12583" fill="#C4C4C4"/>
<g filter="url(#filter3_d_12756_1561)">
<path d="M171 312C171 311.448 171.448 311 172 311H262.435C262.988 311 263.435 311.448 263.435 312V379.215C263.435 379.767 262.988 380.215 262.435 380.215H172C171.448 380.215 171 379.767 171 379.215V312Z" fill="white"/>
</g>
<rect x="175.909" y="318.592" width="27.2394" height="27.2394" fill="#7BC3F4"/>
<circle cx="245.798" cy="332.212" r="13.6197" fill="#D4EEFF"/>
<path fill-rule="evenodd" clip-rule="evenodd" d="M217.451 343.696C217.451 344.704 218.773 345.079 219.302 344.222L225.128 334.789C225.327 334.467 225.327 334.06 225.128 333.738L219.302 324.305C218.773 323.448 217.451 323.823 217.451 324.83V328.129C217.451 328.681 217.004 329.129 216.451 329.129H210.849C210.296 329.129 209.849 329.576 209.849 330.129V338.399C209.849 338.952 210.296 339.399 210.849 339.399H216.451C217.004 339.399 217.451 339.847 217.451 340.399V343.696Z" fill="#A1E0E9"/>
<rect x="177.695" y="359.228" width="81.7182" height="3.12583" fill="#C4C4C4"/>
<rect x="177.695" y="365.479" width="81.7182" height="3.12583" fill="#C4C4C4"/>
<rect x="177.695" y="371.731" width="81.7182" height="3.12583" fill="#C4C4C4"/>
<g filter="url(#filter4_d_12756_1561)">
<path d="M272 131C272 130.448 272.448 130 273 130H363.435C363.988 130 364.435 130.448 364.435 131V198.215C364.435 198.767 363.988 199.215 363.435 199.215H273C272.448 199.215 272 198.767 272 198.215V131Z" fill="white"/>
</g>
<rect x="276.909" y="137.592" width="27.2394" height="27.2394" fill="#7BC3F4"/>
<circle cx="346.798" cy="151.212" r="13.6197" fill="#D4EEFF"/>
<path fill-rule="evenodd" clip-rule="evenodd" d="M318.451 162.696C318.451 163.704 319.773 164.079 320.302 163.222L326.128 153.789C326.327 153.467 326.327 153.06 326.128 152.738L320.302 143.305C319.773 142.448 318.451 142.823 318.451 143.83V147.129C318.451 147.681 318.004 148.129 317.451 148.129H311.849C311.296 148.129 310.849 148.576 310.849 149.129V157.399C310.849 157.952 311.296 158.399 311.849 158.399H317.451C318.004 158.399 318.451 158.847 318.451 159.399V162.696Z" fill="#A1E0E9"/>
<rect x="278.695" y="178.228" width="81.7182" height="3.12583" fill="#C4C4C4"/>
<rect x="278.695" y="184.479" width="81.7182" height="3.12583" fill="#C4C4C4"/>
<rect x="278.695" y="190.731" width="81.7182" height="3.12583" fill="#C4C4C4"/>
<g filter="url(#filter5_d_12756_1561)">
<path d="M272 312C272 311.448 272.448 311 273 311H363.435C363.988 311 364.435 311.448 364.435 312V379.215C364.435 379.767 363.988 380.215 363.435 380.215H273C272.448 380.215 272 379.767 272 379.215V312Z" fill="white"/>
</g>
<rect x="276.909" y="318.592" width="27.2394" height="27.2394" fill="#7BC3F4"/>
<circle cx="346.798" cy="332.212" r="13.6197" fill="#D4EEFF"/>
<path fill-rule="evenodd" clip-rule="evenodd" d="M318.451 343.696C318.451 344.704 319.773 345.079 320.302 344.222L326.128 334.789C326.327 334.467 326.327 334.06 326.128 333.738L320.302 324.305C319.773 323.448 318.451 323.823 318.451 324.83V328.129C318.451 328.681 318.004 329.129 317.451 329.129H311.849C311.296 329.129 310.849 329.576 310.849 330.129V338.399C310.849 338.952 311.296 339.399 311.849 339.399H317.451C318.004 339.399 318.451 339.847 318.451 340.399V343.696Z" fill="#A1E0E9"/>
<rect x="278.695" y="359.228" width="81.7182" height="3.12583" fill="#C4C4C4"/>
<rect x="278.695" y="365.479" width="81.7182" height="3.12583" fill="#C4C4C4"/>
<rect x="278.695" y="371.731" width="81.7182" height="3.12583" fill="#C4C4C4"/>
<g filter="url(#filter6_d_12756_1561)">
<path d="M373 131C373 130.448 373.448 130 374 130H464.435C464.988 130 465.435 130.448 465.435 131V198.215C465.435 198.767 464.988 199.215 464.435 199.215H374C373.448 199.215 373 198.767 373 198.215V131Z" fill="white"/>
</g>
<rect x="377.909" y="137.592" width="27.2394" height="27.2394" fill="#7BC3F4"/>
<circle cx="447.798" cy="151.212" r="13.6197" fill="#D4EEFF"/>
<path fill-rule="evenodd" clip-rule="evenodd" d="M419.451 162.696C419.451 163.704 420.773 164.079 421.302 163.222L427.128 153.789C427.327 153.467 427.327 153.06 427.128 152.738L421.302 143.305C420.773 142.448 419.451 142.823 419.451 143.83V147.129C419.451 147.681 419.004 148.129 418.451 148.129H412.849C412.296 148.129 411.849 148.576 411.849 149.129V157.399C411.849 157.952 412.296 158.399 412.849 158.399H418.451C419.004 158.399 419.451 158.847 419.451 159.399V162.696Z" fill="#A1E0E9"/>
<rect x="379.695" y="178.228" width="81.7182" height="3.12583" fill="#C4C4C4"/>
<rect x="379.695" y="184.479" width="81.7182" height="3.12583" fill="#C4C4C4"/>
<rect x="379.695" y="190.731" width="81.7182" height="3.12583" fill="#C4C4C4"/>
<g filter="url(#filter7_d_12756_1561)">
<path d="M373 312C373 311.448 373.448 311 374 311H464.435C464.988 311 465.435 311.448 465.435 312V379.215C465.435 379.767 464.988 380.215 464.435 380.215H374C373.448 380.215 373 379.767 373 379.215V312Z" fill="white"/>
</g>
<rect x="377.909" y="318.592" width="27.2394" height="27.2394" fill="#7BC3F4"/>
<circle cx="447.798" cy="332.212" r="13.6197" fill="#D4EEFF"/>
<path fill-rule="evenodd" clip-rule="evenodd" d="M419.451 343.696C419.451 344.704 420.773 345.079 421.302 344.222L427.128 334.789C427.327 334.467 427.327 334.06 427.128 333.738L421.302 324.305C420.773 323.448 419.451 323.823 419.451 324.83V328.129C419.451 328.681 419.004 329.129 418.451 329.129H412.849C412.296 329.129 411.849 329.576 411.849 330.129V338.399C411.849 338.952 412.296 339.399 412.849 339.399H418.451C419.004 339.399 419.451 339.847 419.451 340.399V343.696Z" fill="#A1E0E9"/>
<rect x="379.695" y="359.228" width="81.7182" height="3.12583" fill="#C4C4C4"/>
<rect x="379.695" y="365.479" width="81.7182" height="3.12583" fill="#C4C4C4"/>
<rect x="379.695" y="371.731" width="81.7182" height="3.12583" fill="#C4C4C4"/>
<path d="M47.5012 118.75C47.0718 118.749 46.65 118.64 46.2763 118.434C45.8902 118.223 45.5687 117.916 45.3447 117.544C45.1207 117.173 45.0022 116.75 45.0014 116.319V80.6632C44.9677 79.2056 45.526 77.7938 46.5554 76.7338C47.5848 75.6737 49.0024 75.0508 50.501 75H74.499C75.9976 75.0508 77.4152 75.6737 78.4446 76.7338C79.474 77.7938 80.0323 79.2056 79.9986 80.6632V116.319C79.9959 116.744 79.8792 117.16 79.6599 117.526C79.4406 117.893 79.1265 118.198 78.7487 118.41C78.3686 118.623 77.9376 118.735 77.4988 118.735C77.06 118.735 76.6289 118.623 76.2489 118.41L62.075 110.608L48.7511 118.385C48.3751 118.612 47.9437 118.738 47.5012 118.75V118.75Z" fill="#FFE600"/>
<path d="M112.906 77.25V100H108.359V77.25H112.906ZM118.562 77.25V81.0469H102.812V77.25H118.562Z" fill="white"/>
<path d="M116.801 92.125V90.9844C116.801 89.6615 116.958 88.4896 117.27 87.4688C117.593 86.4479 118.051 85.5938 118.645 84.9062C119.239 84.2083 119.952 83.6823 120.786 83.3281C121.629 82.9635 122.572 82.7812 123.614 82.7812C124.666 82.7812 125.609 82.9635 126.442 83.3281C127.286 83.6823 128.004 84.2083 128.598 84.9062C129.202 85.5938 129.666 86.4479 129.989 87.4688C130.312 88.4896 130.473 89.6615 130.473 90.9844V92.125C130.473 93.4375 130.312 94.6042 129.989 95.625C129.666 96.6458 129.202 97.5052 128.598 98.2031C128.004 98.901 127.291 99.4271 126.458 99.7812C125.624 100.135 124.687 100.312 123.645 100.312C122.603 100.312 121.661 100.135 120.817 99.7812C119.984 99.4271 119.265 98.901 118.661 98.2031C118.056 97.5052 117.593 96.6458 117.27 95.625C116.958 94.6042 116.801 93.4375 116.801 92.125ZM121.176 90.9844V92.125C121.176 92.9062 121.228 93.5833 121.333 94.1562C121.447 94.7292 121.609 95.2031 121.817 95.5781C122.036 95.9531 122.296 96.2292 122.598 96.4062C122.9 96.5833 123.249 96.6719 123.645 96.6719C124.041 96.6719 124.395 96.5833 124.708 96.4062C125.02 96.2292 125.275 95.9531 125.473 95.5781C125.681 95.2031 125.833 94.7292 125.926 94.1562C126.03 93.5833 126.083 92.9062 126.083 92.125V90.9844C126.083 90.224 126.025 89.5573 125.911 88.9844C125.796 88.401 125.635 87.9271 125.426 87.5625C125.218 87.1875 124.958 86.9062 124.645 86.7188C124.343 86.5208 123.999 86.4219 123.614 86.4219C123.228 86.4219 122.885 86.5208 122.583 86.7188C122.291 86.9062 122.036 87.1875 121.817 87.5625C121.609 87.9271 121.447 88.401 121.333 88.9844C121.228 89.5573 121.176 90.224 121.176 90.9844Z" fill="white"/>
<path d="M137.134 86.3438V106.5H132.774V83.0938H136.806L137.134 86.3438ZM145.915 90.9688V92.0938C145.915 93.4167 145.8 94.5885 145.571 95.6094C145.342 96.6198 144.998 97.4792 144.54 98.1875C144.092 98.8854 143.53 99.4167 142.853 99.7812C142.175 100.135 141.384 100.312 140.478 100.312C139.634 100.312 138.905 100.115 138.29 99.7188C137.686 99.3125 137.175 98.7552 136.759 98.0469C136.342 97.3385 136.009 96.5104 135.759 95.5625C135.509 94.6146 135.316 93.599 135.181 92.5156V90.7656C135.306 89.6094 135.488 88.5469 135.728 87.5781C135.967 86.599 136.295 85.75 136.712 85.0312C137.139 84.3125 137.655 83.7604 138.259 83.375C138.873 82.9792 139.603 82.7812 140.446 82.7812C141.363 82.7812 142.16 82.9479 142.837 83.2812C143.524 83.6146 144.092 84.1198 144.54 84.7969C144.998 85.4635 145.342 86.3125 145.571 87.3438C145.8 88.375 145.915 89.5833 145.915 90.9688ZM141.54 92.0938V90.9688C141.54 90.1562 141.493 89.4635 141.399 88.8906C141.316 88.3177 141.181 87.849 140.993 87.4844C140.806 87.1198 140.561 86.8542 140.259 86.6875C139.957 86.5208 139.587 86.4375 139.149 86.4375C138.722 86.4375 138.347 86.5208 138.024 86.6875C137.712 86.8542 137.457 87.099 137.259 87.4219C137.061 87.7344 136.91 88.1198 136.806 88.5781C136.701 89.026 136.644 89.5365 136.634 90.1094V93.1719C136.655 93.849 136.743 94.4479 136.899 94.9688C137.066 95.4896 137.332 95.9062 137.696 96.2188C138.061 96.5208 138.556 96.6719 139.181 96.6719C139.629 96.6719 139.998 96.5781 140.29 96.3906C140.592 96.2031 140.837 95.9219 141.024 95.5469C141.212 95.1719 141.342 94.6979 141.415 94.125C141.498 93.5521 141.54 92.875 141.54 92.0938Z" fill="white"/>
<path d="M152.716 83.0938V100H148.326V83.0938H152.716ZM148.123 78.7188C148.123 78.0417 148.336 77.4844 148.763 77.0469C149.201 76.599 149.784 76.375 150.513 76.375C151.253 76.375 151.836 76.599 152.263 77.0469C152.69 77.4844 152.904 78.0417 152.904 78.7188C152.904 79.3854 152.685 79.9427 152.248 80.3906C151.82 80.8281 151.248 81.0469 150.529 81.0469C149.789 81.0469 149.201 80.8281 148.763 80.3906C148.336 79.9427 148.123 79.3854 148.123 78.7188Z" fill="white"/>
<path d="M161.814 96.6719C162.221 96.6719 162.57 96.5885 162.861 96.4219C163.163 96.2552 163.393 95.9844 163.549 95.6094C163.705 95.2344 163.788 94.75 163.799 94.1562H167.908C167.908 95.4271 167.637 96.526 167.096 97.4531C166.564 98.3698 165.846 99.0781 164.939 99.5781C164.044 100.068 163.028 100.312 161.893 100.312C160.757 100.312 159.768 100.13 158.924 99.7656C158.08 99.401 157.382 98.8698 156.83 98.1719C156.288 97.474 155.877 96.625 155.596 95.625C155.325 94.6146 155.189 93.4583 155.189 92.1562V90.9219C155.189 89.6406 155.325 88.4948 155.596 87.4844C155.877 86.474 156.288 85.6198 156.83 84.9219C157.382 84.224 158.075 83.6927 158.908 83.3281C159.752 82.9635 160.741 82.7812 161.877 82.7812C163.096 82.7812 164.153 83.0365 165.049 83.5469C165.945 84.0469 166.643 84.7865 167.143 85.7656C167.653 86.7448 167.908 87.9531 167.908 89.3906H163.799C163.788 88.7448 163.71 88.2083 163.564 87.7812C163.429 87.3438 163.215 87.0104 162.924 86.7812C162.643 86.5417 162.268 86.4219 161.799 86.4219C161.309 86.4219 160.913 86.526 160.611 86.7344C160.32 86.9323 160.096 87.224 159.939 87.6094C159.794 87.9844 159.695 88.4531 159.643 89.0156C159.59 89.5781 159.564 90.2135 159.564 90.9219V92.1562C159.564 92.9167 159.585 93.5781 159.627 94.1406C159.679 94.6927 159.778 95.1615 159.924 95.5469C160.08 95.9219 160.304 96.2031 160.596 96.3906C160.898 96.5781 161.304 96.6719 161.814 96.6719Z" fill="white"/>
<path d="M177.444 95.4375C177.444 95.1458 177.345 94.8854 177.147 94.6562C176.949 94.4271 176.636 94.1927 176.209 93.9531C175.782 93.7031 175.215 93.4271 174.506 93.125C173.735 92.8125 173.053 92.4896 172.459 92.1562C171.866 91.8229 171.36 91.4531 170.944 91.0469C170.537 90.6406 170.23 90.1771 170.022 89.6562C169.814 89.1354 169.709 88.5417 169.709 87.875C169.709 87.1562 169.84 86.4948 170.1 85.8906C170.371 85.276 170.756 84.7396 171.256 84.2812C171.756 83.8125 172.366 83.4479 173.084 83.1875C173.814 82.9167 174.631 82.7812 175.537 82.7812C176.808 82.7812 177.897 83.0052 178.803 83.4531C179.72 83.8906 180.423 84.5052 180.912 85.2969C181.402 86.0885 181.647 87.0104 181.647 88.0625H177.272C177.272 87.6875 177.215 87.3542 177.1 87.0625C176.985 86.7604 176.798 86.526 176.537 86.3594C176.287 86.1927 175.949 86.1094 175.522 86.1094C175.209 86.1094 174.928 86.1771 174.678 86.3125C174.439 86.4479 174.246 86.6302 174.1 86.8594C173.965 87.0781 173.897 87.3385 173.897 87.6406C173.897 87.8698 173.944 88.0729 174.037 88.25C174.142 88.4271 174.303 88.599 174.522 88.7656C174.741 88.9323 175.032 89.1094 175.397 89.2969C175.772 89.474 176.23 89.6719 176.772 89.8906C177.897 90.3073 178.819 90.7552 179.537 91.2344C180.267 91.7135 180.808 92.276 181.162 92.9219C181.517 93.5573 181.694 94.3438 181.694 95.2812C181.694 96.0312 181.548 96.7135 181.256 97.3281C180.975 97.9427 180.564 98.474 180.022 98.9219C179.48 99.3698 178.829 99.7135 178.069 99.9531C177.319 100.193 176.48 100.312 175.553 100.312C174.189 100.312 173.037 100.042 172.1 99.5C171.162 98.9583 170.454 98.2656 169.975 97.4219C169.496 96.5677 169.256 95.6823 169.256 94.7656H173.412C173.433 95.3281 173.537 95.7708 173.725 96.0938C173.923 96.4062 174.189 96.625 174.522 96.75C174.855 96.875 175.225 96.9375 175.631 96.9375C176.037 96.9375 176.371 96.8854 176.631 96.7812C176.902 96.6667 177.105 96.4948 177.241 96.2656C177.376 96.026 177.444 95.75 177.444 95.4375Z" fill="white"/>
<path d="M196.312 100H191.921V81.625C191.921 80.3229 192.145 79.2344 192.593 78.3594C193.041 77.4844 193.671 76.8177 194.484 76.3594C195.307 75.901 196.281 75.6719 197.406 75.6719C197.77 75.6719 198.114 75.7031 198.437 75.7656C198.77 75.8177 199.093 75.8906 199.406 75.9844L199.359 79.4688C199.223 79.4271 199.062 79.3958 198.874 79.375C198.687 79.3542 198.489 79.3438 198.281 79.3438C197.864 79.3438 197.505 79.4323 197.202 79.6094C196.911 79.7865 196.687 80.0417 196.531 80.375C196.385 80.7083 196.312 81.125 196.312 81.625V100ZM198.952 83.0938V86.3906H189.859V83.0938H198.952Z" fill="white"/>
<path d="M200.41 92.125V90.9844C200.41 89.6615 200.566 88.4896 200.879 87.4688C201.202 86.4479 201.66 85.5938 202.254 84.9062C202.848 84.2083 203.561 83.6823 204.394 83.3281C205.238 82.9635 206.181 82.7812 207.223 82.7812C208.275 82.7812 209.217 82.9635 210.051 83.3281C210.894 83.6823 211.613 84.2083 212.207 84.9062C212.811 85.5938 213.275 86.4479 213.598 87.4688C213.92 88.4896 214.082 89.6615 214.082 90.9844V92.125C214.082 93.4375 213.92 94.6042 213.598 95.625C213.275 96.6458 212.811 97.5052 212.207 98.2031C211.613 98.901 210.9 99.4271 210.066 99.7812C209.233 100.135 208.295 100.312 207.254 100.312C206.212 100.312 205.269 100.135 204.426 99.7812C203.592 99.4271 202.874 98.901 202.269 98.2031C201.665 97.5052 201.202 96.6458 200.879 95.625C200.566 94.6042 200.41 93.4375 200.41 92.125ZM204.785 90.9844V92.125C204.785 92.9062 204.837 93.5833 204.941 94.1562C205.056 94.7292 205.217 95.2031 205.426 95.5781C205.644 95.9531 205.905 96.2292 206.207 96.4062C206.509 96.5833 206.858 96.6719 207.254 96.6719C207.65 96.6719 208.004 96.5833 208.316 96.4062C208.629 96.2292 208.884 95.9531 209.082 95.5781C209.29 95.2031 209.441 94.7292 209.535 94.1562C209.639 93.5833 209.691 92.9062 209.691 92.125V90.9844C209.691 90.224 209.634 89.5573 209.519 88.9844C209.405 88.401 209.243 87.9271 209.035 87.5625C208.827 87.1875 208.566 86.9062 208.254 86.7188C207.952 86.5208 207.608 86.4219 207.223 86.4219C206.837 86.4219 206.493 86.5208 206.191 86.7188C205.9 86.9062 205.644 87.1875 205.426 87.5625C205.217 87.9271 205.056 88.401 204.941 88.9844C204.837 89.5573 204.785 90.224 204.785 90.9844Z" fill="white"/>
<path d="M220.743 86.8594V100H216.368V83.0938H220.493L220.743 86.8594ZM224.727 82.9688L224.664 87.3281C224.466 87.2865 224.227 87.2552 223.946 87.2344C223.675 87.2135 223.435 87.2031 223.227 87.2031C222.737 87.2031 222.321 87.2812 221.977 87.4375C221.633 87.5833 221.347 87.8073 221.118 88.1094C220.899 88.401 220.732 88.7656 220.618 89.2031C220.503 89.6406 220.435 90.1354 220.414 90.6875L219.586 90.375C219.586 89.2708 219.67 88.2604 219.836 87.3438C220.013 86.4167 220.274 85.6146 220.618 84.9375C220.961 84.25 221.373 83.7188 221.852 83.3438C222.341 82.9688 222.894 82.7812 223.508 82.7812C223.716 82.7812 223.935 82.8021 224.164 82.8438C224.404 82.875 224.591 82.9167 224.727 82.9688Z" fill="white"/>
<path d="M233.611 77.25H240.908C242.428 77.25 243.725 77.5104 244.798 78.0312C245.871 78.5521 246.694 79.3229 247.267 80.3438C247.84 81.3646 248.126 82.625 248.126 84.125C248.126 85.3542 247.96 86.4062 247.626 87.2812C247.293 88.1458 246.819 88.8698 246.204 89.4531C245.59 90.026 244.855 90.4844 244.001 90.8281L242.611 91.6562H236.689L236.673 87.8594H240.783C241.408 87.8594 241.923 87.724 242.329 87.4531C242.746 87.1719 243.053 86.7812 243.251 86.2812C243.46 85.7708 243.564 85.1771 243.564 84.5C243.564 83.7812 243.47 83.1667 243.283 82.6562C243.105 82.1354 242.819 81.7396 242.423 81.4688C242.038 81.1875 241.533 81.0469 240.908 81.0469H238.189V100H233.611V77.25ZM243.939 100L239.767 89.8594L244.564 89.8438L248.829 99.7812V100H243.939Z" fill="white"/>
<path d="M257.428 100.312C256.271 100.312 255.245 100.135 254.349 99.7812C253.464 99.4271 252.714 98.9167 252.099 98.25C251.485 97.5729 251.016 96.7552 250.693 95.7969C250.37 94.8385 250.209 93.7448 250.209 92.5156V91.125C250.209 89.75 250.365 88.5469 250.678 87.5156C250.99 86.474 251.433 85.599 252.006 84.8906C252.579 84.1823 253.282 83.6562 254.115 83.3125C254.959 82.9583 255.912 82.7812 256.974 82.7812C258.037 82.7812 258.969 82.9583 259.771 83.3125C260.584 83.6562 261.256 84.1771 261.787 84.875C262.318 85.5625 262.719 86.4167 262.99 87.4375C263.261 88.4583 263.396 89.6458 263.396 91V93H252.068V89.9219H259.099V89.5312C259.099 88.8438 259.026 88.2708 258.881 87.8125C258.735 87.3438 258.506 86.9948 258.193 86.7656C257.881 86.5365 257.464 86.4219 256.943 86.4219C256.506 86.4219 256.136 86.5104 255.834 86.6875C255.532 86.8646 255.292 87.1406 255.115 87.5156C254.938 87.8906 254.808 88.3802 254.724 88.9844C254.641 89.5781 254.599 90.2917 254.599 91.125V92.5156C254.599 93.2969 254.667 93.9531 254.803 94.4844C254.938 95.0052 255.136 95.4323 255.396 95.7656C255.667 96.0885 255.995 96.3229 256.381 96.4688C256.766 96.6042 257.214 96.6719 257.724 96.6719C258.495 96.6719 259.188 96.5365 259.803 96.2656C260.428 95.9844 260.959 95.6042 261.396 95.125L263.146 97.7812C262.844 98.1771 262.428 98.5729 261.896 98.9688C261.365 99.3646 260.73 99.6875 259.99 99.9375C259.25 100.188 258.396 100.312 257.428 100.312Z" fill="white"/>
<path d="M270.213 96.625L272.932 83.0938H277.494L272.854 100H270.119L270.213 96.625ZM268.604 83.0938L271.369 96.6406L271.416 100H268.666L264.026 83.0938H268.604Z" fill="white"/>
<path d="M283.717 83.0938V100H279.327V83.0938H283.717ZM279.124 78.7188C279.124 78.0417 279.337 77.4844 279.764 77.0469C280.202 76.599 280.785 76.375 281.514 76.375C282.254 76.375 282.837 76.599 283.264 77.0469C283.691 77.4844 283.905 78.0417 283.905 78.7188C283.905 79.3854 283.686 79.9427 283.249 80.3906C282.822 80.8281 282.249 81.0469 281.53 81.0469C280.79 81.0469 280.202 80.8281 279.764 80.3906C279.337 79.9427 279.124 79.3854 279.124 78.7188Z" fill="white"/>
<path d="M293.519 100.312C292.363 100.312 291.336 100.135 290.441 99.7812C289.555 99.4271 288.805 98.9167 288.191 98.25C287.576 97.5729 287.107 96.7552 286.784 95.7969C286.461 94.8385 286.3 93.7448 286.3 92.5156V91.125C286.3 89.75 286.456 88.5469 286.769 87.5156C287.081 86.474 287.524 85.599 288.097 84.8906C288.67 84.1823 289.373 83.6562 290.206 83.3125C291.05 82.9583 292.003 82.7812 293.066 82.7812C294.128 82.7812 295.06 82.9583 295.863 83.3125C296.675 83.6562 297.347 84.1771 297.878 84.875C298.409 85.5625 298.81 86.4167 299.081 87.4375C299.352 88.4583 299.488 89.6458 299.488 91V93H288.159V89.9219H295.191V89.5312C295.191 88.8438 295.118 88.2708 294.972 87.8125C294.826 87.3438 294.597 86.9948 294.284 86.7656C293.972 86.5365 293.555 86.4219 293.034 86.4219C292.597 86.4219 292.227 86.5104 291.925 86.6875C291.623 86.8646 291.383 87.1406 291.206 87.5156C291.029 87.8906 290.899 88.3802 290.816 88.9844C290.732 89.5781 290.691 90.2917 290.691 91.125V92.5156C290.691 93.2969 290.758 93.9531 290.894 94.4844C291.029 95.0052 291.227 95.4323 291.488 95.7656C291.758 96.0885 292.086 96.3229 292.472 96.4688C292.857 96.6042 293.305 96.6719 293.816 96.6719C294.586 96.6719 295.279 96.5365 295.894 96.2656C296.519 95.9844 297.05 95.6042 297.488 95.125L299.238 97.7812C298.935 98.1771 298.519 98.5729 297.988 98.9688C297.456 99.3646 296.821 99.6875 296.081 99.9375C295.342 100.188 294.488 100.312 293.519 100.312Z" fill="white"/>
<path d="M305.508 95.5469L308.461 83.0938H311.211L310.539 88.1562L307.633 100H305.336L305.508 95.5469ZM304.664 83.0938L306.679 95.5156L306.664 100H303.976L300.461 83.0938H304.664ZM313.429 95.3125L315.383 83.0938H319.617L316.086 100H313.398L313.429 95.3125ZM311.586 83.0938L314.539 95.4531L314.742 100H312.445L309.539 88.1875L308.883 83.0938H311.586Z" fill="white"/>
<path d="M111.516 271.078H106.859L106.844 267.766H110.812C111.438 267.766 111.948 267.661 112.344 267.453C112.75 267.234 113.047 266.917 113.234 266.5C113.432 266.073 113.531 265.557 113.531 264.953C113.531 264.255 113.443 263.698 113.266 263.281C113.089 262.854 112.802 262.542 112.406 262.344C112.01 262.146 111.495 262.047 110.859 262.047H108.422V281H103.844V258.25H110.859C111.995 258.25 113.01 258.375 113.906 258.625C114.802 258.875 115.562 259.255 116.188 259.766C116.812 260.276 117.286 260.922 117.609 261.703C117.943 262.484 118.109 263.406 118.109 264.469C118.109 265.406 117.922 266.271 117.547 267.062C117.172 267.854 116.583 268.5 115.781 269C114.99 269.5 113.953 269.781 112.672 269.844L111.516 271.078ZM111.359 281H105.562L107.391 277.219H111.359C111.964 277.219 112.453 277.089 112.828 276.828C113.203 276.568 113.474 276.219 113.641 275.781C113.807 275.333 113.891 274.823 113.891 274.25C113.891 273.604 113.812 273.042 113.656 272.562C113.51 272.083 113.266 271.719 112.922 271.469C112.578 271.208 112.115 271.078 111.531 271.078H107.594L107.625 267.766H112.406L113.484 269.078C114.703 269.036 115.677 269.271 116.406 269.781C117.135 270.281 117.656 270.938 117.969 271.75C118.292 272.552 118.453 273.406 118.453 274.312C118.453 275.771 118.177 277 117.625 278C117.083 278.99 116.286 279.74 115.234 280.25C114.182 280.75 112.891 281 111.359 281Z" fill="white"/>
<path d="M125.489 267.859V281H121.114V264.094H125.239L125.489 267.859ZM129.473 263.969L129.411 268.328C129.213 268.286 128.973 268.255 128.692 268.234C128.421 268.214 128.181 268.203 127.973 268.203C127.484 268.203 127.067 268.281 126.723 268.438C126.379 268.583 126.093 268.807 125.864 269.109C125.645 269.401 125.478 269.766 125.364 270.203C125.249 270.641 125.181 271.135 125.161 271.688L124.333 271.375C124.333 270.271 124.416 269.26 124.583 268.344C124.76 267.417 125.02 266.615 125.364 265.938C125.708 265.25 126.119 264.719 126.598 264.344C127.088 263.969 127.64 263.781 128.254 263.781C128.463 263.781 128.681 263.802 128.911 263.844C129.15 263.875 129.338 263.917 129.473 263.969Z" fill="white"/>
<path d="M130.165 273.125V271.984C130.165 270.661 130.321 269.49 130.634 268.469C130.957 267.448 131.415 266.594 132.009 265.906C132.603 265.208 133.316 264.682 134.149 264.328C134.993 263.964 135.936 263.781 136.978 263.781C138.03 263.781 138.972 263.964 139.806 264.328C140.649 264.682 141.368 265.208 141.962 265.906C142.566 266.594 143.03 267.448 143.353 268.469C143.675 269.49 143.837 270.661 143.837 271.984V273.125C143.837 274.438 143.675 275.604 143.353 276.625C143.03 277.646 142.566 278.505 141.962 279.203C141.368 279.901 140.655 280.427 139.821 280.781C138.988 281.135 138.05 281.312 137.009 281.312C135.967 281.312 135.024 281.135 134.181 280.781C133.347 280.427 132.629 279.901 132.024 279.203C131.42 278.505 130.957 277.646 130.634 276.625C130.321 275.604 130.165 274.438 130.165 273.125ZM134.54 271.984V273.125C134.54 273.906 134.592 274.583 134.696 275.156C134.811 275.729 134.972 276.203 135.181 276.578C135.399 276.953 135.66 277.229 135.962 277.406C136.264 277.583 136.613 277.672 137.009 277.672C137.405 277.672 137.759 277.583 138.071 277.406C138.384 277.229 138.639 276.953 138.837 276.578C139.045 276.203 139.196 275.729 139.29 275.156C139.394 274.583 139.446 273.906 139.446 273.125V271.984C139.446 271.224 139.389 270.557 139.274 269.984C139.16 269.401 138.998 268.927 138.79 268.562C138.582 268.188 138.321 267.906 138.009 267.719C137.707 267.521 137.363 267.422 136.978 267.422C136.592 267.422 136.248 267.521 135.946 267.719C135.655 267.906 135.399 268.188 135.181 268.562C134.972 268.927 134.811 269.401 134.696 269.984C134.592 270.557 134.54 271.224 134.54 271.984Z" fill="white"/>
<path d="M150.091 276.547L153.044 264.094H155.794L155.123 269.156L152.216 281H149.919L150.091 276.547ZM149.248 264.094L151.263 276.516L151.248 281H148.56L145.044 264.094H149.248ZM158.013 276.312L159.966 264.094H164.201L160.669 281H157.982L158.013 276.312ZM156.169 264.094L159.123 276.453L159.326 281H157.029L154.123 269.188L153.466 264.094H156.169Z" fill="white"/>
<path d="M173.424 276.438C173.424 276.146 173.325 275.885 173.127 275.656C172.929 275.427 172.616 275.193 172.189 274.953C171.762 274.703 171.195 274.427 170.486 274.125C169.715 273.812 169.033 273.49 168.439 273.156C167.846 272.823 167.34 272.453 166.924 272.047C166.518 271.641 166.21 271.177 166.002 270.656C165.794 270.135 165.689 269.542 165.689 268.875C165.689 268.156 165.82 267.495 166.08 266.891C166.351 266.276 166.736 265.74 167.236 265.281C167.736 264.812 168.346 264.448 169.064 264.188C169.794 263.917 170.611 263.781 171.518 263.781C172.788 263.781 173.877 264.005 174.783 264.453C175.7 264.891 176.403 265.505 176.893 266.297C177.382 267.089 177.627 268.01 177.627 269.062H173.252C173.252 268.688 173.195 268.354 173.08 268.062C172.965 267.76 172.778 267.526 172.518 267.359C172.268 267.193 171.929 267.109 171.502 267.109C171.189 267.109 170.908 267.177 170.658 267.312C170.419 267.448 170.226 267.63 170.08 267.859C169.945 268.078 169.877 268.339 169.877 268.641C169.877 268.87 169.924 269.073 170.018 269.25C170.122 269.427 170.283 269.599 170.502 269.766C170.721 269.932 171.012 270.109 171.377 270.297C171.752 270.474 172.21 270.672 172.752 270.891C173.877 271.307 174.799 271.755 175.518 272.234C176.247 272.714 176.788 273.276 177.143 273.922C177.497 274.557 177.674 275.344 177.674 276.281C177.674 277.031 177.528 277.714 177.236 278.328C176.955 278.943 176.544 279.474 176.002 279.922C175.46 280.37 174.809 280.714 174.049 280.953C173.299 281.193 172.46 281.312 171.533 281.312C170.169 281.312 169.018 281.042 168.08 280.5C167.143 279.958 166.434 279.266 165.955 278.422C165.476 277.568 165.236 276.682 165.236 275.766H169.393C169.413 276.328 169.518 276.771 169.705 277.094C169.903 277.406 170.169 277.625 170.502 277.75C170.835 277.875 171.205 277.938 171.611 277.938C172.018 277.938 172.351 277.885 172.611 277.781C172.882 277.667 173.085 277.495 173.221 277.266C173.356 277.026 173.424 276.75 173.424 276.438Z" fill="white"/>
<path d="M184.569 264.094V281H180.178V264.094H184.569ZM179.975 259.719C179.975 259.042 180.189 258.484 180.616 258.047C181.053 257.599 181.636 257.375 182.366 257.375C183.105 257.375 183.689 257.599 184.116 258.047C184.543 258.484 184.756 259.042 184.756 259.719C184.756 260.385 184.537 260.943 184.1 261.391C183.673 261.828 183.1 262.047 182.381 262.047C181.642 262.047 181.053 261.828 180.616 261.391C180.189 260.943 179.975 260.385 179.975 259.719Z" fill="white"/>
<path d="M191.854 267.703V281H187.464V264.094H191.573L191.854 267.703ZM191.198 271.969L190.026 272C190.005 270.729 190.125 269.589 190.386 268.578C190.656 267.568 191.037 266.708 191.526 266C192.026 265.281 192.62 264.734 193.308 264.359C194.005 263.974 194.781 263.781 195.636 263.781C196.292 263.781 196.891 263.896 197.433 264.125C197.985 264.354 198.459 264.719 198.854 265.219C199.25 265.719 199.558 266.385 199.776 267.219C199.995 268.042 200.104 269.052 200.104 270.25V281H195.714V270.219C195.714 269.49 195.641 268.927 195.495 268.531C195.349 268.125 195.13 267.844 194.839 267.688C194.547 267.521 194.183 267.438 193.745 267.438C193.328 267.438 192.959 267.557 192.636 267.797C192.313 268.026 192.042 268.344 191.823 268.75C191.615 269.156 191.453 269.635 191.339 270.188C191.235 270.74 191.188 271.333 191.198 271.969Z" fill="white"/>
<path d="M211.718 264.094H215.687V281C215.687 282.542 215.39 283.802 214.796 284.781C214.213 285.771 213.395 286.495 212.343 286.953C211.301 287.422 210.083 287.656 208.687 287.656C208.156 287.656 207.557 287.583 206.89 287.438C206.234 287.292 205.598 287.068 204.984 286.766C204.369 286.474 203.864 286.12 203.468 285.703L204.952 282.672C205.359 283.078 205.89 283.422 206.546 283.703C207.202 283.995 207.848 284.141 208.484 284.141C209.098 284.141 209.609 284.042 210.015 283.844C210.432 283.656 210.744 283.333 210.952 282.875C211.171 282.417 211.281 281.802 211.281 281.031V268.016L211.718 264.094ZM202.281 273.141V272.016C202.281 270.641 202.411 269.438 202.671 268.406C202.932 267.375 203.307 266.516 203.796 265.828C204.286 265.141 204.885 264.63 205.593 264.297C206.312 263.953 207.114 263.781 207.999 263.781C208.926 263.781 209.702 263.984 210.327 264.391C210.952 264.786 211.458 265.344 211.843 266.062C212.239 266.781 212.541 267.63 212.749 268.609C212.968 269.589 213.135 270.661 213.249 271.828V273.453C213.135 274.557 212.947 275.589 212.687 276.547C212.437 277.505 212.104 278.339 211.687 279.047C211.27 279.755 210.76 280.312 210.156 280.719C209.551 281.115 208.822 281.312 207.968 281.312C207.093 281.312 206.301 281.135 205.593 280.781C204.895 280.427 204.296 279.906 203.796 279.219C203.307 278.521 202.932 277.667 202.671 276.656C202.411 275.635 202.281 274.464 202.281 273.141ZM206.671 272.016V273.141C206.671 273.932 206.718 274.615 206.812 275.188C206.916 275.75 207.072 276.214 207.281 276.578C207.489 276.932 207.755 277.198 208.077 277.375C208.411 277.542 208.801 277.625 209.249 277.625C209.885 277.625 210.39 277.479 210.765 277.188C211.15 276.885 211.432 276.474 211.609 275.953C211.796 275.422 211.9 274.812 211.921 274.125V271.172C211.911 270.599 211.843 270.083 211.718 269.625C211.604 269.167 211.442 268.776 211.234 268.453C211.025 268.13 210.755 267.88 210.421 267.703C210.098 267.526 209.718 267.438 209.281 267.438C208.833 267.438 208.447 267.526 208.124 267.703C207.801 267.88 207.531 268.156 207.312 268.531C207.104 268.896 206.942 269.37 206.827 269.953C206.723 270.526 206.671 271.214 206.671 272.016Z" fill="white"/>
<path d="M238.196 267.469V271.25H228.868V267.469H238.196ZM230.164 258.25V281H225.586V258.25H230.164ZM241.508 258.25V281H236.977V258.25H241.508Z" fill="white"/>
<path d="M249.137 264.094V281H244.747V264.094H249.137ZM244.544 259.719C244.544 259.042 244.757 258.484 245.184 258.047C245.622 257.599 246.205 257.375 246.934 257.375C247.674 257.375 248.257 257.599 248.684 258.047C249.111 258.484 249.325 259.042 249.325 259.719C249.325 260.385 249.106 260.943 248.669 261.391C248.242 261.828 247.669 262.047 246.95 262.047C246.21 262.047 245.622 261.828 245.184 261.391C244.757 260.943 244.544 260.385 244.544 259.719Z" fill="white"/>
<path d="M259.626 276.438C259.626 276.146 259.527 275.885 259.329 275.656C259.131 275.427 258.819 275.193 258.392 274.953C257.965 274.703 257.397 274.427 256.689 274.125C255.918 273.812 255.236 273.49 254.642 273.156C254.048 272.823 253.543 272.453 253.126 272.047C252.72 271.641 252.413 271.177 252.204 270.656C251.996 270.135 251.892 269.542 251.892 268.875C251.892 268.156 252.022 267.495 252.283 266.891C252.553 266.276 252.939 265.74 253.439 265.281C253.939 264.812 254.548 264.448 255.267 264.188C255.996 263.917 256.814 263.781 257.72 263.781C258.991 263.781 260.079 264.005 260.986 264.453C261.902 264.891 262.605 265.505 263.095 266.297C263.585 267.089 263.829 268.01 263.829 269.062H259.454C259.454 268.688 259.397 268.354 259.283 268.062C259.168 267.76 258.98 267.526 258.72 267.359C258.47 267.193 258.131 267.109 257.704 267.109C257.392 267.109 257.111 267.177 256.861 267.312C256.621 267.448 256.428 267.63 256.283 267.859C256.147 268.078 256.079 268.339 256.079 268.641C256.079 268.87 256.126 269.073 256.22 269.25C256.324 269.427 256.486 269.599 256.704 269.766C256.923 269.932 257.215 270.109 257.579 270.297C257.954 270.474 258.413 270.672 258.954 270.891C260.079 271.307 261.001 271.755 261.72 272.234C262.449 272.714 262.991 273.276 263.345 273.922C263.699 274.557 263.876 275.344 263.876 276.281C263.876 277.031 263.73 277.714 263.439 278.328C263.158 278.943 262.746 279.474 262.204 279.922C261.663 280.37 261.012 280.714 260.251 280.953C259.501 281.193 258.663 281.312 257.736 281.312C256.371 281.312 255.22 281.042 254.283 280.5C253.345 279.958 252.637 279.266 252.158 278.422C251.678 277.568 251.439 276.682 251.439 275.766H255.595C255.616 276.328 255.72 276.771 255.908 277.094C256.105 277.406 256.371 277.625 256.704 277.75C257.038 277.875 257.408 277.938 257.814 277.938C258.22 277.938 258.553 277.885 258.814 277.781C259.085 277.667 259.288 277.495 259.423 277.266C259.559 277.026 259.626 276.75 259.626 276.438Z" fill="white"/>
<path d="M273.553 264.094V267.391H264.928V264.094H273.553ZM266.912 259.922H271.271V275.844C271.271 276.312 271.318 276.672 271.412 276.922C271.506 277.172 271.646 277.349 271.834 277.453C272.032 277.547 272.292 277.594 272.615 277.594C272.834 277.594 273.037 277.583 273.224 277.562C273.412 277.531 273.553 277.5 273.646 277.469V280.891C273.303 281.026 272.938 281.13 272.553 281.203C272.178 281.276 271.73 281.312 271.209 281.312C270.334 281.312 269.573 281.146 268.928 280.812C268.292 280.479 267.797 279.948 267.443 279.219C267.089 278.479 266.912 277.51 266.912 276.312V259.922Z" fill="white"/>
<path d="M274.541 273.125V271.984C274.541 270.661 274.697 269.49 275.01 268.469C275.333 267.448 275.791 266.594 276.385 265.906C276.979 265.208 277.692 264.682 278.526 264.328C279.369 263.964 280.312 263.781 281.354 263.781C282.406 263.781 283.349 263.964 284.182 264.328C285.026 264.682 285.744 265.208 286.338 265.906C286.942 266.594 287.406 267.448 287.729 268.469C288.052 269.49 288.213 270.661 288.213 271.984V273.125C288.213 274.438 288.052 275.604 287.729 276.625C287.406 277.646 286.942 278.505 286.338 279.203C285.744 279.901 285.031 280.427 284.197 280.781C283.364 281.135 282.427 281.312 281.385 281.312C280.343 281.312 279.401 281.135 278.557 280.781C277.724 280.427 277.005 279.901 276.401 279.203C275.796 278.505 275.333 277.646 275.01 276.625C274.697 275.604 274.541 274.438 274.541 273.125ZM278.916 271.984V273.125C278.916 273.906 278.968 274.583 279.072 275.156C279.187 275.729 279.349 276.203 279.557 276.578C279.776 276.953 280.036 277.229 280.338 277.406C280.64 277.583 280.989 277.672 281.385 277.672C281.781 277.672 282.135 277.583 282.447 277.406C282.76 277.229 283.015 276.953 283.213 276.578C283.421 276.203 283.572 275.729 283.666 275.156C283.77 274.583 283.822 273.906 283.822 273.125V271.984C283.822 271.224 283.765 270.557 283.651 269.984C283.536 269.401 283.375 268.927 283.166 268.562C282.958 268.188 282.697 267.906 282.385 267.719C282.083 267.521 281.739 267.422 281.354 267.422C280.968 267.422 280.625 267.521 280.322 267.719C280.031 267.906 279.776 268.188 279.557 268.562C279.349 268.927 279.187 269.401 279.072 269.984C278.968 270.557 278.916 271.224 278.916 271.984Z" fill="white"/>
<path d="M294.874 267.859V281H290.499V264.094H294.624L294.874 267.859ZM298.858 263.969L298.796 268.328C298.598 268.286 298.358 268.255 298.077 268.234C297.806 268.214 297.566 268.203 297.358 268.203C296.869 268.203 296.452 268.281 296.108 268.438C295.764 268.583 295.478 268.807 295.249 269.109C295.03 269.401 294.863 269.766 294.749 270.203C294.634 270.641 294.566 271.135 294.546 271.688L293.717 271.375C293.717 270.271 293.801 269.26 293.967 268.344C294.145 267.417 294.405 266.615 294.749 265.938C295.092 265.25 295.504 264.719 295.983 264.344C296.473 263.969 297.025 263.781 297.639 263.781C297.848 263.781 298.066 263.802 298.296 263.844C298.535 263.875 298.723 263.917 298.858 263.969Z" fill="white"/>
<path d="M305.144 279.062L308.675 264.094H313.238L307.675 283.531C307.55 283.958 307.378 284.417 307.159 284.906C306.941 285.406 306.649 285.875 306.284 286.312C305.93 286.76 305.482 287.125 304.941 287.406C304.399 287.688 303.748 287.828 302.988 287.828C302.602 287.828 302.29 287.802 302.05 287.75C301.821 287.708 301.529 287.635 301.175 287.531V284.125C301.269 284.125 301.357 284.125 301.441 284.125C301.534 284.135 301.623 284.141 301.706 284.141C302.196 284.141 302.586 284.073 302.878 283.938C303.17 283.812 303.404 283.615 303.581 283.344C303.769 283.073 303.925 282.734 304.05 282.328L305.144 279.062ZM304.238 264.094L306.863 276.219L307.456 281.156L304.503 281.438L299.55 264.094H304.238Z" fill="white"/>
<path d="M335.965 268V271.672H322.277V268H335.965Z" fill="white"/>
<path d="M349.099 258.25L352.568 268.5L356.005 258.25H360.989L354.864 272.734V281H350.255V272.734L344.13 258.25H349.099Z" fill="white"/>
<path d="M368.181 281.312C367.025 281.312 365.999 281.135 365.103 280.781C364.218 280.427 363.468 279.917 362.853 279.25C362.239 278.573 361.77 277.755 361.447 276.797C361.124 275.839 360.962 274.745 360.962 273.516V272.125C360.962 270.75 361.119 269.547 361.431 268.516C361.744 267.474 362.186 266.599 362.759 265.891C363.332 265.182 364.035 264.656 364.869 264.312C365.712 263.958 366.666 263.781 367.728 263.781C368.791 263.781 369.723 263.958 370.525 264.312C371.337 264.656 372.009 265.177 372.541 265.875C373.072 266.562 373.473 267.417 373.744 268.438C374.015 269.458 374.15 270.646 374.15 272V274H362.822V270.922H369.853V270.531C369.853 269.844 369.78 269.271 369.634 268.812C369.489 268.344 369.259 267.995 368.947 267.766C368.634 267.536 368.218 267.422 367.697 267.422C367.259 267.422 366.89 267.51 366.587 267.688C366.285 267.865 366.046 268.141 365.869 268.516C365.692 268.891 365.561 269.38 365.478 269.984C365.395 270.578 365.353 271.292 365.353 272.125V273.516C365.353 274.297 365.421 274.953 365.556 275.484C365.692 276.005 365.89 276.432 366.15 276.766C366.421 277.089 366.749 277.323 367.134 277.469C367.52 277.604 367.968 277.672 368.478 277.672C369.249 277.672 369.942 277.536 370.556 277.266C371.181 276.984 371.712 276.604 372.15 276.125L373.9 278.781C373.598 279.177 373.181 279.573 372.65 279.969C372.119 280.365 371.483 280.688 370.744 280.938C370.004 281.188 369.15 281.312 368.181 281.312Z" fill="white"/>
<path d="M383.701 276.438C383.701 276.146 383.602 275.885 383.404 275.656C383.206 275.427 382.894 275.193 382.467 274.953C382.04 274.703 381.472 274.427 380.764 274.125C379.993 273.812 379.311 273.49 378.717 273.156C378.123 272.823 377.618 272.453 377.201 272.047C376.795 271.641 376.488 271.177 376.279 270.656C376.071 270.135 375.967 269.542 375.967 268.875C375.967 268.156 376.097 267.495 376.358 266.891C376.628 266.276 377.014 265.74 377.514 265.281C378.014 264.812 378.623 264.448 379.342 264.188C380.071 263.917 380.889 263.781 381.795 263.781C383.066 263.781 384.154 264.005 385.061 264.453C385.977 264.891 386.68 265.505 387.17 266.297C387.66 267.089 387.904 268.01 387.904 269.062H383.529C383.529 268.688 383.472 268.354 383.358 268.062C383.243 267.76 383.055 267.526 382.795 267.359C382.545 267.193 382.206 267.109 381.779 267.109C381.467 267.109 381.186 267.177 380.936 267.312C380.696 267.448 380.503 267.63 380.358 267.859C380.222 268.078 380.154 268.339 380.154 268.641C380.154 268.87 380.201 269.073 380.295 269.25C380.399 269.427 380.561 269.599 380.779 269.766C380.998 269.932 381.29 270.109 381.654 270.297C382.029 270.474 382.488 270.672 383.029 270.891C384.154 271.307 385.076 271.755 385.795 272.234C386.524 272.714 387.066 273.276 387.42 273.922C387.774 274.557 387.951 275.344 387.951 276.281C387.951 277.031 387.805 277.714 387.514 278.328C387.233 278.943 386.821 279.474 386.279 279.922C385.738 280.37 385.087 280.714 384.326 280.953C383.576 281.193 382.738 281.312 381.811 281.312C380.446 281.312 379.295 281.042 378.358 280.5C377.42 279.958 376.712 279.266 376.233 278.422C375.753 277.568 375.514 276.682 375.514 275.766H379.67C379.691 276.328 379.795 276.771 379.983 277.094C380.18 277.406 380.446 277.625 380.779 277.75C381.113 277.875 381.483 277.938 381.889 277.938C382.295 277.938 382.628 277.885 382.889 277.781C383.16 277.667 383.363 277.495 383.498 277.266C383.634 277.026 383.701 276.75 383.701 276.438Z" fill="white"/>
<path d="M397.628 264.094V267.391H389.003V264.094H397.628ZM390.987 259.922H395.346V275.844C395.346 276.312 395.393 276.672 395.487 276.922C395.581 277.172 395.721 277.349 395.909 277.453C396.107 277.547 396.367 277.594 396.69 277.594C396.909 277.594 397.112 277.583 397.299 277.562C397.487 277.531 397.628 277.5 397.721 277.469V280.891C397.378 281.026 397.013 281.13 396.628 281.203C396.253 281.276 395.805 281.312 395.284 281.312C394.409 281.312 393.648 281.146 393.003 280.812C392.367 280.479 391.872 279.948 391.518 279.219C391.164 278.479 390.987 277.51 390.987 276.312V259.922Z" fill="white"/>
<path d="M406.397 281.312C405.241 281.312 404.215 281.135 403.319 280.781C402.434 280.427 401.684 279.917 401.069 279.25C400.455 278.573 399.986 277.755 399.663 276.797C399.34 275.839 399.179 274.745 399.179 273.516V272.125C399.179 270.75 399.335 269.547 399.647 268.516C399.96 267.474 400.403 266.599 400.976 265.891C401.549 265.182 402.252 264.656 403.085 264.312C403.929 263.958 404.882 263.781 405.944 263.781C407.007 263.781 407.939 263.958 408.741 264.312C409.554 264.656 410.226 265.177 410.757 265.875C411.288 266.562 411.689 267.417 411.96 268.438C412.231 269.458 412.366 270.646 412.366 272V274H401.038V270.922H408.069V270.531C408.069 269.844 407.996 269.271 407.851 268.812C407.705 268.344 407.476 267.995 407.163 267.766C406.851 267.536 406.434 267.422 405.913 267.422C405.476 267.422 405.106 267.51 404.804 267.688C404.502 267.865 404.262 268.141 404.085 268.516C403.908 268.891 403.778 269.38 403.694 269.984C403.611 270.578 403.569 271.292 403.569 272.125V273.516C403.569 274.297 403.637 274.953 403.772 275.484C403.908 276.005 404.106 276.432 404.366 276.766C404.637 277.089 404.965 277.323 405.351 277.469C405.736 277.604 406.184 277.672 406.694 277.672C407.465 277.672 408.158 277.536 408.772 277.266C409.397 276.984 409.929 276.604 410.366 276.125L412.116 278.781C411.814 279.177 411.397 279.573 410.866 279.969C410.335 280.365 409.7 280.688 408.96 280.938C408.22 281.188 407.366 281.312 406.397 281.312Z" fill="white"/>
<path d="M418.793 267.859V281H414.418V264.094H418.543L418.793 267.859ZM422.777 263.969L422.714 268.328C422.516 268.286 422.277 268.255 421.996 268.234C421.725 268.214 421.485 268.203 421.277 268.203C420.787 268.203 420.371 268.281 420.027 268.438C419.683 268.583 419.397 268.807 419.168 269.109C418.949 269.401 418.782 269.766 418.668 270.203C418.553 270.641 418.485 271.135 418.464 271.688L417.636 271.375C417.636 270.271 417.72 269.26 417.886 268.344C418.063 267.417 418.324 266.615 418.668 265.938C419.011 265.25 419.423 264.719 419.902 264.344C420.391 263.969 420.944 263.781 421.558 263.781C421.766 263.781 421.985 263.802 422.214 263.844C422.454 263.875 422.641 263.917 422.777 263.969Z" fill="white"/>
<path d="M432.406 277.266V257H436.797V281L432.828 281.016L432.406 277.266ZM423.641 273.141V272.016C423.641 270.641 423.755 269.438 423.984 268.406C424.224 267.375 424.578 266.516 425.047 265.828C425.516 265.141 426.089 264.63 426.766 264.297C427.453 263.953 428.24 263.781 429.125 263.781C429.927 263.781 430.63 263.984 431.234 264.391C431.849 264.786 432.37 265.344 432.797 266.062C433.224 266.781 433.568 267.63 433.828 268.609C434.089 269.589 434.271 270.661 434.375 271.828V273.453C434.25 274.557 434.057 275.589 433.797 276.547C433.547 277.505 433.203 278.339 432.766 279.047C432.339 279.755 431.823 280.312 431.219 280.719C430.615 281.115 429.911 281.312 429.109 281.312C428.224 281.312 427.438 281.135 426.75 280.781C426.073 280.427 425.5 279.906 425.031 279.219C424.573 278.521 424.224 277.667 423.984 276.656C423.755 275.635 423.641 274.464 423.641 273.141ZM428.016 272.016V273.141C428.016 273.932 428.052 274.615 428.125 275.188C428.208 275.75 428.339 276.214 428.516 276.578C428.703 276.932 428.948 277.198 429.25 277.375C429.552 277.542 429.927 277.625 430.375 277.625C430.958 277.625 431.432 277.479 431.797 277.188C432.161 276.885 432.432 276.474 432.609 275.953C432.797 275.422 432.901 274.812 432.922 274.125V271.172C432.901 270.599 432.833 270.083 432.719 269.625C432.604 269.167 432.443 268.776 432.234 268.453C432.026 268.13 431.766 267.88 431.453 267.703C431.151 267.526 430.797 267.438 430.391 267.438C429.953 267.438 429.578 267.526 429.266 267.703C428.964 267.88 428.724 268.156 428.547 268.531C428.37 268.896 428.234 269.37 428.141 269.953C428.057 270.526 428.016 271.214 428.016 272.016Z" fill="white"/>
<path d="M447.067 277.109V269.297C447.067 268.786 447.004 268.38 446.879 268.078C446.765 267.776 446.588 267.557 446.348 267.422C446.119 267.276 445.838 267.203 445.504 267.203C445.129 267.203 444.817 267.281 444.567 267.438C444.317 267.594 444.129 267.818 444.004 268.109C443.89 268.401 443.832 268.75 443.832 269.156H439.442C439.442 268.427 439.582 267.74 439.864 267.094C440.145 266.438 440.556 265.865 441.098 265.375C441.65 264.875 442.306 264.484 443.067 264.203C443.827 263.922 444.681 263.781 445.629 263.781C446.754 263.781 447.754 263.974 448.629 264.359C449.504 264.734 450.197 265.333 450.707 266.156C451.218 266.979 451.473 268.047 451.473 269.359V276.891C451.473 277.839 451.52 278.609 451.614 279.203C451.718 279.797 451.869 280.307 452.067 280.734V281H447.661C447.463 280.531 447.312 279.948 447.207 279.25C447.114 278.542 447.067 277.828 447.067 277.109ZM447.598 270.672L447.614 273.297H446.004C445.588 273.297 445.223 273.365 444.911 273.5C444.609 273.635 444.353 273.828 444.145 274.078C443.937 274.318 443.78 274.599 443.676 274.922C443.582 275.245 443.536 275.589 443.536 275.953C443.536 276.359 443.593 276.703 443.707 276.984C443.822 277.266 443.994 277.479 444.223 277.625C444.452 277.771 444.723 277.844 445.036 277.844C445.515 277.844 445.931 277.745 446.286 277.547C446.64 277.349 446.9 277.109 447.067 276.828C447.244 276.547 447.301 276.286 447.239 276.047L448.239 277.75C448.114 278.135 447.942 278.536 447.723 278.953C447.515 279.37 447.249 279.755 446.926 280.109C446.603 280.464 446.202 280.755 445.723 280.984C445.254 281.203 444.697 281.312 444.051 281.312C443.145 281.312 442.317 281.104 441.567 280.688C440.817 280.271 440.223 279.688 439.786 278.938C439.359 278.188 439.145 277.297 439.145 276.266C439.145 275.411 439.28 274.641 439.551 273.953C439.832 273.255 440.249 272.667 440.801 272.188C441.353 271.698 442.051 271.323 442.895 271.062C443.739 270.802 444.728 270.672 445.864 270.672H447.598Z" fill="white"/>
<path d="M458.228 279.062L461.759 264.094H466.321L460.759 283.531C460.634 283.958 460.462 284.417 460.243 284.906C460.024 285.406 459.733 285.875 459.368 286.312C459.014 286.76 458.566 287.125 458.024 287.406C457.483 287.688 456.832 287.828 456.071 287.828C455.686 287.828 455.373 287.802 455.134 287.75C454.905 287.708 454.613 287.635 454.259 287.531V284.125C454.353 284.125 454.441 284.125 454.524 284.125C454.618 284.135 454.707 284.141 454.79 284.141C455.28 284.141 455.67 284.073 455.962 283.938C456.254 283.812 456.488 283.615 456.665 283.344C456.853 283.073 457.009 282.734 457.134 282.328L458.228 279.062ZM457.321 264.094L459.946 276.219L460.54 281.156L457.587 281.438L452.634 264.094H457.321Z" fill="white"/>
<defs>
<filter id="filter0_d_12756_1561" x="69" y="129" width="94.4353" height="71.2148" filterUnits="userSpaceOnUse" color-interpolation-filters="sRGB">
<feFlood flood-opacity="0" result="BackgroundImageFix"/>
<feColorMatrix in="SourceAlpha" type="matrix" values="0 0 0 0 0 0 0 0 0 0 0 0 0 0 0 0 0 0 127 0" result="hardAlpha"/>
<feOffset/>
<feGaussianBlur stdDeviation="0.5"/>
<feComposite in2="hardAlpha" operator="out"/>
<feColorMatrix type="matrix" values="0 0 0 0 0 0 0 0 0 0.603922 0 0 0 0 0.976471 0 0 0 1 0"/>
<feBlend mode="normal" in2="BackgroundImageFix" result="effect1_dropShadow_12756_1561"/>
<feBlend mode="normal" in="SourceGraphic" in2="effect1_dropShadow_12756_1561" result="shape"/>
</filter>
<filter id="filter1_d_12756_1561" x="69" y="310" width="94.4353" height="71.2148" filterUnits="userSpaceOnUse" color-interpolation-filters="sRGB">
<feFlood flood-opacity="0" result="BackgroundImageFix"/>
<feColorMatrix in="SourceAlpha" type="matrix" values="0 0 0 0 0 0 0 0 0 0 0 0 0 0 0 0 0 0 127 0" result="hardAlpha"/>
<feOffset/>
<feGaussianBlur stdDeviation="0.5"/>
<feComposite in2="hardAlpha" operator="out"/>
<feColorMatrix type="matrix" values="0 0 0 0 0 0 0 0 0 0.603922 0 0 0 0 0.976471 0 0 0 1 0"/>
<feBlend mode="normal" in2="BackgroundImageFix" result="effect1_dropShadow_12756_1561"/>
<feBlend mode="normal" in="SourceGraphic" in2="effect1_dropShadow_12756_1561" result="shape"/>
</filter>
<filter id="filter2_d_12756_1561" x="170" y="129" width="94.4353" height="71.2148" filterUnits="userSpaceOnUse" color-interpolation-filters="sRGB">
<feFlood flood-opacity="0" result="BackgroundImageFix"/>
<feColorMatrix in="SourceAlpha" type="matrix" values="0 0 0 0 0 0 0 0 0 0 0 0 0 0 0 0 0 0 127 0" result="hardAlpha"/>
<feOffset/>
<feGaussianBlur stdDeviation="0.5"/>
<feComposite in2="hardAlpha" operator="out"/>
<feColorMatrix type="matrix" values="0 0 0 0 0 0 0 0 0 0.603922 0 0 0 0 0.976471 0 0 0 1 0"/>
<feBlend mode="normal" in2="BackgroundImageFix" result="effect1_dropShadow_12756_1561"/>
<feBlend mode="normal" in="SourceGraphic" in2="effect1_dropShadow_12756_1561" result="shape"/>
</filter>
<filter id="filter3_d_12756_1561" x="170" y="310" width="94.4353" height="71.2148" filterUnits="userSpaceOnUse" color-interpolation-filters="sRGB">
<feFlood flood-opacity="0" result="BackgroundImageFix"/>
<feColorMatrix in="SourceAlpha" type="matrix" values="0 0 0 0 0 0 0 0 0 0 0 0 0 0 0 0 0 0 127 0" result="hardAlpha"/>
<feOffset/>
<feGaussianBlur stdDeviation="0.5"/>
<feComposite in2="hardAlpha" operator="out"/>
<feColorMatrix type="matrix" values="0 0 0 0 0 0 0 0 0 0.603922 0 0 0 0 0.976471 0 0 0 1 0"/>
<feBlend mode="normal" in2="BackgroundImageFix" result="effect1_dropShadow_12756_1561"/>
<feBlend mode="normal" in="SourceGraphic" in2="effect1_dropShadow_12756_1561" result="shape"/>
</filter>
<filter id="filter4_d_12756_1561" x="271" y="129" width="94.4353" height="71.2148" filterUnits="userSpaceOnUse" color-interpolation-filters="sRGB">
<feFlood flood-opacity="0" result="BackgroundImageFix"/>
<feColorMatrix in="SourceAlpha" type="matrix" values="0 0 0 0 0 0 0 0 0 0 0 0 0 0 0 0 0 0 127 0" result="hardAlpha"/>
<feOffset/>
<feGaussianBlur stdDeviation="0.5"/>
<feComposite in2="hardAlpha" operator="out"/>
<feColorMatrix type="matrix" values="0 0 0 0 0 0 0 0 0 0.603922 0 0 0 0 0.976471 0 0 0 1 0"/>
<feBlend mode="normal" in2="BackgroundImageFix" result="effect1_dropShadow_12756_1561"/>
<feBlend mode="normal" in="SourceGraphic" in2="effect1_dropShadow_12756_1561" result="shape"/>
</filter>
<filter id="filter5_d_12756_1561" x="271" y="310" width="94.4353" height="71.2148" filterUnits="userSpaceOnUse" color-interpolation-filters="sRGB">
<feFlood flood-opacity="0" result="BackgroundImageFix"/>
<feColorMatrix in="SourceAlpha" type="matrix" values="0 0 0 0 0 0 0 0 0 0 0 0 0 0 0 0 0 0 127 0" result="hardAlpha"/>
<feOffset/>
<feGaussianBlur stdDeviation="0.5"/>
<feComposite in2="hardAlpha" operator="out"/>
<feColorMatrix type="matrix" values="0 0 0 0 0 0 0 0 0 0.603922 0 0 0 0 0.976471 0 0 0 1 0"/>
<feBlend mode="normal" in2="BackgroundImageFix" result="effect1_dropShadow_12756_1561"/>
<feBlend mode="normal" in="SourceGraphic" in2="effect1_dropShadow_12756_1561" result="shape"/>
</filter>
<filter id="filter6_d_12756_1561" x="372" y="129" width="94.4353" height="71.2148" filterUnits="userSpaceOnUse" color-interpolation-filters="sRGB">
<feFlood flood-opacity="0" result="BackgroundImageFix"/>
<feColorMatrix in="SourceAlpha" type="matrix" values="0 0 0 0 0 0 0 0 0 0 0 0 0 0 0 0 0 0 127 0" result="hardAlpha"/>
<feOffset/>
<feGaussianBlur stdDeviation="0.5"/>
<feComposite in2="hardAlpha" operator="out"/>
<feColorMatrix type="matrix" values="0 0 0 0 0 0 0 0 0 0.603922 0 0 0 0 0.976471 0 0 0 1 0"/>
<feBlend mode="normal" in2="BackgroundImageFix" result="effect1_dropShadow_12756_1561"/>
<feBlend mode="normal" in="SourceGraphic" in2="effect1_dropShadow_12756_1561" result="shape"/>
</filter>
<filter id="filter7_d_12756_1561" x="372" y="310" width="94.4353" height="71.2148" filterUnits="userSpaceOnUse" color-interpolation-filters="sRGB">
<feFlood flood-opacity="0" result="BackgroundImageFix"/>
<feColorMatrix in="SourceAlpha" type="matrix" values="0 0 0 0 0 0 0 0 0 0 0 0 0 0 0 0 0 0 127 0" result="hardAlpha"/>
<feOffset/>
<feGaussianBlur stdDeviation="0.5"/>
<feComposite in2="hardAlpha" operator="out"/>
<feColorMatrix type="matrix" values="0 0 0 0 0 0 0 0 0 0.603922 0 0 0 0 0.976471 0 0 0 1 0"/>
<feBlend mode="normal" in2="BackgroundImageFix" result="effect1_dropShadow_12756_1561"/>
<feBlend mode="normal" in="SourceGraphic" in2="effect1_dropShadow_12756_1561" result="shape"/>
</filter>
</defs>
</svg>
