<svg width="400" height="400" viewBox="0 0 400 400" fill="none" xmlns="http://www.w3.org/2000/svg">
<path d="M205.399 175.673L205.503 177.671L205.54 177.669L205.578 177.665L205.399 175.673ZM251.071 160.204L249.328 159.223L251.071 160.204ZM274.092 103.05L275.408 104.556L274.092 103.05ZM302.667 91.7652C303.17 90.7819 302.78 89.5769 301.797 89.0738L285.773 80.8752C284.789 80.3721 283.584 80.7614 283.081 81.7447C282.578 82.7281 282.967 83.9331 283.951 84.4362L298.195 91.7238L290.907 105.968C290.404 106.951 290.793 108.156 291.777 108.659C292.76 109.162 293.965 108.773 294.468 107.79L302.667 91.7652ZM177.913 212.633C177.288 207.015 177.955 198.508 181.897 191.317C185.765 184.261 192.849 178.329 205.503 177.671L205.295 173.676C191.213 174.409 182.903 181.161 178.39 189.394C173.95 197.493 173.248 206.88 173.938 213.076L177.913 212.633ZM205.578 177.665C208.888 177.367 212.646 177.44 216.804 177.427C220.9 177.414 225.302 177.314 229.644 176.627C238.412 175.241 247.044 171.436 252.814 161.185L249.328 159.223C244.329 168.105 236.972 171.419 229.019 172.676C225 173.312 220.859 173.414 216.791 173.427C212.783 173.44 208.756 173.363 205.219 173.681L205.578 177.665ZM252.814 161.185C259.731 148.893 261.244 138.002 263.149 128.684C265.051 119.376 267.331 111.613 275.408 104.556L272.777 101.544C263.681 109.49 261.179 118.345 259.23 127.883C257.282 137.412 255.871 147.596 249.328 159.223L252.814 161.185ZM275.408 104.556C282.229 98.5972 285.299 96.8717 288.177 95.995C289.699 95.5312 291.177 95.2967 293.341 94.8685C295.462 94.4489 298.041 93.8754 301.501 92.7574L300.271 88.9511C297.002 90.0075 294.583 90.5453 292.565 90.9446C290.59 91.3354 288.787 91.6276 287.011 92.1687C283.291 93.302 279.695 95.5 272.777 101.544L275.408 104.556Z" fill="#52AAFF"/>
<path d="M268.938 209.411C268.702 209.293 263.629 206.659 254.861 204.221V197.025C254.861 195.688 254.193 194.469 253.092 193.722C252.62 193.447 208.935 165.844 156.011 209.686C103.047 165.844 59.4017 193.447 58.9299 193.762C57.8289 194.469 57.1605 195.688 57.1605 197.025V204.221C48.3528 206.659 43.3199 209.293 43.084 209.411C41.7864 210.079 41 211.416 41 212.871V339.992C41 341.172 41.5112 342.273 42.4155 343.02C43.3199 343.767 44.4995 344.082 45.6397 343.846C46.2295 343.767 103.597 333.426 154.045 345.536C154.202 345.536 154.32 345.576 154.438 345.615C154.595 345.615 154.752 345.654 154.87 345.694C155.264 345.812 155.618 345.851 155.971 345.851H156.05C156.404 345.851 156.758 345.812 157.151 345.694C157.269 345.654 157.387 345.615 157.505 345.615C157.662 345.576 157.78 345.536 157.898 345.536C208.346 333.465 265.792 343.767 266.382 343.846C266.948 343.955 267.532 343.937 268.09 343.794C268.649 343.651 269.169 343.385 269.613 343.017C270.057 342.648 270.413 342.186 270.657 341.663C270.9 341.14 271.025 340.569 271.021 339.992V212.871C271.021 211.416 270.196 210.079 268.938 209.411ZM48.864 335.353V215.388C50.5941 214.641 53.4644 213.54 57.1605 212.399V312.311C57.1605 313.373 57.593 314.395 58.3794 315.142C59.1658 315.889 60.2274 316.282 61.2891 316.243C61.7216 316.204 102.221 314.395 141.344 334.999C101.631 328.55 62.1934 333.347 48.864 335.353ZM152.079 332.05C115.865 310.345 77.5282 308.301 65.0245 308.301V199.306C73.2816 194.863 108.552 179.803 152.079 216.606V332.05ZM159.943 216.606C203.47 179.803 238.74 194.863 246.997 199.306V308.301C234.493 308.301 196.156 310.345 159.943 332.01V216.606ZM263.157 335.353C249.828 333.347 210.351 328.55 170.638 334.999C209.761 314.395 250.261 316.204 250.732 316.243C251.755 316.282 252.856 315.889 253.642 315.142C254.428 314.395 254.861 313.373 254.861 312.311V212.399C258.557 213.54 261.388 214.641 263.157 215.388V335.353Z" fill="#418DFE"/>
<path d="M246.997 199.306V308.301C234.493 308.301 196.156 310.346 159.943 332.011V216.607C203.47 179.804 238.74 194.863 246.997 199.306ZM152.079 216.607V332.05C115.865 310.346 77.5282 308.301 65.0244 308.301V199.306C73.2816 194.863 108.552 179.804 152.079 216.607Z" fill="#C8E3F6"/>
<path d="M141.344 334.999C101.631 328.55 62.1934 333.347 48.864 335.353V215.388C50.594 214.641 53.4644 213.54 57.1605 212.399V312.311C57.1605 313.373 57.593 314.395 58.3794 315.142C59.1658 315.889 60.2274 316.283 61.2891 316.243C61.7216 316.204 102.221 314.395 141.344 334.999ZM263.157 215.388V335.353C249.828 333.347 210.351 328.55 170.638 334.999C209.761 314.395 250.261 316.204 250.732 316.243C251.755 316.283 252.856 315.889 253.642 315.142C254.428 314.395 254.861 313.373 254.861 312.311V212.399C258.557 213.54 261.388 214.641 263.157 215.388Z" fill="#004E96"/>
<path d="M342.973 104.784H329.52C329.52 101.838 329.735 99.2736 330.165 97.0893C330.628 94.872 331.39 92.8863 332.449 91.1323C333.508 89.3452 334.931 87.6408 336.718 86.0191C338.273 84.6623 339.63 83.3881 340.789 82.1967C341.947 80.9722 342.84 79.7146 343.469 78.4239C344.098 77.1332 344.412 75.7267 344.412 74.2043C344.412 72.3841 344.131 70.8949 343.569 69.7365C343.039 68.5451 342.245 67.6516 341.186 67.0559C340.16 66.4271 338.869 66.1127 337.314 66.1127C336.023 66.1127 334.815 66.4105 333.69 67.0062C332.565 67.5688 331.654 68.4624 330.959 69.6869C330.264 70.9114 329.884 72.5165 329.818 74.5022H314.23C314.329 69.7696 315.405 65.8976 317.457 62.8859C319.509 59.8412 322.256 57.6073 325.697 56.1843C329.172 54.7281 333.044 54 337.314 54C342.046 54 346.1 54.7446 349.476 56.2339C352.885 57.7232 355.483 59.924 357.27 62.8363C359.09 65.7486 360 69.3063 360 73.5093C360 76.3886 359.454 78.9203 358.362 81.1046C357.27 83.2557 355.814 85.2745 353.993 87.1609C352.173 89.0142 350.154 90.9503 347.937 92.969C346.051 94.6569 344.76 96.4109 344.065 98.2311C343.37 100.018 343.006 102.202 342.973 104.784ZM327.733 119.974C327.733 117.757 328.527 115.887 330.116 114.365C331.737 112.842 333.839 112.081 336.42 112.081C339.001 112.081 341.086 112.842 342.675 114.365C344.263 115.887 345.058 117.757 345.058 119.974C345.058 122.225 344.263 124.111 342.675 125.634C341.086 127.123 339.001 127.867 336.42 127.867C333.839 127.867 331.737 127.123 330.116 125.634C328.527 124.111 327.733 122.225 327.733 119.974Z" fill="#52AAFF"/>
<path d="M219.3 174.08C240.737 174.08 258.114 156.702 258.114 135.266C258.114 113.83 240.737 96.4524 219.3 96.4524C197.864 96.4524 180.487 113.83 180.487 135.266C180.487 156.702 197.864 174.08 219.3 174.08Z" fill="#FE9967"/>
<path d="M222.563 173.947C221.484 174.032 220.404 174.08 219.3 174.08C197.868 174.08 180.487 156.699 180.487 135.266C180.487 113.834 197.868 96.4526 219.3 96.4526C220.404 96.4526 221.484 96.5011 222.563 96.586C202.647 98.2357 187 114.926 187 135.266C187 155.607 202.647 172.297 222.563 173.947Z" fill="#EF8759"/>
<path d="M258.114 135.266C258.114 156.699 240.745 174.08 219.3 174.08C218.209 174.08 217.117 174.032 216.05 173.947C235.954 172.285 251.601 155.595 251.601 135.266C251.601 114.938 235.954 98.2477 216.05 96.586C217.117 96.5011 218.209 96.4526 219.3 96.4526C240.745 96.4526 258.114 113.834 258.114 135.266Z" fill="#FFAC88"/>
<path d="M219.3 166.121C236.341 166.121 250.155 152.307 250.155 135.266C250.155 118.226 236.341 104.412 219.3 104.412C202.26 104.412 188.446 118.226 188.446 135.266C188.446 152.307 202.26 166.121 219.3 166.121Z" fill="#E2E2E2"/>
<path d="M222.527 165.953C221.472 166.063 220.392 166.123 219.3 166.123C202.259 166.123 188.444 152.308 188.444 135.266C188.444 118.225 202.259 104.409 219.3 104.409C220.392 104.409 221.472 104.47 222.527 104.579C207.001 106.192 194.908 119.316 194.908 135.266C194.908 151.216 207.001 164.34 222.527 165.953Z" fill="#D3D3D3"/>
<path d="M222.127 165.664C212.625 159.977 206.177 149.05 206.177 136.479C206.177 122.393 214.269 110.371 225.692 105.479C225.133 105.273 224.621 105.012 224.153 104.703C211.683 108.985 202.623 121.577 202.623 136.479C202.623 149.466 209.505 160.699 219.523 166.212C220.301 165.911 221.169 165.721 222.127 165.664Z" fill="#EDEDED"/>
<path d="M250.155 135.266C250.155 152.308 236.339 166.123 219.298 166.123C218.206 166.123 217.127 166.063 216.071 165.953C231.597 164.34 243.702 151.216 243.702 135.266C243.702 119.316 231.597 106.192 216.071 104.579C217.127 104.47 218.206 104.409 219.298 104.409C236.339 104.409 250.155 118.225 250.155 135.266Z" fill="#EDEDED"/>
<path d="M207.545 148.621C207.236 148.621 206.926 148.504 206.689 148.268C206.215 147.794 206.213 147.027 206.686 146.552L216.12 137.078C216.593 136.607 217.361 136.602 217.836 137.075C218.31 137.549 218.313 138.316 217.84 138.791L208.405 148.265C208.168 148.502 207.857 148.621 207.545 148.621ZM219.302 132.937C218.631 132.937 218.089 132.395 218.089 131.724V116.091C218.089 115.421 218.631 114.878 219.302 114.878C219.972 114.878 220.515 115.421 220.515 116.091V131.724C220.515 132.395 219.972 132.937 219.302 132.937Z" fill="#333333"/>
<path d="M219.3 138.808C221.256 138.808 222.842 137.222 222.842 135.266C222.842 133.31 221.256 131.724 219.3 131.724C217.344 131.724 215.759 133.31 215.759 135.266C215.759 137.222 217.344 138.808 219.3 138.808Z" fill="#666666"/>
<path d="M219.3 112.985C219.971 112.985 220.513 112.442 220.513 111.772V109.964C220.513 109.294 219.971 108.751 219.3 108.751C218.63 108.751 218.087 109.294 218.087 109.964V111.772C218.087 112.442 218.63 112.985 219.3 112.985ZM195.807 134.054H193.999C193.329 134.054 192.786 134.596 192.786 135.266C192.786 135.937 193.329 136.479 193.999 136.479H195.807C196.477 136.479 197.02 135.937 197.02 135.266C197.02 134.596 196.477 134.054 195.807 134.054ZM219.3 157.547C218.63 157.547 218.087 158.089 218.087 158.76V160.567C218.087 161.238 218.63 161.78 219.3 161.78C219.971 161.78 220.513 161.238 220.513 160.567V158.76C220.513 158.089 219.971 157.547 219.3 157.547ZM244.602 134.054H242.795C242.124 134.054 241.582 134.596 241.582 135.266C241.582 135.937 242.124 136.479 242.795 136.479H244.602C245.273 136.479 245.815 135.937 245.815 135.266C245.815 134.596 245.273 134.054 244.602 134.054Z" fill="#666666"/>
<path d="M199.277 120.552C198.712 120.188 197.963 120.356 197.603 120.919C197.497 121.083 197.396 121.252 197.299 121.421C196.965 122.003 197.167 122.744 197.747 123.077C197.938 123.186 198.145 123.238 198.35 123.238C198.77 123.238 199.179 123.019 199.403 122.629C199.481 122.493 199.56 122.358 199.645 122.226C200.006 121.663 199.841 120.912 199.277 120.552ZM212.967 111.272C212.763 110.634 212.085 110.277 211.443 110.483C207.436 111.757 203.739 114.039 200.752 117.084C200.283 117.563 200.29 118.331 200.769 118.8C201.004 119.032 201.311 119.147 201.618 119.147C201.932 119.147 202.247 119.025 202.484 118.783C205.195 116.02 208.547 113.949 212.178 112.795C212.816 112.593 213.169 111.911 212.967 111.272Z" fill="white"/>
</svg>
