<svg width="124" height="30" viewBox="0 0 124 30" fill="none" xmlns="http://www.w3.org/2000/svg">
<path d="M100.329 6.98357V0.796925C100.329 0.356519 100.685 0 101.125 0C101.566 0 101.922 0.356519 101.922 0.796925V2.90458C102.31 2.38029 102.845 1.99231 103.674 1.99231C104.984 1.99231 106.232 3.01992 106.232 4.89689V4.91786C106.232 6.79483 105.005 7.82244 103.674 7.82244C102.824 7.82244 102.3 7.43446 101.922 6.98357V6.99406C101.922 7.42398 101.566 7.7805 101.125 7.7805C100.685 7.7805 100.329 7.42398 100.329 6.98357ZM103.265 6.46977C104.009 6.46977 104.638 5.86159 104.638 4.91786V4.89689C104.638 3.96365 104.009 3.34498 103.265 3.34498C102.52 3.34498 101.901 3.96365 101.901 4.89689V4.91786C101.901 5.8511 102.52 6.46977 103.265 6.46977Z" fill="url(#paint0_linear_12604_27515)"/>
<path d="M108.694 4.46697H111.095C111.001 3.75393 110.582 3.27158 109.911 3.27158C109.25 3.27158 108.82 3.74345 108.694 4.46697ZM112.018 7.16183C111.525 7.58127 110.886 7.84341 110.068 7.84341C108.38 7.84341 107.132 6.65851 107.132 4.93883V4.91786C107.132 3.31353 108.275 1.99231 109.911 1.99231C111.788 1.99231 112.616 3.53373 112.616 4.69766C112.616 5.15904 112.291 5.46313 111.871 5.46313H108.715C108.872 6.18665 109.376 6.56414 110.089 6.56414C110.529 6.56414 110.896 6.42782 111.221 6.18665C111.337 6.10276 111.441 6.06082 111.609 6.06082C111.966 6.06082 112.228 6.33345 112.228 6.68997C112.228 6.89969 112.134 7.05697 112.018 7.16183Z" fill="url(#paint1_linear_12604_27515)"/>
<path d="M115.733 7.81195C114.758 7.81195 114.097 7.42398 114.097 6.12373V3.46033H114.045C113.667 3.46033 113.363 3.15624 113.363 2.77875C113.363 2.40126 113.667 2.09717 114.045 2.09717H114.097V1.39462C114.097 0.954212 114.454 0.597694 114.894 0.597694C115.335 0.597694 115.691 0.954212 115.691 1.39462V2.09717H116.394C116.771 2.09717 117.075 2.40126 117.075 2.77875C117.075 3.15624 116.771 3.46033 116.394 3.46033H115.691V5.86159C115.691 6.22859 115.849 6.40685 116.205 6.40685C116.257 6.40685 116.362 6.39637 116.394 6.39637C116.75 6.39637 117.054 6.68997 117.054 7.05697C117.054 7.34009 116.866 7.57078 116.645 7.65467C116.352 7.77001 116.079 7.81195 115.733 7.81195Z" fill="url(#paint2_linear_12604_27515)"/>
<path d="M119.781 7.82244C118.722 7.82244 117.852 7.21426 117.852 6.10276V6.08179C117.852 4.85495 118.785 4.28871 120.117 4.28871C120.683 4.28871 121.092 4.38308 121.49 4.5194V4.42503C121.49 3.76442 121.081 3.39741 120.284 3.39741C119.844 3.39741 119.487 3.46033 119.183 3.5547C119.089 3.58616 119.026 3.59665 118.953 3.59665C118.586 3.59665 118.292 3.31353 118.292 2.94652C118.292 2.6634 118.47 2.42223 118.722 2.32786C119.225 2.13911 119.771 2.03425 120.515 2.03425C121.385 2.03425 122.015 2.26494 122.413 2.6634C122.832 3.08284 123.021 3.7015 123.021 4.45648V7.01503C123.021 7.44495 122.675 7.7805 122.245 7.7805C121.784 7.7805 121.48 7.45544 121.48 7.11989V7.1094C121.092 7.53932 120.557 7.82244 119.781 7.82244ZM120.263 6.72143C121.008 6.72143 121.511 6.31248 121.511 5.73576V5.45264C121.239 5.32681 120.882 5.24292 120.494 5.24292C119.813 5.24292 119.393 5.51555 119.393 6.01888V6.03985C119.393 6.46977 119.75 6.72143 120.263 6.72143Z" fill="url(#paint3_linear_12604_27515)"/>
<path fill-rule="evenodd" clip-rule="evenodd" d="M20.3308 30H2.4144C2.0909 30 1.77215 29.9373 1.47124 29.8169C1.19293 29.6965 0.926513 29.529 0.70886 29.3062C0.487638 29.0798 0.312802 28.8148 0.181972 28.5245C0.0582787 28.2319 0 27.9151 0 27.5911C0 26.2168 1.11409 25.1027 2.48839 25.1027H11.2607L0.62999 22.3761C0.303452 22.2924 0.109688 21.9565 0.200703 21.6319C0.289765 21.3142 0.61823 21.1278 0.936595 21.2142L13.2947 24.5667L2.301 18.1392C1.9672 17.9441 1.85278 17.5165 2.0445 17.1807C2.23901 16.84 2.67416 16.7236 3.01285 16.9215L13.994 23.3406L5.01353 14.2474C4.74303 13.9735 4.74301 13.533 5.0135 13.259C5.28883 12.9802 5.73894 12.9802 6.01429 13.259L17.7108 25.1027H20.3308C21.5963 25.1027 22.7904 24.7775 23.749 23.9127C24.8682 22.9034 25.2583 21.4942 25.2583 20.0127V13.0956C25.2583 11.6153 24.873 10.1929 23.7478 9.18716C22.7975 8.33803 21.5737 8.04776 20.3308 8.04776H12.2607C11.7084 8.04776 11.2607 8.49547 11.2607 9.04776V10.8867C11.2607 12.2345 10.1725 13.3354 8.84275 13.3354C7.51185 13.3354 6.42478 12.2333 6.42478 10.8867V5.5389C6.42478 5.2161 6.48187 4.89813 6.60913 4.60184C6.73401 4.31157 6.91004 4.0502 7.13245 3.82497C7.35248 3.60215 7.61652 3.43353 7.90315 3.31067C8.19693 3.19264 8.51686 3.13 8.83918 3.13H20.3308C21.6379 3.13 22.9188 3.35162 24.1415 3.82617C25.3083 4.28025 26.3502 4.94872 27.2505 5.82676C28.183 6.73491 28.8811 7.81289 29.3747 9.02336C29.9075 10.3338 30.1371 11.7249 30.1371 13.1389V19.9694C30.1371 21.3858 29.9075 22.7709 29.3747 24.0849C28.8835 25.293 28.183 26.3698 27.2505 27.2743C26.3466 28.1512 25.3047 28.8268 24.1391 29.2906C22.92 29.7747 21.6415 30 20.3308 30Z" fill="url(#paint4_linear_12604_27515)"/>
<path d="M35.8868 19.6695H43.8674C44.1933 19.6695 44.5168 19.6057 44.8237 19.472C45.1186 19.3515 45.3898 19.1805 45.6158 18.9529C45.8382 18.7264 46.0083 18.4578 46.132 18.1652C46.2592 17.8616 46.3235 17.5485 46.3235 17.2173C46.3235 16.8872 46.2569 16.5669 46.1308 16.2609C46.0047 15.9574 45.8334 15.6792 45.617 15.4467C45.3874 15.2143 45.1115 15.0396 44.8154 14.9095C44.5168 14.7783 44.1933 14.7084 43.8674 14.7084H35.8868C35.2029 14.7084 34.6213 14.9312 34.1396 15.4238C33.9101 15.6587 33.74 15.9418 33.6151 16.2561C33.4867 16.5608 33.4236 16.8872 33.4236 17.2173C33.4236 17.5473 33.4843 17.8604 33.6175 18.1676C33.7388 18.4639 33.9137 18.7264 34.1373 18.9517C34.6249 19.4419 35.2006 19.6695 35.8868 19.6695Z" fill="white"/>
<path d="M55.691 29.9988C56.0204 29.9988 56.3416 29.9385 56.6484 29.8157C56.9291 29.7025 57.1908 29.5459 57.4037 29.3267C57.6189 29.1051 57.7831 28.8473 57.896 28.5583C58.0162 28.2547 58.0697 27.9368 58.0697 27.6104C58.0697 27.2852 58.0174 26.9732 57.8949 26.6661C57.7854 26.377 57.6201 26.1229 57.3989 25.8964C57.1908 25.6736 56.9374 25.505 56.6496 25.3894C56.3427 25.2605 56.0228 25.2015 55.691 25.2015C54.6931 25.2015 53.8534 24.8221 53.7749 23.6935V5.58226C53.7749 5.25706 53.7083 4.9451 53.5799 4.65483C53.4383 4.35372 53.254 4.08633 53.028 3.85147C52.7913 3.62383 52.5142 3.45159 52.2038 3.32513C51.904 3.19384 51.5805 3.13 51.2547 3.13C50.6088 3.13 50.0748 3.36608 49.6264 3.84665C49.1542 4.33084 48.939 4.90295 48.939 5.58226V23.5731C48.939 24.4668 49.1019 25.334 49.4647 26.1494C49.8155 26.9371 50.302 27.6236 50.9347 28.2054C51.5675 28.7883 52.3013 29.2243 53.1005 29.529C53.9307 29.8458 54.8037 29.9988 55.691 29.9988Z" fill="white"/>
<path d="M63.3528 8.40549C63.7036 8.40549 64.0426 8.34286 64.3661 8.20315C64.6825 8.06704 64.9632 7.87313 65.2058 7.62622C65.7113 7.10951 65.9777 6.50608 65.9777 5.77498C65.9777 5.03545 65.7232 4.41998 65.207 3.89846C64.9644 3.65275 64.6837 3.46124 64.3744 3.32996C64.0474 3.19988 63.7048 3.13123 63.3528 3.13123C62.6356 3.13123 62.0266 3.38536 61.52 3.89846C61.0038 4.42119 60.7278 5.03184 60.7278 5.77498C60.7278 6.12066 60.8063 6.45549 60.9384 6.76624C61.0823 7.09024 61.2726 7.37449 61.52 7.62501C62.0278 8.13931 62.6332 8.40549 63.3528 8.40549Z" fill="white"/>
<path d="M63.3527 29.9988C63.6739 29.9988 63.9831 29.9386 64.2816 29.8037C64.5694 29.6808 64.8252 29.505 65.0452 29.2822C65.2676 29.0569 65.4389 28.7908 65.5626 28.4896C65.6898 28.2018 65.7529 27.891 65.7529 27.5755V13.1691C65.7529 12.8427 65.7005 12.5247 65.5768 12.2176C65.4674 11.9273 65.3033 11.672 65.088 11.4552C64.8656 11.2299 64.6027 11.0565 64.3066 10.9312C64.0152 10.8024 63.7131 10.7385 63.3944 10.7385C63.0613 10.7385 62.7438 10.8048 62.4345 10.9336C62.1431 11.0553 61.8708 11.2275 61.64 11.46C61.4057 11.684 61.225 11.9514 61.0929 12.2489C60.9633 12.5392 60.8955 12.8499 60.8955 13.1691V27.5755C60.8955 27.8898 60.9645 28.2018 61.0929 28.4884C61.225 28.7847 61.4057 29.0521 61.646 29.2822C61.8672 29.5062 62.1313 29.6796 62.4179 29.8037C62.714 29.9338 63.0292 29.9988 63.3527 29.9988Z" fill="white"/>
<path fill-rule="evenodd" clip-rule="evenodd" d="M82.4836 29.2351C81.2894 29.7458 80.043 29.9987 78.7454 29.9987C77.4526 29.9987 76.199 29.7518 75.0084 29.2423C73.8321 28.7365 72.7843 28.0259 71.8792 27.1129C70.9753 26.2011 70.2641 25.1569 69.7633 23.9657C69.2555 22.7564 69.0105 21.4905 69.0105 20.1753V5.68941C69.0105 5.34133 69.0723 4.99806 69.2043 4.67527C69.328 4.37175 69.5005 4.0875 69.7241 3.84782C69.9417 3.6274 70.2046 3.45637 70.4984 3.33472C70.804 3.20223 71.1204 3.1384 71.4463 3.1384C71.7757 3.1384 72.0933 3.20464 72.3978 3.33352C72.6904 3.45637 72.9556 3.6274 73.1816 3.85504C73.3933 4.08389 73.5574 4.36211 73.6692 4.66443C73.7905 4.99204 73.8464 5.34012 73.8464 5.68941V12.7342L74.4054 12.0561C74.8752 11.4852 75.6233 11.101 76.2941 10.8324C77.0755 10.5204 77.9021 10.3157 78.7454 10.3157C80.0418 10.3157 81.2894 10.5674 82.4836 11.0793C83.6563 11.5804 84.7005 12.2838 85.5973 13.1991C86.4988 14.1181 87.1946 15.1816 87.693 16.3753C88.1996 17.5881 88.447 18.86 88.447 20.1753C88.447 21.4857 88.2032 22.7516 87.7001 23.9596C87.2029 25.1508 86.5 26.1999 85.5985 27.1141C84.6981 28.0259 83.6575 28.7329 82.4836 29.2351ZM76.8686 24.7004C77.4681 24.9546 78.096 25.081 78.7454 25.081C79.396 25.081 80.0299 24.9546 80.6294 24.7004C81.2122 24.4535 81.7319 24.1018 82.1779 23.6501C82.6311 23.1912 82.9867 22.6673 83.2353 22.0687C83.4862 21.4653 83.6111 20.8305 83.6111 20.1753C83.6111 19.5201 83.4862 18.8842 83.2353 18.2807C82.9879 17.6833 82.6299 17.157 82.1779 16.6993C81.7343 16.25 81.2098 15.9019 80.6294 15.6562C80.0299 15.4021 79.396 15.2756 78.7454 15.2756C78.096 15.2756 77.4681 15.4021 76.8686 15.6562C76.2882 15.9031 75.7649 16.2512 75.3165 16.6969C74.8669 17.1606 74.5042 17.6857 74.2508 18.2771C73.9927 18.8817 73.8667 19.5165 73.8667 20.1753C73.8667 20.8329 73.9927 21.4689 74.2508 22.0723C74.5054 22.6661 74.8634 23.1925 75.3141 23.6501C75.7613 24.103 76.2846 24.4523 76.8686 24.7004Z" fill="white"/>
<path d="M93.6446 29.9989C94.3011 29.9989 94.8518 29.77 95.3168 29.3027C95.5345 29.0847 95.7034 28.8342 95.8223 28.5571C95.946 28.2476 96.0031 27.9224 96.0031 27.59V20.815C96.0174 20.1007 96.1637 19.4178 96.4432 18.7614C96.7179 18.1158 97.108 17.5365 97.5956 17.0354C98.0761 16.5428 98.6328 16.1453 99.2584 15.8659C99.8982 15.5804 100.569 15.4335 101.274 15.4191H101.402C101.736 15.4191 102.07 15.3588 102.38 15.2348C102.684 15.1143 102.961 14.9445 103.192 14.7229C103.672 14.2375 103.921 13.6618 103.921 12.974C103.921 12.2995 103.739 11.6925 103.263 11.2107C102.765 10.7049 102.089 10.5435 101.402 10.5435H101.24C99.9149 10.57 98.6363 10.8422 97.4196 11.3697C96.2279 11.8888 95.1634 12.6103 94.2381 13.5293C93.3009 14.4615 92.5682 15.5455 92.0306 16.7596C91.4907 17.9797 91.2076 19.2661 91.1671 20.5946V27.59C91.1671 27.9152 91.2278 28.2259 91.3622 28.521C91.4966 28.8161 91.6881 29.0751 91.9153 29.3027C92.1412 29.5279 92.4041 29.6953 92.6919 29.8146C93 29.935 93.3139 29.9989 93.6446 29.9989Z" fill="white"/>
<path fill-rule="evenodd" clip-rule="evenodd" d="M114.034 30C119.463 30 123.864 25.5987 123.864 20.1695C123.864 14.7403 119.463 10.339 114.034 10.339C108.604 10.339 104.203 14.7403 104.203 20.1695C104.203 25.5987 108.604 30 114.034 30ZM112.021 25.0054C112.66 25.2746 113.333 25.4124 114.025 25.4124C114.728 25.4124 115.409 25.2746 116.058 25.0054C116.692 24.7439 117.257 24.3704 117.741 23.8822C118.226 23.3941 118.605 22.8286 118.871 22.1924C119.141 21.5458 119.276 20.867 119.276 20.1663C119.276 19.4656 119.142 18.7855 118.871 18.1402C118.606 17.5039 118.226 16.9372 117.741 16.449C117.258 15.9634 116.69 15.5938 116.058 15.3336C115.409 15.0657 114.728 14.9266 114.025 14.9266C113.333 14.9266 112.66 15.0657 112.021 15.3336C111.395 15.5976 110.828 15.966 110.348 16.449C109.862 16.9385 109.48 17.5014 109.204 18.1351C108.922 18.7791 108.791 19.4617 108.791 20.1663C108.791 20.8695 108.922 21.5522 109.204 22.1962C109.48 22.8299 109.862 23.3928 110.348 23.8822C110.829 24.3665 111.393 24.7401 112.021 25.0054Z" fill="white"/>
<defs>
<linearGradient id="paint0_linear_12604_27515" x1="104.765" y1="-1.41896e-07" x2="107.646" y2="10.8883" gradientUnits="userSpaceOnUse">
<stop stop-color="#16D2DF"/>
<stop offset="1" stop-color="#2190EB"/>
</linearGradient>
<linearGradient id="paint1_linear_12604_27515" x1="104.765" y1="-1.41896e-07" x2="107.646" y2="10.8883" gradientUnits="userSpaceOnUse">
<stop stop-color="#16D2DF"/>
<stop offset="1" stop-color="#2190EB"/>
</linearGradient>
<linearGradient id="paint2_linear_12604_27515" x1="104.765" y1="-1.41896e-07" x2="107.646" y2="10.8883" gradientUnits="userSpaceOnUse">
<stop stop-color="#16D2DF"/>
<stop offset="1" stop-color="#2190EB"/>
</linearGradient>
<linearGradient id="paint3_linear_12604_27515" x1="104.765" y1="-1.41896e-07" x2="107.646" y2="10.8883" gradientUnits="userSpaceOnUse">
<stop stop-color="#16D2DF"/>
<stop offset="1" stop-color="#2190EB"/>
</linearGradient>
<linearGradient id="paint4_linear_12604_27515" x1="5.89199" y1="3.13" x2="24.4752" y2="30.3598" gradientUnits="userSpaceOnUse">
<stop stop-color="#16D2DF"/>
<stop offset="1" stop-color="#2190EB"/>
</linearGradient>
</defs>
</svg>
