<svg width="247" height="167" viewBox="0 0 247 167" fill="none" xmlns="http://www.w3.org/2000/svg">
<g opacity="0.5">
<path d="M185.992 97.8423C114.976 97.8423 99.6957 120.964 36.3495 129.161C2.68978 133.509 -17.8331 149.525 21.4128 153.554C41.9656 155.663 65.6253 151.829 86.7681 153.424C112.422 155.359 132.25 162.664 157.911 165.635C183.572 168.606 212.848 167.124 230.249 157.214C262.296 138.969 247.8 97.8423 185.992 97.8423Z" fill="url(#paint0_linear_12604_27570)"/>
<path d="M205.766 23.5765H53.0061C50.7015 23.5763 48.469 24.3597 46.6934 25.7916C44.9178 27.2236 43.7102 29.2145 43.2788 31.4211C43.2174 31.7505 43.1662 32.0698 43.1355 32.4191L34.6164 127.423C34.4971 128.758 34.664 130.102 35.1065 131.371C35.549 132.639 36.2573 133.804 37.1866 134.792C38.1158 135.779 39.2456 136.568 40.5042 137.106C41.7628 137.645 43.1226 137.923 44.4973 137.922H197.257C199.739 137.928 202.133 137.025 203.964 135.39C205.794 133.756 206.927 131.51 207.138 129.1L215.688 34.0859C215.807 32.7472 215.639 31.3989 215.194 30.127C214.749 28.8551 214.038 27.6875 213.104 26.6987C212.171 25.7099 211.036 24.9216 209.772 24.384C208.509 23.8465 207.144 23.5714 205.766 23.5765Z" fill="#D1D9E8"/>
<path d="M200.368 28.9421H58.3203C56.1773 28.9419 54.1013 29.6513 52.4502 30.9482C50.7991 32.245 49.6762 34.048 49.2751 36.0464C49.218 36.3446 49.1704 36.6339 49.1418 36.9502L41.2201 122.988C41.1092 124.197 41.2644 125.415 41.6758 126.563C42.0873 127.712 42.746 128.767 43.61 129.662C44.4741 130.556 45.5247 131.27 46.695 131.758C47.8654 132.246 49.1298 132.497 50.4081 132.497H192.455C194.764 132.502 196.99 131.684 198.692 130.204C200.394 128.723 201.448 126.69 201.643 124.507L209.594 38.4597C209.705 37.2473 209.549 36.0263 209.135 34.8744C208.721 33.7225 208.059 32.6652 207.191 31.7697C206.323 30.8742 205.268 30.1603 204.093 29.6734C202.918 29.1866 201.65 28.9375 200.368 28.9421Z" fill="#363636"/>
<path d="M49.101 128.816L52.5313 42.4526C91.6116 22.3442 116.591 35.9717 124.196 45.2991L120.877 128.858C113.156 116.736 69.7719 124.714 49.101 128.816Z" fill="url(#paint1_linear_12604_27570)"/>
<path d="M194.497 134.772L197.927 48.409C160.565 25.2644 134.583 36.8678 126.262 45.5626L122.943 129.121C131.602 117.65 174.216 129.044 194.497 134.772Z" fill="url(#paint2_linear_12604_27570)"/>
<path d="M54.2261 122.958L57.7524 34.177C94.2804 12.6133 117.492 26.9604 124.531 36.8294L121.005 125.611C113.871 112.774 73.5132 118.494 54.2261 122.958Z" fill="url(#paint3_linear_12604_27570)"/>
<path d="M189.853 128.526L193.379 39.745C158.676 15.3521 134.4 27.813 126.6 37.0926L123.074 125.874C131.204 113.643 170.981 122.546 189.853 128.526Z" fill="url(#paint4_linear_12604_27570)"/>
<rect x="127.961" y="32.2817" width="15.3722" height="15.3722" fill="url(#paint5_linear_12604_27570)"/>
<rect x="166.392" y="26.1327" width="12.2978" height="12.2978" fill="url(#paint6_linear_12604_27570)"/>
<rect x="151.02" y="58.4144" width="9.22332" height="9.22332" fill="url(#paint7_linear_12604_27570)"/>
<rect x="169.467" y="43.0421" width="4.61166" height="4.61166" fill="url(#paint8_linear_12604_27570)"/>
<rect width="7.6861" height="7.6861" transform="matrix(1 0 0 -1 134.11 21.521)" fill="url(#paint9_linear_12604_27570)"/>
<rect width="4.61166" height="4.61166" transform="matrix(1 0 0 -1 164.854 18.4465)" fill="url(#paint10_linear_12604_27570)"/>
<rect x="121.812" y="19.9838" width="10.7605" height="10.7605" fill="url(#paint11_linear_12604_27570)"/>
<rect x="155.631" y="29.2072" width="4.61166" height="4.61166" fill="url(#paint12_linear_12604_27570)"/>
<rect x="154.094" width="4.61166" height="4.61166" fill="url(#paint13_linear_12604_27570)"/>
<rect x="138.722" y="50.7284" width="4.61166" height="4.61166" fill="url(#paint14_linear_12604_27570)"/>
<rect x="149.482" y="13.835" width="10.7605" height="10.7605" fill="url(#paint15_linear_12604_27570)"/>
<rect x="154.094" y="43.0421" width="6.14888" height="6.14888" fill="url(#paint16_linear_12604_27570)"/>
<rect x="169.467" y="1.53723" width="6.14888" height="6.14888" fill="url(#paint17_linear_12604_27570)"/>
</g>
<defs>
<linearGradient id="paint0_linear_12604_27570" x1="246.767" y1="97.8423" x2="169.28" y2="252.057" gradientUnits="userSpaceOnUse">
<stop offset="0.151042" stop-color="#003982"/>
<stop offset="1" stop-color="#2C96D6"/>
</linearGradient>
<linearGradient id="paint1_linear_12604_27570" x1="124.671" y1="33.3579" x2="27.3251" y2="68.5059" gradientUnits="userSpaceOnUse">
<stop stop-color="#41B8FF"/>
<stop offset="1" stop-color="#0055C2"/>
</linearGradient>
<linearGradient id="paint2_linear_12604_27570" x1="126.736" y1="33.6214" x2="220.988" y2="76.3795" gradientUnits="userSpaceOnUse">
<stop stop-color="#41B8FF"/>
<stop offset="1" stop-color="#0055C2"/>
</linearGradient>
<linearGradient id="paint3_linear_12604_27570" x1="125.035" y1="24.1419" x2="31.4385" y2="53.387" gradientUnits="userSpaceOnUse">
<stop stop-color="#D0EDFF"/>
<stop offset="1" stop-color="#78B3FF"/>
</linearGradient>
<linearGradient id="paint4_linear_12604_27570" x1="127.104" y1="24.4051" x2="218.087" y2="60.9815" gradientUnits="userSpaceOnUse">
<stop stop-color="#D0EDFF"/>
<stop offset="1" stop-color="#78B3FF"/>
</linearGradient>
<linearGradient id="paint5_linear_12604_27570" x1="143.333" y1="32.2817" x2="125.096" y2="42.5834" gradientUnits="userSpaceOnUse">
<stop stop-color="#80D7F2"/>
<stop offset="1" stop-color="#2B90B0"/>
</linearGradient>
<linearGradient id="paint6_linear_12604_27570" x1="178.69" y1="26.1327" x2="164.101" y2="34.374" gradientUnits="userSpaceOnUse">
<stop stop-color="#80D7F2"/>
<stop offset="1" stop-color="#2B90B0"/>
</linearGradient>
<linearGradient id="paint7_linear_12604_27570" x1="160.243" y1="58.4144" x2="149.301" y2="64.5954" gradientUnits="userSpaceOnUse">
<stop stop-color="#80D7F2"/>
<stop offset="1" stop-color="#2B90B0"/>
</linearGradient>
<linearGradient id="paint8_linear_12604_27570" x1="174.078" y1="43.0421" x2="168.607" y2="46.1326" gradientUnits="userSpaceOnUse">
<stop stop-color="#80D7F2"/>
<stop offset="1" stop-color="#2B90B0"/>
</linearGradient>
<linearGradient id="paint9_linear_12604_27570" x1="7.6861" y1="2.83008e-07" x2="-1.43216" y2="5.15082" gradientUnits="userSpaceOnUse">
<stop stop-color="#80D7F2"/>
<stop offset="1" stop-color="#2B90B0"/>
</linearGradient>
<linearGradient id="paint10_linear_12604_27570" x1="4.61166" y1="1.69805e-07" x2="-0.859294" y2="3.09049" gradientUnits="userSpaceOnUse">
<stop stop-color="#80D7F2"/>
<stop offset="1" stop-color="#2B90B0"/>
</linearGradient>
<linearGradient id="paint11_linear_12604_27570" x1="132.572" y1="19.9838" x2="119.807" y2="27.1949" gradientUnits="userSpaceOnUse">
<stop stop-color="#80D7F2"/>
<stop offset="1" stop-color="#2B90B0"/>
</linearGradient>
<linearGradient id="paint12_linear_12604_27570" x1="160.242" y1="29.2072" x2="154.772" y2="32.2976" gradientUnits="userSpaceOnUse">
<stop stop-color="#80D7F2"/>
<stop offset="1" stop-color="#2B90B0"/>
</linearGradient>
<linearGradient id="paint13_linear_12604_27570" x1="158.706" y1="1.69805e-07" x2="153.235" y2="3.09049" gradientUnits="userSpaceOnUse">
<stop stop-color="#80D7F2"/>
<stop offset="1" stop-color="#2B90B0"/>
</linearGradient>
<linearGradient id="paint14_linear_12604_27570" x1="143.334" y1="50.7284" x2="137.863" y2="53.8189" gradientUnits="userSpaceOnUse">
<stop stop-color="#80D7F2"/>
<stop offset="1" stop-color="#2B90B0"/>
</linearGradient>
<linearGradient id="paint15_linear_12604_27570" x1="160.242" y1="13.835" x2="147.477" y2="21.0461" gradientUnits="userSpaceOnUse">
<stop stop-color="#80D7F2"/>
<stop offset="1" stop-color="#2B90B0"/>
</linearGradient>
<linearGradient id="paint16_linear_12604_27570" x1="160.243" y1="43.0421" x2="152.949" y2="47.1628" gradientUnits="userSpaceOnUse">
<stop stop-color="#80D7F2"/>
<stop offset="1" stop-color="#2B90B0"/>
</linearGradient>
<linearGradient id="paint17_linear_12604_27570" x1="175.615" y1="1.53723" x2="168.321" y2="5.65789" gradientUnits="userSpaceOnUse">
<stop stop-color="#80D7F2"/>
<stop offset="1" stop-color="#2B90B0"/>
</linearGradient>
</defs>
</svg>
