<svg width="537" height="400" viewBox="0 0 537 400" fill="none" xmlns="http://www.w3.org/2000/svg">
<rect width="537" height="399.17" rx="5" fill="#4F4F4F"/>
<path d="M0 5C0 2.23858 2.23858 0 5 0H532C534.761 0 537 2.23858 537 5V42.96H0V5Z" fill="#6F6F6F"/>
<circle cx="22.2525" cy="22.2533" r="6.14332" fill="#FF0000"/>
<circle cx="42.7267" cy="22.2533" r="6.14332" fill="#FFAA1D"/>
<circle cx="63.2077" cy="22.2533" r="6.14332" fill="#34C900"/>
<path d="M342.682 213.905C342.682 255.368 309.069 288.98 267.607 288.98C226.144 288.98 192.532 255.368 192.532 213.905C192.532 172.442 226.144 138.83 267.607 138.83C309.069 138.83 342.682 172.442 342.682 213.905Z" stroke="#AEAEAE" stroke-width="2"/>
<path d="M320.408 212.115L241.201 257.845L241.201 166.384L320.408 212.115Z" fill="#D9D9D9"/>
<path d="M180.308 352.044V353.377H169.91V352.044H180.308ZM170.38 334.893V353.377H168.819V334.893H170.38ZM179.013 343.183V344.516H169.91V343.183H179.013ZM180.244 334.893V336.239H169.91V334.893H180.244ZM184.31 342.485V353.377H182.787V339.641H184.247L184.31 342.485ZM184.031 345.658L183.295 345.278C183.346 344.465 183.498 343.703 183.752 342.992C184.014 342.281 184.378 341.655 184.844 341.114C185.309 340.572 185.868 340.149 186.519 339.844C187.171 339.539 187.912 339.387 188.741 339.387C189.41 339.387 190.015 339.48 190.557 339.666C191.107 339.844 191.572 340.128 191.953 340.517C192.342 340.898 192.643 341.397 192.854 342.015C193.066 342.633 193.172 343.373 193.172 344.237V353.377H191.661V344.287C191.661 343.373 191.517 342.658 191.229 342.142C190.95 341.626 190.557 341.257 190.049 341.037C189.549 340.817 188.97 340.707 188.309 340.707C187.531 340.707 186.871 340.868 186.329 341.19C185.796 341.503 185.36 341.913 185.021 342.421C184.691 342.92 184.446 343.458 184.285 344.033C184.124 344.601 184.04 345.142 184.031 345.658ZM193.159 344.465L192.143 344.49C192.186 343.822 192.338 343.183 192.601 342.573C192.871 341.964 193.24 341.422 193.705 340.948C194.17 340.466 194.725 340.085 195.368 339.806C196.02 339.527 196.752 339.387 197.564 339.387C198.275 339.387 198.91 339.484 199.469 339.679C200.027 339.865 200.497 340.166 200.878 340.58C201.267 340.987 201.563 341.507 201.767 342.142C201.97 342.777 202.071 343.538 202.071 344.427V353.377H200.548V344.414C200.548 343.441 200.404 342.688 200.116 342.155C199.837 341.613 199.448 341.236 198.948 341.025C198.449 340.813 197.865 340.707 197.196 340.707C196.536 340.716 195.956 340.838 195.457 341.075C194.958 341.304 194.539 341.609 194.2 341.99C193.87 342.362 193.616 342.764 193.438 343.196C193.269 343.627 193.176 344.05 193.159 344.465ZM205.515 333.877H207.039V350.711L206.937 353.377H205.515V333.877ZM216.598 346.382V346.649C216.598 347.673 216.48 348.612 216.243 349.467C216.006 350.322 215.663 351.062 215.214 351.689C214.766 352.307 214.216 352.785 213.564 353.123C212.921 353.462 212.18 353.631 211.342 353.631C210.521 353.631 209.794 353.504 209.159 353.25C208.524 352.988 207.982 352.62 207.534 352.146C207.085 351.663 206.725 351.101 206.455 350.457C206.184 349.806 205.993 349.09 205.883 348.312V344.922C206.01 344.093 206.213 343.339 206.493 342.662C206.772 341.985 207.132 341.401 207.572 340.91C208.02 340.42 208.554 340.043 209.171 339.781C209.798 339.518 210.513 339.387 211.317 339.387C212.155 339.387 212.9 339.552 213.551 339.882C214.211 340.204 214.766 340.673 215.214 341.291C215.663 341.901 216.006 342.637 216.243 343.5C216.48 344.355 216.598 345.316 216.598 346.382ZM215.062 346.649V346.382C215.062 345.578 214.986 344.833 214.834 344.148C214.681 343.462 214.44 342.865 214.11 342.358C213.788 341.841 213.374 341.439 212.866 341.152C212.358 340.864 211.749 340.72 211.038 340.72C210.31 340.72 209.688 340.843 209.171 341.088C208.664 341.325 208.24 341.642 207.902 342.04C207.572 342.43 207.309 342.857 207.115 343.323C206.92 343.788 206.776 344.245 206.683 344.694V348.642C206.827 349.277 207.077 349.873 207.432 350.432C207.788 350.99 208.266 351.443 208.867 351.79C209.468 352.129 210.2 352.298 211.063 352.298C211.757 352.298 212.354 352.154 212.853 351.866C213.361 351.579 213.776 351.181 214.097 350.673C214.427 350.165 214.669 349.569 214.821 348.883C214.982 348.198 215.062 347.453 215.062 346.649ZM224.879 353.631C223.982 353.631 223.157 353.466 222.404 353.136C221.659 352.806 221.007 352.34 220.448 351.74C219.898 351.139 219.471 350.428 219.166 349.607C218.87 348.777 218.722 347.872 218.722 346.89V346.344C218.722 345.286 218.878 344.33 219.192 343.475C219.505 342.62 219.936 341.888 220.487 341.279C221.037 340.669 221.663 340.204 222.365 339.882C223.076 339.552 223.821 339.387 224.6 339.387C225.472 339.387 226.246 339.544 226.923 339.857C227.6 340.161 228.167 340.597 228.624 341.164C229.09 341.723 229.441 342.387 229.678 343.157C229.915 343.919 230.033 344.761 230.033 345.684V346.611H219.636V345.316H228.523V345.138C228.506 344.368 228.349 343.648 228.053 342.98C227.765 342.303 227.334 341.753 226.758 341.329C226.182 340.906 225.463 340.695 224.6 340.695C223.957 340.695 223.364 340.83 222.822 341.101C222.289 341.372 221.828 341.761 221.439 342.269C221.058 342.768 220.762 343.365 220.55 344.059C220.347 344.744 220.245 345.506 220.245 346.344V346.89C220.245 347.652 220.355 348.363 220.575 349.023C220.804 349.674 221.126 350.25 221.54 350.749C221.963 351.249 222.463 351.638 223.038 351.917C223.614 352.197 224.249 352.336 224.943 352.336C225.755 352.336 226.474 352.188 227.101 351.892C227.727 351.587 228.29 351.109 228.789 350.457L229.741 351.194C229.445 351.634 229.073 352.04 228.624 352.412C228.184 352.785 227.655 353.081 227.037 353.301C226.419 353.521 225.7 353.631 224.879 353.631ZM241.564 350.711V333.877H243.088V353.377H241.666L241.564 350.711ZM232.03 346.649V346.382C232.03 345.316 232.153 344.355 232.398 343.5C232.644 342.637 232.995 341.901 233.452 341.291C233.917 340.673 234.476 340.204 235.128 339.882C235.779 339.552 236.516 339.387 237.337 339.387C238.141 339.387 238.852 339.518 239.47 339.781C240.087 340.043 240.616 340.42 241.056 340.91C241.505 341.401 241.865 341.985 242.136 342.662C242.415 343.339 242.618 344.093 242.745 344.922V348.312C242.643 349.09 242.457 349.806 242.186 350.457C241.916 351.101 241.556 351.663 241.107 352.146C240.659 352.62 240.117 352.988 239.482 353.25C238.856 353.504 238.132 353.631 237.311 353.631C236.499 353.631 235.767 353.462 235.115 353.123C234.463 352.785 233.909 352.307 233.452 351.689C232.995 351.062 232.644 350.322 232.398 349.467C232.153 348.612 232.03 347.673 232.03 346.649ZM233.554 346.382V346.649C233.554 347.453 233.634 348.198 233.795 348.883C233.956 349.569 234.201 350.165 234.531 350.673C234.861 351.181 235.28 351.579 235.788 351.866C236.296 352.154 236.897 352.298 237.591 352.298C238.462 352.298 239.195 352.133 239.787 351.803C240.379 351.464 240.853 351.02 241.209 350.47C241.564 349.911 241.822 349.302 241.983 348.642V344.694C241.882 344.245 241.734 343.788 241.539 343.323C241.344 342.857 241.078 342.43 240.739 342.04C240.409 341.642 239.986 341.325 239.47 341.088C238.962 340.843 238.344 340.72 237.616 340.72C236.914 340.72 236.308 340.864 235.801 341.152C235.293 341.439 234.87 341.841 234.531 342.358C234.201 342.865 233.956 343.462 233.795 344.148C233.634 344.833 233.554 345.578 233.554 346.382ZM255.622 350.711V333.877H257.145V353.377H255.723L255.622 350.711ZM246.087 346.649V346.382C246.087 345.316 246.21 344.355 246.456 343.5C246.701 342.637 247.052 341.901 247.509 341.291C247.975 340.673 248.533 340.204 249.185 339.882C249.837 339.552 250.573 339.387 251.394 339.387C252.198 339.387 252.909 339.518 253.527 339.781C254.145 340.043 254.674 340.42 255.114 340.91C255.562 341.401 255.922 341.985 256.193 342.662C256.472 343.339 256.675 344.093 256.802 344.922V348.312C256.701 349.09 256.514 349.806 256.244 350.457C255.973 351.101 255.613 351.663 255.165 352.146C254.716 352.62 254.174 352.988 253.54 353.25C252.913 353.504 252.19 353.631 251.369 353.631C250.556 353.631 249.824 353.462 249.172 353.123C248.521 352.785 247.966 352.307 247.509 351.689C247.052 351.062 246.701 350.322 246.456 349.467C246.21 348.612 246.087 347.673 246.087 346.649ZM247.611 346.382V346.649C247.611 347.453 247.691 348.198 247.852 348.883C248.013 349.569 248.258 350.165 248.588 350.673C248.918 351.181 249.337 351.579 249.845 351.866C250.353 352.154 250.954 352.298 251.648 352.298C252.52 352.298 253.252 352.133 253.844 351.803C254.437 351.464 254.911 351.02 255.266 350.47C255.622 349.911 255.88 349.302 256.041 348.642V344.694C255.939 344.245 255.791 343.788 255.596 343.323C255.402 342.857 255.135 342.43 254.796 342.04C254.466 341.642 254.043 341.325 253.527 341.088C253.019 340.843 252.401 340.72 251.673 340.72C250.971 340.72 250.366 340.864 249.858 341.152C249.35 341.439 248.927 341.841 248.588 342.358C248.258 342.865 248.013 343.462 247.852 344.148C247.691 344.833 247.611 345.578 247.611 346.382ZM266.061 353.631C265.164 353.631 264.338 353.466 263.585 353.136C262.84 352.806 262.189 352.34 261.63 351.74C261.08 351.139 260.652 350.428 260.348 349.607C260.052 348.777 259.903 347.872 259.903 346.89V346.344C259.903 345.286 260.06 344.33 260.373 343.475C260.686 342.62 261.118 341.888 261.668 341.279C262.218 340.669 262.845 340.204 263.547 339.882C264.258 339.552 265.003 339.387 265.781 339.387C266.653 339.387 267.428 339.544 268.105 339.857C268.782 340.161 269.349 340.597 269.806 341.164C270.271 341.723 270.623 342.387 270.859 343.157C271.096 343.919 271.215 344.761 271.215 345.684V346.611H260.818V345.316H269.704V345.138C269.687 344.368 269.531 343.648 269.234 342.98C268.947 342.303 268.515 341.753 267.94 341.329C267.364 340.906 266.645 340.695 265.781 340.695C265.138 340.695 264.546 340.83 264.004 341.101C263.471 341.372 263.01 341.761 262.62 342.269C262.239 342.768 261.943 343.365 261.732 344.059C261.528 344.744 261.427 345.506 261.427 346.344V346.89C261.427 347.652 261.537 348.363 261.757 349.023C261.985 349.674 262.307 350.25 262.722 350.749C263.145 351.249 263.644 351.638 264.22 351.917C264.795 352.197 265.43 352.336 266.124 352.336C266.937 352.336 267.656 352.188 268.282 351.892C268.909 351.587 269.471 351.109 269.971 350.457L270.923 351.194C270.627 351.634 270.254 352.04 269.806 352.412C269.366 352.785 268.837 353.081 268.219 353.301C267.601 353.521 266.882 353.631 266.061 353.631ZM282.746 350.711V333.877H284.269V353.377H282.847L282.746 350.711ZM273.212 346.649V346.382C273.212 345.316 273.334 344.355 273.58 343.5C273.825 342.637 274.177 341.901 274.634 341.291C275.099 340.673 275.658 340.204 276.309 339.882C276.961 339.552 277.697 339.387 278.518 339.387C279.322 339.387 280.033 339.518 280.651 339.781C281.269 340.043 281.798 340.42 282.238 340.91C282.687 341.401 283.046 341.985 283.317 342.662C283.596 343.339 283.8 344.093 283.927 344.922V348.312C283.825 349.09 283.639 349.806 283.368 350.457C283.097 351.101 282.737 351.663 282.289 352.146C281.84 352.62 281.299 352.988 280.664 353.25C280.038 353.504 279.314 353.631 278.493 353.631C277.68 353.631 276.948 353.462 276.297 353.123C275.645 352.785 275.091 352.307 274.634 351.689C274.177 351.062 273.825 350.322 273.58 349.467C273.334 348.612 273.212 347.673 273.212 346.649ZM274.735 346.382V346.649C274.735 347.453 274.816 348.198 274.976 348.883C275.137 349.569 275.383 350.165 275.713 350.673C276.043 351.181 276.462 351.579 276.969 351.866C277.477 352.154 278.078 352.298 278.772 352.298C279.644 352.298 280.376 352.133 280.969 351.803C281.561 351.464 282.035 351.02 282.39 350.47C282.746 349.911 283.004 349.302 283.165 348.642V344.694C283.063 344.245 282.915 343.788 282.72 343.323C282.526 342.857 282.259 342.43 281.921 342.04C281.591 341.642 281.167 341.325 280.651 341.088C280.143 340.843 279.525 340.72 278.798 340.72C278.095 340.72 277.49 340.864 276.982 341.152C276.474 341.439 276.051 341.841 275.713 342.358C275.383 342.865 275.137 343.462 274.976 344.148C274.816 344.833 274.735 345.578 274.735 346.382ZM299.968 351.079L305.795 334.893H307.496L300.615 353.377H299.358L299.968 351.079ZM293.95 334.893L299.752 351.079L300.387 353.377H299.117L292.249 334.893H293.95ZM311.181 339.641V353.377H309.671V339.641H311.181ZM309.404 335.667C309.404 335.379 309.493 335.138 309.671 334.944C309.857 334.74 310.111 334.639 310.432 334.639C310.754 334.639 311.008 334.74 311.194 334.944C311.389 335.138 311.486 335.379 311.486 335.667C311.486 335.947 311.389 336.188 311.194 336.391C311.008 336.586 310.754 336.683 310.432 336.683C310.111 336.683 309.857 336.586 309.671 336.391C309.493 336.188 309.404 335.947 309.404 335.667ZM323.868 350.711V333.877H325.391V353.377H323.969L323.868 350.711ZM314.333 346.649V346.382C314.333 345.316 314.456 344.355 314.701 343.5C314.947 342.637 315.298 341.901 315.755 341.291C316.221 340.673 316.779 340.204 317.431 339.882C318.083 339.552 318.819 339.387 319.64 339.387C320.444 339.387 321.155 339.518 321.773 339.781C322.391 340.043 322.92 340.42 323.36 340.91C323.808 341.401 324.168 341.985 324.439 342.662C324.718 343.339 324.921 344.093 325.048 344.922V348.312C324.947 349.09 324.76 349.806 324.49 350.457C324.219 351.101 323.859 351.663 323.41 352.146C322.962 352.62 322.42 352.988 321.785 353.25C321.159 353.504 320.436 353.631 319.615 353.631C318.802 353.631 318.07 353.462 317.418 353.123C316.767 352.785 316.212 352.307 315.755 351.689C315.298 351.062 314.947 350.322 314.701 349.467C314.456 348.612 314.333 347.673 314.333 346.649ZM315.857 346.382V346.649C315.857 347.453 315.937 348.198 316.098 348.883C316.259 349.569 316.504 350.165 316.834 350.673C317.164 351.181 317.583 351.579 318.091 351.866C318.599 352.154 319.2 352.298 319.894 352.298C320.766 352.298 321.498 352.133 322.09 351.803C322.683 351.464 323.157 351.02 323.512 350.47C323.868 349.911 324.126 349.302 324.286 348.642V344.694C324.185 344.245 324.037 343.788 323.842 343.323C323.647 342.857 323.381 342.43 323.042 342.04C322.712 341.642 322.289 341.325 321.773 341.088C321.265 340.843 320.647 340.72 319.919 340.72C319.217 340.72 318.612 340.864 318.104 341.152C317.596 341.439 317.173 341.841 316.834 342.358C316.504 342.865 316.259 343.462 316.098 344.148C315.937 344.833 315.857 345.578 315.857 346.382ZM334.307 353.631C333.409 353.631 332.584 353.466 331.831 353.136C331.086 352.806 330.435 352.34 329.876 351.74C329.326 351.139 328.898 350.428 328.594 349.607C328.297 348.777 328.149 347.872 328.149 346.89V346.344C328.149 345.286 328.306 344.33 328.619 343.475C328.932 342.62 329.364 341.888 329.914 341.279C330.464 340.669 331.09 340.204 331.793 339.882C332.504 339.552 333.249 339.387 334.027 339.387C334.899 339.387 335.673 339.544 336.351 339.857C337.028 340.161 337.595 340.597 338.052 341.164C338.517 341.723 338.868 342.387 339.105 343.157C339.342 343.919 339.461 344.761 339.461 345.684V346.611H329.063V345.316H337.95V345.138C337.933 344.368 337.777 343.648 337.48 342.98C337.193 342.303 336.761 341.753 336.186 341.329C335.61 340.906 334.891 340.695 334.027 340.695C333.384 340.695 332.792 340.83 332.25 341.101C331.717 341.372 331.256 341.761 330.866 342.269C330.485 342.768 330.189 343.365 329.978 344.059C329.774 344.744 329.673 345.506 329.673 346.344V346.89C329.673 347.652 329.783 348.363 330.003 349.023C330.231 349.674 330.553 350.25 330.968 350.749C331.391 351.249 331.89 351.638 332.466 351.917C333.041 352.197 333.676 352.336 334.37 352.336C335.183 352.336 335.902 352.188 336.528 351.892C337.155 351.587 337.717 351.109 338.217 350.457L339.169 351.194C338.873 351.634 338.5 352.04 338.052 352.412C337.612 352.785 337.083 353.081 336.465 353.301C335.847 353.521 335.128 353.631 334.307 353.631ZM341.229 346.725V346.306C341.229 345.307 341.373 344.385 341.661 343.538C341.948 342.692 342.359 341.96 342.892 341.342C343.434 340.724 344.081 340.246 344.835 339.907C345.588 339.56 346.426 339.387 347.348 339.387C348.279 339.387 349.121 339.56 349.875 339.907C350.628 340.246 351.275 340.724 351.817 341.342C352.359 341.96 352.773 342.692 353.061 343.538C353.349 344.385 353.493 345.307 353.493 346.306V346.725C353.493 347.724 353.349 348.646 353.061 349.492C352.773 350.33 352.359 351.058 351.817 351.676C351.284 352.294 350.641 352.776 349.887 353.123C349.134 353.462 348.296 353.631 347.374 353.631C346.443 353.631 345.601 353.462 344.847 353.123C344.094 352.776 343.447 352.294 342.905 351.676C342.363 351.058 341.948 350.33 341.661 349.492C341.373 348.646 341.229 347.724 341.229 346.725ZM342.74 346.306V346.725C342.74 347.478 342.841 348.193 343.045 348.87C343.248 349.539 343.544 350.136 343.933 350.66C344.323 351.177 344.805 351.583 345.38 351.879C345.956 352.175 346.62 352.323 347.374 352.323C348.118 352.323 348.774 352.175 349.341 351.879C349.917 351.583 350.399 351.177 350.789 350.66C351.178 350.136 351.47 349.539 351.665 348.87C351.868 348.193 351.969 347.478 351.969 346.725V346.306C351.969 345.561 351.868 344.854 351.665 344.186C351.47 343.517 351.174 342.92 350.776 342.396C350.387 341.871 349.904 341.456 349.329 341.152C348.753 340.847 348.093 340.695 347.348 340.695C346.603 340.695 345.943 340.847 345.368 341.152C344.801 341.456 344.318 341.871 343.921 342.396C343.531 342.92 343.235 343.517 343.032 344.186C342.837 344.854 342.74 345.561 342.74 346.306Z" fill="white"/>
</svg>
