<svg width="150" height="150" viewBox="0 0 150 150" fill="none" xmlns="http://www.w3.org/2000/svg">
<path d="M118.5 22H31.8333C25.8502 22 21 26.8502 21 32.8333V119.5C21 125.483 25.8502 130.333 31.8333 130.333H118.5C124.483 130.333 129.333 125.483 129.333 119.5V32.8333C129.333 26.8502 124.483 22 118.5 22Z" fill="#BFE0FF"/>
<path d="M31.8333 22H118.5C124.458 22 129.333 26.875 129.333 32.8333V43.6667H21V32.8333C21 26.875 25.875 22 31.8333 22Z" fill="#3B68D7"/>
<path d="M55.2875 104.604C54.2583 104.604 53.2292 104.225 52.4167 103.413L38.875 89.871C37.3042 88.3001 37.3042 85.7001 38.875 84.1293L52.4167 70.5876C53.9875 69.0168 56.5875 69.0168 58.1583 70.5876C59.7292 72.1585 59.7292 74.7585 58.1583 76.3293L47.4875 87.0001L58.1583 97.671C59.7292 99.2418 59.7292 101.842 58.1583 103.413C57.3458 104.225 56.3167 104.604 55.2875 104.604ZM95.0458 104.604C94.0167 104.604 92.9875 104.225 92.175 103.413C90.6042 101.842 90.6042 99.2418 92.175 97.671L102.846 87.0001L92.175 76.3293C90.6042 74.7585 90.6042 72.1585 92.175 70.5876C93.7458 69.0168 96.3458 69.0168 97.9167 70.5876L111.458 84.1293C113.029 85.7001 113.029 88.3001 111.458 89.871L97.9167 103.413C97.1042 104.225 96.075 104.604 95.0458 104.604ZM68.5583 112.729C68.1792 112.729 67.7458 112.675 67.3667 112.567C65.2 111.917 64.0083 109.642 64.6583 107.475L77.9292 64.1418C78.5792 62.0293 80.8542 60.7835 83.0208 61.4335C85.1875 62.0835 86.3792 64.3585 85.7292 66.5251L72.4583 109.858C71.9167 111.592 70.2917 112.729 68.5583 112.729Z" fill="#2675E2"/>
<path d="M133.641 107.904C133.641 113.27 129.293 117.618 123.904 117.618C118.538 117.618 114.167 113.27 114.167 107.904C114.167 102.515 118.538 98.1667 123.904 98.1667C129.293 98.1667 133.641 102.515 133.641 107.904Z" fill="#0072C6"/>
<path d="M114.641 128.904C114.641 134.27 110.293 138.618 104.904 138.618C99.5383 138.618 95.1667 134.27 95.1667 128.904C95.1667 123.515 99.5383 119.167 104.904 119.167C110.293 119.167 114.641 123.515 114.641 128.904Z" fill="#F95353"/>
<path d="M125.167 128.904C125.167 134.27 129.515 138.618 134.904 138.618C140.27 138.618 144.641 134.27 144.641 128.904C144.641 123.515 140.27 119.167 134.904 119.167C129.515 119.167 125.167 123.515 125.167 128.904Z" fill="#FFD550"/>
</svg>
