<svg width="340" height="90" viewBox="0 0 340 90" fill="none" xmlns="http://www.w3.org/2000/svg">
<g filter="url(#filter0_d_12779_47071)">
<rect x="20" y="20" width="300" height="50" rx="5" fill="white"/>
</g>
<path d="M111.225 49.0352C111.225 49.8815 111.02 50.6172 110.609 51.2422C110.199 51.8672 109.6 52.349 108.812 52.6875C108.031 53.026 107.081 53.1953 105.961 53.1953C105.466 53.1953 104.981 53.1628 104.506 53.0977C104.037 53.0326 103.585 52.9382 103.148 52.8145C102.719 52.6842 102.309 52.5247 101.918 52.3359V49.5234C102.595 49.8229 103.298 50.0931 104.027 50.334C104.757 50.5749 105.479 50.6953 106.195 50.6953C106.69 50.6953 107.087 50.6302 107.387 50.5C107.693 50.3698 107.914 50.1908 108.051 49.9629C108.188 49.735 108.256 49.4746 108.256 49.1816C108.256 48.8236 108.135 48.5176 107.895 48.2637C107.654 48.0098 107.322 47.7721 106.898 47.5508C106.482 47.3294 106.01 47.0918 105.482 46.8379C105.15 46.6816 104.789 46.4928 104.398 46.2715C104.008 46.0436 103.637 45.7669 103.285 45.4414C102.934 45.1159 102.644 44.722 102.416 44.2598C102.195 43.791 102.084 43.2311 102.084 42.5801C102.084 41.7272 102.279 40.998 102.67 40.3926C103.061 39.7871 103.617 39.3249 104.34 39.0059C105.069 38.6803 105.928 38.5176 106.918 38.5176C107.66 38.5176 108.367 38.6055 109.037 38.7812C109.714 38.9505 110.421 39.1979 111.156 39.5234L110.18 41.877C109.522 41.61 108.933 41.4049 108.412 41.2617C107.891 41.112 107.361 41.0371 106.82 41.0371C106.443 41.0371 106.12 41.099 105.854 41.2227C105.587 41.3398 105.385 41.5091 105.248 41.7305C105.111 41.9453 105.043 42.196 105.043 42.4824C105.043 42.821 105.141 43.1074 105.336 43.3418C105.538 43.5697 105.837 43.791 106.234 44.0059C106.638 44.2207 107.139 44.4714 107.738 44.7578C108.467 45.1029 109.089 45.4642 109.604 45.8418C110.124 46.2129 110.525 46.6523 110.805 47.1602C111.085 47.6615 111.225 48.2865 111.225 49.0352Z" fill="#4F4F4F"/>
<path d="M116.257 42.082V53H113.278V42.082H116.257ZM114.772 37.8047C115.215 37.8047 115.596 37.9089 115.915 38.1172C116.234 38.319 116.393 38.6999 116.393 39.2598C116.393 39.8132 116.234 40.1973 115.915 40.4121C115.596 40.6204 115.215 40.7246 114.772 40.7246C114.323 40.7246 113.939 40.6204 113.62 40.4121C113.307 40.1973 113.151 39.8132 113.151 39.2598C113.151 38.6999 113.307 38.319 113.62 38.1172C113.939 37.9089 114.323 37.8047 114.772 37.8047Z" fill="#4F4F4F"/>
<path d="M122.285 57.8047C120.761 57.8047 119.596 57.5378 118.789 57.0039C117.988 56.4766 117.587 55.7344 117.587 54.7773C117.587 54.1198 117.793 53.5697 118.203 53.127C118.613 52.6842 119.215 52.3685 120.009 52.1797C119.703 52.0495 119.436 51.8379 119.209 51.5449C118.981 51.2454 118.867 50.9297 118.867 50.5977C118.867 50.181 118.987 49.8359 119.228 49.5625C119.469 49.2826 119.817 49.0091 120.273 48.7422C119.7 48.4948 119.244 48.0977 118.906 47.5508C118.574 47.0039 118.408 46.3594 118.408 45.6172C118.408 44.8229 118.58 44.1491 118.925 43.5957C119.277 43.0358 119.785 42.6094 120.449 42.3164C121.119 42.0234 121.933 41.877 122.89 41.877C123.092 41.877 123.326 41.89 123.593 41.916C123.86 41.9421 124.104 41.9714 124.326 42.0039C124.554 42.0365 124.707 42.0625 124.785 42.082H128.593V43.5957L126.884 44.0352C127.041 44.276 127.158 44.5332 127.236 44.8066C127.314 45.0801 127.353 45.3698 127.353 45.6758C127.353 46.8477 126.943 47.7624 126.123 48.4199C125.309 49.071 124.176 49.3965 122.724 49.3965C122.379 49.377 122.054 49.3509 121.748 49.3184C121.598 49.4355 121.484 49.5592 121.406 49.6895C121.328 49.8197 121.289 49.9564 121.289 50.0996C121.289 50.2428 121.347 50.3633 121.464 50.4609C121.588 50.5521 121.77 50.6237 122.011 50.6758C122.259 50.7214 122.565 50.7441 122.929 50.7441H124.785C125.983 50.7441 126.894 51.0013 127.519 51.5156C128.151 52.0299 128.466 52.7852 128.466 53.7812C128.466 55.0573 127.933 56.0469 126.865 56.75C125.804 57.4531 124.277 57.8047 122.285 57.8047ZM122.412 55.8613C123.121 55.8613 123.73 55.793 124.238 55.6562C124.752 55.526 125.146 55.3372 125.42 55.0898C125.693 54.849 125.83 54.5592 125.83 54.2207C125.83 53.9473 125.748 53.7292 125.586 53.5664C125.429 53.4102 125.188 53.2995 124.863 53.2344C124.544 53.1693 124.134 53.1367 123.632 53.1367H122.089C121.725 53.1367 121.396 53.1953 121.103 53.3125C120.817 53.4297 120.589 53.5924 120.42 53.8008C120.25 54.0156 120.166 54.263 120.166 54.543C120.166 54.9531 120.361 55.2754 120.752 55.5098C121.149 55.7441 121.702 55.8613 122.412 55.8613ZM122.89 47.5801C123.45 47.5801 123.86 47.4076 124.121 47.0625C124.381 46.7174 124.511 46.2487 124.511 45.6562C124.511 44.9987 124.375 44.5072 124.101 44.1816C123.834 43.8496 123.431 43.6836 122.89 43.6836C122.343 43.6836 121.933 43.8496 121.66 44.1816C121.386 44.5072 121.25 44.9987 121.25 45.6562C121.25 46.2487 121.383 46.7174 121.65 47.0625C121.923 47.4076 122.337 47.5801 122.89 47.5801Z" fill="#4F4F4F"/>
<path d="M136.301 41.877C137.467 41.877 138.404 42.196 139.114 42.834C139.823 43.4655 140.178 44.4811 140.178 45.8809V53H137.2V46.623C137.2 45.8418 137.056 45.2526 136.77 44.8555C136.49 44.4583 136.047 44.2598 135.442 44.2598C134.53 44.2598 133.909 44.569 133.577 45.1875C133.245 45.806 133.079 46.6979 133.079 47.8633V53H130.1V42.082H132.375L132.776 43.4785H132.942C133.176 43.1009 133.466 42.7949 133.811 42.5605C134.163 42.3262 134.55 42.1536 134.973 42.043C135.403 41.9323 135.845 41.877 136.301 41.877Z" fill="#4F4F4F"/>
<path d="M157.859 42.082V53H155.574L155.174 51.6035H155.018C154.783 51.9746 154.49 52.2773 154.139 52.5117C153.787 52.7461 153.4 52.9186 152.977 53.0293C152.553 53.14 152.114 53.1953 151.658 53.1953C150.877 53.1953 150.197 53.0586 149.617 52.7852C149.038 52.5052 148.585 52.0723 148.26 51.4863C147.941 50.9004 147.781 50.1387 147.781 49.2012V42.082H150.76V48.459C150.76 49.2402 150.9 49.8294 151.18 50.2266C151.46 50.6237 151.906 50.8223 152.518 50.8223C153.123 50.8223 153.598 50.6855 153.943 50.4121C154.288 50.1322 154.529 49.7253 154.666 49.1914C154.809 48.651 154.881 47.9935 154.881 47.2188V42.082H157.859Z" fill="#4F4F4F"/>
<path d="M166.759 41.877C167.989 41.877 168.982 42.3555 169.737 43.3125C170.499 44.2695 170.88 45.6725 170.88 47.5215C170.88 48.7585 170.701 49.8001 170.343 50.6465C169.985 51.4863 169.49 52.1211 168.858 52.5508C168.227 52.9805 167.501 53.1953 166.68 53.1953C166.153 53.1953 165.701 53.1302 165.323 53C164.945 52.8633 164.623 52.6908 164.356 52.4824C164.089 52.2676 163.858 52.0397 163.663 51.7988H163.507C163.559 52.0592 163.598 52.3262 163.624 52.5996C163.65 52.873 163.663 53.14 163.663 53.4004V57.8047H160.684V42.082H163.106L163.526 43.498H163.663C163.858 43.2051 164.096 42.9349 164.376 42.6875C164.656 42.4401 164.991 42.2448 165.382 42.1016C165.779 41.9518 166.238 41.877 166.759 41.877ZM165.802 44.2598C165.281 44.2598 164.867 44.3672 164.561 44.582C164.255 44.7969 164.031 45.1191 163.888 45.5488C163.751 45.9785 163.676 46.5221 163.663 47.1797V47.502C163.663 48.2051 163.728 48.8008 163.858 49.2891C163.995 49.7773 164.22 50.1484 164.532 50.4023C164.851 50.6562 165.287 50.7832 165.841 50.7832C166.296 50.7832 166.671 50.6562 166.964 50.4023C167.257 50.1484 167.475 49.7773 167.618 49.2891C167.768 48.7943 167.843 48.1921 167.843 47.4824C167.843 46.4147 167.677 45.6107 167.345 45.0703C167.012 44.5299 166.498 44.2598 165.802 44.2598Z" fill="#4F4F4F"/>
<path d="M186.911 53L186.071 49.1816C186.025 48.9538 185.95 48.6185 185.846 48.1758C185.742 47.7266 185.628 47.248 185.504 46.7402C185.387 46.2259 185.276 45.7507 185.172 45.3145C185.075 44.8783 185.003 44.5592 184.957 44.3574H184.87C184.824 44.5592 184.752 44.8783 184.655 45.3145C184.557 45.7507 184.446 46.2259 184.323 46.7402C184.205 47.2546 184.095 47.7396 183.991 48.1953C183.886 48.6445 183.808 48.9863 183.756 49.2207L182.877 53H179.674L176.569 42.082H179.537L180.797 46.916C180.882 47.2546 180.963 47.6582 181.041 48.127C181.12 48.5892 181.188 49.0384 181.246 49.4746C181.312 49.9043 181.36 50.2461 181.393 50.5H181.471C181.484 50.3112 181.51 50.0605 181.549 49.748C181.595 49.4355 181.644 49.1133 181.696 48.7812C181.754 48.4427 181.806 48.14 181.852 47.873C181.904 47.5996 181.943 47.4141 181.969 47.3164L183.317 42.082H186.598L187.877 47.3164C187.923 47.5052 187.982 47.8047 188.053 48.2148C188.131 48.625 188.2 49.0482 188.258 49.4844C188.317 49.9141 188.349 50.2526 188.356 50.5H188.434C188.46 50.2786 188.506 49.9499 188.571 49.5137C188.636 49.0775 188.711 48.6217 188.795 48.1465C188.886 47.6647 188.978 47.2546 189.069 46.916L190.377 42.082H193.297L190.153 53H186.911Z" fill="#4F4F4F"/>
<path d="M197.743 42.082V53H194.765V42.082H197.743ZM196.259 37.8047C196.702 37.8047 197.083 37.9089 197.402 38.1172C197.721 38.319 197.88 38.6999 197.88 39.2598C197.88 39.8132 197.721 40.1973 197.402 40.4121C197.083 40.6204 196.702 40.7246 196.259 40.7246C195.81 40.7246 195.426 40.6204 195.107 40.4121C194.794 40.1973 194.638 39.8132 194.638 39.2598C194.638 38.6999 194.794 38.319 195.107 38.1172C195.426 37.9089 195.81 37.8047 196.259 37.8047Z" fill="#4F4F4F"/>
<path d="M205.178 50.8223C205.503 50.8223 205.819 50.7897 206.125 50.7246C206.438 50.6595 206.747 50.5781 207.053 50.4805V52.6973C206.734 52.8405 206.337 52.9577 205.861 53.0488C205.393 53.1465 204.878 53.1953 204.318 53.1953C203.667 53.1953 203.081 53.0911 202.561 52.8828C202.046 52.668 201.639 52.3001 201.34 51.7793C201.047 51.252 200.9 50.5195 200.9 49.582V44.3184H199.475V43.0586L201.115 42.0625L201.975 39.7578H203.879V42.082H206.936V44.3184H203.879V49.582C203.879 49.9987 203.996 50.3112 204.23 50.5195C204.471 50.7214 204.787 50.8223 205.178 50.8223Z" fill="#4F4F4F"/>
<path d="M211.948 37.8047V40.9004C211.948 41.4408 211.929 41.9551 211.889 42.4434C211.857 42.9316 211.831 43.2767 211.811 43.4785H211.968C212.202 43.1009 212.479 42.7949 212.798 42.5605C213.123 42.3262 213.481 42.1536 213.872 42.043C214.262 41.9323 214.682 41.877 215.132 41.877C215.919 41.877 216.606 42.0169 217.192 42.2969C217.778 42.5703 218.234 43.0033 218.559 43.5957C218.885 44.1816 219.048 44.9434 219.048 45.8809V53H216.069V46.623C216.069 45.8418 215.926 45.2526 215.639 44.8555C215.353 44.4583 214.91 44.2598 214.311 44.2598C213.712 44.2598 213.24 44.3997 212.895 44.6797C212.55 44.9531 212.306 45.36 212.163 45.9004C212.02 46.4342 211.948 47.0885 211.948 47.8633V53H208.97V37.8047H211.948Z" fill="#4F4F4F"/>
<path d="M232.364 44.9824H238.028V52.3848C237.279 52.6322 236.501 52.8307 235.694 52.9805C234.886 53.1237 233.972 53.1953 232.95 53.1953C231.53 53.1953 230.326 52.9154 229.336 52.3555C228.347 51.7956 227.595 50.9688 227.08 49.875C226.566 48.7812 226.309 47.4368 226.309 45.8418C226.309 44.3444 226.595 43.0488 227.168 41.9551C227.748 40.8613 228.591 40.015 229.698 39.416C230.811 38.8171 232.168 38.5176 233.77 38.5176C234.525 38.5176 235.271 38.599 236.006 38.7617C236.742 38.9245 237.409 39.1361 238.008 39.3965L237.002 41.8184C236.566 41.597 236.068 41.4115 235.508 41.2617C234.948 41.112 234.362 41.0371 233.75 41.0371C232.871 41.0371 232.107 41.2389 231.455 41.6426C230.811 42.0462 230.31 42.6126 229.952 43.3418C229.6 44.0645 229.424 44.9173 229.424 45.9004C229.424 46.8314 229.551 47.6582 229.805 48.3809C230.059 49.097 230.459 49.6602 231.006 50.0703C231.553 50.474 232.266 50.6758 233.145 50.6758C233.575 50.6758 233.936 50.6562 234.229 50.6172C234.528 50.5716 234.808 50.526 235.069 50.4805V47.502H232.364V44.9824Z" fill="#4F4F4F"/>
<path d="M243.88 42.082V53H240.902V42.082H243.88ZM242.396 37.8047C242.838 37.8047 243.219 37.9089 243.538 38.1172C243.857 38.319 244.017 38.6999 244.017 39.2598C244.017 39.8132 243.857 40.1973 243.538 40.4121C243.219 40.6204 242.838 40.7246 242.396 40.7246C241.946 40.7246 241.562 40.6204 241.243 40.4121C240.931 40.1973 240.775 39.8132 240.775 39.2598C240.775 38.6999 240.931 38.319 241.243 38.1172C241.562 37.9089 241.946 37.8047 242.396 37.8047Z" fill="#4F4F4F"/>
<path d="M251.314 50.8223C251.64 50.8223 251.956 50.7897 252.262 50.7246C252.574 50.6595 252.883 50.5781 253.189 50.4805V52.6973C252.87 52.8405 252.473 52.9577 251.998 53.0488C251.529 53.1465 251.015 53.1953 250.455 53.1953C249.804 53.1953 249.218 53.0911 248.697 52.8828C248.183 52.668 247.776 52.3001 247.477 51.7793C247.184 51.252 247.037 50.5195 247.037 49.582V44.3184H245.611V43.0586L247.252 42.0625L248.111 39.7578H250.016V42.082H253.072V44.3184H250.016V49.582C250.016 49.9987 250.133 50.3112 250.367 50.5195C250.608 50.7214 250.924 50.8223 251.314 50.8223Z" fill="#4F4F4F"/>
<path d="M267.04 53H264.022V46.8379H258.368V53H255.341V38.7227H258.368V44.3184H264.022V38.7227H267.04V53Z" fill="#4F4F4F"/>
<path d="M280.138 42.082V53H277.853L277.453 51.6035H277.296C277.062 51.9746 276.769 52.2773 276.418 52.5117C276.066 52.7461 275.679 52.9186 275.255 53.0293C274.832 53.14 274.393 53.1953 273.937 53.1953C273.156 53.1953 272.476 53.0586 271.896 52.7852C271.317 52.5052 270.864 52.0723 270.539 51.4863C270.22 50.9004 270.06 50.1387 270.06 49.2012V42.082H273.039V48.459C273.039 49.2402 273.179 49.8294 273.459 50.2266C273.739 50.6237 274.184 50.8223 274.796 50.8223C275.402 50.8223 275.877 50.6855 276.222 50.4121C276.567 50.1322 276.808 49.7253 276.945 49.1914C277.088 48.651 277.16 47.9935 277.16 47.2188V42.082H280.138Z" fill="#4F4F4F"/>
<path d="M285.942 37.8047V41.3398C285.942 41.75 285.929 42.1569 285.903 42.5605C285.883 42.9642 285.857 43.2767 285.825 43.498H285.942C286.228 43.0488 286.619 42.668 287.114 42.3555C287.608 42.0365 288.25 41.877 289.038 41.877C290.261 41.877 291.254 42.3555 292.016 43.3125C292.778 44.2695 293.159 45.6725 293.159 47.5215C293.159 48.765 292.983 49.8099 292.631 50.6562C292.28 51.4961 291.788 52.1309 291.157 52.5605C290.525 52.9837 289.793 53.1953 288.959 53.1953C288.159 53.1953 287.527 53.0521 287.065 52.7656C286.603 52.4792 286.228 52.1569 285.942 51.7988H285.737L285.239 53H282.963V37.8047H285.942ZM288.08 44.2598C287.56 44.2598 287.146 44.3672 286.84 44.582C286.534 44.7969 286.31 45.1191 286.166 45.5488C286.03 45.9785 285.955 46.5221 285.942 47.1797V47.502C285.942 48.5632 286.098 49.377 286.411 49.9434C286.723 50.5033 287.293 50.7832 288.12 50.7832C288.732 50.7832 289.217 50.5 289.575 49.9336C289.939 49.3672 290.121 48.5501 290.121 47.4824C290.121 46.4147 289.939 45.6107 289.575 45.0703C289.21 44.5299 288.712 44.2598 288.08 44.2598Z" fill="#4F4F4F"/>
<path d="M60.9975 25C49.955 25 41 34.0079 41 45.12C40.9908 53.7682 46.4988 61.4547 54.68 64.2104C55.68 64.3958 56.045 63.7745 56.045 63.241C56.045 62.7625 56.0275 61.4975 56.0175 59.8192C50.455 61.0341 49.28 57.1213 49.28 57.1213C48.3725 54.7967 47.06 54.178 47.06 54.178C45.2425 52.9305 47.195 52.9555 47.195 52.9555C49.2025 53.0983 50.2575 55.0296 50.2575 55.0296C52.0425 58.1033 54.94 57.2165 56.08 56.7005C56.26 55.4004 56.7775 54.5136 57.35 54.0101C52.91 53.5016 48.24 51.7757 48.24 44.0679C48.24 41.871 49.02 40.0749 50.3 38.6671C50.0925 38.1586 49.4075 36.1121 50.495 33.3441C50.495 33.3441 52.175 32.803 55.995 35.4057C57.6269 34.9588 59.3108 34.7314 61.0025 34.7293C62.6943 34.7327 64.3781 34.961 66.01 35.4082C69.8275 32.8055 71.505 33.3466 71.505 33.3466C72.595 36.1171 71.91 38.1611 71.705 38.6697C72.9875 40.0774 73.76 41.8735 73.76 44.0704C73.76 51.7982 69.085 53.4991 64.63 53.9976C65.3475 54.6188 65.9875 55.8463 65.9875 57.7225C65.9875 60.4128 65.9625 62.5822 65.9625 63.241C65.9625 63.7795 66.3225 64.4058 67.3375 64.2079C75.5104 61.4458 81.0099 53.7624 81 45.12C81 34.0079 72.045 25 60.9975 25Z" fill="black"/>
<defs>
<filter id="filter0_d_12779_47071" x="0" y="0" width="340" height="90" filterUnits="userSpaceOnUse" color-interpolation-filters="sRGB">
<feFlood flood-opacity="0" result="BackgroundImageFix"/>
<feColorMatrix in="SourceAlpha" type="matrix" values="0 0 0 0 0 0 0 0 0 0 0 0 0 0 0 0 0 0 127 0" result="hardAlpha"/>
<feOffset/>
<feGaussianBlur stdDeviation="10"/>
<feComposite in2="hardAlpha" operator="out"/>
<feColorMatrix type="matrix" values="0 0 0 0 1 0 0 0 0 1 0 0 0 0 1 0 0 0 1 0"/>
<feBlend mode="darken" in2="BackgroundImageFix" result="effect1_dropShadow_12779_47071"/>
<feBlend mode="normal" in="SourceGraphic" in2="effect1_dropShadow_12779_47071" result="shape"/>
</filter>
</defs>
</svg>
