<svg width="40" height="40" viewBox="0 0 40 40" fill="none" xmlns="http://www.w3.org/2000/svg">
<path d="M19.9975 0C8.95501 0 1.16372e-05 9.00789 1.16372e-05 20.12C-0.00924015 28.7682 5.4988 36.4547 13.68 39.2104C14.68 39.3958 15.045 38.7745 15.045 38.241C15.045 37.7625 15.0275 36.4975 15.0175 34.8192C9.455 36.0341 8.28001 32.1213 8.28001 32.1213C7.37251 29.7967 6.06001 29.178 6.06001 29.178C4.24251 27.9305 6.19501 27.9555 6.19501 27.9555C8.20251 28.0983 9.25751 30.0296 9.25751 30.0296C11.0425 33.1033 13.94 32.2165 15.08 31.7005C15.26 30.4004 15.7775 29.5136 16.35 29.0101C11.91 28.5016 7.24001 26.7757 7.24001 19.0679C7.24001 16.871 8.02001 15.0749 9.30001 13.6671C9.09251 13.1586 8.40751 11.1121 9.49501 8.34407C9.49501 8.34407 11.175 7.803 14.995 10.4057C16.6269 9.95881 18.3108 9.73137 20.0025 9.72933C21.6943 9.73269 23.3781 9.96097 25.01 10.4082C28.8275 7.8055 30.505 8.34658 30.505 8.34658C31.595 11.1171 30.91 13.1611 30.705 13.6697C31.9875 15.0774 32.76 16.8735 32.76 19.0704C32.76 26.7982 28.085 28.4991 23.63 28.9976C24.3475 29.6188 24.9875 30.8463 24.9875 32.7225C24.9875 35.4128 24.9625 37.5822 24.9625 38.241C24.9625 38.7795 25.3225 39.4058 26.3375 39.2079C34.5104 36.4458 40.0099 28.7624 40 20.12C40 9.00789 31.045 0 19.9975 0Z" fill="black"/>
</svg>
