<svg width="340" height="90" viewBox="0 0 340 90" fill="none" xmlns="http://www.w3.org/2000/svg">
<g filter="url(#filter0_d_12779_47070)">
<rect x="20" y="20" width="300" height="50" rx="5" fill="white"/>
</g>
<path d="M81 45.8616C81 44.1836 80.8638 42.9592 80.5692 41.6893H61.4082V49.2629H72.6553C72.4286 51.1451 71.2041 53.9795 68.483 55.8842L68.4448 56.1378L74.5032 60.8311L74.9229 60.873C78.7777 57.3128 81 52.0747 81 45.8616Z" fill="#4285F4"/>
<path d="M61.4082 65.8163C66.9183 65.8163 71.5441 64.0022 74.9229 60.873L68.4829 55.8842C66.7596 57.0861 64.4466 57.9251 61.4082 57.9251C56.0114 57.9251 51.4309 54.3651 49.7981 49.4445L49.5588 49.4648L43.2592 54.3401L43.1768 54.5691C46.5328 61.2357 53.4263 65.8163 61.4082 65.8163Z" fill="#34A853"/>
<path d="M49.7981 49.4443C49.3673 48.1745 49.1179 46.8139 49.1179 45.408C49.1179 44.0021 49.3673 42.6416 49.7754 41.3718L49.764 41.1013L43.3855 36.1477L43.1768 36.247C41.7937 39.0134 41 42.1201 41 45.408C41 48.696 41.7937 51.8025 43.1768 54.569L49.7981 49.4443Z" fill="#FBBC05"/>
<path d="M61.4082 32.8911C65.2403 32.8911 67.8253 34.5464 69.2993 35.9297L75.0589 30.3061C71.5216 27.0181 66.9183 25 61.4082 25C53.4263 25 46.5328 29.5805 43.1768 36.2471L49.7755 41.3718C51.4309 36.4512 56.0114 32.8911 61.4082 32.8911Z" fill="#EB4335"/>
<path d="M111.225 49.0352C111.225 49.8815 111.02 50.6172 110.609 51.2422C110.199 51.8672 109.6 52.349 108.812 52.6875C108.031 53.026 107.081 53.1953 105.961 53.1953C105.466 53.1953 104.981 53.1628 104.506 53.0977C104.037 53.0326 103.585 52.9382 103.148 52.8145C102.719 52.6842 102.309 52.5247 101.918 52.3359V49.5234C102.595 49.8229 103.298 50.0931 104.027 50.334C104.757 50.5749 105.479 50.6953 106.195 50.6953C106.69 50.6953 107.087 50.6302 107.387 50.5C107.693 50.3698 107.914 50.1908 108.051 49.9629C108.188 49.735 108.256 49.4746 108.256 49.1816C108.256 48.8236 108.135 48.5176 107.895 48.2637C107.654 48.0098 107.322 47.7721 106.898 47.5508C106.482 47.3294 106.01 47.0918 105.482 46.8379C105.15 46.6816 104.789 46.4928 104.398 46.2715C104.008 46.0436 103.637 45.7669 103.285 45.4414C102.934 45.1159 102.644 44.722 102.416 44.2598C102.195 43.791 102.084 43.2311 102.084 42.5801C102.084 41.7272 102.279 40.998 102.67 40.3926C103.061 39.7871 103.617 39.3249 104.34 39.0059C105.069 38.6803 105.928 38.5176 106.918 38.5176C107.66 38.5176 108.367 38.6055 109.037 38.7812C109.714 38.9505 110.421 39.1979 111.156 39.5234L110.18 41.877C109.522 41.61 108.933 41.4049 108.412 41.2617C107.891 41.112 107.361 41.0371 106.82 41.0371C106.443 41.0371 106.12 41.099 105.854 41.2227C105.587 41.3398 105.385 41.5091 105.248 41.7305C105.111 41.9453 105.043 42.196 105.043 42.4824C105.043 42.821 105.141 43.1074 105.336 43.3418C105.538 43.5697 105.837 43.791 106.234 44.0059C106.638 44.2207 107.139 44.4714 107.738 44.7578C108.467 45.1029 109.089 45.4642 109.604 45.8418C110.124 46.2129 110.525 46.6523 110.805 47.1602C111.085 47.6615 111.225 48.2865 111.225 49.0352Z" fill="#4F4F4F"/>
<path d="M116.257 42.082V53H113.278V42.082H116.257ZM114.772 37.8047C115.215 37.8047 115.596 37.9089 115.915 38.1172C116.234 38.319 116.393 38.6999 116.393 39.2598C116.393 39.8132 116.234 40.1973 115.915 40.4121C115.596 40.6204 115.215 40.7246 114.772 40.7246C114.323 40.7246 113.939 40.6204 113.62 40.4121C113.307 40.1973 113.151 39.8132 113.151 39.2598C113.151 38.6999 113.307 38.319 113.62 38.1172C113.939 37.9089 114.323 37.8047 114.772 37.8047Z" fill="#4F4F4F"/>
<path d="M122.285 57.8047C120.761 57.8047 119.596 57.5378 118.789 57.0039C117.988 56.4766 117.587 55.7344 117.587 54.7773C117.587 54.1198 117.793 53.5697 118.203 53.127C118.613 52.6842 119.215 52.3685 120.009 52.1797C119.703 52.0495 119.436 51.8379 119.209 51.5449C118.981 51.2454 118.867 50.9297 118.867 50.5977C118.867 50.181 118.987 49.8359 119.228 49.5625C119.469 49.2826 119.817 49.0091 120.273 48.7422C119.7 48.4948 119.244 48.0977 118.906 47.5508C118.574 47.0039 118.408 46.3594 118.408 45.6172C118.408 44.8229 118.58 44.1491 118.925 43.5957C119.277 43.0358 119.785 42.6094 120.449 42.3164C121.119 42.0234 121.933 41.877 122.89 41.877C123.092 41.877 123.326 41.89 123.593 41.916C123.86 41.9421 124.104 41.9714 124.326 42.0039C124.554 42.0365 124.707 42.0625 124.785 42.082H128.593V43.5957L126.884 44.0352C127.041 44.276 127.158 44.5332 127.236 44.8066C127.314 45.0801 127.353 45.3698 127.353 45.6758C127.353 46.8477 126.943 47.7624 126.123 48.4199C125.309 49.071 124.176 49.3965 122.724 49.3965C122.379 49.377 122.054 49.3509 121.748 49.3184C121.598 49.4355 121.484 49.5592 121.406 49.6895C121.328 49.8197 121.289 49.9564 121.289 50.0996C121.289 50.2428 121.347 50.3633 121.464 50.4609C121.588 50.5521 121.77 50.6237 122.011 50.6758C122.259 50.7214 122.565 50.7441 122.929 50.7441H124.785C125.983 50.7441 126.894 51.0013 127.519 51.5156C128.151 52.0299 128.466 52.7852 128.466 53.7812C128.466 55.0573 127.933 56.0469 126.865 56.75C125.804 57.4531 124.277 57.8047 122.285 57.8047ZM122.412 55.8613C123.121 55.8613 123.73 55.793 124.238 55.6562C124.752 55.526 125.146 55.3372 125.42 55.0898C125.693 54.849 125.83 54.5592 125.83 54.2207C125.83 53.9473 125.748 53.7292 125.586 53.5664C125.429 53.4102 125.188 53.2995 124.863 53.2344C124.544 53.1693 124.134 53.1367 123.632 53.1367H122.089C121.725 53.1367 121.396 53.1953 121.103 53.3125C120.817 53.4297 120.589 53.5924 120.42 53.8008C120.25 54.0156 120.166 54.263 120.166 54.543C120.166 54.9531 120.361 55.2754 120.752 55.5098C121.149 55.7441 121.702 55.8613 122.412 55.8613ZM122.89 47.5801C123.45 47.5801 123.86 47.4076 124.121 47.0625C124.381 46.7174 124.511 46.2487 124.511 45.6562C124.511 44.9987 124.375 44.5072 124.101 44.1816C123.834 43.8496 123.431 43.6836 122.89 43.6836C122.343 43.6836 121.933 43.8496 121.66 44.1816C121.386 44.5072 121.25 44.9987 121.25 45.6562C121.25 46.2487 121.383 46.7174 121.65 47.0625C121.923 47.4076 122.337 47.5801 122.89 47.5801Z" fill="#4F4F4F"/>
<path d="M136.301 41.877C137.467 41.877 138.404 42.196 139.114 42.834C139.823 43.4655 140.178 44.4811 140.178 45.8809V53H137.2V46.623C137.2 45.8418 137.056 45.2526 136.77 44.8555C136.49 44.4583 136.047 44.2598 135.442 44.2598C134.53 44.2598 133.909 44.569 133.577 45.1875C133.245 45.806 133.079 46.6979 133.079 47.8633V53H130.1V42.082H132.375L132.776 43.4785H132.942C133.176 43.1009 133.466 42.7949 133.811 42.5605C134.163 42.3262 134.55 42.1536 134.973 42.043C135.403 41.9323 135.845 41.877 136.301 41.877Z" fill="#4F4F4F"/>
<path d="M157.859 42.082V53H155.574L155.174 51.6035H155.018C154.783 51.9746 154.49 52.2773 154.139 52.5117C153.787 52.7461 153.4 52.9186 152.977 53.0293C152.553 53.14 152.114 53.1953 151.658 53.1953C150.877 53.1953 150.197 53.0586 149.617 52.7852C149.038 52.5052 148.585 52.0723 148.26 51.4863C147.941 50.9004 147.781 50.1387 147.781 49.2012V42.082H150.76V48.459C150.76 49.2402 150.9 49.8294 151.18 50.2266C151.46 50.6237 151.906 50.8223 152.518 50.8223C153.123 50.8223 153.598 50.6855 153.943 50.4121C154.288 50.1322 154.529 49.7253 154.666 49.1914C154.809 48.651 154.881 47.9935 154.881 47.2188V42.082H157.859Z" fill="#4F4F4F"/>
<path d="M166.759 41.877C167.989 41.877 168.982 42.3555 169.737 43.3125C170.499 44.2695 170.88 45.6725 170.88 47.5215C170.88 48.7585 170.701 49.8001 170.343 50.6465C169.985 51.4863 169.49 52.1211 168.858 52.5508C168.227 52.9805 167.501 53.1953 166.68 53.1953C166.153 53.1953 165.701 53.1302 165.323 53C164.945 52.8633 164.623 52.6908 164.356 52.4824C164.089 52.2676 163.858 52.0397 163.663 51.7988H163.507C163.559 52.0592 163.598 52.3262 163.624 52.5996C163.65 52.873 163.663 53.14 163.663 53.4004V57.8047H160.684V42.082H163.106L163.526 43.498H163.663C163.858 43.2051 164.096 42.9349 164.376 42.6875C164.656 42.4401 164.991 42.2448 165.382 42.1016C165.779 41.9518 166.238 41.877 166.759 41.877ZM165.802 44.2598C165.281 44.2598 164.867 44.3672 164.561 44.582C164.255 44.7969 164.031 45.1191 163.888 45.5488C163.751 45.9785 163.676 46.5221 163.663 47.1797V47.502C163.663 48.2051 163.728 48.8008 163.858 49.2891C163.995 49.7773 164.22 50.1484 164.532 50.4023C164.851 50.6562 165.287 50.7832 165.841 50.7832C166.296 50.7832 166.671 50.6562 166.964 50.4023C167.257 50.1484 167.475 49.7773 167.618 49.2891C167.768 48.7943 167.843 48.1921 167.843 47.4824C167.843 46.4147 167.677 45.6107 167.345 45.0703C167.012 44.5299 166.498 44.2598 165.802 44.2598Z" fill="#4F4F4F"/>
<path d="M186.911 53L186.071 49.1816C186.025 48.9538 185.95 48.6185 185.846 48.1758C185.742 47.7266 185.628 47.248 185.504 46.7402C185.387 46.2259 185.276 45.7507 185.172 45.3145C185.075 44.8783 185.003 44.5592 184.957 44.3574H184.87C184.824 44.5592 184.752 44.8783 184.655 45.3145C184.557 45.7507 184.446 46.2259 184.323 46.7402C184.205 47.2546 184.095 47.7396 183.991 48.1953C183.886 48.6445 183.808 48.9863 183.756 49.2207L182.877 53H179.674L176.569 42.082H179.537L180.797 46.916C180.882 47.2546 180.963 47.6582 181.041 48.127C181.12 48.5892 181.188 49.0384 181.246 49.4746C181.312 49.9043 181.36 50.2461 181.393 50.5H181.471C181.484 50.3112 181.51 50.0605 181.549 49.748C181.595 49.4355 181.644 49.1133 181.696 48.7812C181.754 48.4427 181.806 48.14 181.852 47.873C181.904 47.5996 181.943 47.4141 181.969 47.3164L183.317 42.082H186.598L187.877 47.3164C187.923 47.5052 187.982 47.8047 188.053 48.2148C188.131 48.625 188.2 49.0482 188.258 49.4844C188.317 49.9141 188.349 50.2526 188.356 50.5H188.434C188.46 50.2786 188.506 49.9499 188.571 49.5137C188.636 49.0775 188.711 48.6217 188.795 48.1465C188.886 47.6647 188.978 47.2546 189.069 46.916L190.377 42.082H193.297L190.153 53H186.911Z" fill="#4F4F4F"/>
<path d="M197.743 42.082V53H194.765V42.082H197.743ZM196.259 37.8047C196.702 37.8047 197.083 37.9089 197.402 38.1172C197.721 38.319 197.88 38.6999 197.88 39.2598C197.88 39.8132 197.721 40.1973 197.402 40.4121C197.083 40.6204 196.702 40.7246 196.259 40.7246C195.81 40.7246 195.426 40.6204 195.107 40.4121C194.794 40.1973 194.638 39.8132 194.638 39.2598C194.638 38.6999 194.794 38.319 195.107 38.1172C195.426 37.9089 195.81 37.8047 196.259 37.8047Z" fill="#4F4F4F"/>
<path d="M205.178 50.8223C205.503 50.8223 205.819 50.7897 206.125 50.7246C206.438 50.6595 206.747 50.5781 207.053 50.4805V52.6973C206.734 52.8405 206.337 52.9577 205.861 53.0488C205.393 53.1465 204.878 53.1953 204.318 53.1953C203.667 53.1953 203.081 53.0911 202.561 52.8828C202.046 52.668 201.639 52.3001 201.34 51.7793C201.047 51.252 200.9 50.5195 200.9 49.582V44.3184H199.475V43.0586L201.115 42.0625L201.975 39.7578H203.879V42.082H206.936V44.3184H203.879V49.582C203.879 49.9987 203.996 50.3112 204.23 50.5195C204.471 50.7214 204.787 50.8223 205.178 50.8223Z" fill="#4F4F4F"/>
<path d="M211.948 37.8047V40.9004C211.948 41.4408 211.929 41.9551 211.889 42.4434C211.857 42.9316 211.831 43.2767 211.811 43.4785H211.968C212.202 43.1009 212.479 42.7949 212.798 42.5605C213.123 42.3262 213.481 42.1536 213.872 42.043C214.262 41.9323 214.682 41.877 215.132 41.877C215.919 41.877 216.606 42.0169 217.192 42.2969C217.778 42.5703 218.234 43.0033 218.559 43.5957C218.885 44.1816 219.048 44.9434 219.048 45.8809V53H216.069V46.623C216.069 45.8418 215.926 45.2526 215.639 44.8555C215.353 44.4583 214.91 44.2598 214.311 44.2598C213.712 44.2598 213.24 44.3997 212.895 44.6797C212.55 44.9531 212.306 45.36 212.163 45.9004C212.02 46.4342 211.948 47.0885 211.948 47.8633V53H208.97V37.8047H211.948Z" fill="#4F4F4F"/>
<path d="M232.364 44.9824H238.028V52.3848C237.279 52.6322 236.501 52.8307 235.694 52.9805C234.886 53.1237 233.972 53.1953 232.95 53.1953C231.53 53.1953 230.326 52.9154 229.336 52.3555C228.347 51.7956 227.595 50.9688 227.08 49.875C226.566 48.7812 226.309 47.4368 226.309 45.8418C226.309 44.3444 226.595 43.0488 227.168 41.9551C227.748 40.8613 228.591 40.015 229.698 39.416C230.811 38.8171 232.168 38.5176 233.77 38.5176C234.525 38.5176 235.271 38.599 236.006 38.7617C236.742 38.9245 237.409 39.1361 238.008 39.3965L237.002 41.8184C236.566 41.597 236.068 41.4115 235.508 41.2617C234.948 41.112 234.362 41.0371 233.75 41.0371C232.871 41.0371 232.107 41.2389 231.455 41.6426C230.811 42.0462 230.31 42.6126 229.952 43.3418C229.6 44.0645 229.424 44.9173 229.424 45.9004C229.424 46.8314 229.551 47.6582 229.805 48.3809C230.059 49.097 230.459 49.6602 231.006 50.0703C231.553 50.474 232.266 50.6758 233.145 50.6758C233.575 50.6758 233.936 50.6562 234.229 50.6172C234.528 50.5716 234.808 50.526 235.069 50.4805V47.502H232.364V44.9824Z" fill="#4F4F4F"/>
<path d="M250.823 47.5215C250.823 48.4329 250.7 49.2402 250.452 49.9434C250.211 50.6465 249.857 51.2422 249.388 51.7305C248.926 52.2122 248.366 52.5768 247.708 52.8242C247.057 53.0716 246.321 53.1953 245.501 53.1953C244.733 53.1953 244.027 53.0716 243.382 52.8242C242.744 52.5768 242.187 52.2122 241.712 51.7305C241.243 51.2422 240.879 50.6465 240.618 49.9434C240.364 49.2402 240.238 48.4329 240.238 47.5215C240.238 46.3105 240.452 45.2852 240.882 44.4453C241.312 43.6055 241.924 42.9674 242.718 42.5312C243.512 42.0951 244.46 41.877 245.56 41.877C246.582 41.877 247.487 42.0951 248.275 42.5312C249.069 42.9674 249.691 43.6055 250.14 44.4453C250.596 45.2852 250.823 46.3105 250.823 47.5215ZM243.275 47.5215C243.275 48.2376 243.353 48.8398 243.509 49.3281C243.665 49.8164 243.909 50.1842 244.241 50.4316C244.573 50.679 245.006 50.8027 245.54 50.8027C246.068 50.8027 246.494 50.679 246.82 50.4316C247.152 50.1842 247.392 49.8164 247.542 49.3281C247.698 48.8398 247.777 48.2376 247.777 47.5215C247.777 46.7988 247.698 46.1999 247.542 45.7246C247.392 45.2428 247.152 44.8815 246.82 44.6406C246.488 44.3997 246.055 44.2793 245.521 44.2793C244.733 44.2793 244.16 44.5495 243.802 45.0898C243.45 45.6302 243.275 46.4408 243.275 47.5215Z" fill="#4F4F4F"/>
<path d="M262.906 47.5215C262.906 48.4329 262.783 49.2402 262.535 49.9434C262.294 50.6465 261.939 51.2422 261.471 51.7305C261.008 52.2122 260.449 52.5768 259.791 52.8242C259.14 53.0716 258.404 53.1953 257.584 53.1953C256.816 53.1953 256.109 53.0716 255.465 52.8242C254.827 52.5768 254.27 52.2122 253.795 51.7305C253.326 51.2422 252.962 50.6465 252.701 49.9434C252.447 49.2402 252.32 48.4329 252.32 47.5215C252.32 46.3105 252.535 45.2852 252.965 44.4453C253.395 43.6055 254.007 42.9674 254.801 42.5312C255.595 42.0951 256.542 41.877 257.643 41.877C258.665 41.877 259.57 42.0951 260.357 42.5312C261.152 42.9674 261.773 43.6055 262.223 44.4453C262.678 45.2852 262.906 46.3105 262.906 47.5215ZM255.357 47.5215C255.357 48.2376 255.436 48.8398 255.592 49.3281C255.748 49.8164 255.992 50.1842 256.324 50.4316C256.656 50.679 257.089 50.8027 257.623 50.8027C258.15 50.8027 258.577 50.679 258.902 50.4316C259.234 50.1842 259.475 49.8164 259.625 49.3281C259.781 48.8398 259.859 48.2376 259.859 47.5215C259.859 46.7988 259.781 46.1999 259.625 45.7246C259.475 45.2428 259.234 44.8815 258.902 44.6406C258.57 44.3997 258.137 44.2793 257.604 44.2793C256.816 44.2793 256.243 44.5495 255.885 45.0898C255.533 45.6302 255.357 46.4408 255.357 47.5215Z" fill="#4F4F4F"/>
<path d="M268.261 57.8047C266.737 57.8047 265.572 57.5378 264.764 57.0039C263.964 56.4766 263.563 55.7344 263.563 54.7773C263.563 54.1198 263.768 53.5697 264.179 53.127C264.589 52.6842 265.191 52.3685 265.985 52.1797C265.679 52.0495 265.412 51.8379 265.184 51.5449C264.957 51.2454 264.843 50.9297 264.843 50.5977C264.843 50.181 264.963 49.8359 265.204 49.5625C265.445 49.2826 265.793 49.0091 266.249 48.7422C265.676 48.4948 265.22 48.0977 264.882 47.5508C264.55 47.0039 264.384 46.3594 264.384 45.6172C264.384 44.8229 264.556 44.1491 264.901 43.5957C265.253 43.0358 265.761 42.6094 266.425 42.3164C267.095 42.0234 267.909 41.877 268.866 41.877C269.068 41.877 269.302 41.89 269.569 41.916C269.836 41.9421 270.08 41.9714 270.302 42.0039C270.529 42.0365 270.682 42.0625 270.761 42.082H274.569V43.5957L272.86 44.0352C273.016 44.276 273.134 44.5332 273.212 44.8066C273.29 45.0801 273.329 45.3698 273.329 45.6758C273.329 46.8477 272.919 47.7624 272.098 48.4199C271.285 49.071 270.152 49.3965 268.7 49.3965C268.355 49.377 268.029 49.3509 267.723 49.3184C267.574 49.4355 267.46 49.5592 267.382 49.6895C267.304 49.8197 267.264 49.9564 267.264 50.0996C267.264 50.2428 267.323 50.3633 267.44 50.4609C267.564 50.5521 267.746 50.6237 267.987 50.6758C268.235 50.7214 268.54 50.7441 268.905 50.7441H270.761C271.958 50.7441 272.87 51.0013 273.495 51.5156C274.126 52.0299 274.442 52.7852 274.442 53.7812C274.442 55.0573 273.908 56.0469 272.841 56.75C271.779 57.4531 270.253 57.8047 268.261 57.8047ZM268.387 55.8613C269.097 55.8613 269.706 55.793 270.214 55.6562C270.728 55.526 271.122 55.3372 271.395 55.0898C271.669 54.849 271.805 54.5592 271.805 54.2207C271.805 53.9473 271.724 53.7292 271.561 53.5664C271.405 53.4102 271.164 53.2995 270.839 53.2344C270.52 53.1693 270.11 53.1367 269.608 53.1367H268.065C267.701 53.1367 267.372 53.1953 267.079 53.3125C266.792 53.4297 266.565 53.5924 266.395 53.8008C266.226 54.0156 266.141 54.263 266.141 54.543C266.141 54.9531 266.337 55.2754 266.727 55.5098C267.124 55.7441 267.678 55.8613 268.387 55.8613ZM268.866 47.5801C269.426 47.5801 269.836 47.4076 270.096 47.0625C270.357 46.7174 270.487 46.2487 270.487 45.6562C270.487 44.9987 270.35 44.5072 270.077 44.1816C269.81 43.8496 269.406 43.6836 268.866 43.6836C268.319 43.6836 267.909 43.8496 267.636 44.1816C267.362 44.5072 267.225 44.9987 267.225 45.6562C267.225 46.2487 267.359 46.7174 267.626 47.0625C267.899 47.4076 268.313 47.5801 268.866 47.5801Z" fill="#4F4F4F"/>
<path d="M279.054 53H276.076V37.8047H279.054V53Z" fill="#4F4F4F"/>
<path d="M286.391 41.877C287.4 41.877 288.269 42.0723 288.998 42.4629C289.728 42.847 290.291 43.4069 290.688 44.1426C291.085 44.8783 291.284 45.7767 291.284 46.8379V48.2832H284.243C284.275 49.123 284.526 49.7839 284.995 50.2656C285.47 50.7409 286.127 50.9785 286.967 50.9785C287.664 50.9785 288.302 50.9069 288.881 50.7637C289.461 50.6204 290.056 50.4056 290.668 50.1191V52.4238C290.128 52.6908 289.562 52.8861 288.969 53.0098C288.383 53.1335 287.67 53.1953 286.83 53.1953C285.737 53.1953 284.767 52.9935 283.92 52.5898C283.08 52.1862 282.42 51.571 281.938 50.7441C281.463 49.9173 281.225 48.8757 281.225 47.6191C281.225 46.3431 281.44 45.2819 281.87 44.4355C282.306 43.5827 282.911 42.9447 283.686 42.5215C284.461 42.0918 285.362 41.877 286.391 41.877ZM286.411 43.9961C285.831 43.9961 285.349 44.1816 284.965 44.5527C284.588 44.9238 284.37 45.5065 284.311 46.3008H288.491C288.484 45.8581 288.403 45.4642 288.246 45.1191C288.097 44.7741 287.869 44.5007 287.563 44.2988C287.263 44.097 286.879 43.9961 286.411 43.9961Z" fill="#4F4F4F"/>
<defs>
<filter id="filter0_d_12779_47070" x="0" y="0" width="340" height="90" filterUnits="userSpaceOnUse" color-interpolation-filters="sRGB">
<feFlood flood-opacity="0" result="BackgroundImageFix"/>
<feColorMatrix in="SourceAlpha" type="matrix" values="0 0 0 0 0 0 0 0 0 0 0 0 0 0 0 0 0 0 127 0" result="hardAlpha"/>
<feOffset/>
<feGaussianBlur stdDeviation="10"/>
<feComposite in2="hardAlpha" operator="out"/>
<feColorMatrix type="matrix" values="0 0 0 0 1 0 0 0 0 1 0 0 0 0 1 0 0 0 1 0"/>
<feBlend mode="darken" in2="BackgroundImageFix" result="effect1_dropShadow_12779_47070"/>
<feBlend mode="normal" in="SourceGraphic" in2="effect1_dropShadow_12779_47070" result="shape"/>
</filter>
</defs>
</svg>
