<svg width="40" height="41" viewBox="0 0 40 41" fill="none" xmlns="http://www.w3.org/2000/svg">
<path d="M40 20.8616C40 19.1837 39.8639 17.9592 39.5692 16.6893H20.4082V24.2629H31.6553C31.4286 26.1451 30.2041 28.9796 27.483 30.8842L27.4448 31.1378L33.5032 35.8311L33.9229 35.873C37.7777 32.3129 40 27.0748 40 20.8616Z" fill="#4285F4"/>
<path d="M20.4082 40.8163C25.9183 40.8163 30.5441 39.0021 33.9229 35.873L27.4829 30.8842C25.7596 32.086 23.4466 32.925 20.4082 32.925C15.0114 32.925 10.4309 29.365 8.79812 24.4444L8.55879 24.4647L2.25923 29.34L2.17685 29.569C5.53282 36.2356 12.4263 40.8163 20.4082 40.8163Z" fill="#34A853"/>
<path d="M8.79809 24.4444C8.36726 23.1746 8.11792 21.8139 8.11792 20.4081C8.11792 19.0021 8.36726 17.6416 8.77542 16.3718L8.76401 16.1014L2.38551 11.1478L2.17682 11.247C0.793659 14.0135 0 17.1201 0 20.4081C0 23.6961 0.793659 26.8025 2.17682 29.569L8.79809 24.4444Z" fill="#FBBC05"/>
<path d="M20.4082 7.89109C24.2403 7.89109 26.8253 9.54641 28.2993 10.9297L34.0589 5.30612C30.5216 2.01815 25.9183 0 20.4082 0C12.4263 0 5.53282 4.58046 2.17685 11.2471L8.77545 16.3718C10.4309 11.4512 15.0114 7.89109 20.4082 7.89109Z" fill="#EB4335"/>
</svg>
