<svg width="60" height="30" viewBox="0 0 60 30" fill="none" xmlns="http://www.w3.org/2000/svg">
<rect width="60" height="30" rx="15" fill="#00D1FF"/>
<path d="M44.6 20C47.251 20 49.4 17.851 49.4 15.2C49.4 12.549 47.251 10.4 44.6 10.4C41.9491 10.4 39.8 12.549 39.8 15.2C39.8 17.851 41.9491 20 44.6 20Z" fill="#FFD60A"/>
<path d="M44.6 7.99999C44.3878 7.99999 44.1844 7.9157 44.0343 7.76567C43.8843 7.61564 43.8 7.41216 43.8 7.19999V5.59999C43.8 5.38781 43.8843 5.18433 44.0343 5.0343C44.1844 4.88427 44.3878 4.79999 44.6 4.79999C44.8122 4.79999 45.0157 4.88427 45.1657 5.0343C45.3157 5.18433 45.4 5.38781 45.4 5.59999V7.19999C45.4 7.41216 45.3157 7.61564 45.1657 7.76567C45.0157 7.9157 44.8122 7.99999 44.6 7.99999ZM44.6 25.6C44.3878 25.6 44.1844 25.5157 44.0343 25.3657C43.8843 25.2156 43.8 25.0122 43.8 24.8V23.2C43.8 22.9878 43.8843 22.7843 44.0343 22.6343C44.1844 22.4843 44.3878 22.4 44.6 22.4C44.8122 22.4 45.0157 22.4843 45.1657 22.6343C45.3157 22.7843 45.4 22.9878 45.4 23.2V24.8C45.4 25.0122 45.3157 25.2156 45.1657 25.3657C45.0157 25.5157 44.8122 25.6 44.6 25.6ZM36.6 16H35C34.7878 16 34.5844 15.9157 34.4343 15.7657C34.2843 15.6156 34.2 15.4122 34.2 15.2C34.2 14.9878 34.2843 14.7843 34.4343 14.6343C34.5844 14.4843 34.7878 14.4 35 14.4H36.6C36.8122 14.4 37.0157 14.4843 37.1657 14.6343C37.3157 14.7843 37.4 14.9878 37.4 15.2C37.4 15.4122 37.3157 15.6156 37.1657 15.7657C37.0157 15.9157 36.8122 16 36.6 16ZM54.2 16H52.6C52.3878 16 52.1844 15.9157 52.0343 15.7657C51.8843 15.6156 51.8 15.4122 51.8 15.2C51.8 14.9878 51.8843 14.7843 52.0343 14.6343C52.1844 14.4843 52.3878 14.4 52.6 14.4H54.2C54.4122 14.4 54.6157 14.4843 54.7657 14.6343C54.9157 14.7843 55 14.9878 55 15.2C55 15.4122 54.9157 15.6156 54.7657 15.7657C54.6157 15.9157 54.4122 16 54.2 16ZM37.808 22.792C37.597 22.789 37.3957 22.7027 37.248 22.552C37.099 22.4021 37.0154 22.1993 37.0154 21.988C37.0154 21.7766 37.099 21.5739 37.248 21.424L38.376 20.288C38.5267 20.1373 38.731 20.0527 38.944 20.0527C39.1571 20.0527 39.3614 20.1373 39.512 20.288C39.6627 20.4386 39.7473 20.6429 39.7473 20.856C39.7473 21.069 39.6627 21.2733 39.512 21.424L38.376 22.552C38.3019 22.6276 38.2136 22.6877 38.1161 22.7289C38.0186 22.7701 37.9139 22.7915 37.808 22.792ZM50.256 10.344C50.1507 10.3446 50.0464 10.3244 49.9489 10.2846C49.8514 10.2448 49.7628 10.1861 49.688 10.112C49.613 10.0376 49.5535 9.94914 49.5129 9.85165C49.4723 9.75416 49.4514 9.6496 49.4514 9.54399C49.4514 9.43838 49.4723 9.33381 49.5129 9.23633C49.5535 9.13884 49.613 9.05036 49.688 8.97599L50.824 7.84799C50.9771 7.71693 51.1739 7.64844 51.3753 7.65622C51.5766 7.664 51.7676 7.74746 51.9101 7.88994C52.0525 8.03241 52.136 8.2234 52.1438 8.42474C52.1516 8.62609 52.0831 8.82295 51.952 8.97599L50.824 10.112C50.7493 10.1861 50.6606 10.2448 50.5631 10.2846C50.4657 10.3244 50.3613 10.3446 50.256 10.344ZM51.392 22.792C51.2862 22.7915 51.1815 22.7701 51.084 22.7289C50.9865 22.6877 50.8981 22.6276 50.824 22.552L49.688 21.424C49.6134 21.3494 49.5543 21.2608 49.5139 21.1634C49.4735 21.0659 49.4527 20.9615 49.4527 20.856C49.4527 20.7505 49.4735 20.646 49.5139 20.5486C49.5543 20.4511 49.6134 20.3626 49.688 20.288C49.7626 20.2134 49.8512 20.1542 49.9486 20.1139C50.0461 20.0735 50.1505 20.0527 50.256 20.0527C50.3615 20.0527 50.466 20.0735 50.5634 20.1139C50.6609 20.1542 50.7494 20.2134 50.824 20.288L51.952 21.424C52.101 21.5739 52.1846 21.7766 52.1846 21.988C52.1846 22.1993 52.101 22.4021 51.952 22.552C51.8043 22.7027 51.603 22.789 51.392 22.792ZM38.944 10.344C38.8387 10.3446 38.7344 10.3244 38.6369 10.2846C38.5394 10.2448 38.4508 10.1861 38.376 10.112L37.248 8.97599C37.117 8.82295 37.0485 8.62609 37.0562 8.42474C37.064 8.2234 37.1475 8.03241 37.29 7.88994C37.4324 7.74746 37.6234 7.664 37.8248 7.65622C38.0261 7.64844 38.223 7.71693 38.376 7.84799L39.512 8.97599C39.587 9.05036 39.6465 9.13884 39.6871 9.23633C39.7277 9.33381 39.7487 9.43838 39.7487 9.54399C39.7487 9.6496 39.7277 9.75416 39.6871 9.85165C39.6465 9.94914 39.587 10.0376 39.512 10.112C39.4373 10.1861 39.3486 10.2448 39.2511 10.2846C39.1537 10.3244 39.0493 10.3446 38.944 10.344Z" fill="#FFBB0A"/>
<circle cx="15.9" cy="15.3" r="12.3" fill="#E0E0E0"/>
</svg>
