<svg width="500" height="293" viewBox="0 0 500 293" fill="none" xmlns="http://www.w3.org/2000/svg">
<g filter="url(#filter0_d_12756_1345)">
<path d="M105 51.3594C105 50.8071 105.448 50.3594 106 50.3594H196.435C196.988 50.3594 197.435 50.8071 197.435 51.3594V104.631C197.435 105.183 196.988 105.631 196.435 105.631H106C105.448 105.631 105 105.183 105 104.631V51.3594Z" fill="white"/>
</g>
<rect x="110" y="55.1509" width="83" height="24.755" fill="#EAF7FF"/>
<rect x="111" y="84.6968" width="81" height="3.19419" fill="#C4C4C4"/>
<rect x="111" y="99.0708" width="81" height="3.19419" fill="#C4C4C4"/>
<rect x="111" y="91.8838" width="81" height="3.19419" fill="#C4C4C4"/>
<g filter="url(#filter1_d_12756_1345)">
<path d="M203 51.3594C203 50.8071 203.448 50.3594 204 50.3594H294.435C294.988 50.3594 295.435 50.8071 295.435 51.3594V104.631C295.435 105.183 294.988 105.631 294.435 105.631H204C203.448 105.631 203 105.183 203 104.631V51.3594Z" fill="white"/>
</g>
<rect x="208" y="55.1509" width="83" height="24.755" fill="#EAF7FF"/>
<rect x="209" y="84.6968" width="81" height="3.19419" fill="#C4C4C4"/>
<rect x="209" y="99.0708" width="81" height="3.19419" fill="#C4C4C4"/>
<rect x="209" y="91.8838" width="81" height="3.19419" fill="#C4C4C4"/>
<g filter="url(#filter2_d_12756_1345)">
<path d="M301 51.3594C301 50.8071 301.448 50.3594 302 50.3594H392.435C392.988 50.3594 393.435 50.8071 393.435 51.3594V104.631C393.435 105.183 392.988 105.631 392.435 105.631H302C301.448 105.631 301 105.183 301 104.631V51.3594Z" fill="white"/>
</g>
<rect x="306" y="55.1509" width="83" height="24.755" fill="#EAF7FF"/>
<rect x="307" y="84.6968" width="81" height="3.19419" fill="#C4C4C4"/>
<rect x="307" y="99.0708" width="81" height="3.19419" fill="#C4C4C4"/>
<rect x="307" y="91.8838" width="81" height="3.19419" fill="#C4C4C4"/>
<g filter="url(#filter3_d_12756_1345)">
<path d="M105 117.638C105 117.086 105.448 116.638 106 116.638H196.435C196.988 116.638 197.435 117.086 197.435 117.638V170.91C197.435 171.462 196.988 171.91 196.435 171.91H106C105.448 171.91 105 171.462 105 170.91V117.638Z" fill="white"/>
</g>
<rect x="110" y="121.43" width="83" height="24.755" fill="#EAF7FF"/>
<rect x="111" y="150.976" width="81" height="3.19419" fill="#C4C4C4"/>
<rect x="111" y="165.35" width="81" height="3.19419" fill="#C4C4C4"/>
<rect x="111" y="158.163" width="81" height="3.19419" fill="#C4C4C4"/>
<g filter="url(#filter4_d_12756_1345)">
<path d="M105 184.717C105 184.165 105.448 183.717 106 183.717H196.435C196.988 183.717 197.435 184.165 197.435 184.717V237.988C197.435 238.541 196.988 238.988 196.435 238.988H106C105.448 238.988 105 238.541 105 237.988V184.717Z" fill="white"/>
</g>
<rect x="110" y="188.508" width="83" height="24.755" fill="#EAF7FF"/>
<rect x="111" y="218.055" width="81" height="3.19419" fill="#C4C4C4"/>
<rect x="111" y="232.428" width="81" height="3.19419" fill="#C4C4C4"/>
<rect x="111" y="225.242" width="81" height="3.19419" fill="#C4C4C4"/>
<g filter="url(#filter5_d_12756_1345)">
<path d="M203 117.638C203 117.086 203.448 116.638 204 116.638H294.435C294.988 116.638 295.435 117.086 295.435 117.638V170.91C295.435 171.462 294.988 171.91 294.435 171.91H204C203.448 171.91 203 171.462 203 170.91V117.638Z" fill="white"/>
</g>
<rect x="208" y="121.43" width="83" height="24.755" fill="#EAF7FF"/>
<rect x="209" y="150.976" width="81" height="3.19419" fill="#C4C4C4"/>
<rect x="209" y="165.35" width="81" height="3.19419" fill="#C4C4C4"/>
<rect x="209" y="158.163" width="81" height="3.19419" fill="#C4C4C4"/>
<g filter="url(#filter6_d_12756_1345)">
<path d="M203 184.717C203 184.165 203.448 183.717 204 183.717H294.435C294.988 183.717 295.435 184.165 295.435 184.717V237.988C295.435 238.541 294.988 238.988 294.435 238.988H204C203.448 238.988 203 238.541 203 237.988V184.717Z" fill="white"/>
</g>
<rect x="208" y="188.508" width="83" height="24.755" fill="#EAF7FF"/>
<rect x="209" y="218.055" width="81" height="3.19419" fill="#C4C4C4"/>
<rect x="209" y="232.428" width="81" height="3.19419" fill="#C4C4C4"/>
<rect x="209" y="225.242" width="81" height="3.19419" fill="#C4C4C4"/>
<g filter="url(#filter7_d_12756_1345)">
<path d="M301 117.638C301 117.086 301.448 116.638 302 116.638H392.435C392.988 116.638 393.435 117.086 393.435 117.638V170.91C393.435 171.462 392.988 171.91 392.435 171.91H302C301.448 171.91 301 171.462 301 170.91V117.638Z" fill="white"/>
</g>
<rect x="306" y="121.43" width="83" height="24.755" fill="#EAF7FF"/>
<rect x="307" y="150.976" width="81" height="3.19419" fill="#C4C4C4"/>
<rect x="307" y="165.35" width="81" height="3.19419" fill="#C4C4C4"/>
<rect x="307" y="158.163" width="81" height="3.19419" fill="#C4C4C4"/>
<g filter="url(#filter8_d_12756_1345)">
<path d="M301 184.717C301 184.165 301.448 183.717 302 183.717H392.435C392.988 183.717 393.435 184.165 393.435 184.717V237.988C393.435 238.541 392.988 238.988 392.435 238.988H302C301.448 238.988 301 238.541 301 237.988V184.717Z" fill="white"/>
</g>
<rect x="306" y="188.508" width="83" height="24.755" fill="#EAF7FF"/>
<rect x="307" y="218.055" width="81" height="3.19419" fill="#C4C4C4"/>
<rect x="307" y="232.428" width="81" height="3.19419" fill="#C4C4C4"/>
<rect x="307" y="225.242" width="81" height="3.19419" fill="#C4C4C4"/>
<rect x="105" y="50.3594" width="14" height="55.0999" fill="#418DFE" fill-opacity="0.5"/>
<rect x="105" y="116.638" width="14" height="55.0999" fill="#418DFE" fill-opacity="0.5"/>
<rect x="105" y="183.717" width="14" height="55.0999" fill="#418DFE" fill-opacity="0.5"/>
<path d="M114.5 74.7148L109 79.1069L114.5 83.4989" stroke="#3947B7" stroke-width="3" stroke-linecap="round"/>
<path d="M114.5 140.995L109 145.387L114.5 149.779" stroke="#3947B7" stroke-width="3" stroke-linecap="round"/>
<path d="M114.5 208.072L109 212.464L114.5 216.856" stroke="#3947B7" stroke-width="3" stroke-linecap="round"/>
<rect width="14" height="55.0999" transform="matrix(-1 0 0 1 395 50.3594)" fill="#418DFE" fill-opacity="0.5"/>
<rect width="14" height="55.0999" transform="matrix(-1 0 0 1 395 116.638)" fill="#418DFE" fill-opacity="0.5"/>
<rect width="14" height="55.0999" transform="matrix(-1 0 0 1 395 183.717)" fill="#418DFE" fill-opacity="0.5"/>
<path d="M385.5 74.7148L391 79.1069L385.5 83.4989" stroke="#3947B7" stroke-width="3" stroke-linecap="round"/>
<path d="M385.5 140.995L391 145.387L385.5 149.779" stroke="#3947B7" stroke-width="3" stroke-linecap="round"/>
<path d="M385.5 208.072L391 212.464L385.5 216.856" stroke="#3947B7" stroke-width="3" stroke-linecap="round"/>
<path d="M248.768 26.2316C247.791 25.2552 246.209 25.2552 245.232 26.2316L229.322 42.1415C228.346 43.1178 228.346 44.7007 229.322 45.677C230.299 46.6533 231.882 46.6533 232.858 45.677L247 31.5349L261.142 45.677C262.118 46.6533 263.701 46.6533 264.678 45.677C265.654 44.7007 265.654 43.1178 264.678 42.1415L248.768 26.2316ZM249.5 67.9268L249.5 27.9993L244.5 27.9993L244.5 67.9268L249.5 67.9268Z" fill="url(#paint0_linear_12756_1345)"/>
<path d="M248.768 266.936C247.791 267.913 246.209 267.913 245.232 266.936L229.322 251.027C228.346 250.05 228.346 248.467 229.322 247.491C230.299 246.515 231.882 246.515 232.858 247.491L247 261.633L261.142 247.491C262.118 246.515 263.701 246.515 264.678 247.491C265.654 248.467 265.654 250.05 264.678 251.027L248.768 266.936ZM249.5 225.241L249.5 265.169L244.5 265.169L244.5 225.241L249.5 225.241Z" fill="url(#paint1_linear_12756_1345)"/>
<path d="M421.768 163.125C422.744 162.149 422.744 160.566 421.768 159.59L405.858 143.68C404.882 142.703 403.299 142.703 402.322 143.68C401.346 144.656 401.346 146.239 402.322 147.215L416.465 161.357L402.322 175.5C401.346 176.476 401.346 178.059 402.322 179.035C403.299 180.011 404.882 180.011 405.858 179.035L421.768 163.125ZM370 163.857H420V158.857H370V163.857Z" fill="url(#paint2_linear_12756_1345)"/>
<path d="M78.2322 163.125C77.2559 162.149 77.2559 160.566 78.2322 159.59L94.1421 143.68C95.1184 142.703 96.7014 142.703 97.6777 143.68C98.654 144.656 98.654 146.239 97.6777 147.215L83.5355 161.357L97.6777 175.5C98.654 176.476 98.654 178.059 97.6777 179.035C96.7014 180.011 95.1184 180.011 94.1421 179.035L78.2322 163.125ZM130 163.857H80V158.857H130V163.857Z" fill="url(#paint3_linear_12756_1345)"/>
<defs>
<filter id="filter0_d_12756_1345" x="104" y="49.3594" width="94.4353" height="57.2715" filterUnits="userSpaceOnUse" color-interpolation-filters="sRGB">
<feFlood flood-opacity="0" result="BackgroundImageFix"/>
<feColorMatrix in="SourceAlpha" type="matrix" values="0 0 0 0 0 0 0 0 0 0 0 0 0 0 0 0 0 0 127 0" result="hardAlpha"/>
<feOffset/>
<feGaussianBlur stdDeviation="0.5"/>
<feComposite in2="hardAlpha" operator="out"/>
<feColorMatrix type="matrix" values="0 0 0 0 0 0 0 0 0 0.603922 0 0 0 0 0.976471 0 0 0 1 0"/>
<feBlend mode="normal" in2="BackgroundImageFix" result="effect1_dropShadow_12756_1345"/>
<feBlend mode="normal" in="SourceGraphic" in2="effect1_dropShadow_12756_1345" result="shape"/>
</filter>
<filter id="filter1_d_12756_1345" x="202" y="49.3594" width="94.4353" height="57.2715" filterUnits="userSpaceOnUse" color-interpolation-filters="sRGB">
<feFlood flood-opacity="0" result="BackgroundImageFix"/>
<feColorMatrix in="SourceAlpha" type="matrix" values="0 0 0 0 0 0 0 0 0 0 0 0 0 0 0 0 0 0 127 0" result="hardAlpha"/>
<feOffset/>
<feGaussianBlur stdDeviation="0.5"/>
<feComposite in2="hardAlpha" operator="out"/>
<feColorMatrix type="matrix" values="0 0 0 0 0 0 0 0 0 0.603922 0 0 0 0 0.976471 0 0 0 1 0"/>
<feBlend mode="normal" in2="BackgroundImageFix" result="effect1_dropShadow_12756_1345"/>
<feBlend mode="normal" in="SourceGraphic" in2="effect1_dropShadow_12756_1345" result="shape"/>
</filter>
<filter id="filter2_d_12756_1345" x="300" y="49.3594" width="94.4353" height="57.2715" filterUnits="userSpaceOnUse" color-interpolation-filters="sRGB">
<feFlood flood-opacity="0" result="BackgroundImageFix"/>
<feColorMatrix in="SourceAlpha" type="matrix" values="0 0 0 0 0 0 0 0 0 0 0 0 0 0 0 0 0 0 127 0" result="hardAlpha"/>
<feOffset/>
<feGaussianBlur stdDeviation="0.5"/>
<feComposite in2="hardAlpha" operator="out"/>
<feColorMatrix type="matrix" values="0 0 0 0 0 0 0 0 0 0.603922 0 0 0 0 0.976471 0 0 0 1 0"/>
<feBlend mode="normal" in2="BackgroundImageFix" result="effect1_dropShadow_12756_1345"/>
<feBlend mode="normal" in="SourceGraphic" in2="effect1_dropShadow_12756_1345" result="shape"/>
</filter>
<filter id="filter3_d_12756_1345" x="104" y="115.638" width="94.4353" height="57.2715" filterUnits="userSpaceOnUse" color-interpolation-filters="sRGB">
<feFlood flood-opacity="0" result="BackgroundImageFix"/>
<feColorMatrix in="SourceAlpha" type="matrix" values="0 0 0 0 0 0 0 0 0 0 0 0 0 0 0 0 0 0 127 0" result="hardAlpha"/>
<feOffset/>
<feGaussianBlur stdDeviation="0.5"/>
<feComposite in2="hardAlpha" operator="out"/>
<feColorMatrix type="matrix" values="0 0 0 0 0 0 0 0 0 0.603922 0 0 0 0 0.976471 0 0 0 1 0"/>
<feBlend mode="normal" in2="BackgroundImageFix" result="effect1_dropShadow_12756_1345"/>
<feBlend mode="normal" in="SourceGraphic" in2="effect1_dropShadow_12756_1345" result="shape"/>
</filter>
<filter id="filter4_d_12756_1345" x="104" y="182.717" width="94.4353" height="57.2715" filterUnits="userSpaceOnUse" color-interpolation-filters="sRGB">
<feFlood flood-opacity="0" result="BackgroundImageFix"/>
<feColorMatrix in="SourceAlpha" type="matrix" values="0 0 0 0 0 0 0 0 0 0 0 0 0 0 0 0 0 0 127 0" result="hardAlpha"/>
<feOffset/>
<feGaussianBlur stdDeviation="0.5"/>
<feComposite in2="hardAlpha" operator="out"/>
<feColorMatrix type="matrix" values="0 0 0 0 0 0 0 0 0 0.603922 0 0 0 0 0.976471 0 0 0 1 0"/>
<feBlend mode="normal" in2="BackgroundImageFix" result="effect1_dropShadow_12756_1345"/>
<feBlend mode="normal" in="SourceGraphic" in2="effect1_dropShadow_12756_1345" result="shape"/>
</filter>
<filter id="filter5_d_12756_1345" x="202" y="115.638" width="94.4353" height="57.2715" filterUnits="userSpaceOnUse" color-interpolation-filters="sRGB">
<feFlood flood-opacity="0" result="BackgroundImageFix"/>
<feColorMatrix in="SourceAlpha" type="matrix" values="0 0 0 0 0 0 0 0 0 0 0 0 0 0 0 0 0 0 127 0" result="hardAlpha"/>
<feOffset/>
<feGaussianBlur stdDeviation="0.5"/>
<feComposite in2="hardAlpha" operator="out"/>
<feColorMatrix type="matrix" values="0 0 0 0 0 0 0 0 0 0.603922 0 0 0 0 0.976471 0 0 0 1 0"/>
<feBlend mode="normal" in2="BackgroundImageFix" result="effect1_dropShadow_12756_1345"/>
<feBlend mode="normal" in="SourceGraphic" in2="effect1_dropShadow_12756_1345" result="shape"/>
</filter>
<filter id="filter6_d_12756_1345" x="202" y="182.717" width="94.4353" height="57.2715" filterUnits="userSpaceOnUse" color-interpolation-filters="sRGB">
<feFlood flood-opacity="0" result="BackgroundImageFix"/>
<feColorMatrix in="SourceAlpha" type="matrix" values="0 0 0 0 0 0 0 0 0 0 0 0 0 0 0 0 0 0 127 0" result="hardAlpha"/>
<feOffset/>
<feGaussianBlur stdDeviation="0.5"/>
<feComposite in2="hardAlpha" operator="out"/>
<feColorMatrix type="matrix" values="0 0 0 0 0 0 0 0 0 0.603922 0 0 0 0 0.976471 0 0 0 1 0"/>
<feBlend mode="normal" in2="BackgroundImageFix" result="effect1_dropShadow_12756_1345"/>
<feBlend mode="normal" in="SourceGraphic" in2="effect1_dropShadow_12756_1345" result="shape"/>
</filter>
<filter id="filter7_d_12756_1345" x="300" y="115.638" width="94.4353" height="57.2715" filterUnits="userSpaceOnUse" color-interpolation-filters="sRGB">
<feFlood flood-opacity="0" result="BackgroundImageFix"/>
<feColorMatrix in="SourceAlpha" type="matrix" values="0 0 0 0 0 0 0 0 0 0 0 0 0 0 0 0 0 0 127 0" result="hardAlpha"/>
<feOffset/>
<feGaussianBlur stdDeviation="0.5"/>
<feComposite in2="hardAlpha" operator="out"/>
<feColorMatrix type="matrix" values="0 0 0 0 0 0 0 0 0 0.603922 0 0 0 0 0.976471 0 0 0 1 0"/>
<feBlend mode="normal" in2="BackgroundImageFix" result="effect1_dropShadow_12756_1345"/>
<feBlend mode="normal" in="SourceGraphic" in2="effect1_dropShadow_12756_1345" result="shape"/>
</filter>
<filter id="filter8_d_12756_1345" x="300" y="182.717" width="94.4353" height="57.2715" filterUnits="userSpaceOnUse" color-interpolation-filters="sRGB">
<feFlood flood-opacity="0" result="BackgroundImageFix"/>
<feColorMatrix in="SourceAlpha" type="matrix" values="0 0 0 0 0 0 0 0 0 0 0 0 0 0 0 0 0 0 127 0" result="hardAlpha"/>
<feOffset/>
<feGaussianBlur stdDeviation="0.5"/>
<feComposite in2="hardAlpha" operator="out"/>
<feColorMatrix type="matrix" values="0 0 0 0 0 0 0 0 0 0.603922 0 0 0 0 0.976471 0 0 0 1 0"/>
<feBlend mode="normal" in2="BackgroundImageFix" result="effect1_dropShadow_12756_1345"/>
<feBlend mode="normal" in="SourceGraphic" in2="effect1_dropShadow_12756_1345" result="shape"/>
</filter>
<linearGradient id="paint0_linear_12756_1345" x1="246.643" y1="22.8088" x2="246.643" y2="67.9268" gradientUnits="userSpaceOnUse">
<stop stop-color="white"/>
<stop offset="1" stop-color="#6C95FF"/>
</linearGradient>
<linearGradient id="paint1_linear_12756_1345" x1="246.643" y1="270.359" x2="246.643" y2="225.241" gradientUnits="userSpaceOnUse">
<stop stop-color="white"/>
<stop offset="1" stop-color="#6C95FF"/>
</linearGradient>
<linearGradient id="paint2_linear_12756_1345" x1="426.5" y1="161" x2="370" y2="161" gradientUnits="userSpaceOnUse">
<stop stop-color="white"/>
<stop offset="1" stop-color="#6C95FF"/>
</linearGradient>
<linearGradient id="paint3_linear_12756_1345" x1="73.5" y1="161" x2="130" y2="161" gradientUnits="userSpaceOnUse">
<stop stop-color="white"/>
<stop offset="1" stop-color="#6C95FF"/>
</linearGradient>
</defs>
</svg>
