<svg width="400" height="400" viewBox="0 0 400 400" fill="none" xmlns="http://www.w3.org/2000/svg">
<rect x="53" y="91" width="293.274" height="218" rx="5" fill="#BFE0FF"/>
<path d="M53 96C53 93.2386 55.2386 91 58 91H341.274C344.035 91 346.274 93.2386 346.274 96V114.462H53V96Z" fill="#3B68D7"/>
<circle cx="66.1009" cy="103.101" r="7.10089" fill="#FF0000"/>
<circle cx="89.7664" cy="103.101" r="7.10089" fill="#FFAA1D"/>
<circle cx="113.44" cy="103.101" r="7.10089" fill="#34C900"/>
<path d="M93.24 142.12V145.08H85.64V170H82V145.08H74.36V142.12H93.24ZM117.121 158.2C117.121 158.893 117.081 159.627 117.001 160.4H99.4806C99.614 162.56 100.347 164.253 101.681 165.48C103.041 166.68 104.681 167.28 106.601 167.28C108.174 167.28 109.481 166.92 110.521 166.2C111.587 165.453 112.334 164.467 112.761 163.24H116.681C116.094 165.347 114.921 167.067 113.161 168.4C111.401 169.707 109.214 170.36 106.601 170.36C104.521 170.36 102.654 169.893 101.001 168.96C99.374 168.027 98.094 166.707 97.1606 165C96.2273 163.267 95.7606 161.267 95.7606 159C95.7606 156.733 96.214 154.747 97.1206 153.04C98.0273 151.333 99.294 150.027 100.921 149.12C102.574 148.187 104.467 147.72 106.601 147.72C108.681 147.72 110.521 148.173 112.121 149.08C113.721 149.987 114.947 151.24 115.801 152.84C116.681 154.413 117.121 156.2 117.121 158.2ZM113.361 157.44C113.361 156.053 113.054 154.867 112.441 153.88C111.827 152.867 110.987 152.107 109.921 151.6C108.881 151.067 107.721 150.8 106.441 150.8C104.601 150.8 103.027 151.387 101.721 152.56C100.441 153.733 99.7073 155.36 99.5206 157.44H113.361ZM132.765 170L127.565 161.84L122.565 170H118.765L125.845 159.12L118.765 148.08H122.885L128.085 156.2L133.045 148.08H136.845L129.805 158.92L136.885 170H132.765ZM144.306 151.08V164C144.306 165.067 144.533 165.827 144.986 166.28C145.439 166.707 146.226 166.92 147.346 166.92H150.026V170H146.746C144.719 170 143.199 169.533 142.186 168.6C141.173 167.667 140.666 166.133 140.666 164V151.08H137.826V148.08H140.666V142.56H144.306V148.08H150.026V151.08H144.306ZM164.58 160.54V167C164.58 167.533 164.694 167.913 164.92 168.14C165.147 168.353 165.54 168.46 166.1 168.46H167.44V170H165.8C164.787 170 164.027 169.767 163.52 169.3C163.014 168.833 162.76 168.067 162.76 167V160.54H161.34V159.04H162.76V156.28H164.58V159.04H167.44V160.54H164.58ZM179.345 164.1C179.345 164.447 179.325 164.813 179.285 165.2H170.525C170.592 166.28 170.959 167.127 171.625 167.74C172.305 168.34 173.125 168.64 174.085 168.64C174.872 168.64 175.525 168.46 176.045 168.1C176.579 167.727 176.952 167.233 177.165 166.62H179.125C178.832 167.673 178.245 168.533 177.365 169.2C176.485 169.853 175.392 170.18 174.085 170.18C173.045 170.18 172.112 169.947 171.285 169.48C170.472 169.013 169.832 168.353 169.365 167.5C168.899 166.633 168.665 165.633 168.665 164.5C168.665 163.367 168.892 162.373 169.345 161.52C169.799 160.667 170.432 160.013 171.245 159.56C172.072 159.093 173.019 158.86 174.085 158.86C175.125 158.86 176.045 159.087 176.845 159.54C177.645 159.993 178.259 160.62 178.685 161.42C179.125 162.207 179.345 163.1 179.345 164.1ZM177.465 163.72C177.465 163.027 177.312 162.433 177.005 161.94C176.699 161.433 176.279 161.053 175.745 160.8C175.225 160.533 174.645 160.4 174.005 160.4C173.085 160.4 172.299 160.693 171.645 161.28C171.005 161.867 170.639 162.68 170.545 163.72H177.465ZM187.168 170L184.568 165.92L182.068 170H180.168L183.708 164.56L180.168 159.04H182.228L184.828 163.1L187.308 159.04H189.208L185.688 164.46L189.228 170H187.168ZM192.938 160.54V167C192.938 167.533 193.051 167.913 193.278 168.14C193.505 168.353 193.898 168.46 194.458 168.46H195.798V170H194.158C193.145 170 192.385 169.767 191.878 169.3C191.371 168.833 191.118 168.067 191.118 167V160.54H189.698V159.04H191.118V156.28H192.938V159.04H195.798V160.54H192.938ZM204.955 160.54V167C204.955 167.533 205.069 167.913 205.295 168.14C205.522 168.353 205.915 168.46 206.475 168.46H207.815V170H206.175C205.162 170 204.402 169.767 203.895 169.3C203.389 168.833 203.135 168.067 203.135 167V160.54H201.715V159.04H203.135V156.28H204.955V159.04H207.815V160.54H204.955ZM219.72 164.1C219.72 164.447 219.7 164.813 219.66 165.2H210.9C210.967 166.28 211.334 167.127 212 167.74C212.68 168.34 213.5 168.64 214.46 168.64C215.247 168.64 215.9 168.46 216.42 168.1C216.954 167.727 217.327 167.233 217.54 166.62H219.5C219.207 167.673 218.62 168.533 217.74 169.2C216.86 169.853 215.767 170.18 214.46 170.18C213.42 170.18 212.487 169.947 211.66 169.48C210.847 169.013 210.207 168.353 209.74 167.5C209.274 166.633 209.04 165.633 209.04 164.5C209.04 163.367 209.267 162.373 209.72 161.52C210.174 160.667 210.807 160.013 211.62 159.56C212.447 159.093 213.394 158.86 214.46 158.86C215.5 158.86 216.42 159.087 217.22 159.54C218.02 159.993 218.634 160.62 219.06 161.42C219.5 162.207 219.72 163.1 219.72 164.1ZM217.84 163.72C217.84 163.027 217.687 162.433 217.38 161.94C217.074 161.433 216.654 161.053 216.12 160.8C215.6 160.533 215.02 160.4 214.38 160.4C213.46 160.4 212.674 160.693 212.02 161.28C211.38 161.867 211.014 162.68 210.92 163.72H217.84ZM227.543 170L224.943 165.92L222.443 170H220.543L224.083 164.56L220.543 159.04H222.603L225.203 163.1L227.683 159.04H229.583L226.063 164.46L229.603 170H227.543ZM233.313 160.54V167C233.313 167.533 233.426 167.913 233.653 168.14C233.88 168.353 234.273 168.46 234.833 168.46H236.173V170H234.533C233.52 170 232.76 169.767 232.253 169.3C231.746 168.833 231.493 168.067 231.493 167V160.54H230.073V159.04H231.493V156.28H233.313V159.04H236.173V160.54H233.313ZM245.33 160.54V167C245.33 167.533 245.444 167.913 245.67 168.14C245.897 168.353 246.29 168.46 246.85 168.46H248.19V170H246.55C245.537 170 244.777 169.767 244.27 169.3C243.764 168.833 243.51 168.067 243.51 167V160.54H242.09V159.04H243.51V156.28H245.33V159.04H248.19V160.54H245.33ZM260.095 164.1C260.095 164.447 260.075 164.813 260.035 165.2H251.275C251.342 166.28 251.709 167.127 252.375 167.74C253.055 168.34 253.875 168.64 254.835 168.64C255.622 168.64 256.275 168.46 256.795 168.1C257.329 167.727 257.702 167.233 257.915 166.62H259.875C259.582 167.673 258.995 168.533 258.115 169.2C257.235 169.853 256.142 170.18 254.835 170.18C253.795 170.18 252.862 169.947 252.035 169.48C251.222 169.013 250.582 168.353 250.115 167.5C249.649 166.633 249.415 165.633 249.415 164.5C249.415 163.367 249.642 162.373 250.095 161.52C250.549 160.667 251.182 160.013 251.995 159.56C252.822 159.093 253.769 158.86 254.835 158.86C255.875 158.86 256.795 159.087 257.595 159.54C258.395 159.993 259.009 160.62 259.435 161.42C259.875 162.207 260.095 163.1 260.095 164.1ZM258.215 163.72C258.215 163.027 258.062 162.433 257.755 161.94C257.449 161.433 257.029 161.053 256.495 160.8C255.975 160.533 255.395 160.4 254.755 160.4C253.835 160.4 253.049 160.693 252.395 161.28C251.755 161.867 251.389 162.68 251.295 163.72H258.215ZM267.918 170L265.318 165.92L262.818 170H260.918L264.458 164.56L260.918 159.04H262.978L265.578 163.1L268.058 159.04H269.958L266.438 164.46L269.978 170H267.918ZM273.688 160.54V167C273.688 167.533 273.801 167.913 274.028 168.14C274.255 168.353 274.648 168.46 275.208 168.46H276.548V170H274.908C273.895 170 273.135 169.767 272.628 169.3C272.121 168.833 271.868 168.067 271.868 167V160.54H270.448V159.04H271.868V156.28H273.688V159.04H276.548V160.54H273.688ZM285.705 160.54V167C285.705 167.533 285.819 167.913 286.045 168.14C286.272 168.353 286.665 168.46 287.225 168.46H288.565V170H286.925C285.912 170 285.152 169.767 284.645 169.3C284.139 168.833 283.885 168.067 283.885 167V160.54H282.465V159.04H283.885V156.28H285.705V159.04H288.565V160.54H285.705ZM300.47 164.1C300.47 164.447 300.45 164.813 300.41 165.2H291.65C291.717 166.28 292.084 167.127 292.75 167.74C293.43 168.34 294.25 168.64 295.21 168.64C295.997 168.64 296.65 168.46 297.17 168.1C297.704 167.727 298.077 167.233 298.29 166.62H300.25C299.957 167.673 299.37 168.533 298.49 169.2C297.61 169.853 296.517 170.18 295.21 170.18C294.17 170.18 293.237 169.947 292.41 169.48C291.597 169.013 290.957 168.353 290.49 167.5C290.024 166.633 289.79 165.633 289.79 164.5C289.79 163.367 290.017 162.373 290.47 161.52C290.924 160.667 291.557 160.013 292.37 159.56C293.197 159.093 294.144 158.86 295.21 158.86C296.25 158.86 297.17 159.087 297.97 159.54C298.77 159.993 299.384 160.62 299.81 161.42C300.25 162.207 300.47 163.1 300.47 164.1ZM298.59 163.72C298.59 163.027 298.437 162.433 298.13 161.94C297.824 161.433 297.404 161.053 296.87 160.8C296.35 160.533 295.77 160.4 295.13 160.4C294.21 160.4 293.424 160.693 292.77 161.28C292.13 161.867 291.764 162.68 291.67 163.72H298.59ZM308.293 170L305.693 165.92L303.193 170H301.293L304.833 164.56L301.293 159.04H303.353L305.953 163.1L308.433 159.04H310.333L306.813 164.46L310.353 170H308.293ZM314.063 160.54V167C314.063 167.533 314.176 167.913 314.403 168.14C314.63 168.353 315.023 168.46 315.583 168.46H316.923V170H315.283C314.27 170 313.51 169.767 313.003 169.3C312.496 168.833 312.243 168.067 312.243 167V160.54H310.823V159.04H312.243V156.28H314.063V159.04H316.923V160.54H314.063ZM76.76 190.54V197C76.76 197.533 76.8733 197.913 77.1 198.14C77.3267 198.353 77.72 198.46 78.28 198.46H79.62V200H77.98C76.9667 200 76.2067 199.767 75.7 199.3C75.1933 198.833 74.94 198.067 74.94 197V190.54H73.52V189.04H74.94V186.28H76.76V189.04H79.62V190.54H76.76ZM91.5252 194.1C91.5252 194.447 91.5052 194.813 91.4652 195.2H82.7052C82.7718 196.28 83.1385 197.127 83.8052 197.74C84.4852 198.34 85.3052 198.64 86.2652 198.64C87.0518 198.64 87.7052 198.46 88.2252 198.1C88.7585 197.727 89.1318 197.233 89.3452 196.62H91.3052C91.0118 197.673 90.4252 198.533 89.5452 199.2C88.6652 199.853 87.5718 200.18 86.2652 200.18C85.2252 200.18 84.2918 199.947 83.4652 199.48C82.6518 199.013 82.0118 198.353 81.5452 197.5C81.0785 196.633 80.8452 195.633 80.8452 194.5C80.8452 193.367 81.0718 192.373 81.5252 191.52C81.9785 190.667 82.6118 190.013 83.4252 189.56C84.2518 189.093 85.1985 188.86 86.2652 188.86C87.3052 188.86 88.2252 189.087 89.0252 189.54C89.8252 189.993 90.4385 190.62 90.8652 191.42C91.3052 192.207 91.5252 193.1 91.5252 194.1ZM89.6452 193.72C89.6452 193.027 89.4918 192.433 89.1852 191.94C88.8785 191.433 88.4585 191.053 87.9252 190.8C87.4052 190.533 86.8252 190.4 86.1852 190.4C85.2652 190.4 84.4785 190.693 83.8252 191.28C83.1852 191.867 82.8185 192.68 82.7252 193.72H89.6452ZM99.3475 200L96.7475 195.92L94.2475 200H92.3475L95.8875 194.56L92.3475 189.04H94.4075L97.0075 193.1L99.4875 189.04H101.388L97.8675 194.46L101.408 200H99.3475ZM105.118 190.54V197C105.118 197.533 105.231 197.913 105.458 198.14C105.684 198.353 106.078 198.46 106.638 198.46H107.978V200H106.338C105.324 200 104.564 199.767 104.058 199.3C103.551 198.833 103.298 198.067 103.298 197V190.54H101.878V189.04H103.298V186.28H105.118V189.04H107.978V190.54H105.118ZM117.135 190.54V197C117.135 197.533 117.248 197.913 117.475 198.14C117.702 198.353 118.095 198.46 118.655 198.46H119.995V200H118.355C117.342 200 116.582 199.767 116.075 199.3C115.568 198.833 115.315 198.067 115.315 197V190.54H113.895V189.04H115.315V186.28H117.135V189.04H119.995V190.54H117.135ZM131.9 194.1C131.9 194.447 131.88 194.813 131.84 195.2H123.08C123.147 196.28 123.513 197.127 124.18 197.74C124.86 198.34 125.68 198.64 126.64 198.64C127.427 198.64 128.08 198.46 128.6 198.1C129.133 197.727 129.507 197.233 129.72 196.62H131.68C131.387 197.673 130.8 198.533 129.92 199.2C129.04 199.853 127.947 200.18 126.64 200.18C125.6 200.18 124.667 199.947 123.84 199.48C123.027 199.013 122.387 198.353 121.92 197.5C121.453 196.633 121.22 195.633 121.22 194.5C121.22 193.367 121.447 192.373 121.9 191.52C122.353 190.667 122.987 190.013 123.8 189.56C124.627 189.093 125.573 188.86 126.64 188.86C127.68 188.86 128.6 189.087 129.4 189.54C130.2 189.993 130.813 190.62 131.24 191.42C131.68 192.207 131.9 193.1 131.9 194.1ZM130.02 193.72C130.02 193.027 129.867 192.433 129.56 191.94C129.253 191.433 128.833 191.053 128.3 190.8C127.78 190.533 127.2 190.4 126.56 190.4C125.64 190.4 124.853 190.693 124.2 191.28C123.56 191.867 123.193 192.68 123.1 193.72H130.02ZM139.723 200L137.123 195.92L134.623 200H132.723L136.263 194.56L132.723 189.04H134.783L137.383 193.1L139.863 189.04H141.763L138.243 194.46L141.783 200H139.723ZM145.493 190.54V197C145.493 197.533 145.606 197.913 145.833 198.14C146.059 198.353 146.453 198.46 147.013 198.46H148.353V200H146.713C145.699 200 144.939 199.767 144.433 199.3C143.926 198.833 143.673 198.067 143.673 197V190.54H142.253V189.04H143.673V186.28H145.493V189.04H148.353V190.54H145.493ZM157.51 190.54V197C157.51 197.533 157.623 197.913 157.85 198.14C158.077 198.353 158.47 198.46 159.03 198.46H160.37V200H158.73C157.717 200 156.957 199.767 156.45 199.3C155.943 198.833 155.69 198.067 155.69 197V190.54H154.27V189.04H155.69V186.28H157.51V189.04H160.37V190.54H157.51ZM172.275 194.1C172.275 194.447 172.255 194.813 172.215 195.2H163.455C163.522 196.28 163.888 197.127 164.555 197.74C165.235 198.34 166.055 198.64 167.015 198.64C167.802 198.64 168.455 198.46 168.975 198.1C169.508 197.727 169.882 197.233 170.095 196.62H172.055C171.762 197.673 171.175 198.533 170.295 199.2C169.415 199.853 168.322 200.18 167.015 200.18C165.975 200.18 165.042 199.947 164.215 199.48C163.402 199.013 162.762 198.353 162.295 197.5C161.828 196.633 161.595 195.633 161.595 194.5C161.595 193.367 161.822 192.373 162.275 191.52C162.728 190.667 163.362 190.013 164.175 189.56C165.002 189.093 165.948 188.86 167.015 188.86C168.055 188.86 168.975 189.087 169.775 189.54C170.575 189.993 171.188 190.62 171.615 191.42C172.055 192.207 172.275 193.1 172.275 194.1ZM170.395 193.72C170.395 193.027 170.242 192.433 169.935 191.94C169.628 191.433 169.208 191.053 168.675 190.8C168.155 190.533 167.575 190.4 166.935 190.4C166.015 190.4 165.228 190.693 164.575 191.28C163.935 191.867 163.568 192.68 163.475 193.72H170.395ZM180.098 200L177.498 195.92L174.998 200H173.098L176.638 194.56L173.098 189.04H175.158L177.758 193.1L180.238 189.04H182.138L178.618 194.46L182.158 200H180.098ZM185.868 190.54V197C185.868 197.533 185.981 197.913 186.208 198.14C186.434 198.353 186.828 198.46 187.388 198.46H188.728V200H187.088C186.074 200 185.314 199.767 184.808 199.3C184.301 198.833 184.048 198.067 184.048 197V190.54H182.628V189.04H184.048V186.28H185.868V189.04H188.728V190.54H185.868ZM197.885 190.54V197C197.885 197.533 197.998 197.913 198.225 198.14C198.452 198.353 198.845 198.46 199.405 198.46H200.745V200H199.105C198.092 200 197.332 199.767 196.825 199.3C196.318 198.833 196.065 198.067 196.065 197V190.54H194.645V189.04H196.065V186.28H197.885V189.04H200.745V190.54H197.885ZM212.65 194.1C212.65 194.447 212.63 194.813 212.59 195.2H203.83C203.897 196.28 204.263 197.127 204.93 197.74C205.61 198.34 206.43 198.64 207.39 198.64C208.177 198.64 208.83 198.46 209.35 198.1C209.883 197.727 210.257 197.233 210.47 196.62H212.43C212.137 197.673 211.55 198.533 210.67 199.2C209.79 199.853 208.697 200.18 207.39 200.18C206.35 200.18 205.417 199.947 204.59 199.48C203.777 199.013 203.137 198.353 202.67 197.5C202.203 196.633 201.97 195.633 201.97 194.5C201.97 193.367 202.197 192.373 202.65 191.52C203.103 190.667 203.737 190.013 204.55 189.56C205.377 189.093 206.323 188.86 207.39 188.86C208.43 188.86 209.35 189.087 210.15 189.54C210.95 189.993 211.563 190.62 211.99 191.42C212.43 192.207 212.65 193.1 212.65 194.1ZM210.77 193.72C210.77 193.027 210.617 192.433 210.31 191.94C210.003 191.433 209.583 191.053 209.05 190.8C208.53 190.533 207.95 190.4 207.31 190.4C206.39 190.4 205.603 190.693 204.95 191.28C204.31 191.867 203.943 192.68 203.85 193.72H210.77ZM220.472 200L217.872 195.92L215.372 200H213.472L217.012 194.56L213.472 189.04H215.532L218.132 193.1L220.612 189.04H222.512L218.992 194.46L222.532 200H220.472ZM226.243 190.54V197C226.243 197.533 226.356 197.913 226.583 198.14C226.809 198.353 227.203 198.46 227.763 198.46H229.103V200H227.463C226.449 200 225.689 199.767 225.183 199.3C224.676 198.833 224.423 198.067 224.423 197V190.54H223.003V189.04H224.423V186.28H226.243V189.04H229.103V190.54H226.243ZM238.26 190.54V197C238.26 197.533 238.373 197.913 238.6 198.14C238.827 198.353 239.22 198.46 239.78 198.46H241.12V200H239.48C238.467 200 237.707 199.767 237.2 199.3C236.693 198.833 236.44 198.067 236.44 197V190.54H235.02V189.04H236.44V186.28H238.26V189.04H241.12V190.54H238.26ZM253.025 194.1C253.025 194.447 253.005 194.813 252.965 195.2H244.205C244.272 196.28 244.638 197.127 245.305 197.74C245.985 198.34 246.805 198.64 247.765 198.64C248.552 198.64 249.205 198.46 249.725 198.1C250.258 197.727 250.632 197.233 250.845 196.62H252.805C252.512 197.673 251.925 198.533 251.045 199.2C250.165 199.853 249.072 200.18 247.765 200.18C246.725 200.18 245.792 199.947 244.965 199.48C244.152 199.013 243.512 198.353 243.045 197.5C242.578 196.633 242.345 195.633 242.345 194.5C242.345 193.367 242.572 192.373 243.025 191.52C243.478 190.667 244.112 190.013 244.925 189.56C245.752 189.093 246.698 188.86 247.765 188.86C248.805 188.86 249.725 189.087 250.525 189.54C251.325 189.993 251.938 190.62 252.365 191.42C252.805 192.207 253.025 193.1 253.025 194.1ZM251.145 193.72C251.145 193.027 250.992 192.433 250.685 191.94C250.378 191.433 249.958 191.053 249.425 190.8C248.905 190.533 248.325 190.4 247.685 190.4C246.765 190.4 245.978 190.693 245.325 191.28C244.685 191.867 244.318 192.68 244.225 193.72H251.145ZM260.847 200L258.247 195.92L255.747 200H253.847L257.387 194.56L253.847 189.04H255.907L258.507 193.1L260.987 189.04H262.887L259.367 194.46L262.907 200H260.847ZM266.618 190.54V197C266.618 197.533 266.731 197.913 266.958 198.14C267.184 198.353 267.578 198.46 268.138 198.46H269.478V200H267.838C266.824 200 266.064 199.767 265.558 199.3C265.051 198.833 264.798 198.067 264.798 197V190.54H263.378V189.04H264.798V186.28H266.618V189.04H269.478V190.54H266.618ZM278.635 190.54V197C278.635 197.533 278.748 197.913 278.975 198.14C279.202 198.353 279.595 198.46 280.155 198.46H281.495V200H279.855C278.842 200 278.082 199.767 277.575 199.3C277.068 198.833 276.815 198.067 276.815 197V190.54H275.395V189.04H276.815V186.28H278.635V189.04H281.495V190.54H278.635ZM293.4 194.1C293.4 194.447 293.38 194.813 293.34 195.2H284.58C284.647 196.28 285.013 197.127 285.68 197.74C286.36 198.34 287.18 198.64 288.14 198.64C288.927 198.64 289.58 198.46 290.1 198.1C290.633 197.727 291.007 197.233 291.22 196.62H293.18C292.887 197.673 292.3 198.533 291.42 199.2C290.54 199.853 289.447 200.18 288.14 200.18C287.1 200.18 286.167 199.947 285.34 199.48C284.527 199.013 283.887 198.353 283.42 197.5C282.953 196.633 282.72 195.633 282.72 194.5C282.72 193.367 282.947 192.373 283.4 191.52C283.853 190.667 284.487 190.013 285.3 189.56C286.127 189.093 287.073 188.86 288.14 188.86C289.18 188.86 290.1 189.087 290.9 189.54C291.7 189.993 292.313 190.62 292.74 191.42C293.18 192.207 293.4 193.1 293.4 194.1ZM291.52 193.72C291.52 193.027 291.367 192.433 291.06 191.94C290.753 191.433 290.333 191.053 289.8 190.8C289.28 190.533 288.7 190.4 288.06 190.4C287.14 190.4 286.353 190.693 285.7 191.28C285.06 191.867 284.693 192.68 284.6 193.72H291.52ZM301.222 200L298.622 195.92L296.122 200H294.222L297.762 194.56L294.222 189.04H296.282L298.882 193.1L301.362 189.04H303.262L299.742 194.46L303.282 200H301.222ZM306.993 190.54V197C306.993 197.533 307.106 197.913 307.333 198.14C307.559 198.353 307.953 198.46 308.513 198.46H309.853V200H308.213C307.199 200 306.439 199.767 305.933 199.3C305.426 198.833 305.173 198.067 305.173 197V190.54H303.753V189.04H305.173V186.28H306.993V189.04H309.853V190.54H306.993ZM76.76 220.54V227C76.76 227.533 76.8733 227.913 77.1 228.14C77.3267 228.353 77.72 228.46 78.28 228.46H79.62V230H77.98C76.9667 230 76.2067 229.767 75.7 229.3C75.1933 228.833 74.94 228.067 74.94 227V220.54H73.52V219.04H74.94V216.28H76.76V219.04H79.62V220.54H76.76ZM91.5252 224.1C91.5252 224.447 91.5052 224.813 91.4652 225.2H82.7052C82.7718 226.28 83.1385 227.127 83.8052 227.74C84.4852 228.34 85.3052 228.64 86.2652 228.64C87.0518 228.64 87.7052 228.46 88.2252 228.1C88.7585 227.727 89.1318 227.233 89.3452 226.62H91.3052C91.0118 227.673 90.4252 228.533 89.5452 229.2C88.6652 229.853 87.5718 230.18 86.2652 230.18C85.2252 230.18 84.2918 229.947 83.4652 229.48C82.6518 229.013 82.0118 228.353 81.5452 227.5C81.0785 226.633 80.8452 225.633 80.8452 224.5C80.8452 223.367 81.0718 222.373 81.5252 221.52C81.9785 220.667 82.6118 220.013 83.4252 219.56C84.2518 219.093 85.1985 218.86 86.2652 218.86C87.3052 218.86 88.2252 219.087 89.0252 219.54C89.8252 219.993 90.4385 220.62 90.8652 221.42C91.3052 222.207 91.5252 223.1 91.5252 224.1ZM89.6452 223.72C89.6452 223.027 89.4918 222.433 89.1852 221.94C88.8785 221.433 88.4585 221.053 87.9252 220.8C87.4052 220.533 86.8252 220.4 86.1852 220.4C85.2652 220.4 84.4785 220.693 83.8252 221.28C83.1852 221.867 82.8185 222.68 82.7252 223.72H89.6452ZM99.3475 230L96.7475 225.92L94.2475 230H92.3475L95.8875 224.56L92.3475 219.04H94.4075L97.0075 223.1L99.4875 219.04H101.388L97.8675 224.46L101.408 230H99.3475ZM105.118 220.54V227C105.118 227.533 105.231 227.913 105.458 228.14C105.684 228.353 106.078 228.46 106.638 228.46H107.978V230H106.338C105.324 230 104.564 229.767 104.058 229.3C103.551 228.833 103.298 228.067 103.298 227V220.54H101.878V219.04H103.298V216.28H105.118V219.04H107.978V220.54H105.118ZM117.135 220.54V227C117.135 227.533 117.248 227.913 117.475 228.14C117.702 228.353 118.095 228.46 118.655 228.46H119.995V230H118.355C117.342 230 116.582 229.767 116.075 229.3C115.568 228.833 115.315 228.067 115.315 227V220.54H113.895V219.04H115.315V216.28H117.135V219.04H119.995V220.54H117.135ZM131.9 224.1C131.9 224.447 131.88 224.813 131.84 225.2H123.08C123.147 226.28 123.513 227.127 124.18 227.74C124.86 228.34 125.68 228.64 126.64 228.64C127.427 228.64 128.08 228.46 128.6 228.1C129.133 227.727 129.507 227.233 129.72 226.62H131.68C131.387 227.673 130.8 228.533 129.92 229.2C129.04 229.853 127.947 230.18 126.64 230.18C125.6 230.18 124.667 229.947 123.84 229.48C123.027 229.013 122.387 228.353 121.92 227.5C121.453 226.633 121.22 225.633 121.22 224.5C121.22 223.367 121.447 222.373 121.9 221.52C122.353 220.667 122.987 220.013 123.8 219.56C124.627 219.093 125.573 218.86 126.64 218.86C127.68 218.86 128.6 219.087 129.4 219.54C130.2 219.993 130.813 220.62 131.24 221.42C131.68 222.207 131.9 223.1 131.9 224.1ZM130.02 223.72C130.02 223.027 129.867 222.433 129.56 221.94C129.253 221.433 128.833 221.053 128.3 220.8C127.78 220.533 127.2 220.4 126.56 220.4C125.64 220.4 124.853 220.693 124.2 221.28C123.56 221.867 123.193 222.68 123.1 223.72H130.02ZM139.723 230L137.123 225.92L134.623 230H132.723L136.263 224.56L132.723 219.04H134.783L137.383 223.1L139.863 219.04H141.763L138.243 224.46L141.783 230H139.723ZM145.493 220.54V227C145.493 227.533 145.606 227.913 145.833 228.14C146.059 228.353 146.453 228.46 147.013 228.46H148.353V230H146.713C145.699 230 144.939 229.767 144.433 229.3C143.926 228.833 143.673 228.067 143.673 227V220.54H142.253V219.04H143.673V216.28H145.493V219.04H148.353V220.54H145.493ZM157.51 220.54V227C157.51 227.533 157.623 227.913 157.85 228.14C158.077 228.353 158.47 228.46 159.03 228.46H160.37V230H158.73C157.717 230 156.957 229.767 156.45 229.3C155.943 228.833 155.69 228.067 155.69 227V220.54H154.27V219.04H155.69V216.28H157.51V219.04H160.37V220.54H157.51ZM172.275 224.1C172.275 224.447 172.255 224.813 172.215 225.2H163.455C163.522 226.28 163.888 227.127 164.555 227.74C165.235 228.34 166.055 228.64 167.015 228.64C167.802 228.64 168.455 228.46 168.975 228.1C169.508 227.727 169.882 227.233 170.095 226.62H172.055C171.762 227.673 171.175 228.533 170.295 229.2C169.415 229.853 168.322 230.18 167.015 230.18C165.975 230.18 165.042 229.947 164.215 229.48C163.402 229.013 162.762 228.353 162.295 227.5C161.828 226.633 161.595 225.633 161.595 224.5C161.595 223.367 161.822 222.373 162.275 221.52C162.728 220.667 163.362 220.013 164.175 219.56C165.002 219.093 165.948 218.86 167.015 218.86C168.055 218.86 168.975 219.087 169.775 219.54C170.575 219.993 171.188 220.62 171.615 221.42C172.055 222.207 172.275 223.1 172.275 224.1ZM170.395 223.72C170.395 223.027 170.242 222.433 169.935 221.94C169.628 221.433 169.208 221.053 168.675 220.8C168.155 220.533 167.575 220.4 166.935 220.4C166.015 220.4 165.228 220.693 164.575 221.28C163.935 221.867 163.568 222.68 163.475 223.72H170.395ZM180.098 230L177.498 225.92L174.998 230H173.098L176.638 224.56L173.098 219.04H175.158L177.758 223.1L180.238 219.04H182.138L178.618 224.46L182.158 230H180.098ZM185.868 220.54V227C185.868 227.533 185.981 227.913 186.208 228.14C186.434 228.353 186.828 228.46 187.388 228.46H188.728V230H187.088C186.074 230 185.314 229.767 184.808 229.3C184.301 228.833 184.048 228.067 184.048 227V220.54H182.628V219.04H184.048V216.28H185.868V219.04H188.728V220.54H185.868ZM197.885 220.54V227C197.885 227.533 197.998 227.913 198.225 228.14C198.452 228.353 198.845 228.46 199.405 228.46H200.745V230H199.105C198.092 230 197.332 229.767 196.825 229.3C196.318 228.833 196.065 228.067 196.065 227V220.54H194.645V219.04H196.065V216.28H197.885V219.04H200.745V220.54H197.885ZM212.65 224.1C212.65 224.447 212.63 224.813 212.59 225.2H203.83C203.897 226.28 204.263 227.127 204.93 227.74C205.61 228.34 206.43 228.64 207.39 228.64C208.177 228.64 208.83 228.46 209.35 228.1C209.883 227.727 210.257 227.233 210.47 226.62H212.43C212.137 227.673 211.55 228.533 210.67 229.2C209.79 229.853 208.697 230.18 207.39 230.18C206.35 230.18 205.417 229.947 204.59 229.48C203.777 229.013 203.137 228.353 202.67 227.5C202.203 226.633 201.97 225.633 201.97 224.5C201.97 223.367 202.197 222.373 202.65 221.52C203.103 220.667 203.737 220.013 204.55 219.56C205.377 219.093 206.323 218.86 207.39 218.86C208.43 218.86 209.35 219.087 210.15 219.54C210.95 219.993 211.563 220.62 211.99 221.42C212.43 222.207 212.65 223.1 212.65 224.1ZM210.77 223.72C210.77 223.027 210.617 222.433 210.31 221.94C210.003 221.433 209.583 221.053 209.05 220.8C208.53 220.533 207.95 220.4 207.31 220.4C206.39 220.4 205.603 220.693 204.95 221.28C204.31 221.867 203.943 222.68 203.85 223.72H210.77ZM220.472 230L217.872 225.92L215.372 230H213.472L217.012 224.56L213.472 219.04H215.532L218.132 223.1L220.612 219.04H222.512L218.992 224.46L222.532 230H220.472ZM226.243 220.54V227C226.243 227.533 226.356 227.913 226.583 228.14C226.809 228.353 227.203 228.46 227.763 228.46H229.103V230H227.463C226.449 230 225.689 229.767 225.183 229.3C224.676 228.833 224.423 228.067 224.423 227V220.54H223.003V219.04H224.423V216.28H226.243V219.04H229.103V220.54H226.243ZM238.26 220.54V227C238.26 227.533 238.373 227.913 238.6 228.14C238.827 228.353 239.22 228.46 239.78 228.46H241.12V230H239.48C238.467 230 237.707 229.767 237.2 229.3C236.693 228.833 236.44 228.067 236.44 227V220.54H235.02V219.04H236.44V216.28H238.26V219.04H241.12V220.54H238.26ZM253.025 224.1C253.025 224.447 253.005 224.813 252.965 225.2H244.205C244.272 226.28 244.638 227.127 245.305 227.74C245.985 228.34 246.805 228.64 247.765 228.64C248.552 228.64 249.205 228.46 249.725 228.1C250.258 227.727 250.632 227.233 250.845 226.62H252.805C252.512 227.673 251.925 228.533 251.045 229.2C250.165 229.853 249.072 230.18 247.765 230.18C246.725 230.18 245.792 229.947 244.965 229.48C244.152 229.013 243.512 228.353 243.045 227.5C242.578 226.633 242.345 225.633 242.345 224.5C242.345 223.367 242.572 222.373 243.025 221.52C243.478 220.667 244.112 220.013 244.925 219.56C245.752 219.093 246.698 218.86 247.765 218.86C248.805 218.86 249.725 219.087 250.525 219.54C251.325 219.993 251.938 220.62 252.365 221.42C252.805 222.207 253.025 223.1 253.025 224.1ZM251.145 223.72C251.145 223.027 250.992 222.433 250.685 221.94C250.378 221.433 249.958 221.053 249.425 220.8C248.905 220.533 248.325 220.4 247.685 220.4C246.765 220.4 245.978 220.693 245.325 221.28C244.685 221.867 244.318 222.68 244.225 223.72H251.145ZM260.847 230L258.247 225.92L255.747 230H253.847L257.387 224.56L253.847 219.04H255.907L258.507 223.1L260.987 219.04H262.887L259.367 224.46L262.907 230H260.847ZM266.618 220.54V227C266.618 227.533 266.731 227.913 266.958 228.14C267.184 228.353 267.578 228.46 268.138 228.46H269.478V230H267.838C266.824 230 266.064 229.767 265.558 229.3C265.051 228.833 264.798 228.067 264.798 227V220.54H263.378V219.04H264.798V216.28H266.618V219.04H269.478V220.54H266.618ZM278.635 220.54V227C278.635 227.533 278.748 227.913 278.975 228.14C279.202 228.353 279.595 228.46 280.155 228.46H281.495V230H279.855C278.842 230 278.082 229.767 277.575 229.3C277.068 228.833 276.815 228.067 276.815 227V220.54H275.395V219.04H276.815V216.28H278.635V219.04H281.495V220.54H278.635ZM293.4 224.1C293.4 224.447 293.38 224.813 293.34 225.2H284.58C284.647 226.28 285.013 227.127 285.68 227.74C286.36 228.34 287.18 228.64 288.14 228.64C288.927 228.64 289.58 228.46 290.1 228.1C290.633 227.727 291.007 227.233 291.22 226.62H293.18C292.887 227.673 292.3 228.533 291.42 229.2C290.54 229.853 289.447 230.18 288.14 230.18C287.1 230.18 286.167 229.947 285.34 229.48C284.527 229.013 283.887 228.353 283.42 227.5C282.953 226.633 282.72 225.633 282.72 224.5C282.72 223.367 282.947 222.373 283.4 221.52C283.853 220.667 284.487 220.013 285.3 219.56C286.127 219.093 287.073 218.86 288.14 218.86C289.18 218.86 290.1 219.087 290.9 219.54C291.7 219.993 292.313 220.62 292.74 221.42C293.18 222.207 293.4 223.1 293.4 224.1ZM291.52 223.72C291.52 223.027 291.367 222.433 291.06 221.94C290.753 221.433 290.333 221.053 289.8 220.8C289.28 220.533 288.7 220.4 288.06 220.4C287.14 220.4 286.353 220.693 285.7 221.28C285.06 221.867 284.693 222.68 284.6 223.72H291.52ZM301.222 230L298.622 225.92L296.122 230H294.222L297.762 224.56L294.222 219.04H296.282L298.882 223.1L301.362 219.04H303.262L299.742 224.46L303.282 230H301.222ZM306.993 220.54V227C306.993 227.533 307.106 227.913 307.333 228.14C307.559 228.353 307.953 228.46 308.513 228.46H309.853V230H308.213C307.199 230 306.439 229.767 305.933 229.3C305.426 228.833 305.173 228.067 305.173 227V220.54H303.753V219.04H305.173V216.28H306.993V219.04H309.853V220.54H306.993ZM76.76 250.54V257C76.76 257.533 76.8733 257.913 77.1 258.14C77.3267 258.353 77.72 258.46 78.28 258.46H79.62V260H77.98C76.9667 260 76.2067 259.767 75.7 259.3C75.1933 258.833 74.94 258.067 74.94 257V250.54H73.52V249.04H74.94V246.28H76.76V249.04H79.62V250.54H76.76ZM91.5252 254.1C91.5252 254.447 91.5052 254.813 91.4652 255.2H82.7052C82.7718 256.28 83.1385 257.127 83.8052 257.74C84.4852 258.34 85.3052 258.64 86.2652 258.64C87.0518 258.64 87.7052 258.46 88.2252 258.1C88.7585 257.727 89.1318 257.233 89.3452 256.62H91.3052C91.0118 257.673 90.4252 258.533 89.5452 259.2C88.6652 259.853 87.5718 260.18 86.2652 260.18C85.2252 260.18 84.2918 259.947 83.4652 259.48C82.6518 259.013 82.0118 258.353 81.5452 257.5C81.0785 256.633 80.8452 255.633 80.8452 254.5C80.8452 253.367 81.0718 252.373 81.5252 251.52C81.9785 250.667 82.6118 250.013 83.4252 249.56C84.2518 249.093 85.1985 248.86 86.2652 248.86C87.3052 248.86 88.2252 249.087 89.0252 249.54C89.8252 249.993 90.4385 250.62 90.8652 251.42C91.3052 252.207 91.5252 253.1 91.5252 254.1ZM89.6452 253.72C89.6452 253.027 89.4918 252.433 89.1852 251.94C88.8785 251.433 88.4585 251.053 87.9252 250.8C87.4052 250.533 86.8252 250.4 86.1852 250.4C85.2652 250.4 84.4785 250.693 83.8252 251.28C83.1852 251.867 82.8185 252.68 82.7252 253.72H89.6452ZM99.3475 260L96.7475 255.92L94.2475 260H92.3475L95.8875 254.56L92.3475 249.04H94.4075L97.0075 253.1L99.4875 249.04H101.388L97.8675 254.46L101.408 260H99.3475ZM105.118 250.54V257C105.118 257.533 105.231 257.913 105.458 258.14C105.684 258.353 106.078 258.46 106.638 258.46H107.978V260H106.338C105.324 260 104.564 259.767 104.058 259.3C103.551 258.833 103.298 258.067 103.298 257V250.54H101.878V249.04H103.298V246.28H105.118V249.04H107.978V250.54H105.118ZM117.135 250.54V257C117.135 257.533 117.248 257.913 117.475 258.14C117.702 258.353 118.095 258.46 118.655 258.46H119.995V260H118.355C117.342 260 116.582 259.767 116.075 259.3C115.568 258.833 115.315 258.067 115.315 257V250.54H113.895V249.04H115.315V246.28H117.135V249.04H119.995V250.54H117.135ZM131.9 254.1C131.9 254.447 131.88 254.813 131.84 255.2H123.08C123.147 256.28 123.513 257.127 124.18 257.74C124.86 258.34 125.68 258.64 126.64 258.64C127.427 258.64 128.08 258.46 128.6 258.1C129.133 257.727 129.507 257.233 129.72 256.62H131.68C131.387 257.673 130.8 258.533 129.92 259.2C129.04 259.853 127.947 260.18 126.64 260.18C125.6 260.18 124.667 259.947 123.84 259.48C123.027 259.013 122.387 258.353 121.92 257.5C121.453 256.633 121.22 255.633 121.22 254.5C121.22 253.367 121.447 252.373 121.9 251.52C122.353 250.667 122.987 250.013 123.8 249.56C124.627 249.093 125.573 248.86 126.64 248.86C127.68 248.86 128.6 249.087 129.4 249.54C130.2 249.993 130.813 250.62 131.24 251.42C131.68 252.207 131.9 253.1 131.9 254.1ZM130.02 253.72C130.02 253.027 129.867 252.433 129.56 251.94C129.253 251.433 128.833 251.053 128.3 250.8C127.78 250.533 127.2 250.4 126.56 250.4C125.64 250.4 124.853 250.693 124.2 251.28C123.56 251.867 123.193 252.68 123.1 253.72H130.02ZM139.723 260L137.123 255.92L134.623 260H132.723L136.263 254.56L132.723 249.04H134.783L137.383 253.1L139.863 249.04H141.763L138.243 254.46L141.783 260H139.723ZM145.493 250.54V257C145.493 257.533 145.606 257.913 145.833 258.14C146.059 258.353 146.453 258.46 147.013 258.46H148.353V260H146.713C145.699 260 144.939 259.767 144.433 259.3C143.926 258.833 143.673 258.067 143.673 257V250.54H142.253V249.04H143.673V246.28H145.493V249.04H148.353V250.54H145.493ZM157.51 250.54V257C157.51 257.533 157.623 257.913 157.85 258.14C158.077 258.353 158.47 258.46 159.03 258.46H160.37V260H158.73C157.717 260 156.957 259.767 156.45 259.3C155.943 258.833 155.69 258.067 155.69 257V250.54H154.27V249.04H155.69V246.28H157.51V249.04H160.37V250.54H157.51ZM172.275 254.1C172.275 254.447 172.255 254.813 172.215 255.2H163.455C163.522 256.28 163.888 257.127 164.555 257.74C165.235 258.34 166.055 258.64 167.015 258.64C167.802 258.64 168.455 258.46 168.975 258.1C169.508 257.727 169.882 257.233 170.095 256.62H172.055C171.762 257.673 171.175 258.533 170.295 259.2C169.415 259.853 168.322 260.18 167.015 260.18C165.975 260.18 165.042 259.947 164.215 259.48C163.402 259.013 162.762 258.353 162.295 257.5C161.828 256.633 161.595 255.633 161.595 254.5C161.595 253.367 161.822 252.373 162.275 251.52C162.728 250.667 163.362 250.013 164.175 249.56C165.002 249.093 165.948 248.86 167.015 248.86C168.055 248.86 168.975 249.087 169.775 249.54C170.575 249.993 171.188 250.62 171.615 251.42C172.055 252.207 172.275 253.1 172.275 254.1ZM170.395 253.72C170.395 253.027 170.242 252.433 169.935 251.94C169.628 251.433 169.208 251.053 168.675 250.8C168.155 250.533 167.575 250.4 166.935 250.4C166.015 250.4 165.228 250.693 164.575 251.28C163.935 251.867 163.568 252.68 163.475 253.72H170.395ZM180.098 260L177.498 255.92L174.998 260H173.098L176.638 254.56L173.098 249.04H175.158L177.758 253.1L180.238 249.04H182.138L178.618 254.46L182.158 260H180.098ZM185.868 250.54V257C185.868 257.533 185.981 257.913 186.208 258.14C186.434 258.353 186.828 258.46 187.388 258.46H188.728V260H187.088C186.074 260 185.314 259.767 184.808 259.3C184.301 258.833 184.048 258.067 184.048 257V250.54H182.628V249.04H184.048V246.28H185.868V249.04H188.728V250.54H185.868ZM197.885 250.54V257C197.885 257.533 197.998 257.913 198.225 258.14C198.452 258.353 198.845 258.46 199.405 258.46H200.745V260H199.105C198.092 260 197.332 259.767 196.825 259.3C196.318 258.833 196.065 258.067 196.065 257V250.54H194.645V249.04H196.065V246.28H197.885V249.04H200.745V250.54H197.885ZM212.65 254.1C212.65 254.447 212.63 254.813 212.59 255.2H203.83C203.897 256.28 204.263 257.127 204.93 257.74C205.61 258.34 206.43 258.64 207.39 258.64C208.177 258.64 208.83 258.46 209.35 258.1C209.883 257.727 210.257 257.233 210.47 256.62H212.43C212.137 257.673 211.55 258.533 210.67 259.2C209.79 259.853 208.697 260.18 207.39 260.18C206.35 260.18 205.417 259.947 204.59 259.48C203.777 259.013 203.137 258.353 202.67 257.5C202.203 256.633 201.97 255.633 201.97 254.5C201.97 253.367 202.197 252.373 202.65 251.52C203.103 250.667 203.737 250.013 204.55 249.56C205.377 249.093 206.323 248.86 207.39 248.86C208.43 248.86 209.35 249.087 210.15 249.54C210.95 249.993 211.563 250.62 211.99 251.42C212.43 252.207 212.65 253.1 212.65 254.1ZM210.77 253.72C210.77 253.027 210.617 252.433 210.31 251.94C210.003 251.433 209.583 251.053 209.05 250.8C208.53 250.533 207.95 250.4 207.31 250.4C206.39 250.4 205.603 250.693 204.95 251.28C204.31 251.867 203.943 252.68 203.85 253.72H210.77ZM220.472 260L217.872 255.92L215.372 260H213.472L217.012 254.56L213.472 249.04H215.532L218.132 253.1L220.612 249.04H222.512L218.992 254.46L222.532 260H220.472ZM226.243 250.54V257C226.243 257.533 226.356 257.913 226.583 258.14C226.809 258.353 227.203 258.46 227.763 258.46H229.103V260H227.463C226.449 260 225.689 259.767 225.183 259.3C224.676 258.833 224.423 258.067 224.423 257V250.54H223.003V249.04H224.423V246.28H226.243V249.04H229.103V250.54H226.243ZM238.26 250.54V257C238.26 257.533 238.373 257.913 238.6 258.14C238.827 258.353 239.22 258.46 239.78 258.46H241.12V260H239.48C238.467 260 237.707 259.767 237.2 259.3C236.693 258.833 236.44 258.067 236.44 257V250.54H235.02V249.04H236.44V246.28H238.26V249.04H241.12V250.54H238.26ZM253.025 254.1C253.025 254.447 253.005 254.813 252.965 255.2H244.205C244.272 256.28 244.638 257.127 245.305 257.74C245.985 258.34 246.805 258.64 247.765 258.64C248.552 258.64 249.205 258.46 249.725 258.1C250.258 257.727 250.632 257.233 250.845 256.62H252.805C252.512 257.673 251.925 258.533 251.045 259.2C250.165 259.853 249.072 260.18 247.765 260.18C246.725 260.18 245.792 259.947 244.965 259.48C244.152 259.013 243.512 258.353 243.045 257.5C242.578 256.633 242.345 255.633 242.345 254.5C242.345 253.367 242.572 252.373 243.025 251.52C243.478 250.667 244.112 250.013 244.925 249.56C245.752 249.093 246.698 248.86 247.765 248.86C248.805 248.86 249.725 249.087 250.525 249.54C251.325 249.993 251.938 250.62 252.365 251.42C252.805 252.207 253.025 253.1 253.025 254.1ZM251.145 253.72C251.145 253.027 250.992 252.433 250.685 251.94C250.378 251.433 249.958 251.053 249.425 250.8C248.905 250.533 248.325 250.4 247.685 250.4C246.765 250.4 245.978 250.693 245.325 251.28C244.685 251.867 244.318 252.68 244.225 253.72H251.145ZM260.847 260L258.247 255.92L255.747 260H253.847L257.387 254.56L253.847 249.04H255.907L258.507 253.1L260.987 249.04H262.887L259.367 254.46L262.907 260H260.847ZM266.618 250.54V257C266.618 257.533 266.731 257.913 266.958 258.14C267.184 258.353 267.578 258.46 268.138 258.46H269.478V260H267.838C266.824 260 266.064 259.767 265.558 259.3C265.051 258.833 264.798 258.067 264.798 257V250.54H263.378V249.04H264.798V246.28H266.618V249.04H269.478V250.54H266.618ZM278.635 250.54V257C278.635 257.533 278.748 257.913 278.975 258.14C279.202 258.353 279.595 258.46 280.155 258.46H281.495V260H279.855C278.842 260 278.082 259.767 277.575 259.3C277.068 258.833 276.815 258.067 276.815 257V250.54H275.395V249.04H276.815V246.28H278.635V249.04H281.495V250.54H278.635ZM293.4 254.1C293.4 254.447 293.38 254.813 293.34 255.2H284.58C284.647 256.28 285.013 257.127 285.68 257.74C286.36 258.34 287.18 258.64 288.14 258.64C288.927 258.64 289.58 258.46 290.1 258.1C290.633 257.727 291.007 257.233 291.22 256.62H293.18C292.887 257.673 292.3 258.533 291.42 259.2C290.54 259.853 289.447 260.18 288.14 260.18C287.1 260.18 286.167 259.947 285.34 259.48C284.527 259.013 283.887 258.353 283.42 257.5C282.953 256.633 282.72 255.633 282.72 254.5C282.72 253.367 282.947 252.373 283.4 251.52C283.853 250.667 284.487 250.013 285.3 249.56C286.127 249.093 287.073 248.86 288.14 248.86C289.18 248.86 290.1 249.087 290.9 249.54C291.7 249.993 292.313 250.62 292.74 251.42C293.18 252.207 293.4 253.1 293.4 254.1ZM291.52 253.72C291.52 253.027 291.367 252.433 291.06 251.94C290.753 251.433 290.333 251.053 289.8 250.8C289.28 250.533 288.7 250.4 288.06 250.4C287.14 250.4 286.353 250.693 285.7 251.28C285.06 251.867 284.693 252.68 284.6 253.72H291.52ZM301.222 260L298.622 255.92L296.122 260H294.222L297.762 254.56L294.222 249.04H296.282L298.882 253.1L301.362 249.04H303.262L299.742 254.46L303.282 260H301.222ZM306.993 250.54V257C306.993 257.533 307.106 257.913 307.333 258.14C307.559 258.353 307.953 258.46 308.513 258.46H309.853V260H308.213C307.199 260 306.439 259.767 305.933 259.3C305.426 258.833 305.173 258.067 305.173 257V250.54H303.753V249.04H305.173V246.28H306.993V249.04H309.853V250.54H306.993ZM76.76 280.54V287C76.76 287.533 76.8733 287.913 77.1 288.14C77.3267 288.353 77.72 288.46 78.28 288.46H79.62V290H77.98C76.9667 290 76.2067 289.767 75.7 289.3C75.1933 288.833 74.94 288.067 74.94 287V280.54H73.52V279.04H74.94V276.28H76.76V279.04H79.62V280.54H76.76ZM91.5252 284.1C91.5252 284.447 91.5052 284.813 91.4652 285.2H82.7052C82.7718 286.28 83.1385 287.127 83.8052 287.74C84.4852 288.34 85.3052 288.64 86.2652 288.64C87.0518 288.64 87.7052 288.46 88.2252 288.1C88.7585 287.727 89.1318 287.233 89.3452 286.62H91.3052C91.0118 287.673 90.4252 288.533 89.5452 289.2C88.6652 289.853 87.5718 290.18 86.2652 290.18C85.2252 290.18 84.2918 289.947 83.4652 289.48C82.6518 289.013 82.0118 288.353 81.5452 287.5C81.0785 286.633 80.8452 285.633 80.8452 284.5C80.8452 283.367 81.0718 282.373 81.5252 281.52C81.9785 280.667 82.6118 280.013 83.4252 279.56C84.2518 279.093 85.1985 278.86 86.2652 278.86C87.3052 278.86 88.2252 279.087 89.0252 279.54C89.8252 279.993 90.4385 280.62 90.8652 281.42C91.3052 282.207 91.5252 283.1 91.5252 284.1ZM89.6452 283.72C89.6452 283.027 89.4918 282.433 89.1852 281.94C88.8785 281.433 88.4585 281.053 87.9252 280.8C87.4052 280.533 86.8252 280.4 86.1852 280.4C85.2652 280.4 84.4785 280.693 83.8252 281.28C83.1852 281.867 82.8185 282.68 82.7252 283.72H89.6452ZM99.3475 290L96.7475 285.92L94.2475 290H92.3475L95.8875 284.56L92.3475 279.04H94.4075L97.0075 283.1L99.4875 279.04H101.388L97.8675 284.46L101.408 290H99.3475ZM105.118 280.54V287C105.118 287.533 105.231 287.913 105.458 288.14C105.684 288.353 106.078 288.46 106.638 288.46H107.978V290H106.338C105.324 290 104.564 289.767 104.058 289.3C103.551 288.833 103.298 288.067 103.298 287V280.54H101.878V279.04H103.298V276.28H105.118V279.04H107.978V280.54H105.118ZM117.135 280.54V287C117.135 287.533 117.248 287.913 117.475 288.14C117.702 288.353 118.095 288.46 118.655 288.46H119.995V290H118.355C117.342 290 116.582 289.767 116.075 289.3C115.568 288.833 115.315 288.067 115.315 287V280.54H113.895V279.04H115.315V276.28H117.135V279.04H119.995V280.54H117.135ZM131.9 284.1C131.9 284.447 131.88 284.813 131.84 285.2H123.08C123.147 286.28 123.513 287.127 124.18 287.74C124.86 288.34 125.68 288.64 126.64 288.64C127.427 288.64 128.08 288.46 128.6 288.1C129.133 287.727 129.507 287.233 129.72 286.62H131.68C131.387 287.673 130.8 288.533 129.92 289.2C129.04 289.853 127.947 290.18 126.64 290.18C125.6 290.18 124.667 289.947 123.84 289.48C123.027 289.013 122.387 288.353 121.92 287.5C121.453 286.633 121.22 285.633 121.22 284.5C121.22 283.367 121.447 282.373 121.9 281.52C122.353 280.667 122.987 280.013 123.8 279.56C124.627 279.093 125.573 278.86 126.64 278.86C127.68 278.86 128.6 279.087 129.4 279.54C130.2 279.993 130.813 280.62 131.24 281.42C131.68 282.207 131.9 283.1 131.9 284.1ZM130.02 283.72C130.02 283.027 129.867 282.433 129.56 281.94C129.253 281.433 128.833 281.053 128.3 280.8C127.78 280.533 127.2 280.4 126.56 280.4C125.64 280.4 124.853 280.693 124.2 281.28C123.56 281.867 123.193 282.68 123.1 283.72H130.02ZM139.723 290L137.123 285.92L134.623 290H132.723L136.263 284.56L132.723 279.04H134.783L137.383 283.1L139.863 279.04H141.763L138.243 284.46L141.783 290H139.723ZM145.493 280.54V287C145.493 287.533 145.606 287.913 145.833 288.14C146.059 288.353 146.453 288.46 147.013 288.46H148.353V290H146.713C145.699 290 144.939 289.767 144.433 289.3C143.926 288.833 143.673 288.067 143.673 287V280.54H142.253V279.04H143.673V276.28H145.493V279.04H148.353V280.54H145.493ZM157.51 280.54V287C157.51 287.533 157.623 287.913 157.85 288.14C158.077 288.353 158.47 288.46 159.03 288.46H160.37V290H158.73C157.717 290 156.957 289.767 156.45 289.3C155.943 288.833 155.69 288.067 155.69 287V280.54H154.27V279.04H155.69V276.28H157.51V279.04H160.37V280.54H157.51ZM172.275 284.1C172.275 284.447 172.255 284.813 172.215 285.2H163.455C163.522 286.28 163.888 287.127 164.555 287.74C165.235 288.34 166.055 288.64 167.015 288.64C167.802 288.64 168.455 288.46 168.975 288.1C169.508 287.727 169.882 287.233 170.095 286.62H172.055C171.762 287.673 171.175 288.533 170.295 289.2C169.415 289.853 168.322 290.18 167.015 290.18C165.975 290.18 165.042 289.947 164.215 289.48C163.402 289.013 162.762 288.353 162.295 287.5C161.828 286.633 161.595 285.633 161.595 284.5C161.595 283.367 161.822 282.373 162.275 281.52C162.728 280.667 163.362 280.013 164.175 279.56C165.002 279.093 165.948 278.86 167.015 278.86C168.055 278.86 168.975 279.087 169.775 279.54C170.575 279.993 171.188 280.62 171.615 281.42C172.055 282.207 172.275 283.1 172.275 284.1ZM170.395 283.72C170.395 283.027 170.242 282.433 169.935 281.94C169.628 281.433 169.208 281.053 168.675 280.8C168.155 280.533 167.575 280.4 166.935 280.4C166.015 280.4 165.228 280.693 164.575 281.28C163.935 281.867 163.568 282.68 163.475 283.72H170.395ZM180.098 290L177.498 285.92L174.998 290H173.098L176.638 284.56L173.098 279.04H175.158L177.758 283.1L180.238 279.04H182.138L178.618 284.46L182.158 290H180.098ZM185.868 280.54V287C185.868 287.533 185.981 287.913 186.208 288.14C186.434 288.353 186.828 288.46 187.388 288.46H188.728V290H187.088C186.074 290 185.314 289.767 184.808 289.3C184.301 288.833 184.048 288.067 184.048 287V280.54H182.628V279.04H184.048V276.28H185.868V279.04H188.728V280.54H185.868ZM197.885 280.54V287C197.885 287.533 197.998 287.913 198.225 288.14C198.452 288.353 198.845 288.46 199.405 288.46H200.745V290H199.105C198.092 290 197.332 289.767 196.825 289.3C196.318 288.833 196.065 288.067 196.065 287V280.54H194.645V279.04H196.065V276.28H197.885V279.04H200.745V280.54H197.885ZM212.65 284.1C212.65 284.447 212.63 284.813 212.59 285.2H203.83C203.897 286.28 204.263 287.127 204.93 287.74C205.61 288.34 206.43 288.64 207.39 288.64C208.177 288.64 208.83 288.46 209.35 288.1C209.883 287.727 210.257 287.233 210.47 286.62H212.43C212.137 287.673 211.55 288.533 210.67 289.2C209.79 289.853 208.697 290.18 207.39 290.18C206.35 290.18 205.417 289.947 204.59 289.48C203.777 289.013 203.137 288.353 202.67 287.5C202.203 286.633 201.97 285.633 201.97 284.5C201.97 283.367 202.197 282.373 202.65 281.52C203.103 280.667 203.737 280.013 204.55 279.56C205.377 279.093 206.323 278.86 207.39 278.86C208.43 278.86 209.35 279.087 210.15 279.54C210.95 279.993 211.563 280.62 211.99 281.42C212.43 282.207 212.65 283.1 212.65 284.1ZM210.77 283.72C210.77 283.027 210.617 282.433 210.31 281.94C210.003 281.433 209.583 281.053 209.05 280.8C208.53 280.533 207.95 280.4 207.31 280.4C206.39 280.4 205.603 280.693 204.95 281.28C204.31 281.867 203.943 282.68 203.85 283.72H210.77ZM220.472 290L217.872 285.92L215.372 290H213.472L217.012 284.56L213.472 279.04H215.532L218.132 283.1L220.612 279.04H222.512L218.992 284.46L222.532 290H220.472ZM226.243 280.54V287C226.243 287.533 226.356 287.913 226.583 288.14C226.809 288.353 227.203 288.46 227.763 288.46H229.103V290H227.463C226.449 290 225.689 289.767 225.183 289.3C224.676 288.833 224.423 288.067 224.423 287V280.54H223.003V279.04H224.423V276.28H226.243V279.04H229.103V280.54H226.243ZM238.26 280.54V287C238.26 287.533 238.373 287.913 238.6 288.14C238.827 288.353 239.22 288.46 239.78 288.46H241.12V290H239.48C238.467 290 237.707 289.767 237.2 289.3C236.693 288.833 236.44 288.067 236.44 287V280.54H235.02V279.04H236.44V276.28H238.26V279.04H241.12V280.54H238.26ZM253.025 284.1C253.025 284.447 253.005 284.813 252.965 285.2H244.205C244.272 286.28 244.638 287.127 245.305 287.74C245.985 288.34 246.805 288.64 247.765 288.64C248.552 288.64 249.205 288.46 249.725 288.1C250.258 287.727 250.632 287.233 250.845 286.62H252.805C252.512 287.673 251.925 288.533 251.045 289.2C250.165 289.853 249.072 290.18 247.765 290.18C246.725 290.18 245.792 289.947 244.965 289.48C244.152 289.013 243.512 288.353 243.045 287.5C242.578 286.633 242.345 285.633 242.345 284.5C242.345 283.367 242.572 282.373 243.025 281.52C243.478 280.667 244.112 280.013 244.925 279.56C245.752 279.093 246.698 278.86 247.765 278.86C248.805 278.86 249.725 279.087 250.525 279.54C251.325 279.993 251.938 280.62 252.365 281.42C252.805 282.207 253.025 283.1 253.025 284.1ZM251.145 283.72C251.145 283.027 250.992 282.433 250.685 281.94C250.378 281.433 249.958 281.053 249.425 280.8C248.905 280.533 248.325 280.4 247.685 280.4C246.765 280.4 245.978 280.693 245.325 281.28C244.685 281.867 244.318 282.68 244.225 283.72H251.145ZM260.847 290L258.247 285.92L255.747 290H253.847L257.387 284.56L253.847 279.04H255.907L258.507 283.1L260.987 279.04H262.887L259.367 284.46L262.907 290H260.847ZM266.618 280.54V287C266.618 287.533 266.731 287.913 266.958 288.14C267.184 288.353 267.578 288.46 268.138 288.46H269.478V290H267.838C266.824 290 266.064 289.767 265.558 289.3C265.051 288.833 264.798 288.067 264.798 287V280.54H263.378V279.04H264.798V276.28H266.618V279.04H269.478V280.54H266.618ZM278.635 280.54V287C278.635 287.533 278.748 287.913 278.975 288.14C279.202 288.353 279.595 288.46 280.155 288.46H281.495V290H279.855C278.842 290 278.082 289.767 277.575 289.3C277.068 288.833 276.815 288.067 276.815 287V280.54H275.395V279.04H276.815V276.28H278.635V279.04H281.495V280.54H278.635ZM293.4 284.1C293.4 284.447 293.38 284.813 293.34 285.2H284.58C284.647 286.28 285.013 287.127 285.68 287.74C286.36 288.34 287.18 288.64 288.14 288.64C288.927 288.64 289.58 288.46 290.1 288.1C290.633 287.727 291.007 287.233 291.22 286.62H293.18C292.887 287.673 292.3 288.533 291.42 289.2C290.54 289.853 289.447 290.18 288.14 290.18C287.1 290.18 286.167 289.947 285.34 289.48C284.527 289.013 283.887 288.353 283.42 287.5C282.953 286.633 282.72 285.633 282.72 284.5C282.72 283.367 282.947 282.373 283.4 281.52C283.853 280.667 284.487 280.013 285.3 279.56C286.127 279.093 287.073 278.86 288.14 278.86C289.18 278.86 290.1 279.087 290.9 279.54C291.7 279.993 292.313 280.62 292.74 281.42C293.18 282.207 293.4 283.1 293.4 284.1ZM291.52 283.72C291.52 283.027 291.367 282.433 291.06 281.94C290.753 281.433 290.333 281.053 289.8 280.8C289.28 280.533 288.7 280.4 288.06 280.4C287.14 280.4 286.353 280.693 285.7 281.28C285.06 281.867 284.693 282.68 284.6 283.72H291.52ZM301.222 290L298.622 285.92L296.122 290H294.222L297.762 284.56L294.222 279.04H296.282L298.882 283.1L301.362 279.04H303.262L299.742 284.46L303.282 290H301.222ZM306.993 280.54V287C306.993 287.533 307.106 287.913 307.333 288.14C307.559 288.353 307.953 288.46 308.513 288.46H309.853V290H308.213C307.199 290 306.439 289.767 305.933 289.3C305.426 288.833 305.173 288.067 305.173 287V280.54H303.753V279.04H305.173V276.28H306.993V279.04H309.853V280.54H306.993Z" fill="#033E8A"/>
</svg>
