<svg width="500" height="600" viewBox="0 0 500 600" fill="none" xmlns="http://www.w3.org/2000/svg">
<g clip-path="url(#clip0_12756_1324)">
<g clip-path="url(#clip1_12756_1324)">
<path d="M259.937 172.553L259.772 243.731C259.772 246.374 257.625 248.521 254.817 248.521L184.96 248.355C182.317 248.355 180.171 246.209 180.171 243.401L180.336 156.038C180.336 153.395 182.483 151.249 185.29 151.249L239.128 151.414L259.937 172.553Z" fill="#CACCCB"/>
<path d="M261.423 171.066L261.258 242.245C261.258 244.887 259.111 247.034 256.304 247.034L186.446 246.869C183.804 246.869 181.657 244.722 181.657 241.915L181.822 154.386C181.822 151.744 183.969 149.597 186.776 149.597L240.615 149.762L261.423 171.066Z" fill="#E5F3FF"/>
<path d="M244.908 170.901L261.258 171.066L240.615 150.092V166.442C240.615 168.919 242.596 170.901 244.908 170.901Z" fill="#BFE0FF"/>
<path d="M193.19 181.748L193.177 185.381L250.153 185.576L250.166 181.942L193.19 181.748Z" fill="#97CEFF"/>
<path d="M193.195 192.478L193.182 196.111L250.158 196.306L250.171 192.672L193.195 192.478Z" fill="#97CEFF"/>
<path d="M193.036 203.047L193.023 206.68L249.999 206.875L250.012 203.242L193.036 203.047Z" fill="#97CEFF"/>
<path d="M193.041 213.775L193.028 217.408L250.004 217.603L250.017 213.97L193.041 213.775Z" fill="#97CEFF"/>
<path d="M193.044 224.343L193.031 227.976L250.007 228.171L250.019 224.538L193.044 224.343Z" fill="#97CEFF"/>
<path d="M193.049 235.072L193.036 238.706L250.012 238.9L250.024 235.267L193.049 235.072Z" fill="#97CEFF"/>
</g>
<path d="M490 509.609V378.257C490 375.514 487.745 373.247 484.971 373.247H289.27C286.525 373.247 284.268 375.514 284.268 378.257V509.609H490Z" fill="#242D3C"/>
<path d="M294.645 383.639H479.594V499.21H294.645V383.639Z" fill="white"/>
<path d="M415.694 557.577H358.554L363.743 528.445H410.496L415.694 557.577Z" fill="#D9D8D7"/>
<path d="M415.694 557.577L410.496 528.445H363.743L401.132 557.577H415.694Z" fill="#CCCBCA"/>
<path d="M430.976 561.857H343.264V560.252C343.264 559.57 343.507 558.883 344.035 558.358C344.562 557.841 345.262 557.577 345.925 557.577H428.3C428.981 557.577 429.68 557.84 430.205 558.358C430.71 558.883 430.976 559.57 430.976 560.252V561.857ZM490 509.609V523.45C490 526.201 487.737 528.446 484.973 528.446H289.276C286.537 528.446 284.259 526.201 284.259 523.45V509.609H490Z" fill="#E6E5E5"/>
<path d="M338.479 423.331C346.021 423.331 352.135 416.925 352.135 409.024C352.135 401.123 346.021 394.717 338.479 394.717C330.937 394.717 324.823 401.123 324.823 409.024C324.823 416.925 330.937 423.331 338.479 423.331Z" fill="#7DCEDC"/>
<path d="M319.62 428.533H357.338V430.972H319.62V428.533ZM319.62 434.386H357.338V436.825H319.62V434.386ZM322.863 440.401H354.266V442.84H322.863V440.401Z" fill="#474F59"/>
<path d="M386.602 423.331C394.144 423.331 400.258 416.925 400.258 409.024C400.258 401.123 394.144 394.717 386.602 394.717C379.059 394.717 372.945 401.123 372.945 409.024C372.945 416.925 379.059 423.331 386.602 423.331Z" fill="#F6BB53"/>
<path d="M367.743 428.533H405.46V430.972H367.743V428.533ZM367.743 434.386H405.46V436.825H367.743V434.386ZM370.985 440.401H402.388V442.84H370.985V440.401Z" fill="#474F59"/>
<path d="M434.074 423.331C441.975 423.331 448.381 416.925 448.381 409.024C448.381 401.123 441.975 394.717 434.074 394.717C426.172 394.717 419.767 401.123 419.767 409.024C419.767 416.925 426.172 423.331 434.074 423.331Z" fill="#DAD9D8"/>
<path d="M415.865 428.533H452.282V430.972H415.865V428.533ZM415.865 434.386H452.282V436.825H415.865V434.386ZM418.996 440.401H449.316V442.84H418.996V440.401Z" fill="#474F59"/>
<path d="M320.921 448.042H452.282V463.65H320.921V448.042Z" fill="#4CA2B1"/>
<path d="M419.767 471.453H447.73V493.563H419.767V471.453Z" fill="#DAD9D8"/>
<path d="M371.775 471.453H399.738V493.563H371.775V471.453Z" fill="#F6BB53"/>
<path d="M326.123 471.453H354.086V493.563H326.123V471.453Z" fill="#7DCEDC"/>
<g filter="url(#filter0_d_12756_1324)">
<rect x="10" y="75.2979" width="166.706" height="123.918" rx="5" fill="url(#paint0_linear_12756_1324)"/>
<path d="M10 80.2979C10 77.5364 12.2386 75.2979 15 75.2979H171.706C174.467 75.2979 176.706 77.5364 176.706 80.2979V88.6343H10V80.2979Z" fill="#2D2D2D"/>
<circle cx="16.908" cy="82.206" r="1.90712" fill="#FF0000"/>
<circle cx="23.2641" cy="82.206" r="1.90712" fill="#FFAA1D"/>
<circle cx="29.6221" cy="82.206" r="1.90712" fill="#34C900"/>
<path fill-rule="evenodd" clip-rule="evenodd" d="M153.354 96.5216H157.078C158.106 96.5216 158.94 97.3551 158.94 98.3833V115.139C158.94 116.167 158.106 117.001 157.078 117.001H142.929C141.9 117.001 141.067 116.167 141.067 115.139V98.3833C141.067 97.3551 141.9 96.5216 142.929 96.5216H146.652C146.652 94.6708 148.152 93.1704 150.003 93.1704C151.854 93.1704 153.354 94.6708 153.354 96.5216ZM154.471 99.128V98.3833H156.706C157.117 98.3833 157.45 98.7167 157.45 99.128V114.767C157.45 115.178 157.117 115.511 156.706 115.511H143.673C143.262 115.511 142.929 115.178 142.929 114.767V99.128C142.929 98.7167 143.262 98.3833 143.673 98.3833H145.535V99.128C145.535 99.5393 145.868 99.8727 146.28 99.8727H153.727C154.138 99.8727 154.471 99.5393 154.471 99.128ZM150.748 96.5216C150.748 96.9328 150.415 97.2663 150.003 97.2663C149.592 97.2663 149.259 96.9328 149.259 96.5216C149.259 96.1103 149.592 95.7769 150.003 95.7769C150.415 95.7769 150.748 96.1103 150.748 96.5216Z" fill="#F2F2F2"/>
</g>
<path d="M21.9151 101.511H49.2292V104.854H21.9151V101.511Z" fill="white"/>
<path d="M57.706 101.511H99.1481V104.854H57.706V101.511Z" fill="white"/>
<path d="M57.9734 116.46H111.702V119.338H57.9734V116.46ZM39.8106 109.311H120.811V112.165H39.8106V109.311Z" fill="white"/>
<path d="M21.9151 123.794H49.2292V127.137H21.9151V123.794Z" fill="white"/>
<path d="M57.706 123.795H99.1481V127.137H57.706V123.795Z" fill="white"/>
<path d="M57.9734 138.772H111.702V141.621H57.9734V138.772ZM39.8106 131.594H120.811V134.468H39.8106V131.594Z" fill="white"/>
<path d="M21.9151 101.511H49.2292V104.854H21.9151V101.511Z" fill="white"/>
<path d="M57.706 101.511H99.1481V104.854H57.706V101.511Z" fill="white"/>
<path d="M57.9734 116.46H111.702V119.338H57.9734V116.46ZM39.8106 109.311H120.811V112.165H39.8106V109.311Z" fill="#FF0000"/>
<path d="M21.9151 123.794H49.2292V127.137H21.9151V123.794Z" fill="white"/>
<path d="M57.706 123.795H99.1481V127.137H57.706V123.795Z" fill="white"/>
<path d="M57.9734 138.772H111.702V141.621H57.9734V138.772ZM39.8106 131.594H120.811V134.468H39.8106V131.594Z" fill="#E7BF35" fill-opacity="0.751085"/>
<path d="M21.9151 146.077H49.2292V149.42H21.9151V146.077Z" fill="white"/>
<path d="M57.706 146.077H99.1481V149.419H57.706V146.077Z" fill="white"/>
<path d="M57.9734 161.829H111.702V165.017H57.9734V161.829ZM39.8106 153.876H120.811V157.059H39.8106V153.876Z" fill="#88A6F3"/>
<path d="M21.9151 169.474H49.2292V171.702H21.9151V169.474Z" fill="white"/>
<path d="M57.706 169.474H99.1481V171.702H57.706V169.474Z" fill="white"/>
<path d="M57.9734 184.433H111.702V187.301H57.9734V184.433ZM39.8106 177.273H120.811V180.13H39.8106V177.273Z" fill="#00A407"/>
<path d="M231.435 161.179C231.435 141.365 220.316 124.011 204.141 116.321C192.011 110.553 181.902 109.913 163.706 112.476C167.749 112.476 187.771 110.688 203.13 125.293C215.261 136.828 215.261 145.74 215.261 159.898V166.306H207.174L223.348 186.812L239.522 166.306H231.435V161.179Z" fill="#97CEFF"/>
<path d="M296.542 252.825C296.542 244.962 292.132 238.075 285.717 235.023C280.906 232.734 276.897 232.48 269.681 233.497C271.284 233.497 279.225 232.788 285.316 238.584C290.127 243.161 290.127 246.698 290.127 252.316V254.859H286.92L293.334 262.997L299.749 254.859H296.542V252.825Z" fill="#97CEFF"/>
<path d="M349.389 325.717C349.389 317.854 344.979 310.967 338.564 307.916C333.753 305.627 329.744 305.373 322.528 306.39C324.132 306.39 332.072 305.68 338.163 311.476C342.974 316.054 342.974 319.591 342.974 325.209V327.752H339.767L346.182 335.89L352.596 327.752H349.389V325.717Z" fill="#97CEFF"/>
<path d="M375.813 362.164C375.813 354.3 371.403 347.414 364.988 344.362C360.177 342.073 356.168 341.819 348.952 342.836C350.555 342.836 358.496 342.127 364.587 347.922C369.398 352.5 369.398 356.037 369.398 361.655V364.198H366.191L372.605 372.336L379.02 364.198H375.813V362.164Z" fill="#97CEFF"/>
<path d="M155.752 60.5315H159.761C159.705 62.0377 159.402 63.3097 158.851 64.3475C158.3 65.3761 157.515 66.1568 156.496 66.6894C155.485 67.2221 154.264 67.4884 152.831 67.4884C151.72 67.4884 150.733 67.3048 149.869 66.9374C149.006 66.5609 148.271 66.0098 147.665 65.2843C147.059 64.5587 146.6 63.6633 146.288 62.598C145.985 61.5234 145.833 60.2882 145.833 58.8922V55.4895C145.833 54.0935 145.994 52.8583 146.315 51.7838C146.646 50.7092 147.114 49.8092 147.72 49.0837C148.336 48.3489 149.075 47.7979 149.938 47.4305C150.811 47.054 151.793 46.8657 152.886 46.8657C154.347 46.8657 155.568 47.1412 156.551 47.6923C157.533 48.2433 158.291 49.0469 158.824 50.1031C159.366 51.1501 159.692 52.4312 159.802 53.9466H155.779C155.752 52.9915 155.642 52.243 155.449 51.7011C155.265 51.1501 154.971 50.7643 154.567 50.5439C154.163 50.3143 153.603 50.1995 152.886 50.1995C152.354 50.1995 151.894 50.296 151.509 50.4888C151.123 50.6725 150.806 50.971 150.558 51.3843C150.31 51.7975 150.127 52.3394 150.007 53.0098C149.897 53.6803 149.842 54.4976 149.842 55.462V58.8922C149.842 59.8382 149.892 60.6463 149.993 61.3168C150.094 61.978 150.255 62.5199 150.476 62.9424C150.696 63.3648 150.994 63.6725 151.371 63.8653C151.757 64.0582 152.243 64.1546 152.831 64.1546C153.511 64.1546 154.057 64.0536 154.471 63.8516C154.893 63.6495 155.205 63.2868 155.407 62.7633C155.609 62.2398 155.724 61.4959 155.752 60.5315Z" fill="white"/>
<path d="M161.225 60.2698V59.2642C161.225 58.0978 161.362 57.0646 161.638 56.1645C161.923 55.2645 162.327 54.5114 162.85 53.9053C163.374 53.2899 164.003 52.8262 164.738 52.5139C165.481 52.1925 166.313 52.0317 167.231 52.0317C168.159 52.0317 168.99 52.1925 169.724 52.5139C170.468 52.8262 171.102 53.2899 171.626 53.9053C172.158 54.5114 172.567 55.2645 172.852 56.1645C173.136 57.0646 173.279 58.0978 173.279 59.2642V60.2698C173.279 61.427 173.136 62.4556 172.852 63.3556C172.567 64.2557 172.158 65.0134 171.626 65.6287C171.102 66.244 170.473 66.7078 169.738 67.0201C169.004 67.3323 168.177 67.4884 167.259 67.4884C166.34 67.4884 165.509 67.3323 164.765 67.0201C164.03 66.7078 163.397 66.244 162.864 65.6287C162.331 65.0134 161.923 64.2557 161.638 63.3556C161.362 62.4556 161.225 61.427 161.225 60.2698ZM165.082 59.2642V60.2698C165.082 60.9586 165.128 61.5556 165.22 62.0607C165.321 62.5658 165.463 62.9837 165.647 63.3143C165.84 63.6449 166.069 63.8883 166.336 64.0444C166.602 64.2006 166.91 64.2786 167.259 64.2786C167.608 64.2786 167.92 64.2006 168.195 64.0444C168.471 63.8883 168.696 63.6449 168.87 63.3143C169.054 62.9837 169.187 62.5658 169.27 62.0607C169.362 61.5556 169.408 60.9586 169.408 60.2698V59.2642C169.408 58.5937 169.357 58.0059 169.256 57.5008C169.155 56.9865 169.013 56.5686 168.829 56.2472C168.645 55.9166 168.416 55.6686 168.14 55.5033C167.874 55.3288 167.571 55.2416 167.231 55.2416C166.891 55.2416 166.588 55.3288 166.322 55.5033C166.065 55.6686 165.84 55.9166 165.647 56.2472C165.463 56.5686 165.321 56.9865 165.22 57.5008C165.128 58.0059 165.082 58.5937 165.082 59.2642Z" fill="white"/>
<path d="M179.151 55.1727V72.9438H175.308V52.3073H178.862L179.151 55.1727ZM186.893 59.2504V60.2423C186.893 61.4086 186.792 62.4418 186.59 63.3419C186.388 64.2327 186.085 64.9904 185.681 65.6149C185.286 66.2302 184.79 66.6986 184.193 67.0201C183.596 67.3323 182.898 67.4884 182.099 67.4884C181.355 67.4884 180.712 67.314 180.171 66.965C179.638 66.6068 179.188 66.1154 178.821 65.4909C178.453 64.8664 178.159 64.1363 177.939 63.3005C177.718 62.4648 177.549 61.5693 177.429 60.6142V59.0713C177.539 58.0519 177.7 57.1151 177.911 56.261C178.123 55.3977 178.412 54.6492 178.779 54.0155C179.156 53.3818 179.61 52.895 180.143 52.5552C180.685 52.2062 181.328 52.0317 182.072 52.0317C182.88 52.0317 183.582 52.1787 184.179 52.4726C184.786 52.7665 185.286 53.2119 185.681 53.8088C186.085 54.3966 186.388 55.1451 186.59 56.0543C186.792 56.9636 186.893 58.0289 186.893 59.2504ZM183.036 60.2423V59.2504C183.036 58.534 182.995 57.9233 182.912 57.4182C182.839 56.913 182.719 56.4998 182.554 56.1783C182.389 55.8569 182.173 55.6227 181.906 55.4757C181.64 55.3288 181.314 55.2553 180.928 55.2553C180.552 55.2553 180.221 55.3288 179.936 55.4757C179.661 55.6227 179.436 55.8385 179.261 56.1232C179.087 56.3987 178.954 56.7385 178.862 57.1426C178.77 57.5376 178.719 57.9876 178.71 58.4927V61.1928C178.729 61.7898 178.807 62.3178 178.945 62.777C179.091 63.2362 179.326 63.6036 179.647 63.8791C179.969 64.1455 180.405 64.2786 180.956 64.2786C181.351 64.2786 181.677 64.196 181.934 64.0307C182.2 63.8653 182.416 63.6174 182.581 63.2868C182.747 62.9561 182.861 62.5383 182.926 62.0331C182.999 61.528 183.036 60.9311 183.036 60.2423Z" fill="white"/>
<path d="M192.421 65.5047L195.535 52.3073H199.557L194.653 69.4446C194.543 69.8212 194.391 70.2253 194.198 70.6569C194.006 71.0978 193.748 71.511 193.427 71.8968C193.115 72.2917 192.72 72.6131 192.242 72.8611C191.765 73.1091 191.191 73.2331 190.52 73.2331C190.18 73.2331 189.905 73.2101 189.694 73.1642C189.492 73.1274 189.234 73.0631 188.922 72.9713V69.9681C189.005 69.9681 189.083 69.9681 189.156 69.9681C189.239 69.9773 189.317 69.9819 189.391 69.9819C189.822 69.9819 190.167 69.9222 190.424 69.8028C190.681 69.6926 190.888 69.5181 191.044 69.2793C191.209 69.0405 191.347 68.7421 191.457 68.3839L192.421 65.5047ZM191.622 52.3073L193.937 62.9975L194.46 67.3507L191.857 67.5987L187.49 52.3073H191.622Z" fill="white"/>
<line x1="192.028" y1="47.4639" x2="192.028" y2="38.9999" stroke="white"/>
<line x1="200.563" y1="48.6173" x2="204.795" y2="41.5639" stroke="white"/>
<line x1="205.038" y1="54.0529" x2="212.092" y2="51.2315" stroke="white"/>
<path d="M245.62 129.953H241.378V126.494H245.62C246.209 126.494 246.688 126.361 247.058 126.095C247.438 125.829 247.713 125.464 247.884 124.999C248.055 124.524 248.14 123.993 248.14 123.404C248.14 122.806 248.05 122.251 247.87 121.739C247.699 121.217 247.428 120.794 247.058 120.471C246.698 120.149 246.218 119.987 245.62 119.987H242.716V137.257H238.559V116.528H245.62C247.016 116.528 248.216 116.822 249.222 117.411C250.228 117.999 250.997 118.81 251.529 119.845C252.07 120.87 252.34 122.047 252.34 123.376C252.34 124.714 252.07 125.877 251.529 126.864C250.997 127.841 250.228 128.601 249.222 129.142C248.216 129.683 247.016 129.953 245.62 129.953Z" fill="white"/>
<path d="M261.114 133.712V126.593C261.114 126.128 261.057 125.758 260.943 125.483C260.839 125.208 260.677 125.008 260.459 124.885C260.25 124.752 259.994 124.686 259.69 124.686C259.349 124.686 259.064 124.757 258.836 124.899C258.608 125.041 258.437 125.246 258.324 125.511C258.219 125.777 258.167 126.095 258.167 126.465H254.166C254.166 125.801 254.295 125.174 254.551 124.586C254.807 123.988 255.182 123.466 255.676 123.02C256.179 122.564 256.777 122.208 257.469 121.952C258.162 121.696 258.941 121.568 259.804 121.568C260.829 121.568 261.74 121.743 262.538 122.094C263.335 122.436 263.966 122.982 264.431 123.732C264.896 124.482 265.129 125.454 265.129 126.65V133.512C265.129 134.376 265.172 135.078 265.257 135.619C265.352 136.16 265.489 136.626 265.67 137.015V137.257H261.655C261.475 136.83 261.337 136.298 261.242 135.662C261.157 135.017 261.114 134.367 261.114 133.712ZM261.598 127.846L261.612 130.238H260.146C259.766 130.238 259.434 130.3 259.149 130.423C258.874 130.546 258.642 130.722 258.452 130.95C258.262 131.168 258.12 131.424 258.025 131.719C257.939 132.013 257.896 132.326 257.896 132.658C257.896 133.028 257.949 133.342 258.053 133.598C258.157 133.854 258.314 134.049 258.523 134.182C258.732 134.314 258.978 134.381 259.263 134.381C259.7 134.381 260.079 134.291 260.402 134.11C260.725 133.93 260.962 133.712 261.114 133.455C261.275 133.199 261.328 132.962 261.271 132.744L262.182 134.295C262.068 134.647 261.911 135.012 261.712 135.392C261.522 135.771 261.28 136.123 260.986 136.445C260.692 136.768 260.326 137.034 259.89 137.242C259.463 137.442 258.955 137.541 258.366 137.541C257.541 137.541 256.786 137.352 256.103 136.972C255.419 136.592 254.878 136.061 254.48 135.377C254.09 134.694 253.896 133.883 253.896 132.943C253.896 132.165 254.019 131.462 254.266 130.836C254.522 130.2 254.902 129.664 255.405 129.227C255.908 128.781 256.544 128.439 257.313 128.202C258.082 127.965 258.983 127.846 260.018 127.846H261.598Z" fill="white"/>
<path d="M274.472 133.1C274.472 132.834 274.382 132.597 274.202 132.388C274.021 132.179 273.737 131.965 273.347 131.747C272.958 131.519 272.441 131.268 271.796 130.992C271.093 130.708 270.472 130.414 269.931 130.11C269.39 129.806 268.929 129.469 268.55 129.099C268.179 128.729 267.899 128.306 267.71 127.832C267.52 127.357 267.425 126.816 267.425 126.209C267.425 125.554 267.544 124.951 267.781 124.401C268.028 123.841 268.379 123.352 268.834 122.934C269.29 122.507 269.845 122.175 270.5 121.938C271.164 121.691 271.91 121.568 272.735 121.568C273.893 121.568 274.885 121.772 275.711 122.18C276.546 122.579 277.187 123.138 277.633 123.86C278.079 124.581 278.302 125.421 278.302 126.38H274.316C274.316 126.038 274.263 125.734 274.159 125.469C274.055 125.193 273.884 124.98 273.646 124.828C273.419 124.676 273.11 124.6 272.721 124.6C272.436 124.6 272.18 124.662 271.952 124.785C271.734 124.909 271.558 125.075 271.425 125.284C271.302 125.483 271.24 125.72 271.24 125.995C271.24 126.204 271.283 126.389 271.369 126.551C271.463 126.712 271.611 126.869 271.81 127.02C272.009 127.172 272.275 127.334 272.607 127.504C272.949 127.666 273.366 127.846 273.86 128.045C274.885 128.425 275.725 128.833 276.38 129.27C277.044 129.706 277.538 130.219 277.861 130.807C278.183 131.386 278.345 132.103 278.345 132.957C278.345 133.641 278.212 134.262 277.946 134.822C277.69 135.382 277.315 135.866 276.821 136.274C276.328 136.683 275.735 136.996 275.042 137.214C274.358 137.432 273.594 137.541 272.75 137.541C271.506 137.541 270.457 137.295 269.603 136.801C268.749 136.308 268.104 135.676 267.667 134.908C267.23 134.129 267.012 133.323 267.012 132.487H270.799C270.818 133 270.913 133.403 271.084 133.698C271.264 133.982 271.506 134.182 271.81 134.295C272.114 134.409 272.451 134.466 272.821 134.466C273.191 134.466 273.495 134.419 273.732 134.324C273.979 134.22 274.164 134.063 274.287 133.854C274.41 133.636 274.472 133.384 274.472 133.1Z" fill="white"/>
<path d="M287.161 121.852V124.856H279.302V121.852H287.161ZM281.111 118.051H285.083V132.559C285.083 132.986 285.125 133.313 285.211 133.541C285.296 133.769 285.424 133.93 285.595 134.025C285.776 134.11 286.013 134.153 286.307 134.153C286.506 134.153 286.691 134.144 286.862 134.125C287.033 134.096 287.161 134.068 287.247 134.039V137.157C286.933 137.28 286.601 137.375 286.25 137.442C285.908 137.508 285.5 137.541 285.026 137.541C284.228 137.541 283.536 137.39 282.947 137.086C282.368 136.782 281.917 136.298 281.595 135.634C281.272 134.96 281.111 134.077 281.111 132.986V118.051Z" fill="white"/>
<path d="M295.152 137.541C294.099 137.541 293.164 137.38 292.347 137.057C291.541 136.735 290.857 136.27 290.297 135.662C289.737 135.045 289.31 134.3 289.016 133.427C288.722 132.554 288.575 131.557 288.575 130.437V129.17C288.575 127.917 288.717 126.821 289.002 125.881C289.287 124.932 289.69 124.135 290.212 123.49C290.734 122.844 291.375 122.365 292.134 122.052C292.903 121.729 293.771 121.568 294.739 121.568C295.707 121.568 296.557 121.729 297.288 122.052C298.028 122.365 298.64 122.84 299.124 123.475C299.608 124.102 299.974 124.88 300.22 125.81C300.467 126.74 300.591 127.822 300.591 129.056V130.879H290.269V128.074H296.675V127.718C296.675 127.092 296.609 126.57 296.476 126.152C296.343 125.725 296.134 125.407 295.85 125.198C295.565 124.989 295.185 124.885 294.711 124.885C294.312 124.885 293.975 124.966 293.7 125.127C293.425 125.288 293.206 125.54 293.045 125.881C292.884 126.223 292.765 126.669 292.689 127.22C292.613 127.761 292.575 128.411 292.575 129.17V130.437C292.575 131.149 292.637 131.747 292.76 132.231C292.884 132.706 293.064 133.095 293.301 133.399C293.548 133.693 293.847 133.906 294.198 134.039C294.549 134.163 294.958 134.224 295.423 134.224C296.125 134.224 296.756 134.101 297.316 133.854C297.886 133.598 298.37 133.251 298.768 132.815L300.363 135.235C300.088 135.596 299.708 135.956 299.224 136.317C298.74 136.678 298.161 136.972 297.487 137.2C296.813 137.428 296.035 137.541 295.152 137.541Z" fill="white"/>
<circle cx="302.482" cy="271.197" r="2.73348" fill="#E5F3FF"/>
<circle cx="311.594" cy="282.131" r="2.73348" fill="#E5F3FF"/>
<circle cx="319.794" cy="293.065" r="2.73348" fill="#E5F3FF"/>
<path d="M380.013 307.872L383.174 317.211L386.306 307.872H390.847L385.266 321.069V328.6H381.066V321.069L375.486 307.872H380.013Z" fill="white"/>
<path d="M390.737 321.425V320.386C390.737 319.18 390.88 318.113 391.164 317.182C391.459 316.252 391.876 315.474 392.417 314.848C392.958 314.212 393.608 313.732 394.368 313.41C395.137 313.078 395.995 312.911 396.945 312.911C397.903 312.911 398.762 313.078 399.521 313.41C400.29 313.732 400.945 314.212 401.486 314.848C402.037 315.474 402.459 316.252 402.753 317.182C403.047 318.113 403.195 319.18 403.195 320.386V321.425C403.195 322.621 403.047 323.684 402.753 324.614C402.459 325.544 402.037 326.327 401.486 326.963C400.945 327.599 400.295 328.078 399.536 328.401C398.776 328.724 397.922 328.885 396.973 328.885C396.024 328.885 395.165 328.724 394.396 328.401C393.637 328.078 392.982 327.599 392.431 326.963C391.881 326.327 391.459 325.544 391.164 324.614C390.88 323.684 390.737 322.621 390.737 321.425ZM394.724 320.386V321.425C394.724 322.137 394.771 322.754 394.866 323.276C394.97 323.798 395.118 324.23 395.307 324.571C395.507 324.913 395.744 325.165 396.019 325.326C396.294 325.487 396.612 325.568 396.973 325.568C397.334 325.568 397.656 325.487 397.941 325.326C398.226 325.165 398.458 324.913 398.639 324.571C398.829 324.23 398.966 323.798 399.052 323.276C399.147 322.754 399.194 322.137 399.194 321.425V320.386C399.194 319.693 399.142 319.085 399.037 318.563C398.933 318.032 398.786 317.6 398.596 317.268C398.406 316.926 398.169 316.67 397.884 316.499C397.609 316.319 397.296 316.229 396.945 316.229C396.593 316.229 396.28 316.319 396.005 316.499C395.739 316.67 395.507 316.926 395.307 317.268C395.118 317.6 394.97 318.032 394.866 318.563C394.771 319.085 394.724 319.693 394.724 320.386Z" fill="white"/>
<path d="M412.723 324.899V313.196H416.724V328.6H412.965L412.723 324.899ZM413.179 321.724L414.289 321.696C414.289 322.73 414.189 323.689 413.99 324.571C413.791 325.445 413.492 326.204 413.093 326.849C412.695 327.495 412.196 327.998 411.598 328.358C411 328.71 410.293 328.885 409.477 328.885C408.851 328.885 408.272 328.781 407.74 328.572C407.218 328.354 406.767 328.017 406.388 327.561C406.008 327.096 405.709 326.503 405.491 325.782C405.282 325.051 405.177 324.173 405.177 323.148V313.196H409.178V323.19C409.178 323.608 409.216 323.969 409.292 324.272C409.368 324.567 409.472 324.809 409.605 324.999C409.738 325.188 409.895 325.326 410.075 325.411C410.255 325.487 410.459 325.525 410.687 325.525C411.314 325.525 411.807 325.364 412.168 325.041C412.538 324.709 412.799 324.258 412.951 323.689C413.103 323.11 413.179 322.455 413.179 321.724Z" fill="white"/>
<path d="M423.177 316.627V328.6H419.191V313.196H422.949L423.177 316.627ZM426.807 313.082L426.75 317.054C426.57 317.016 426.352 316.988 426.095 316.969C425.849 316.95 425.63 316.94 425.441 316.94C424.994 316.94 424.615 317.012 424.302 317.154C423.988 317.287 423.727 317.491 423.519 317.766C423.319 318.032 423.167 318.364 423.063 318.763C422.959 319.161 422.897 319.612 422.878 320.115L422.123 319.831C422.123 318.824 422.199 317.904 422.351 317.069C422.512 316.224 422.75 315.493 423.063 314.876C423.376 314.25 423.751 313.766 424.188 313.424C424.634 313.082 425.137 312.911 425.697 312.911C425.887 312.911 426.086 312.93 426.295 312.968C426.513 312.997 426.684 313.035 426.807 313.082Z" fill="white"/>
<path d="M434.233 321.425V320.386C434.233 319.18 434.375 318.113 434.66 317.182C434.954 316.252 435.372 315.474 435.913 314.848C436.454 314.212 437.104 313.732 437.863 313.41C438.632 313.078 439.491 312.911 440.44 312.911C441.399 312.911 442.258 313.078 443.017 313.41C443.786 313.732 444.441 314.212 444.982 314.848C445.532 315.474 445.954 316.252 446.249 317.182C446.543 318.113 446.69 319.18 446.69 320.386V321.425C446.69 322.621 446.543 323.684 446.249 324.614C445.954 325.544 445.532 326.327 444.982 326.963C444.441 327.599 443.79 328.078 443.031 328.401C442.272 328.724 441.418 328.885 440.468 328.885C439.519 328.885 438.66 328.724 437.892 328.401C437.132 328.078 436.477 327.599 435.927 326.963C435.376 326.327 434.954 325.544 434.66 324.614C434.375 323.684 434.233 322.621 434.233 321.425ZM438.219 320.386V321.425C438.219 322.137 438.266 322.754 438.361 323.276C438.466 323.798 438.613 324.23 438.803 324.571C439.002 324.913 439.239 325.165 439.515 325.326C439.79 325.487 440.108 325.568 440.468 325.568C440.829 325.568 441.152 325.487 441.437 325.326C441.721 325.165 441.954 324.913 442.134 324.571C442.324 324.23 442.462 323.798 442.547 323.276C442.642 322.754 442.689 322.137 442.689 321.425V320.386C442.689 319.693 442.637 319.085 442.533 318.563C442.428 318.032 442.281 317.6 442.091 317.268C441.902 316.926 441.664 316.67 441.38 316.499C441.104 316.319 440.791 316.229 440.44 316.229C440.089 316.229 439.776 316.319 439.5 316.499C439.235 316.67 439.002 316.926 438.803 317.268C438.613 317.6 438.466 318.032 438.361 318.563C438.266 319.085 438.219 319.693 438.219 320.386Z" fill="white"/>
<path d="M452.389 324.543L455.079 313.196H457.585L456.973 317.809L454.325 328.6H452.232L452.389 324.543ZM451.62 313.196L453.456 324.514L453.442 328.6H450.993L447.79 313.196H451.62ZM459.607 324.329L461.386 313.196H465.245L462.027 328.6H459.578L459.607 324.329ZM457.927 313.196L460.618 324.458L460.803 328.6H458.71L456.062 317.837L455.464 313.196H457.927Z" fill="white"/>
<path d="M470.73 316.485V328.6H466.729V313.196H470.473L470.73 316.485ZM470.132 320.372L469.064 320.4C469.045 319.242 469.154 318.203 469.391 317.282C469.638 316.362 469.985 315.578 470.431 314.933C470.886 314.278 471.427 313.78 472.054 313.438C472.69 313.087 473.397 312.911 474.175 312.911C474.773 312.911 475.319 313.016 475.812 313.225C476.315 313.433 476.747 313.766 477.108 314.221C477.469 314.677 477.749 315.284 477.948 316.044C478.147 316.793 478.247 317.714 478.247 318.806V328.6H474.246V318.777C474.246 318.113 474.18 317.6 474.047 317.239C473.914 316.869 473.715 316.613 473.449 316.471C473.183 316.319 472.851 316.243 472.452 316.243C472.073 316.243 471.736 316.352 471.442 316.57C471.147 316.779 470.901 317.069 470.701 317.439C470.511 317.809 470.364 318.246 470.26 318.749C470.165 319.252 470.122 319.793 470.132 320.372Z" fill="white"/>
<path d="M390.756 359.167L393.446 347.82H395.952L395.34 352.433L392.692 363.225H390.599L390.756 359.167ZM389.987 347.82L391.823 359.139L391.809 363.225H389.36L386.157 347.82H389.987ZM397.974 358.953L399.753 347.82H403.611L400.394 363.225H397.945L397.974 358.953ZM396.294 347.82L398.984 359.082L399.17 363.225H397.077L394.429 352.461L393.831 347.82H396.294Z" fill="white"/>
<path d="M411.389 363.509C410.335 363.509 409.4 363.348 408.584 363.025C407.777 362.703 407.094 362.237 406.534 361.63C405.974 361.013 405.547 360.268 405.253 359.395C404.958 358.522 404.811 357.525 404.811 356.405V355.138C404.811 353.885 404.954 352.789 405.238 351.849C405.523 350.9 405.927 350.103 406.449 349.457C406.971 348.812 407.611 348.333 408.371 348.02C409.139 347.697 410.008 347.536 410.976 347.536C411.944 347.536 412.793 347.697 413.524 348.02C414.265 348.333 414.877 348.807 415.361 349.443C415.845 350.07 416.21 350.848 416.457 351.778C416.704 352.708 416.827 353.79 416.827 355.024V356.846H406.506V354.042H412.912V353.686C412.912 353.059 412.846 352.537 412.713 352.12C412.58 351.693 412.371 351.375 412.086 351.166C411.802 350.957 411.422 350.853 410.947 350.853C410.549 350.853 410.212 350.933 409.937 351.095C409.661 351.256 409.443 351.508 409.282 351.849C409.12 352.191 409.002 352.637 408.926 353.188C408.85 353.729 408.812 354.379 408.812 355.138V356.405C408.812 357.117 408.874 357.715 408.997 358.199C409.12 358.674 409.301 359.063 409.538 359.366C409.785 359.661 410.084 359.874 410.435 360.007C410.786 360.13 411.194 360.192 411.659 360.192C412.362 360.192 412.993 360.069 413.553 359.822C414.122 359.566 414.606 359.219 415.005 358.783L416.599 361.203C416.324 361.564 415.945 361.924 415.46 362.285C414.976 362.646 414.397 362.94 413.724 363.168C413.05 363.395 412.271 363.509 411.389 363.509Z" fill="white"/>
<path d="M418.71 341.357H422.683V359.651L422.398 363.225H418.71V341.357ZM430.684 355.01V356.021C430.684 357.274 430.584 358.365 430.385 359.295C430.195 360.225 429.896 361.004 429.488 361.63C429.089 362.256 428.577 362.726 427.95 363.039C427.324 363.353 426.583 363.509 425.729 363.509C424.96 363.509 424.301 363.329 423.75 362.968C423.2 362.598 422.735 362.09 422.355 361.445C421.985 360.79 421.681 360.026 421.444 359.153C421.216 358.27 421.05 357.307 420.946 356.263V354.768C421.041 353.743 421.202 352.789 421.43 351.906C421.667 351.024 421.971 350.26 422.341 349.614C422.711 348.959 423.171 348.451 423.722 348.091C424.282 347.721 424.941 347.536 425.701 347.536C426.574 347.536 427.324 347.697 427.95 348.02C428.577 348.333 429.089 348.803 429.488 349.429C429.896 350.055 430.195 350.838 430.385 351.778C430.584 352.708 430.684 353.786 430.684 355.01ZM426.712 356.021V355.01C426.712 354.298 426.683 353.686 426.626 353.173C426.569 352.661 426.465 352.234 426.313 351.892C426.161 351.55 425.943 351.294 425.658 351.123C425.383 350.952 425.017 350.867 424.562 350.867C424.154 350.867 423.812 350.948 423.537 351.109C423.262 351.261 423.024 351.489 422.825 351.792C422.635 352.087 422.493 352.438 422.398 352.846C422.312 353.245 422.265 353.686 422.255 354.17V356.861C422.265 357.516 422.346 358.095 422.498 358.598C422.649 359.101 422.891 359.49 423.224 359.765C423.565 360.04 424.021 360.178 424.59 360.178C425.036 360.178 425.397 360.102 425.672 359.95C425.948 359.798 426.161 359.556 426.313 359.224C426.474 358.892 426.579 358.465 426.626 357.943C426.683 357.411 426.712 356.771 426.712 356.021Z" fill="white"/>
<path d="M445.769 359.68V352.561C445.769 352.096 445.712 351.726 445.598 351.451C445.493 351.175 445.332 350.976 445.114 350.853C444.905 350.72 444.649 350.653 444.345 350.653C444.003 350.653 443.718 350.725 443.491 350.867C443.263 351.009 443.092 351.213 442.978 351.479C442.874 351.745 442.821 352.063 442.821 352.433H438.821C438.821 351.769 438.949 351.142 439.205 350.554C439.462 349.956 439.836 349.434 440.33 348.988C440.833 348.532 441.431 348.176 442.124 347.92C442.817 347.664 443.595 347.536 444.459 347.536C445.484 347.536 446.395 347.711 447.192 348.062C447.989 348.404 448.621 348.95 449.086 349.7C449.551 350.449 449.783 351.422 449.783 352.618V359.48C449.783 360.344 449.826 361.046 449.911 361.587C450.006 362.128 450.144 362.593 450.324 362.983V363.225H446.31C446.129 362.797 445.992 362.266 445.897 361.63C445.811 360.985 445.769 360.334 445.769 359.68ZM446.253 353.814L446.267 356.206H444.8C444.421 356.206 444.089 356.267 443.804 356.391C443.529 356.514 443.296 356.69 443.106 356.918C442.916 357.136 442.774 357.392 442.679 357.686C442.594 357.981 442.551 358.294 442.551 358.626C442.551 358.996 442.603 359.309 442.708 359.566C442.812 359.822 442.969 360.017 443.177 360.149C443.386 360.282 443.633 360.349 443.918 360.349C444.354 360.349 444.734 360.259 445.057 360.078C445.379 359.898 445.617 359.68 445.769 359.423C445.93 359.167 445.982 358.93 445.925 358.711L446.836 360.263C446.722 360.614 446.566 360.98 446.366 361.36C446.177 361.739 445.935 362.09 445.64 362.413C445.346 362.736 444.981 363.002 444.544 363.21C444.117 363.41 443.609 363.509 443.021 363.509C442.195 363.509 441.441 363.319 440.757 362.94C440.074 362.56 439.533 362.029 439.134 361.345C438.745 360.662 438.55 359.85 438.55 358.911C438.55 358.133 438.674 357.43 438.921 356.804C439.177 356.168 439.557 355.632 440.06 355.195C440.563 354.749 441.198 354.407 441.967 354.17C442.736 353.933 443.638 353.814 444.672 353.814H446.253Z" fill="white"/>
<path d="M456.279 350.782V369.147H452.307V347.82H455.98L456.279 350.782ZM464.28 354.996V356.021C464.28 357.226 464.176 358.294 463.967 359.224C463.758 360.145 463.445 360.928 463.028 361.573C462.619 362.209 462.107 362.693 461.49 363.025C460.873 363.348 460.152 363.509 459.326 363.509C458.557 363.509 457.893 363.329 457.333 362.968C456.782 362.598 456.317 362.09 455.938 361.445C455.558 360.8 455.254 360.045 455.026 359.181C454.799 358.318 454.623 357.392 454.5 356.405V354.811C454.614 353.757 454.78 352.789 454.998 351.906C455.216 351.014 455.515 350.241 455.895 349.586C456.284 348.931 456.754 348.428 457.304 348.077C457.864 347.716 458.529 347.536 459.298 347.536C460.133 347.536 460.859 347.687 461.476 347.991C462.102 348.295 462.619 348.755 463.028 349.372C463.445 349.98 463.758 350.753 463.967 351.693C464.176 352.632 464.28 353.733 464.28 354.996ZM460.294 356.021V354.996C460.294 354.255 460.251 353.624 460.166 353.102C460.09 352.58 459.967 352.153 459.796 351.821C459.625 351.489 459.402 351.247 459.127 351.095C458.851 350.943 458.515 350.867 458.116 350.867C457.727 350.867 457.385 350.943 457.091 351.095C456.806 351.247 456.574 351.47 456.393 351.764C456.213 352.049 456.075 352.4 455.98 352.817C455.885 353.226 455.833 353.691 455.824 354.213V357.003C455.843 357.62 455.923 358.166 456.066 358.64C456.218 359.115 456.46 359.494 456.792 359.779C457.124 360.054 457.575 360.192 458.144 360.192C458.552 360.192 458.889 360.107 459.155 359.936C459.43 359.765 459.653 359.509 459.824 359.167C459.995 358.825 460.114 358.394 460.18 357.871C460.256 357.349 460.294 356.733 460.294 356.021Z" fill="white"/>
<path d="M470.278 350.782V369.147H466.306V347.82H469.979L470.278 350.782ZM478.279 354.996V356.021C478.279 357.226 478.175 358.294 477.966 359.224C477.757 360.145 477.444 360.928 477.026 361.573C476.618 362.209 476.106 362.693 475.489 363.025C474.872 363.348 474.151 363.509 473.325 363.509C472.556 363.509 471.892 363.329 471.332 362.968C470.781 362.598 470.316 362.09 469.936 361.445C469.557 360.8 469.253 360.045 469.025 359.181C468.798 358.318 468.622 357.392 468.499 356.405V354.811C468.612 353.757 468.779 352.789 468.997 351.906C469.215 351.014 469.514 350.241 469.894 349.586C470.283 348.931 470.753 348.428 471.303 348.077C471.863 347.716 472.528 347.536 473.296 347.536C474.132 347.536 474.858 347.687 475.475 347.991C476.101 348.295 476.618 348.755 477.026 349.372C477.444 349.98 477.757 350.753 477.966 351.693C478.175 352.632 478.279 353.733 478.279 354.996ZM474.293 356.021V354.996C474.293 354.255 474.25 353.624 474.165 353.102C474.089 352.58 473.966 352.153 473.795 351.821C473.624 351.489 473.401 351.247 473.126 351.095C472.85 350.943 472.513 350.867 472.115 350.867C471.726 350.867 471.384 350.943 471.09 351.095C470.805 351.247 470.572 351.47 470.392 351.764C470.212 352.049 470.074 352.4 469.979 352.817C469.884 353.226 469.832 353.691 469.823 354.213V357.003C469.842 357.62 469.922 358.166 470.065 358.64C470.216 359.115 470.458 359.494 470.791 359.779C471.123 360.054 471.574 360.192 472.143 360.192C472.551 360.192 472.888 360.107 473.154 359.936C473.429 359.765 473.652 359.509 473.823 359.167C473.994 358.825 474.113 358.394 474.179 357.871C474.255 357.349 474.293 356.733 474.293 356.021Z" fill="white"/>
<path d="M24.8397 405.014V408.782H14.9829V405.014H24.8397ZM16.3999 386.11V408.782H11.8374V386.11H16.3999ZM23.5161 395.297V398.957H14.9829V395.297H23.5161ZM24.8086 386.11V389.894H14.9829V386.11H24.8086Z" fill="white"/>
<path d="M31.0883 395.531V408.782H26.7127V391.934H30.808L31.0883 395.531ZM30.4343 399.782L29.2664 399.813C29.2456 398.546 29.365 397.41 29.6245 396.403C29.8945 395.396 30.2734 394.539 30.7613 393.833C31.2596 393.117 31.8513 392.572 32.5364 392.198C33.232 391.814 34.0054 391.622 34.8566 391.622C35.5106 391.622 36.1075 391.737 36.6473 391.965C37.1975 392.193 37.6699 392.557 38.0643 393.055C38.4588 393.553 38.7651 394.218 38.9831 395.048C39.2011 395.868 39.3101 396.875 39.3101 398.069V408.782H34.9345V398.038C34.9345 397.311 34.8618 396.751 34.7165 396.356C34.5711 395.951 34.3531 395.671 34.0624 395.515C33.7718 395.349 33.4084 395.266 32.9724 395.266C32.5572 395.266 32.1887 395.385 31.8669 395.624C31.545 395.853 31.2751 396.169 31.0571 396.574C30.8495 396.979 30.6886 397.456 30.5744 398.007C30.4706 398.557 30.4239 399.149 30.4343 399.782Z" fill="white"/>
<path d="M50.1834 405.061V384.864H54.559V408.782L50.6038 408.798L50.1834 405.061ZM41.4477 400.95V399.829C41.4477 398.458 41.5619 397.259 41.7903 396.232C42.0291 395.204 42.382 394.347 42.8492 393.662C43.3163 392.977 43.8873 392.468 44.5621 392.136C45.2472 391.794 46.031 391.622 46.9134 391.622C47.7127 391.622 48.4134 391.825 49.0155 392.23C49.628 392.624 50.1471 393.179 50.5727 393.896C50.9983 394.612 51.3409 395.458 51.6004 396.434C51.8599 397.41 52.0416 398.479 52.1454 399.642V401.261C52.0208 402.362 51.8288 403.389 51.5693 404.344C51.3201 405.299 50.9775 406.13 50.5415 406.836C50.1159 407.542 49.6021 408.097 49 408.502C48.3979 408.896 47.6971 409.094 46.8978 409.094C46.0154 409.094 45.2316 408.917 44.5465 408.564C43.8717 408.211 43.3008 407.692 42.8336 407.007C42.3768 406.312 42.0291 405.46 41.7903 404.453C41.5619 403.436 41.4477 402.268 41.4477 400.95ZM45.8078 399.829V400.95C45.8078 401.739 45.8441 402.419 45.9168 402.99C45.9998 403.55 46.1296 404.012 46.3061 404.375C46.4929 404.728 46.7369 404.993 47.0379 405.17C47.339 405.336 47.7127 405.419 48.1591 405.419C48.7404 405.419 49.2128 405.273 49.5761 404.983C49.9394 404.682 50.2094 404.272 50.3858 403.753C50.5727 403.223 50.6765 402.616 50.6973 401.931V398.988C50.6765 398.417 50.609 397.903 50.4948 397.446C50.3806 396.989 50.2197 396.6 50.0121 396.278C49.8045 395.956 49.545 395.707 49.2335 395.531C48.9325 395.354 48.5795 395.266 48.1747 395.266C47.7387 395.266 47.3649 395.354 47.0535 395.531C46.7525 395.707 46.5137 395.982 46.3372 396.356C46.1607 396.719 46.0258 397.192 45.9324 397.773C45.8493 398.344 45.8078 399.029 45.8078 399.829Z" fill="white"/>
<path d="M71.5875 391.934V395.219H62.992V391.934H71.5875ZM64.9696 387.776H69.314V403.644C69.314 404.111 69.3607 404.469 69.4542 404.718C69.5476 404.967 69.6877 405.144 69.8746 405.247C70.0718 405.341 70.3314 405.388 70.6532 405.388C70.8712 405.388 71.0736 405.377 71.2605 405.356C71.4473 405.325 71.5875 405.294 71.6809 405.263V408.673C71.3383 408.808 70.975 408.912 70.5909 408.985C70.2172 409.057 69.7708 409.094 69.2517 409.094C68.3797 409.094 67.6219 408.928 66.9783 408.595C66.345 408.263 65.8519 407.734 65.499 407.007C65.146 406.27 64.9696 405.305 64.9696 404.111V387.776Z" fill="white"/>
<path d="M72.5728 400.934V399.797C72.5728 398.479 72.7286 397.311 73.04 396.294C73.3618 395.276 73.8186 394.425 74.4103 393.74C75.002 393.045 75.7131 392.52 76.5436 392.167C77.3845 391.804 78.3239 391.622 79.3621 391.622C80.4105 391.622 81.35 391.804 82.1805 392.167C83.0214 392.52 83.7377 393.045 84.3294 393.74C84.9315 394.425 85.3934 395.276 85.7153 396.294C86.0371 397.311 86.198 398.479 86.198 399.797V400.934C86.198 402.242 86.0371 403.405 85.7153 404.422C85.3934 405.44 84.9315 406.296 84.3294 406.991C83.7377 407.687 83.0266 408.211 82.1961 408.564C81.3656 408.917 80.4313 409.094 79.3932 409.094C78.3551 409.094 77.4156 408.917 76.5747 408.564C75.7443 408.211 75.028 407.687 74.4259 406.991C73.8238 406.296 73.3618 405.44 73.04 404.422C72.7286 403.405 72.5728 402.242 72.5728 400.934ZM76.9329 399.797V400.934C76.9329 401.713 76.9848 402.387 77.0886 402.958C77.2028 403.529 77.3637 404.002 77.5713 404.375C77.7893 404.749 78.0488 405.024 78.3499 405.201C78.6509 405.377 78.9987 405.465 79.3932 405.465C79.7877 405.465 80.1406 405.377 80.4521 405.201C80.7635 405.024 81.0178 404.749 81.2151 404.375C81.4227 404.002 81.5732 403.529 81.6666 402.958C81.7705 402.387 81.8224 401.713 81.8224 400.934V399.797C81.8224 399.04 81.7653 398.375 81.6511 397.804C81.5369 397.223 81.376 396.751 81.1684 396.387C80.9607 396.014 80.7012 395.733 80.3898 395.546C80.0887 395.349 79.7462 395.251 79.3621 395.251C78.978 395.251 78.6354 395.349 78.3343 395.546C78.0437 395.733 77.7893 396.014 77.5713 396.387C77.3637 396.751 77.2028 397.223 77.0886 397.804C76.9848 398.375 76.9329 399.04 76.9329 399.797Z" fill="white"/>
<path d="M102.136 409.094C100.984 409.094 99.9616 408.917 99.0688 408.564C98.1864 408.211 97.439 407.703 96.8265 407.038C96.214 406.363 95.7469 405.549 95.4251 404.593C95.1033 403.638 94.9424 402.548 94.9424 401.323V399.938C94.9424 398.567 95.0981 397.368 95.4095 396.341C95.7209 395.302 96.1621 394.43 96.7331 393.724C97.304 393.019 98.0048 392.494 98.8352 392.152C99.6761 391.799 100.626 391.622 101.685 391.622C102.744 391.622 103.673 391.799 104.472 392.152C105.282 392.494 105.951 393.013 106.481 393.709C107.01 394.394 107.41 395.245 107.68 396.263C107.95 397.28 108.085 398.463 108.085 399.813V401.806H96.7954V398.739H103.803V398.349C103.803 397.664 103.73 397.093 103.585 396.636C103.439 396.169 103.211 395.821 102.899 395.593C102.588 395.365 102.173 395.251 101.654 395.251C101.218 395.251 100.849 395.339 100.548 395.515C100.247 395.692 100.008 395.967 99.8318 396.341C99.6554 396.714 99.5256 397.202 99.4425 397.804C99.3595 398.396 99.318 399.107 99.318 399.938V401.323C99.318 402.102 99.3854 402.756 99.5204 403.285C99.6554 403.804 99.8526 404.23 100.112 404.562C100.382 404.884 100.709 405.118 101.093 405.263C101.477 405.398 101.924 405.465 102.432 405.465C103.2 405.465 103.891 405.331 104.503 405.061C105.126 404.78 105.656 404.401 106.092 403.924L107.836 406.571C107.535 406.966 107.119 407.36 106.59 407.754C106.06 408.149 105.427 408.471 104.69 408.72C103.953 408.969 103.102 409.094 102.136 409.094Z" fill="white"/>
<path d="M114.411 395.531V408.782H110.036V391.934H114.131L114.411 395.531ZM113.757 399.782L112.589 399.813C112.569 398.546 112.688 397.41 112.947 396.403C113.217 395.396 113.596 394.539 114.084 393.833C114.582 393.117 115.174 392.572 115.859 392.198C116.555 391.814 117.328 391.622 118.18 391.622C118.834 391.622 119.43 391.737 119.97 391.965C120.52 392.193 120.993 392.557 121.387 393.055C121.782 393.553 122.088 394.218 122.306 395.048C122.524 395.868 122.633 396.875 122.633 398.069V408.782H118.257V398.038C118.257 397.311 118.185 396.751 118.039 396.356C117.894 395.951 117.676 395.671 117.385 395.515C117.095 395.349 116.731 395.266 116.295 395.266C115.88 395.266 115.512 395.385 115.19 395.624C114.868 395.853 114.598 396.169 114.38 396.574C114.172 396.979 114.012 397.456 113.897 398.007C113.794 398.557 113.747 399.149 113.757 399.782Z" fill="white"/>
<path d="M133.506 405.061V384.864H137.882V408.782L133.927 408.798L133.506 405.061ZM124.771 400.95V399.829C124.771 398.458 124.885 397.259 125.113 396.232C125.352 395.204 125.705 394.347 126.172 393.662C126.639 392.977 127.21 392.468 127.885 392.136C128.57 391.794 129.354 391.622 130.236 391.622C131.036 391.622 131.736 391.825 132.338 392.23C132.951 392.624 133.47 393.179 133.896 393.896C134.321 394.612 134.664 395.458 134.923 396.434C135.183 397.41 135.365 398.479 135.468 399.642V401.261C135.344 402.362 135.152 403.389 134.892 404.344C134.643 405.299 134.3 406.13 133.864 406.836C133.439 407.542 132.925 408.097 132.323 408.502C131.721 408.896 131.02 409.094 130.221 409.094C129.338 409.094 128.555 408.917 127.869 408.564C127.195 408.211 126.624 407.692 126.157 407.007C125.7 406.312 125.352 405.46 125.113 404.453C124.885 403.436 124.771 402.268 124.771 400.95ZM129.131 399.829V400.95C129.131 401.739 129.167 402.419 129.24 402.99C129.323 403.55 129.453 404.012 129.629 404.375C129.816 404.728 130.06 404.993 130.361 405.17C130.662 405.336 131.036 405.419 131.482 405.419C132.063 405.419 132.536 405.273 132.899 404.983C133.262 404.682 133.532 404.272 133.709 403.753C133.896 403.223 133.999 402.616 134.02 401.931V398.988C133.999 398.417 133.932 397.903 133.818 397.446C133.704 396.989 133.543 396.6 133.335 396.278C133.127 395.956 132.868 395.707 132.556 395.531C132.255 395.354 131.902 395.266 131.498 395.266C131.062 395.266 130.688 395.354 130.376 395.531C130.075 395.707 129.837 395.982 129.66 396.356C129.484 396.719 129.349 397.192 129.255 397.773C129.172 398.344 129.131 399.029 129.131 399.829Z" fill="white"/>
<path d="M154.988 404.905V397.119C154.988 396.61 154.926 396.206 154.801 395.905C154.687 395.603 154.511 395.385 154.272 395.251C154.044 395.105 153.763 395.033 153.431 395.033C153.057 395.033 152.746 395.11 152.497 395.266C152.248 395.422 152.061 395.645 151.936 395.936C151.822 396.226 151.765 396.574 151.765 396.979H147.389C147.389 396.252 147.529 395.567 147.81 394.924C148.09 394.269 148.5 393.699 149.04 393.211C149.59 392.712 150.244 392.323 151.002 392.043C151.76 391.762 152.611 391.622 153.556 391.622C154.677 391.622 155.673 391.814 156.545 392.198C157.417 392.572 158.108 393.169 158.616 393.989C159.125 394.809 159.379 395.873 159.379 397.181V404.687C159.379 405.632 159.426 406.4 159.52 406.991C159.623 407.583 159.774 408.092 159.971 408.517V408.782H155.58C155.383 408.315 155.232 407.734 155.128 407.038C155.035 406.332 154.988 405.621 154.988 404.905ZM155.518 398.489L155.533 401.105H153.929C153.514 401.105 153.151 401.173 152.839 401.308C152.538 401.443 152.284 401.635 152.076 401.884C151.869 402.123 151.713 402.403 151.609 402.725C151.516 403.047 151.469 403.389 151.469 403.753C151.469 404.157 151.526 404.5 151.64 404.78C151.755 405.061 151.926 405.273 152.154 405.419C152.383 405.564 152.653 405.637 152.964 405.637C153.441 405.637 153.857 405.538 154.21 405.341C154.563 405.144 154.822 404.905 154.988 404.625C155.165 404.344 155.222 404.085 155.16 403.846L156.156 405.543C156.032 405.927 155.86 406.327 155.642 406.742C155.435 407.158 155.17 407.542 154.848 407.895C154.526 408.248 154.127 408.538 153.649 408.767C153.182 408.985 152.627 409.094 151.983 409.094C151.08 409.094 150.254 408.886 149.507 408.471C148.76 408.056 148.168 407.474 147.732 406.727C147.306 405.979 147.093 405.092 147.093 404.064C147.093 403.213 147.228 402.445 147.498 401.759C147.779 401.064 148.194 400.477 148.744 400C149.294 399.512 149.99 399.138 150.831 398.879C151.672 398.619 152.658 398.489 153.789 398.489H155.518Z" fill="white"/>
<path d="M166.484 395.173V415.26H162.14V391.934H166.157L166.484 395.173ZM175.236 399.782V400.903C175.236 402.221 175.121 403.389 174.893 404.407C174.665 405.414 174.322 406.27 173.865 406.976C173.419 407.671 172.858 408.201 172.184 408.564C171.509 408.917 170.72 409.094 169.817 409.094C168.976 409.094 168.249 408.896 167.637 408.502C167.035 408.097 166.526 407.542 166.111 406.836C165.695 406.13 165.363 405.305 165.114 404.36C164.865 403.415 164.673 402.403 164.538 401.323V399.579C164.663 398.427 164.844 397.368 165.083 396.403C165.322 395.427 165.649 394.581 166.064 393.865C166.49 393.148 167.003 392.598 167.606 392.214C168.218 391.82 168.945 391.622 169.786 391.622C170.699 391.622 171.493 391.788 172.168 392.121C172.853 392.453 173.419 392.956 173.865 393.631C174.322 394.295 174.665 395.142 174.893 396.169C175.121 397.197 175.236 398.401 175.236 399.782ZM170.876 400.903V399.782C170.876 398.972 170.829 398.282 170.735 397.711C170.652 397.14 170.517 396.673 170.331 396.309C170.144 395.946 169.9 395.681 169.599 395.515C169.298 395.349 168.929 395.266 168.493 395.266C168.068 395.266 167.694 395.349 167.372 395.515C167.061 395.681 166.806 395.925 166.609 396.247C166.412 396.559 166.261 396.943 166.157 397.399C166.054 397.846 165.997 398.354 165.986 398.925V401.977C166.007 402.652 166.095 403.249 166.251 403.768C166.417 404.287 166.682 404.702 167.045 405.014C167.408 405.315 167.901 405.465 168.524 405.465C168.971 405.465 169.339 405.372 169.63 405.185C169.931 404.998 170.175 404.718 170.362 404.344C170.549 403.971 170.678 403.498 170.751 402.927C170.834 402.356 170.876 401.682 170.876 400.903Z" fill="white"/>
<path d="M181.796 395.173V415.26H177.451V391.934H181.469L181.796 395.173ZM190.547 399.782V400.903C190.547 402.221 190.433 403.389 190.204 404.407C189.976 405.414 189.633 406.27 189.177 406.976C188.73 407.671 188.17 408.201 187.495 408.564C186.82 408.917 186.031 409.094 185.128 409.094C184.287 409.094 183.56 408.896 182.948 408.502C182.346 408.097 181.837 407.542 181.422 406.836C181.007 406.13 180.675 405.305 180.425 404.36C180.176 403.415 179.984 402.403 179.849 401.323V399.579C179.974 398.427 180.155 397.368 180.394 396.403C180.633 395.427 180.96 394.581 181.375 393.865C181.801 393.148 182.315 392.598 182.917 392.214C183.529 391.82 184.256 391.622 185.097 391.622C186.01 391.622 186.805 391.788 187.479 392.121C188.164 392.453 188.73 392.956 189.177 393.631C189.633 394.295 189.976 395.142 190.204 396.169C190.433 397.197 190.547 398.401 190.547 399.782ZM186.187 400.903V399.782C186.187 398.972 186.14 398.282 186.047 397.711C185.964 397.14 185.829 396.673 185.642 396.309C185.455 395.946 185.211 395.681 184.91 395.515C184.609 395.349 184.24 395.266 183.804 395.266C183.379 395.266 183.005 395.349 182.683 395.515C182.372 395.681 182.117 395.925 181.92 396.247C181.723 396.559 181.572 396.943 181.469 397.399C181.365 397.846 181.308 398.354 181.297 398.925V401.977C181.318 402.652 181.406 403.249 181.562 403.768C181.728 404.287 181.993 404.702 182.356 405.014C182.72 405.315 183.213 405.465 183.836 405.465C184.282 405.465 184.65 405.372 184.941 405.185C185.242 404.998 185.486 404.718 185.673 404.344C185.86 403.971 185.99 403.498 186.062 402.927C186.145 402.356 186.187 401.682 186.187 400.903Z" fill="white"/>
<path d="M19.7789 442.418V422.222H24.1546V446.14L20.1994 446.155L19.7789 442.418ZM11.0433 438.307V437.186C11.0433 435.816 11.1575 434.617 11.3859 433.589C11.6246 432.561 11.9776 431.705 12.4447 431.02C12.9119 430.335 13.4828 429.826 14.1576 429.494C14.8428 429.151 15.6265 428.98 16.5089 428.98C17.3083 428.98 18.009 429.182 18.6111 429.587C19.2236 429.982 19.7426 430.537 20.1682 431.253C20.5939 431.97 20.9364 432.816 21.196 433.792C21.4555 434.767 21.6372 435.837 21.741 436.999V438.619C21.6164 439.719 21.4243 440.747 21.1648 441.702C20.9157 442.657 20.5731 443.487 20.1371 444.193C19.7115 444.899 19.1976 445.455 18.5955 445.859C17.9934 446.254 17.2927 446.451 16.4933 446.451C15.611 446.451 14.8272 446.275 14.142 445.922C13.4673 445.569 12.8963 445.05 12.4292 444.365C11.9724 443.669 11.6246 442.818 11.3859 441.811C11.1575 440.794 11.0433 439.626 11.0433 438.307ZM15.4033 437.186V438.307C15.4033 439.096 15.4397 439.776 15.5123 440.347C15.5954 440.908 15.7251 441.37 15.9016 441.733C16.0885 442.086 16.3324 442.351 16.6335 442.527C16.9345 442.693 17.3083 442.776 17.7546 442.776C18.336 442.776 18.8083 442.631 19.1717 442.34C19.535 442.039 19.8049 441.629 19.9814 441.11C20.1682 440.581 20.272 439.973 20.2928 439.288V436.345C20.272 435.774 20.2046 435.26 20.0904 434.804C19.9762 434.347 19.8153 433.958 19.6077 433.636C19.4 433.314 19.1405 433.065 18.8291 432.888C18.528 432.712 18.1751 432.624 17.7702 432.624C17.3342 432.624 16.9605 432.712 16.6491 432.888C16.348 433.065 16.1092 433.34 15.9328 433.714C15.7563 434.077 15.6213 434.549 15.5279 435.131C15.4449 435.702 15.4033 436.387 15.4033 437.186Z" fill="white"/>
<path d="M33.751 446.451C32.5987 446.451 31.5762 446.275 30.6834 445.922C29.801 445.569 29.0536 445.06 28.4411 444.396C27.8286 443.721 27.3615 442.906 27.0397 441.951C26.7179 440.996 26.5569 439.906 26.5569 438.681V437.295C26.5569 435.925 26.7127 434.726 27.0241 433.698C27.3355 432.66 27.7767 431.788 28.3477 431.082C28.9186 430.376 29.6194 429.852 30.4498 429.509C31.2907 429.156 32.2406 428.98 33.2994 428.98C34.3583 428.98 35.2874 429.156 36.0868 429.509C36.8965 429.852 37.5661 430.371 38.0955 431.066C38.6249 431.752 39.0246 432.603 39.2945 433.62C39.5644 434.638 39.6994 435.821 39.6994 437.171V439.164H28.41V436.096H35.4172V435.707C35.4172 435.022 35.3445 434.451 35.1992 433.994C35.0538 433.527 34.8255 433.179 34.514 432.951C34.2026 432.722 33.7874 432.608 33.2683 432.608C32.8323 432.608 32.4638 432.696 32.1627 432.873C31.8617 433.049 31.6229 433.324 31.4464 433.698C31.2699 434.072 31.1402 434.56 31.0571 435.162C30.9741 435.754 30.9326 436.465 30.9326 437.295V438.681C30.9326 439.46 31 440.114 31.135 440.643C31.2699 441.162 31.4672 441.588 31.7267 441.92C31.9966 442.242 32.3236 442.475 32.7077 442.621C33.0918 442.756 33.5382 442.823 34.0469 442.823C34.8151 442.823 35.5054 442.688 36.1179 442.418C36.7408 442.138 37.2702 441.759 37.7062 441.281L39.4502 443.929C39.1492 444.323 38.7339 444.718 38.2045 445.112C37.6751 445.507 37.0418 445.828 36.3048 446.077C35.5677 446.327 34.7165 446.451 33.751 446.451Z" fill="white"/>
<path d="M46.4929 442.776L49.2024 429.291H53.7493L49.1245 446.14H46.3995L46.4929 442.776ZM44.8891 429.291L47.6452 442.792L47.6919 446.14H44.9513L40.3266 429.291H44.8891Z" fill="white"/>
<path d="M61.9443 446.451C60.792 446.451 59.7695 446.275 58.8767 445.922C57.9943 445.569 57.2469 445.06 56.6344 444.396C56.0219 443.721 55.5548 442.906 55.2329 441.951C54.9111 440.996 54.7502 439.906 54.7502 438.681V437.295C54.7502 435.925 54.9059 434.726 55.2174 433.698C55.5288 432.66 55.97 431.788 56.541 431.082C57.1119 430.376 57.8126 429.852 58.6431 429.509C59.484 429.156 60.4339 428.98 61.4927 428.98C62.5516 428.98 63.4807 429.156 64.28 429.509C65.0898 429.852 65.7593 430.371 66.2888 431.066C66.8182 431.752 67.2179 432.603 67.4878 433.62C67.7577 434.638 67.8926 435.821 67.8926 437.171V439.164H56.6032V436.096H63.6105V435.707C63.6105 435.022 63.5378 434.451 63.3925 433.994C63.2471 433.527 63.0187 433.179 62.7073 432.951C62.3959 432.722 61.9806 432.608 61.4616 432.608C61.0256 432.608 60.6571 432.696 60.356 432.873C60.0549 433.049 59.8162 433.324 59.6397 433.698C59.4632 434.072 59.3335 434.56 59.2504 435.162C59.1674 435.754 59.1258 436.465 59.1258 437.295V438.681C59.1258 439.46 59.1933 440.114 59.3283 440.643C59.4632 441.162 59.6605 441.588 59.92 441.92C60.1899 442.242 60.5169 442.475 60.901 442.621C61.2851 442.756 61.7315 442.823 62.2402 442.823C63.0084 442.823 63.6987 442.688 64.3112 442.418C64.934 442.138 65.4635 441.759 65.8995 441.281L67.6435 443.929C67.3425 444.323 66.9272 444.718 66.3978 445.112C65.8683 445.507 65.2351 445.828 64.498 446.077C63.761 446.327 62.9097 446.451 61.9443 446.451Z" fill="white"/>
<path d="M74.5149 422.222V446.14H70.1393V422.222H74.5149Z" fill="white"/>
<path d="M76.9952 438.292V437.155C76.9952 435.837 77.1509 434.669 77.4623 433.651C77.7841 432.634 78.2409 431.783 78.8326 431.098C79.4243 430.402 80.1354 429.878 80.9659 429.525C81.8068 429.162 82.7463 428.98 83.7844 428.98C84.8329 428.98 85.7724 429.162 86.6028 429.525C87.4437 429.878 88.16 430.402 88.7517 431.098C89.3538 431.783 89.8158 432.634 90.1376 433.651C90.4594 434.669 90.6203 435.837 90.6203 437.155V438.292C90.6203 439.6 90.4594 440.762 90.1376 441.78C89.8158 442.797 89.3538 443.654 88.7517 444.349C88.16 445.045 87.4489 445.569 86.6184 445.922C85.7879 446.275 84.8536 446.451 83.8155 446.451C82.7774 446.451 81.8379 446.275 80.9971 445.922C80.1666 445.569 79.4503 445.045 78.8482 444.349C78.2461 443.654 77.7841 442.797 77.4623 441.78C77.1509 440.762 76.9952 439.6 76.9952 438.292ZM81.3552 437.155V438.292C81.3552 439.07 81.4071 439.745 81.5109 440.316C81.6251 440.887 81.786 441.359 81.9936 441.733C82.2117 442.107 82.4712 442.382 82.7722 442.558C83.0733 442.735 83.421 442.823 83.8155 442.823C84.21 442.823 84.563 442.735 84.8744 442.558C85.1858 442.382 85.4402 442.107 85.6374 441.733C85.845 441.359 85.9955 440.887 86.089 440.316C86.1928 439.745 86.2447 439.07 86.2447 438.292V437.155C86.2447 436.397 86.1876 435.733 86.0734 435.162C85.9592 434.58 85.7983 434.108 85.5907 433.745C85.3831 433.371 85.1235 433.091 84.8121 432.904C84.5111 432.707 84.1685 432.608 83.7844 432.608C83.4003 432.608 83.0577 432.707 82.7567 432.904C82.466 433.091 82.2117 433.371 81.9936 433.745C81.786 434.108 81.6251 434.58 81.5109 435.162C81.4071 435.733 81.3552 436.397 81.3552 437.155Z" fill="white"/>
<path d="M97.2582 432.53V452.618H92.9137V429.291H96.9312L97.2582 432.53ZM106.009 437.139V438.261C106.009 439.579 105.895 440.747 105.667 441.764C105.438 442.771 105.096 443.628 104.639 444.333C104.193 445.029 103.632 445.558 102.957 445.922C102.283 446.275 101.494 446.451 100.59 446.451C99.7496 446.451 99.0229 446.254 98.4105 445.859C97.8084 445.455 97.2997 444.899 96.8844 444.193C96.4692 443.487 96.137 442.662 95.8879 441.717C95.6387 440.773 95.4467 439.761 95.3117 438.681V436.937C95.4363 435.785 95.618 434.726 95.8567 433.76C96.0955 432.785 96.4225 431.938 96.8377 431.222C97.2634 430.506 97.7772 429.956 98.3793 429.572C98.9918 429.177 99.7185 428.98 100.559 428.98C101.473 428.98 102.267 429.146 102.942 429.478C103.627 429.81 104.193 430.314 104.639 430.989C105.096 431.653 105.438 432.499 105.667 433.527C105.895 434.555 106.009 435.759 106.009 437.139ZM101.649 438.261V437.139C101.649 436.33 101.603 435.639 101.509 435.068C101.426 434.497 101.291 434.03 101.104 433.667C100.917 433.304 100.674 433.039 100.372 432.873C100.071 432.707 99.7029 432.624 99.2669 432.624C98.8413 432.624 98.4676 432.707 98.1457 432.873C97.8343 433.039 97.58 433.283 97.3827 433.605C97.1855 433.916 97.035 434.3 96.9312 434.757C96.8273 435.203 96.7702 435.712 96.7599 436.283V439.335C96.7806 440.01 96.8689 440.607 97.0246 441.126C97.1907 441.645 97.4554 442.06 97.8187 442.371C98.1821 442.673 98.6752 442.823 99.298 442.823C99.7444 442.823 100.113 442.73 100.404 442.543C100.705 442.356 100.949 442.076 101.135 441.702C101.322 441.328 101.452 440.856 101.525 440.285C101.608 439.714 101.649 439.039 101.649 438.261Z" fill="white"/>
<path d="M112.601 432.779V446.14H108.225V429.291H112.336L112.601 432.779ZM111.978 437.139L110.779 437.171C110.758 435.987 110.862 434.897 111.09 433.901C111.318 432.904 111.661 432.037 112.118 431.3C112.585 430.563 113.171 429.992 113.877 429.587C114.583 429.182 115.409 428.98 116.353 428.98C116.966 428.98 117.532 429.094 118.051 429.322C118.57 429.54 119.021 429.888 119.405 430.366C119.789 430.833 120.085 431.445 120.293 432.203C120.501 432.951 120.604 433.849 120.604 434.897V446.14H116.244V435.427C116.244 434.679 116.172 434.108 116.026 433.714C115.881 433.309 115.673 433.029 115.403 432.873C115.134 432.707 114.801 432.624 114.407 432.624C113.992 432.624 113.628 432.738 113.317 432.966C113.005 433.195 112.751 433.516 112.554 433.932C112.367 434.337 112.222 434.814 112.118 435.364C112.024 435.914 111.978 436.506 111.978 437.139ZM120.184 436.703L118.611 436.906C118.59 435.795 118.689 434.762 118.907 433.807C119.125 432.842 119.462 432.001 119.919 431.284C120.376 430.558 120.947 429.992 121.632 429.587C122.328 429.182 123.132 428.98 124.046 428.98C124.731 428.98 125.354 429.094 125.914 429.322C126.475 429.551 126.952 429.919 127.347 430.428C127.752 430.926 128.058 431.586 128.266 432.406C128.484 433.226 128.593 434.222 128.593 435.395V446.14H124.217V435.411C124.217 434.653 124.144 434.072 123.999 433.667C123.854 433.262 123.646 432.987 123.376 432.842C123.106 432.696 122.784 432.624 122.411 432.624C122.037 432.624 121.71 432.727 121.43 432.935C121.16 433.143 120.931 433.433 120.744 433.807C120.558 434.17 120.417 434.601 120.324 435.1C120.231 435.587 120.184 436.122 120.184 436.703Z" fill="white"/>
<path d="M138.189 446.451C137.037 446.451 136.014 446.275 135.121 445.922C134.239 445.569 133.492 445.06 132.879 444.396C132.267 443.721 131.799 442.906 131.478 441.951C131.156 440.996 130.995 439.906 130.995 438.681V437.295C130.995 435.925 131.151 434.726 131.462 433.698C131.774 432.66 132.215 431.788 132.786 431.082C133.357 430.376 134.057 429.852 134.888 429.509C135.729 429.156 136.679 428.98 137.737 428.98C138.796 428.98 139.725 429.156 140.525 429.509C141.334 429.852 142.004 430.371 142.533 431.066C143.063 431.752 143.463 432.603 143.732 433.62C144.002 434.638 144.137 435.821 144.137 437.171V439.164H132.848V436.096H139.855V435.707C139.855 435.022 139.782 434.451 139.637 433.994C139.492 433.527 139.263 433.179 138.952 432.951C138.641 432.722 138.225 432.608 137.706 432.608C137.27 432.608 136.902 432.696 136.601 432.873C136.3 433.049 136.061 433.324 135.884 433.698C135.708 434.072 135.578 434.56 135.495 435.162C135.412 435.754 135.371 436.465 135.371 437.295V438.681C135.371 439.46 135.438 440.114 135.573 440.643C135.708 441.162 135.905 441.588 136.165 441.92C136.435 442.242 136.762 442.475 137.146 442.621C137.53 442.756 137.976 442.823 138.485 442.823C139.253 442.823 139.943 442.688 140.556 442.418C141.179 442.138 141.708 441.759 142.144 441.281L143.888 443.929C143.587 444.323 143.172 444.718 142.642 445.112C142.113 445.507 141.48 445.828 140.743 446.077C140.006 446.327 139.154 446.451 138.189 446.451Z" fill="white"/>
<path d="M150.464 432.888V446.14H146.088V429.291H150.183L150.464 432.888ZM149.81 437.139L148.642 437.171C148.621 435.904 148.741 434.767 149 433.76C149.27 432.753 149.649 431.897 150.137 431.191C150.635 430.475 151.227 429.93 151.912 429.556C152.607 429.172 153.381 428.98 154.232 428.98C154.886 428.98 155.483 429.094 156.023 429.322C156.573 429.551 157.045 429.914 157.44 430.412C157.834 430.911 158.141 431.575 158.359 432.406C158.577 433.226 158.686 434.233 158.686 435.427V446.14H154.31V435.395C154.31 434.669 154.237 434.108 154.092 433.714C153.947 433.309 153.729 433.029 153.438 432.873C153.147 432.707 152.784 432.624 152.348 432.624C151.933 432.624 151.564 432.743 151.242 432.982C150.921 433.21 150.651 433.527 150.433 433.932C150.225 434.337 150.064 434.814 149.95 435.364C149.846 435.914 149.799 436.506 149.81 437.139Z" fill="white"/>
<path d="M168.749 429.291V432.577H160.154V429.291H168.749ZM162.131 425.134H166.476V441.001C166.476 441.468 166.522 441.826 166.616 442.076C166.709 442.325 166.849 442.501 167.036 442.605C167.234 442.698 167.493 442.745 167.815 442.745C168.033 442.745 168.235 442.735 168.422 442.714C168.609 442.683 168.749 442.652 168.843 442.621V446.031C168.5 446.166 168.137 446.27 167.753 446.342C167.379 446.415 166.932 446.451 166.413 446.451C165.541 446.451 164.784 446.285 164.14 445.953C163.507 445.621 163.014 445.091 162.661 444.365C162.308 443.628 162.131 442.662 162.131 441.468V425.134Z" fill="white"/>
<path d="M185.248 439.148V423.468H189.795V439.164C189.795 440.669 189.504 441.972 188.923 443.072C188.352 444.162 187.574 444.998 186.587 445.579C185.601 446.161 184.49 446.451 183.255 446.451C181.989 446.451 180.857 446.202 179.86 445.704C178.874 445.195 178.096 444.427 177.525 443.399C176.954 442.361 176.668 441.043 176.668 439.444H181.246C181.246 440.254 181.329 440.892 181.495 441.359C181.662 441.826 181.895 442.164 182.196 442.371C182.508 442.579 182.861 442.683 183.255 442.683C183.681 442.683 184.039 442.543 184.329 442.262C184.631 441.982 184.859 441.582 185.015 441.063C185.17 440.534 185.248 439.896 185.248 439.148Z" fill="white"/>
<path d="M192.229 438.292V437.155C192.229 435.837 192.384 434.669 192.696 433.651C193.018 432.634 193.474 431.783 194.066 431.098C194.658 430.402 195.369 429.878 196.199 429.525C197.04 429.162 197.98 428.98 199.018 428.98C200.066 428.98 201.006 429.162 201.836 429.525C202.677 429.878 203.393 430.402 203.985 431.098C204.587 431.783 205.049 432.634 205.371 433.651C205.693 434.669 205.854 435.837 205.854 437.155V438.292C205.854 439.6 205.693 440.762 205.371 441.78C205.049 442.797 204.587 443.654 203.985 444.349C203.393 445.045 202.682 445.569 201.852 445.922C201.021 446.275 200.087 446.451 199.049 446.451C198.011 446.451 197.071 446.275 196.231 445.922C195.4 445.569 194.684 445.045 194.082 444.349C193.48 443.654 193.018 442.797 192.696 441.78C192.384 440.762 192.229 439.6 192.229 438.292ZM196.589 437.155V438.292C196.589 439.07 196.641 439.745 196.744 440.316C196.859 440.887 197.019 441.359 197.227 441.733C197.445 442.107 197.705 442.382 198.006 442.558C198.307 442.735 198.654 442.823 199.049 442.823C199.443 442.823 199.796 442.735 200.108 442.558C200.419 442.382 200.674 442.107 200.871 441.733C201.078 441.359 201.229 440.887 201.322 440.316C201.426 439.745 201.478 439.07 201.478 438.292V437.155C201.478 436.397 201.421 435.733 201.307 435.162C201.193 434.58 201.032 434.108 200.824 433.745C200.617 433.371 200.357 433.091 200.046 432.904C199.745 432.707 199.402 432.608 199.018 432.608C198.634 432.608 198.291 432.707 197.99 432.904C197.699 433.091 197.445 433.371 197.227 433.745C197.019 434.108 196.859 434.58 196.744 435.162C196.641 435.733 196.589 436.397 196.589 437.155Z" fill="white"/>
<path d="M216.276 442.091V429.291H220.651V446.14H216.54L216.276 442.091ZM216.774 438.619L217.988 438.588C217.988 439.719 217.879 440.768 217.661 441.733C217.443 442.688 217.116 443.519 216.68 444.224C216.244 444.93 215.699 445.481 215.045 445.875C214.391 446.259 213.618 446.451 212.725 446.451C212.04 446.451 211.407 446.337 210.825 446.109C210.254 445.87 209.761 445.501 209.346 445.003C208.931 444.494 208.604 443.846 208.365 443.057C208.137 442.257 208.023 441.297 208.023 440.176V429.291H212.398V440.223C212.398 440.679 212.44 441.074 212.523 441.406C212.606 441.728 212.72 441.993 212.865 442.2C213.011 442.408 213.182 442.558 213.379 442.652C213.576 442.735 213.8 442.776 214.049 442.776C214.734 442.776 215.274 442.6 215.668 442.247C216.073 441.884 216.359 441.39 216.525 440.768C216.691 440.134 216.774 439.418 216.774 438.619Z" fill="white"/>
<path d="M227.709 433.044V446.14H223.349V429.291H227.46L227.709 433.044ZM231.68 429.167L231.618 433.511C231.421 433.47 231.182 433.439 230.902 433.418C230.632 433.397 230.393 433.387 230.185 433.387C229.697 433.387 229.282 433.465 228.94 433.62C228.597 433.766 228.312 433.989 228.083 434.29C227.865 434.58 227.699 434.944 227.585 435.38C227.471 435.816 227.403 436.309 227.382 436.859L226.557 436.548C226.557 435.447 226.64 434.44 226.806 433.527C226.983 432.603 227.242 431.804 227.585 431.129C227.927 430.444 228.337 429.914 228.815 429.54C229.303 429.167 229.853 428.98 230.466 428.98C230.673 428.98 230.891 429.001 231.12 429.042C231.358 429.073 231.545 429.115 231.68 429.167Z" fill="white"/>
<path d="M237.711 432.888V446.14H233.335V429.291H237.43L237.711 432.888ZM237.057 437.139L235.889 437.171C235.868 435.904 235.987 434.767 236.247 433.76C236.517 432.753 236.896 431.897 237.384 431.191C237.882 430.475 238.474 429.93 239.159 429.556C239.854 429.172 240.628 428.98 241.479 428.98C242.133 428.98 242.73 429.094 243.27 429.322C243.82 429.551 244.292 429.914 244.687 430.412C245.081 430.911 245.388 431.575 245.606 432.406C245.824 433.226 245.933 434.233 245.933 435.427V446.14H241.557V435.395C241.557 434.669 241.484 434.108 241.339 433.714C241.194 433.309 240.976 433.029 240.685 432.873C240.394 432.707 240.031 432.624 239.595 432.624C239.18 432.624 238.811 432.743 238.489 432.982C238.167 433.21 237.898 433.527 237.68 433.932C237.472 434.337 237.311 434.814 237.197 435.364C237.093 435.914 237.046 436.506 237.057 437.139Z" fill="white"/>
<path d="M255.436 446.451C254.283 446.451 253.261 446.275 252.368 445.922C251.486 445.569 250.738 445.06 250.126 444.396C249.513 443.721 249.046 442.906 248.724 441.951C248.402 440.996 248.241 439.906 248.241 438.681V437.295C248.241 435.925 248.397 434.726 248.709 433.698C249.02 432.66 249.461 431.788 250.032 431.082C250.603 430.376 251.304 429.852 252.134 429.509C252.975 429.156 253.925 428.98 254.984 428.98C256.043 428.98 256.972 429.156 257.771 429.509C258.581 429.852 259.251 430.371 259.78 431.066C260.309 431.752 260.709 432.603 260.979 433.62C261.249 434.638 261.384 435.821 261.384 437.171V439.164H250.095V436.096H257.102V435.707C257.102 435.022 257.029 434.451 256.884 433.994C256.738 433.527 256.51 433.179 256.199 432.951C255.887 432.722 255.472 432.608 254.953 432.608C254.517 432.608 254.148 432.696 253.847 432.873C253.546 433.049 253.307 433.324 253.131 433.698C252.954 434.072 252.825 434.56 252.742 435.162C252.659 435.754 252.617 436.465 252.617 437.295V438.681C252.617 439.46 252.685 440.114 252.82 440.643C252.954 441.162 253.152 441.588 253.411 441.92C253.681 442.242 254.008 442.475 254.392 442.621C254.776 442.756 255.223 442.823 255.731 442.823C256.5 442.823 257.19 442.688 257.802 442.418C258.425 442.138 258.955 441.759 259.391 441.281L261.135 443.929C260.834 444.323 260.418 444.718 259.889 445.112C259.36 445.507 258.726 445.828 257.989 446.077C257.252 446.327 256.401 446.451 255.436 446.451Z" fill="white"/>
<path d="M267.446 444.209L270.965 429.291H275.512L269.968 448.662C269.844 449.088 269.672 449.545 269.454 450.033C269.236 450.531 268.946 450.998 268.582 451.434C268.229 451.88 267.783 452.244 267.243 452.524C266.703 452.804 266.055 452.945 265.297 452.945C264.913 452.945 264.601 452.919 264.362 452.867C264.134 452.825 263.843 452.753 263.49 452.649V449.254C263.584 449.254 263.672 449.254 263.755 449.254C263.849 449.264 263.937 449.27 264.02 449.27C264.508 449.27 264.897 449.202 265.188 449.067C265.478 448.943 265.712 448.745 265.888 448.476C266.075 448.206 266.231 447.868 266.356 447.463L267.446 444.209ZM266.542 429.291L269.158 441.375L269.75 446.295L266.807 446.576L261.871 429.291H266.542Z" fill="white"/>
<path fill-rule="evenodd" clip-rule="evenodd" d="M112.724 217.038C112.374 216.61 112.437 215.98 112.864 215.63L121.57 208.501C121.997 208.151 122.627 208.213 122.977 208.641L268.15 385.906C268.5 386.333 269.13 386.396 269.557 386.046L271.203 384.698C271.826 384.188 272.765 384.586 272.833 385.388L274.319 402.981C274.378 403.673 273.731 404.212 273.061 404.03L255.808 399.349C255.023 399.136 254.807 398.125 255.436 397.61L257.757 395.71C258.184 395.36 258.247 394.73 257.897 394.303L112.724 217.038Z" fill="#FDD34F"/>
</g>
<defs>
<filter id="filter0_d_12756_1324" x="-10" y="55.2979" width="206.706" height="163.918" filterUnits="userSpaceOnUse" color-interpolation-filters="sRGB">
<feFlood flood-opacity="0" result="BackgroundImageFix"/>
<feColorMatrix in="SourceAlpha" type="matrix" values="0 0 0 0 0 0 0 0 0 0 0 0 0 0 0 0 0 0 127 0" result="hardAlpha"/>
<feOffset/>
<feGaussianBlur stdDeviation="10"/>
<feComposite in2="hardAlpha" operator="out"/>
<feColorMatrix type="matrix" values="0 0 0 0 0 0 0 0 0 1 0 0 0 0 0.88 0 0 0 0.5 0"/>
<feBlend mode="normal" in2="BackgroundImageFix" result="effect1_dropShadow_12756_1324"/>
<feBlend mode="normal" in="SourceGraphic" in2="effect1_dropShadow_12756_1324" result="shape"/>
</filter>
<linearGradient id="paint0_linear_12756_1324" x1="176.706" y1="75.2979" x2="10.5619" y2="199.964" gradientUnits="userSpaceOnUse">
<stop stop-color="#22007E"/>
<stop offset="1" stop-color="#0F0725"/>
</linearGradient>
<clipPath id="clip0_12756_1324">
<rect width="500" height="600" fill="white"/>
</clipPath>
<clipPath id="clip1_12756_1324">
<rect width="105.695" height="105.695" fill="white" transform="translate(163.986 149.102)"/>
</clipPath>
</defs>
</svg>
