<svg width="500" height="400" viewBox="0 0 500 400" fill="none" xmlns="http://www.w3.org/2000/svg">
<path fill-rule="evenodd" clip-rule="evenodd" d="M265.397 236.402H220.795C219.227 236.402 217.945 235.119 217.945 233.552V162.302H116.912C115.345 162.302 114.062 161.019 114.062 159.452V135.084C114.062 133.517 115.345 132.234 116.912 132.234H265.397C266.965 132.234 268.247 133.517 268.247 135.084V233.552C268.247 235.119 266.965 236.402 265.397 236.402Z" fill="#AAECFF"/>
<path fill-rule="evenodd" clip-rule="evenodd" d="M220.795 260.77H176.335C174.625 260.77 173.485 259.487 173.485 257.92V186.67H72.4525C70.885 186.67 69.6025 185.387 69.6025 183.82V159.452C69.6025 157.885 70.885 156.602 72.4525 156.602H220.795C222.363 156.602 223.645 157.885 223.645 159.452V257.92C223.645 259.487 222.363 260.77 220.795 260.77Z" fill="#CFF3FF"/>
<path fill-rule="evenodd" clip-rule="evenodd" d="M176.335 285.137H27.85C26.2825 285.137 25 283.855 25 282.287V183.82C25 182.252 26.2825 180.97 27.85 180.97H176.335C177.903 180.97 179.185 182.252 179.185 183.82V282.287C179.185 283.855 177.903 285.137 176.335 285.137Z" fill="#26BCCE"/>
<path fill-rule="evenodd" clip-rule="evenodd" d="M175.338 281.289V184.674H28.8475V281.289H175.338Z" fill="#4ECBFB"/>
<path fill-rule="evenodd" clip-rule="evenodd" d="M97.2476 281.289H171.633L149.973 257.349L113.92 253.359L97.2476 281.289Z" fill="#37A26F"/>
<path fill-rule="evenodd" clip-rule="evenodd" d="M126.603 231.699L113.92 253.359L149.973 257.349L126.603 231.699Z" fill="#E6E6E6"/>
<path fill-rule="evenodd" clip-rule="evenodd" d="M57.3476 230.986C47.2301 230.986 38.8226 222.721 38.8226 212.461C38.8226 202.201 47.2301 193.794 57.3476 193.794C67.6076 193.794 76.0151 202.201 76.0151 212.461C76.0151 222.721 67.6076 230.986 57.3476 230.986Z" fill="#FFF432"/>
<path fill-rule="evenodd" clip-rule="evenodd" d="M28.8475 279.579V281.289H122.185L93.2576 215.169L28.8475 279.579Z" fill="#3DB47B"/>
<path fill-rule="evenodd" clip-rule="evenodd" d="M223.645 246.234H179.185V260.769H220.795C222.363 260.769 223.645 259.487 223.645 257.919V246.234ZM268.248 220.869H223.645V236.402H265.398C266.965 236.402 268.248 235.119 268.248 233.552V220.869Z" fill="#4ECBFB"/>
<path d="M208.919 211.855C227.976 181.902 228.478 174.333 228.478 174.333C236.274 108.18 290.255 103.529 305.482 103.529H310.862C321.895 103.529 389.234 106.356 389.599 175.336V175.838C389.599 234.013 367.168 239.666 358.961 257.903C352.744 272.965 350.788 289.447 353.308 305.546C353.577 307.26 353.325 309.015 352.585 310.583C351.846 312.152 350.652 313.463 349.159 314.346C331.15 324.741 290.938 324.695 273.158 314.346C271.722 313.433 270.547 312.163 269.748 310.661C268.949 309.159 268.553 307.475 268.598 305.774V280.061C268.598 276.231 263.583 275.821 261.623 275.821H258.067C250.681 275.821 230.712 274.954 229.07 265.562C226.836 254.073 229.344 231.141 229.344 231.141C223.488 228.814 217.792 226.103 212.293 223.025C211.259 222.601 210.333 221.951 209.582 221.124C208.831 220.296 208.274 219.312 207.95 218.242C207.627 217.173 207.547 216.044 207.714 214.94C207.882 213.835 208.293 212.781 208.919 211.855Z" fill="#FFBD66"/>
<path d="M269.282 226.217C285.969 200.138 286.288 193.573 286.288 193.573C293.036 135.991 339.995 131.979 353.126 131.979H357.685C367.305 131.979 426.072 134.486 426.072 194.485V194.895C426.072 245.548 406.559 250.517 399.447 266.292C394.009 279.386 392.289 293.726 394.477 307.735C394.751 309.204 394.58 310.722 393.988 312.095C393.395 313.467 392.407 314.632 391.149 315.44C375.42 324.558 340.497 324.558 324.995 315.44C323.723 314.663 322.672 313.571 321.945 312.269C321.219 310.967 320.84 309.499 320.847 308.008V285.668C320.847 282.34 316.515 282.021 314.783 282.021H311.728C305.3 282.021 288.021 281.246 286.47 273.131C285.491 263.15 285.583 253.093 286.744 243.131C281.638 241.127 276.672 238.781 271.881 236.11C270.985 235.709 270.191 235.113 269.556 234.364C268.921 233.616 268.462 232.735 268.213 231.786C267.964 230.836 267.93 229.844 268.115 228.88C268.3 227.916 268.699 227.006 269.282 226.217Z" fill="#FDDC85"/>
<path d="M472.569 127.125H462.584C461.241 127.125 460.153 128.213 460.153 129.556C460.153 130.9 461.241 131.988 462.584 131.988H472.569C473.913 131.988 475 130.9 475 129.556C475 128.213 473.913 127.125 472.569 127.125ZM450.827 103.605C451.449 103.605 452.071 103.367 452.546 102.892L459.607 95.831C460.557 94.8813 460.557 93.3427 459.607 92.393C458.657 91.4432 457.119 91.4432 456.169 92.393L449.108 99.4543C448.158 100.404 448.158 101.943 449.108 102.892C449.582 103.367 450.205 103.605 450.827 103.605ZM422.444 91.8492C423.787 91.8492 424.875 90.7618 424.875 89.4179V79.4313C424.875 78.0875 423.787 77 422.444 77C421.1 77 420.012 78.0875 420.012 79.4313V89.4179C420.012 90.7618 421.1 91.8492 422.444 91.8492ZM392.341 102.892C392.816 103.367 393.438 103.605 394.06 103.605C394.683 103.605 395.305 103.367 395.78 102.892C396.729 101.943 396.729 100.404 395.78 99.4543L388.718 92.393C387.768 91.4432 386.23 91.4432 385.28 92.393C384.33 93.3427 384.33 94.8813 385.28 95.831L392.341 102.892ZM382.303 127.125H372.318C370.975 127.125 369.887 128.213 369.887 129.556C369.887 130.9 370.975 131.988 372.318 131.988H382.303C383.647 131.988 384.734 130.9 384.734 129.556C384.734 128.213 383.647 127.125 382.303 127.125ZM392.341 156.22L385.28 163.282C384.33 164.232 384.33 165.77 385.28 166.72C385.755 167.195 386.377 167.432 386.999 167.432C387.621 167.432 388.243 167.195 388.718 166.72L395.78 159.659C396.729 158.709 396.729 157.17 395.78 156.22C394.83 155.271 393.291 155.271 392.341 156.22ZM452.546 156.22C451.596 155.271 450.057 155.271 449.108 156.22C448.158 157.17 448.158 158.709 449.108 159.659L456.169 166.72C456.644 167.195 457.266 167.432 457.888 167.432C458.51 167.432 459.132 167.195 459.607 166.72C460.557 165.77 460.557 164.232 459.607 163.282L452.546 156.22ZM433.784 182.849H433.36V181.718H411.332V182.849H411.104C409.76 182.849 408.672 183.936 408.672 185.28C408.672 186.624 409.76 187.712 411.104 187.712H411.332V188.599C411.332 191.419 413.618 193.704 416.438 193.704H428.255C431.075 193.704 433.36 191.419 433.36 188.599V187.712H433.784C435.127 187.712 436.215 186.624 436.215 185.28C436.215 183.936 435.127 182.849 433.784 182.849Z" fill="#FCB102"/>
<path d="M444.764 106.372C438.394 100.245 429.957 97.0844 421.131 97.4005C403.82 98.1055 389.694 113.326 390.278 130.661C390.569 139.025 394.022 146.854 400.027 152.689C403.504 156.044 406.373 160.251 408.318 164.87C409.947 168.687 410.968 172.796 411.236 176.857H433.458C434.066 167.788 438.126 159.035 444.521 153.005C451.037 146.878 454.635 138.539 454.635 129.543C454.635 120.717 451.134 112.475 444.764 106.372ZM437.835 128.424L422.493 143.766C422.031 144.228 421.399 144.471 420.767 144.471C420.159 144.471 419.527 144.228 419.065 143.766L411.916 136.618C410.968 135.67 410.968 134.114 411.916 133.165C412.865 132.217 414.396 132.217 415.345 133.165L420.767 138.612L434.406 124.972C435.355 124.024 436.886 124.024 437.835 124.972C438.783 125.92 438.783 127.476 437.835 128.424Z" fill="#FCC828"/>
</svg>
