<svg width="500" height="293" viewBox="0 0 500 293" fill="none" xmlns="http://www.w3.org/2000/svg">
<rect x="32" y="38" width="271" height="100" rx="50" fill="white"/>
<g clip-path="url(#clip0_12756_1488)">
<path d="M280 145.182C280 151.055 275.055 156 269.182 156C266.091 156 263.309 154.764 261.145 152.6L226.527 114.891C225.291 113.655 225.291 111.8 226.527 110.564L234.564 102.527C235.8 101.291 237.655 101.291 238.891 102.527L276.6 137.455C278.764 139.309 280 142.4 280 145.182Z" fill="#EC9300"/>
<path d="M218.259 100.379L224.379 94.2596L233.559 103.439L227.439 109.559L218.259 100.379Z" fill="#B0C4D8"/>
<path d="M229 105L230.545 106.545L233.636 103.454L224.364 94.1816L218.182 100.363L222.818 105C224.673 103.145 227.145 103.145 229 105Z" fill="#99B4CD"/>
<path d="M190.364 20C164.709 20 144 40.7091 144 66.3636C144 92.0182 164.709 112.727 190.364 112.727C216.018 112.727 236.727 92.0182 236.727 66.3636C236.727 40.7091 216.018 20 190.364 20ZM190.364 103.455C169.964 103.455 153.273 86.7636 153.273 66.3636C153.273 45.9636 169.964 29.2727 190.364 29.2727C210.764 29.2727 227.455 45.9636 227.455 66.3636C227.455 86.7636 210.764 103.455 190.364 103.455Z" fill="#C4D7E5"/>
<path d="M190.364 103.455C210.848 103.455 227.455 86.8486 227.455 66.3639C227.455 45.8791 210.848 29.2729 190.364 29.2729C169.879 29.2729 153.273 45.8791 153.273 66.3639C153.273 86.8486 169.879 103.455 190.364 103.455Z" fill="#70B7E5"/>
<path d="M172.127 70.6908C173.673 58.9453 182.945 49.6726 194.691 48.1271H195C200.255 47.5089 200.564 40.0908 195.618 39.1635C192.527 38.5453 189.436 38.5453 186.345 38.8544C174.291 40.7089 164.709 50.2908 163.164 62.0362C162.545 65.1271 162.855 68.5271 163.473 71.3089C164.4 76.5635 171.818 75.9453 172.436 70.6908C172.127 70.9998 172.127 70.6908 172.127 70.6908Z" fill="#92C5EB"/>
<path d="M156.364 69.4548C156.364 49.0548 173.055 32.3639 193.455 32.3639C203.036 32.3639 211.382 36.0729 218.182 41.6366C211.382 33.9093 201.491 29.2729 190.364 29.2729C169.964 29.2729 153.273 45.9639 153.273 66.3639C153.273 77.4911 158.218 87.382 165.636 94.182C160.073 87.382 156.364 79.0366 156.364 69.4548Z" fill="#4C9CD6"/>
<path d="M190.364 112.727C216.018 112.727 236.727 92.0183 236.727 66.3638C235.182 66.3638 233.636 67.6001 233.636 69.4547C233.018 79.9638 228.382 89.5456 221.273 96.6547C214.164 104.073 204.273 108.709 193.455 109.636C191.6 109.636 190.364 111.182 190.364 112.727Z" fill="#B0C9DB"/>
<path d="M190.364 20C164.709 20 144 40.7091 144 66.3636C145.545 66.3636 147.091 65.1273 147.091 63.2727C147.709 53.0727 152.036 43.8 158.527 37C165.945 29.2727 176.145 24.0182 187.273 23.0909C189.127 23.0909 190.364 21.5455 190.364 20Z" fill="#E2E7F0"/>
<path d="M276.291 137.146L274.436 135.6C275.982 137.455 276.909 139.927 276.909 142.4C276.909 146.418 271.964 147.964 269.182 145.182L236.727 112.727C234.873 110.873 232.091 110.873 230.236 112.727L227.145 115.818L260.836 151.982C262.691 153.836 265.164 155.382 267.636 155.691C271.036 156 274.436 154.764 276.6 152.6C278.764 150.436 280 147.036 279.691 143.636C279.691 141.164 278.145 139 276.291 137.146Z" fill="#FFAA1D"/>
<path d="M244.455 115.818C244.145 115.818 243.527 115.818 243.218 115.509L235.491 107.782C234.873 107.164 234.873 106.237 235.491 105.618C236.109 105 237.036 105 237.655 105.618L245.382 113.346C246 113.964 246 114.891 245.382 115.509C245.382 115.818 244.764 115.818 244.455 115.818Z" fill="#C97629"/>
</g>
<path d="M71.92 104.28C70.08 104.28 68.4267 103.96 66.96 103.32C65.52 102.653 64.3867 101.746 63.56 100.6C62.7333 99.4264 62.3067 98.0798 62.28 96.5598H66.16C66.2933 97.8664 66.8267 98.9731 67.76 99.8798C68.72 100.76 70.1067 101.2 71.92 101.2C73.6533 101.2 75.0133 100.773 76 99.9198C77.0133 99.0398 77.52 97.9198 77.52 96.5598C77.52 95.4931 77.2267 94.6264 76.64 93.9598C76.0533 93.2931 75.32 92.7864 74.44 92.4398C73.56 92.0931 72.3733 91.7198 70.88 91.3198C69.04 90.8398 67.56 90.3598 66.44 89.8798C65.3467 89.3998 64.4 88.6531 63.6 87.6398C62.8267 86.5998 62.44 85.2131 62.44 83.4798C62.44 81.9598 62.8267 80.6131 63.6 79.4398C64.3733 78.2664 65.4533 77.3598 66.84 76.7198C68.2533 76.0798 69.8667 75.7598 71.68 75.7598C74.2933 75.7598 76.4267 76.4131 78.08 77.7198C79.76 79.0264 80.7067 80.7598 80.92 82.9198H76.92C76.7867 81.8531 76.2267 80.9198 75.24 80.1198C74.2533 79.2931 72.9467 78.8798 71.32 78.8798C69.8 78.8798 68.56 79.2798 67.6 80.0798C66.64 80.8531 66.16 81.9464 66.16 83.3598C66.16 84.3731 66.44 85.1998 67 85.8398C67.5867 86.4798 68.2933 86.9731 69.12 87.3198C69.9733 87.6398 71.16 88.0131 72.68 88.4398C74.52 88.9464 76 89.4531 77.12 89.9598C78.24 90.4398 79.2 91.1998 80 92.2398C80.8 93.2531 81.2 94.6398 81.2 96.3998C81.2 97.7598 80.84 99.0398 80.12 100.24C79.4 101.44 78.3333 102.413 76.92 103.16C75.5067 103.906 73.84 104.28 71.92 104.28Z" fill="#4F4F4F"/>
<path d="M94.7966 104.28C92.9566 104.28 91.3032 103.96 89.8366 103.32C88.3966 102.653 87.2632 101.746 86.4366 100.6C85.6099 99.4264 85.1832 98.0798 85.1566 96.5598H89.0366C89.1699 97.8664 89.7032 98.9731 90.6366 99.8798C91.5966 100.76 92.9832 101.2 94.7966 101.2C96.5299 101.2 97.8899 100.773 98.8766 99.9198C99.8899 99.0398 100.397 97.9198 100.397 96.5598C100.397 95.4931 100.103 94.6264 99.5166 93.9598C98.9299 93.2931 98.1966 92.7864 97.3166 92.4398C96.4366 92.0931 95.2499 91.7198 93.7566 91.3198C91.9166 90.8398 90.4366 90.3598 89.3166 89.8798C88.2232 89.3998 87.2766 88.6531 86.4766 87.6398C85.7032 86.5998 85.3166 85.2131 85.3166 83.4798C85.3166 81.9598 85.7032 80.6131 86.4766 79.4398C87.2499 78.2664 88.3299 77.3598 89.7166 76.7198C91.1299 76.0798 92.7432 75.7598 94.5566 75.7598C97.1699 75.7598 99.3032 76.4131 100.957 77.7198C102.637 79.0264 103.583 80.7598 103.797 82.9198H99.7966C99.6632 81.8531 99.1032 80.9198 98.1166 80.1198C97.1299 79.2931 95.8232 78.8798 94.1966 78.8798C92.6766 78.8798 91.4366 79.2798 90.4766 80.0798C89.5166 80.8531 89.0366 81.9464 89.0366 83.3598C89.0366 84.3731 89.3166 85.1998 89.8766 85.8398C90.4632 86.4798 91.1699 86.9731 91.9966 87.3198C92.8499 87.6398 94.0366 88.0131 95.5566 88.4398C97.3966 88.9464 98.8766 89.4531 99.9966 89.9598C101.117 90.4398 102.077 91.1998 102.877 92.2398C103.677 93.2531 104.077 94.6398 104.077 96.3998C104.077 97.7598 103.717 99.0398 102.997 100.24C102.277 101.44 101.21 102.413 99.7966 103.16C98.3832 103.906 96.7166 104.28 94.7966 104.28Z" fill="#4F4F4F"/>
<path d="M130.313 76.1198V104H126.673V91.3598H112.473V104H108.833V76.1198H112.473V88.3598H126.673V76.1198H130.313Z" fill="#4F4F4F"/>
<g filter="url(#filter0_d_12756_1488)">
<path d="M209 170C209 169.448 209.448 169 210 169H310C310.552 169 311 169.448 311 170V244.377C311 244.929 310.552 245.377 310 245.377H210C209.448 245.377 209 244.929 209 244.377V170Z" fill="white"/>
</g>
<rect x="214.417" y="177.378" width="30.058" height="30.058" fill="#7BC3F4"/>
<circle cx="291.537" cy="192.407" r="15.029" fill="#D4EEFF"/>
<path fill-rule="evenodd" clip-rule="evenodd" d="M260.258 205.444C260.258 206.451 261.579 206.827 262.109 205.969L268.763 195.196C268.962 194.874 268.962 194.467 268.763 194.145L262.109 183.371C261.579 182.514 260.258 182.889 260.258 183.897V188.004C260.258 188.557 259.81 189.004 259.258 189.004H252.868C252.316 189.004 251.868 189.452 251.868 190.004V199.338C251.868 199.89 252.316 200.338 252.868 200.338H259.258C259.81 200.338 260.258 200.785 260.258 201.338V205.444Z" fill="#A1E0E9"/>
<rect x="216.387" y="222.218" width="90.1739" height="3.44928" fill="#C4C4C4"/>
<rect x="216.387" y="229.116" width="90.1739" height="3.44928" fill="#C4C4C4"/>
<rect x="216.387" y="236.016" width="90.1739" height="3.44928" fill="#C4C4C4"/>
<g filter="url(#filter1_d_12756_1488)">
<path d="M332 170C332 169.448 332.448 169 333 169H433C433.552 169 434 169.448 434 170V244.377C434 244.929 433.552 245.377 433 245.377H333C332.448 245.377 332 244.929 332 244.377V170Z" fill="white"/>
</g>
<rect x="337.417" y="177.378" width="30.058" height="30.058" fill="#7BC3F4"/>
<circle cx="414.537" cy="192.407" r="15.029" fill="#D4EEFF"/>
<path fill-rule="evenodd" clip-rule="evenodd" d="M383.258 205.444C383.258 206.451 384.579 206.827 385.109 205.969L391.763 195.196C391.962 194.874 391.962 194.467 391.763 194.145L385.109 183.371C384.579 182.514 383.258 182.889 383.258 183.897V188.004C383.258 188.557 382.81 189.004 382.258 189.004H375.868C375.316 189.004 374.868 189.452 374.868 190.004V199.338C374.868 199.89 375.316 200.338 375.868 200.338H382.258C382.81 200.338 383.258 200.785 383.258 201.338V205.444Z" fill="#A1E0E9"/>
<rect x="339.387" y="222.218" width="90.1739" height="3.44928" fill="#C4C4C4"/>
<rect x="339.387" y="229.116" width="90.1739" height="3.44928" fill="#C4C4C4"/>
<rect x="339.387" y="236.016" width="90.1739" height="3.44928" fill="#C4C4C4"/>
<path fill-rule="evenodd" clip-rule="evenodd" d="M419.258 234.872C418.387 233.44 417.172 232.676 415.48 233.131C414.638 233.357 414.996 234.665 415.841 234.436C417.419 234.013 418.11 235.355 418.836 236.773C418.588 237.248 418.462 237.777 418.469 238.313L418.185 249.612C418.185 249.643 418.184 249.673 418.184 249.703C418.183 249.752 418.182 249.8 418.185 249.848C418.004 250.801 418.657 251.824 419.379 252.578L443.694 278.049C444.3 278.68 445.111 279 445.923 279C446.723 279.001 447.491 278.691 448.066 278.136L460.05 266.592C461.282 265.406 461.321 263.444 460.137 262.209L435.823 236.739C435.36 236.257 434.753 235.938 434.093 235.832C433.826 235.721 433.491 235.649 433.08 235.629L421.821 235.087C421.767 235.084 421.711 235.083 421.656 235.083C420.947 235.08 420.257 235.314 419.696 235.747C419.55 235.424 419.407 235.118 419.258 234.872ZM422.037 240.513C421.576 240.514 421.135 240.326 420.817 239.992C420.565 239.729 420.406 239.391 420.364 239.029C420.83 239.417 421.402 239.637 422.153 239.552C423.01 239.456 423.019 238.099 422.153 238.197C421.589 238.26 421.156 238.033 420.805 237.666C420.814 237.655 420.823 237.645 420.831 237.634C420.841 237.62 420.852 237.607 420.864 237.595C421.192 237.279 421.615 237.122 422.037 237.122C422.498 237.122 422.939 237.31 423.257 237.643C423.905 238.319 423.883 239.391 423.21 240.04C422.895 240.344 422.475 240.514 422.037 240.513Z" fill="#00C2EC"/>
<path fill-rule="evenodd" clip-rule="evenodd" d="M298.258 234.872C297.387 233.44 296.172 232.676 294.48 233.131C293.638 233.357 293.996 234.665 294.841 234.436C296.419 234.013 297.11 235.355 297.836 236.773C297.588 237.248 297.462 237.777 297.469 238.313L297.185 249.612C297.185 249.643 297.184 249.673 297.184 249.703C297.183 249.752 297.182 249.8 297.185 249.848C297.004 250.801 297.657 251.824 298.379 252.578L322.694 278.049C323.3 278.68 324.111 279 324.923 279C325.723 279.001 326.491 278.691 327.066 278.136L339.05 266.592C340.282 265.406 340.321 263.444 339.137 262.209L314.823 236.739C314.36 236.257 313.753 235.938 313.093 235.832C312.826 235.721 312.491 235.649 312.08 235.629L300.821 235.087C300.767 235.084 300.711 235.083 300.656 235.083C299.947 235.08 299.257 235.314 298.696 235.747C298.55 235.424 298.407 235.118 298.258 234.872ZM301.037 240.513C300.576 240.514 300.135 240.326 299.817 239.992C299.565 239.729 299.406 239.391 299.364 239.029C299.83 239.417 300.402 239.637 301.153 239.552C302.01 239.456 302.019 238.099 301.153 238.197C300.589 238.26 300.156 238.033 299.805 237.666C299.814 237.655 299.823 237.645 299.831 237.634C299.841 237.62 299.852 237.607 299.864 237.595C300.192 237.279 300.615 237.122 301.037 237.122C301.498 237.122 301.939 237.31 302.257 237.643C302.905 238.319 302.883 239.391 302.21 240.04C301.895 240.344 301.475 240.514 301.037 240.513Z" fill="#00C2EC"/>
<path d="M436.993 245.762L427.749 254.611L425.931 252.713L435.175 243.864L436.993 245.762ZM439.715 248.606L438.223 250.034L431.003 242.492L432.495 241.064L439.715 248.606ZM442.116 254.278L432.046 259.1L430.107 257.075L442.639 251.66L443.873 252.949L442.116 254.278ZM436.452 263.703L441.702 253.846L443.089 252.13L444.335 253.431L438.397 265.734L436.452 263.703ZM439.784 260.294L438.292 261.723L433.618 256.84L435.11 255.412L439.784 260.294ZM450.954 269.178L447.291 272.685C446.979 272.707 446.578 272.666 446.087 272.56C445.601 272.45 445.059 272.226 444.461 271.89C443.863 271.554 443.242 271.049 442.598 270.376C442.026 269.779 441.603 269.142 441.328 268.465C441.057 267.784 440.941 267.083 440.982 266.363C441.027 265.647 441.233 264.93 441.601 264.213C441.973 263.492 442.514 262.791 443.226 262.11L443.803 261.557C444.514 260.876 445.234 260.361 445.963 260.012C446.696 259.668 447.417 259.485 448.126 259.463C448.835 259.441 449.516 259.572 450.169 259.855C450.821 260.139 451.425 260.571 451.98 261.151C452.75 261.955 453.251 262.741 453.483 263.508C453.719 264.272 453.736 265.01 453.534 265.722C453.34 266.435 452.978 267.107 452.446 267.738L450.677 265.89C450.946 265.544 451.134 265.193 451.241 264.839C451.348 264.485 451.35 264.123 451.246 263.752C451.146 263.385 450.912 263.009 450.543 262.624C450.239 262.306 449.902 262.085 449.532 261.961C449.17 261.837 448.783 261.81 448.371 261.88C447.96 261.95 447.527 262.117 447.074 262.38C446.62 262.644 446.15 263.009 445.664 263.475L445.073 264.04C444.591 264.502 444.208 264.958 443.924 265.407C443.645 265.853 443.466 266.288 443.386 266.713C443.315 267.139 443.345 267.548 443.478 267.94C443.61 268.332 443.848 268.709 444.193 269.068C444.481 269.369 444.745 269.594 444.986 269.744C445.231 269.899 445.449 270.003 445.638 270.057C445.836 270.111 446.001 270.14 446.134 270.142L447.772 268.574L446.106 266.835L447.465 265.534L450.954 269.178Z" fill="white"/>
<path d="M315.993 245.762L306.749 254.611L304.931 252.713L314.175 243.864L315.993 245.762ZM318.715 248.606L317.223 250.034L310.003 242.492L311.495 241.064L318.715 248.606ZM321.116 254.278L311.046 259.1L309.107 257.075L321.639 251.66L322.873 252.949L321.116 254.278ZM315.452 263.703L320.702 253.846L322.089 252.13L323.335 253.431L317.397 265.734L315.452 263.703ZM318.784 260.294L317.292 261.723L312.618 256.84L314.11 255.412L318.784 260.294ZM329.954 269.178L326.291 272.685C325.979 272.707 325.578 272.666 325.087 272.56C324.601 272.45 324.059 272.226 323.461 271.89C322.863 271.554 322.242 271.049 321.598 270.376C321.026 269.779 320.603 269.142 320.328 268.465C320.057 267.784 319.941 267.083 319.982 266.363C320.027 265.647 320.233 264.93 320.601 264.213C320.973 263.492 321.514 262.791 322.226 262.11L322.803 261.557C323.514 260.876 324.234 260.361 324.963 260.012C325.696 259.668 326.417 259.485 327.126 259.463C327.835 259.441 328.516 259.572 329.169 259.855C329.821 260.139 330.425 260.571 330.98 261.151C331.75 261.955 332.251 262.741 332.483 263.508C332.719 264.272 332.736 265.01 332.534 265.722C332.34 266.435 331.978 267.107 331.446 267.738L329.677 265.89C329.946 265.544 330.134 265.193 330.241 264.839C330.348 264.485 330.35 264.123 330.246 263.752C330.146 263.385 329.912 263.009 329.543 262.624C329.239 262.306 328.902 262.085 328.532 261.961C328.17 261.837 327.783 261.81 327.371 261.88C326.96 261.95 326.527 262.117 326.074 262.38C325.62 262.644 325.15 263.009 324.664 263.475L324.073 264.04C323.591 264.502 323.208 264.958 322.924 265.407C322.645 265.853 322.466 266.288 322.386 266.713C322.315 267.139 322.345 267.548 322.478 267.94C322.61 268.332 322.848 268.709 323.193 269.068C323.481 269.369 323.745 269.594 323.986 269.744C324.231 269.899 324.449 270.003 324.638 270.057C324.836 270.111 325.001 270.14 325.134 270.142L326.772 268.574L325.106 266.835L326.465 265.534L329.954 269.178Z" fill="white"/>
<defs>
<filter id="filter0_d_12756_1488" x="208" y="168" width="104" height="78.377" filterUnits="userSpaceOnUse" color-interpolation-filters="sRGB">
<feFlood flood-opacity="0" result="BackgroundImageFix"/>
<feColorMatrix in="SourceAlpha" type="matrix" values="0 0 0 0 0 0 0 0 0 0 0 0 0 0 0 0 0 0 127 0" result="hardAlpha"/>
<feOffset/>
<feGaussianBlur stdDeviation="0.5"/>
<feComposite in2="hardAlpha" operator="out"/>
<feColorMatrix type="matrix" values="0 0 0 0 0 0 0 0 0 0.603922 0 0 0 0 0.976471 0 0 0 1 0"/>
<feBlend mode="normal" in2="BackgroundImageFix" result="effect1_dropShadow_12756_1488"/>
<feBlend mode="normal" in="SourceGraphic" in2="effect1_dropShadow_12756_1488" result="shape"/>
</filter>
<filter id="filter1_d_12756_1488" x="331" y="168" width="104" height="78.377" filterUnits="userSpaceOnUse" color-interpolation-filters="sRGB">
<feFlood flood-opacity="0" result="BackgroundImageFix"/>
<feColorMatrix in="SourceAlpha" type="matrix" values="0 0 0 0 0 0 0 0 0 0 0 0 0 0 0 0 0 0 127 0" result="hardAlpha"/>
<feOffset/>
<feGaussianBlur stdDeviation="0.5"/>
<feComposite in2="hardAlpha" operator="out"/>
<feColorMatrix type="matrix" values="0 0 0 0 0 0 0 0 0 0.603922 0 0 0 0 0.976471 0 0 0 1 0"/>
<feBlend mode="normal" in2="BackgroundImageFix" result="effect1_dropShadow_12756_1488"/>
<feBlend mode="normal" in="SourceGraphic" in2="effect1_dropShadow_12756_1488" result="shape"/>
</filter>
<clipPath id="clip0_12756_1488">
<rect width="136" height="136" fill="white" transform="translate(144 20)"/>
</clipPath>
</defs>
</svg>
