<svg width="340" height="90" viewBox="0 0 340 90" fill="none" xmlns="http://www.w3.org/2000/svg">
<g filter="url(#filter0_d_12803_47137)">
<rect x="20" y="20" width="300" height="50" rx="5" fill="url(#paint0_linear_12803_47137)"/>
</g>
<path d="M83.2246 49.0352C83.2246 49.8815 83.0195 50.6172 82.6094 51.2422C82.1992 51.8672 81.6003 52.349 80.8125 52.6875C80.0312 53.026 79.0807 53.1953 77.9609 53.1953C77.4661 53.1953 76.9811 53.1628 76.5059 53.0977C76.0371 53.0326 75.5846 52.9382 75.1484 52.8145C74.7188 52.6842 74.3086 52.5247 73.918 52.3359V49.5234C74.5951 49.8229 75.2982 50.0931 76.0273 50.334C76.7565 50.5749 77.4792 50.6953 78.1953 50.6953C78.6901 50.6953 79.0872 50.6302 79.3867 50.5C79.6927 50.3698 79.9141 50.1908 80.0508 49.9629C80.1875 49.735 80.2559 49.4746 80.2559 49.1816C80.2559 48.8236 80.1354 48.5176 79.8945 48.2637C79.6536 48.0098 79.3216 47.7721 78.8984 47.5508C78.4818 47.3294 78.0098 47.0918 77.4824 46.8379C77.1504 46.6816 76.7891 46.4928 76.3984 46.2715C76.0078 46.0436 75.6367 45.7669 75.2852 45.4414C74.9336 45.1159 74.6439 44.722 74.416 44.2598C74.1947 43.791 74.084 43.2311 74.084 42.5801C74.084 41.7272 74.2793 40.998 74.6699 40.3926C75.0605 39.7871 75.6172 39.3249 76.3398 39.0059C77.069 38.6803 77.9284 38.5176 78.918 38.5176C79.6602 38.5176 80.3665 38.6055 81.0371 38.7812C81.7142 38.9505 82.4206 39.1979 83.1562 39.5234L82.1797 41.877C81.5221 41.61 80.9329 41.4049 80.4121 41.2617C79.8913 41.112 79.3607 41.0371 78.8203 41.0371C78.4427 41.0371 78.1204 41.099 77.8535 41.2227C77.5866 41.3398 77.3848 41.5091 77.248 41.7305C77.1113 41.9453 77.043 42.196 77.043 42.4824C77.043 42.821 77.1406 43.1074 77.3359 43.3418C77.5378 43.5697 77.8372 43.791 78.2344 44.0059C78.638 44.2207 79.1393 44.4714 79.7383 44.7578C80.4674 45.1029 81.0892 45.4642 81.6035 45.8418C82.1243 46.2129 82.5247 46.6523 82.8047 47.1602C83.0846 47.6615 83.2246 48.2865 83.2246 49.0352Z" fill="white"/>
<path d="M88.2566 42.082V53H85.2781V42.082H88.2566ZM86.7723 37.8047C87.215 37.8047 87.5958 37.9089 87.9148 38.1172C88.2339 38.319 88.3934 38.6999 88.3934 39.2598C88.3934 39.8132 88.2339 40.1973 87.9148 40.4121C87.5958 40.6204 87.215 40.7246 86.7723 40.7246C86.323 40.7246 85.9389 40.6204 85.6199 40.4121C85.3074 40.1973 85.1512 39.8132 85.1512 39.2598C85.1512 38.6999 85.3074 38.319 85.6199 38.1172C85.9389 37.9089 86.323 37.8047 86.7723 37.8047Z" fill="white"/>
<path d="M94.2848 57.8047C92.7613 57.8047 91.596 57.5378 90.7887 57.0039C89.9879 56.4766 89.5875 55.7344 89.5875 54.7773C89.5875 54.1198 89.7926 53.5697 90.2027 53.127C90.6129 52.6842 91.2151 52.3685 92.0094 52.1797C91.7034 52.0495 91.4365 51.8379 91.2086 51.5449C90.9807 51.2454 90.8668 50.9297 90.8668 50.5977C90.8668 50.181 90.9872 49.8359 91.2281 49.5625C91.469 49.2826 91.8173 49.0091 92.273 48.7422C91.7001 48.4948 91.2444 48.0977 90.9059 47.5508C90.5738 47.0039 90.4078 46.3594 90.4078 45.6172C90.4078 44.8229 90.5803 44.1491 90.9254 43.5957C91.277 43.0358 91.7848 42.6094 92.4488 42.3164C93.1194 42.0234 93.9332 41.877 94.8902 41.877C95.0921 41.877 95.3264 41.89 95.5934 41.916C95.8603 41.9421 96.1044 41.9714 96.3258 42.0039C96.5536 42.0365 96.7066 42.0625 96.7848 42.082H100.593V43.5957L98.8844 44.0352C99.0406 44.276 99.1578 44.5332 99.2359 44.8066C99.3141 45.0801 99.3531 45.3698 99.3531 45.6758C99.3531 46.8477 98.943 47.7624 98.1227 48.4199C97.3089 49.071 96.176 49.3965 94.7242 49.3965C94.3792 49.377 94.0536 49.3509 93.7477 49.3184C93.5979 49.4355 93.484 49.5592 93.4059 49.6895C93.3277 49.8197 93.2887 49.9564 93.2887 50.0996C93.2887 50.2428 93.3473 50.3633 93.4645 50.4609C93.5882 50.5521 93.7704 50.6237 94.0113 50.6758C94.2587 50.7214 94.5647 50.7441 94.9293 50.7441H96.7848C97.9827 50.7441 98.8941 51.0013 99.5191 51.5156C100.151 52.0299 100.466 52.7852 100.466 53.7812C100.466 55.0573 99.9326 56.0469 98.8648 56.75C97.8036 57.4531 96.277 57.8047 94.2848 57.8047ZM94.4117 55.8613C95.1214 55.8613 95.7301 55.793 96.2379 55.6562C96.7522 55.526 97.1461 55.3372 97.4195 55.0898C97.693 54.849 97.8297 54.5592 97.8297 54.2207C97.8297 53.9473 97.7483 53.7292 97.5855 53.5664C97.4293 53.4102 97.1884 53.2995 96.8629 53.2344C96.5439 53.1693 96.1337 53.1367 95.6324 53.1367H94.0895C93.7249 53.1367 93.3961 53.1953 93.1031 53.3125C92.8167 53.4297 92.5888 53.5924 92.4195 53.8008C92.2503 54.0156 92.1656 54.263 92.1656 54.543C92.1656 54.9531 92.3609 55.2754 92.7516 55.5098C93.1487 55.7441 93.7021 55.8613 94.4117 55.8613ZM94.8902 47.5801C95.4501 47.5801 95.8603 47.4076 96.1207 47.0625C96.3811 46.7174 96.5113 46.2487 96.5113 45.6562C96.5113 44.9987 96.3746 44.5072 96.1012 44.1816C95.8342 43.8496 95.4306 43.6836 94.8902 43.6836C94.3434 43.6836 93.9332 43.8496 93.6598 44.1816C93.3863 44.5072 93.2496 44.9987 93.2496 45.6562C93.2496 46.2487 93.3831 46.7174 93.65 47.0625C93.9234 47.4076 94.3368 47.5801 94.8902 47.5801Z" fill="white"/>
<path d="M108.301 41.877C109.467 41.877 110.404 42.196 111.114 42.834C111.823 43.4655 112.178 44.4811 112.178 45.8809V53H109.2V46.623C109.2 45.8418 109.056 45.2526 108.77 44.8555C108.49 44.4583 108.047 44.2598 107.442 44.2598C106.53 44.2598 105.909 44.569 105.577 45.1875C105.245 45.806 105.079 46.6979 105.079 47.8633V53H102.1V42.082H104.375L104.776 43.4785H104.942C105.176 43.1009 105.466 42.7949 105.811 42.5605C106.163 42.3262 106.55 42.1536 106.973 42.043C107.403 41.9323 107.845 41.877 108.301 41.877Z" fill="white"/>
<path d="M129.859 42.082V53H127.574L127.174 51.6035H127.018C126.783 51.9746 126.49 52.2773 126.139 52.5117C125.787 52.7461 125.4 52.9186 124.977 53.0293C124.553 53.14 124.114 53.1953 123.658 53.1953C122.877 53.1953 122.197 53.0586 121.617 52.7852C121.038 52.5052 120.585 52.0723 120.26 51.4863C119.941 50.9004 119.781 50.1387 119.781 49.2012V42.082H122.76V48.459C122.76 49.2402 122.9 49.8294 123.18 50.2266C123.46 50.6237 123.906 50.8223 124.518 50.8223C125.123 50.8223 125.598 50.6855 125.943 50.4121C126.288 50.1322 126.529 49.7253 126.666 49.1914C126.809 48.651 126.881 47.9935 126.881 47.2188V42.082H129.859Z" fill="white"/>
<path d="M138.759 41.877C139.989 41.877 140.982 42.3555 141.737 43.3125C142.499 44.2695 142.88 45.6725 142.88 47.5215C142.88 48.7585 142.701 49.8001 142.343 50.6465C141.985 51.4863 141.49 52.1211 140.858 52.5508C140.227 52.9805 139.501 53.1953 138.68 53.1953C138.153 53.1953 137.701 53.1302 137.323 53C136.945 52.8633 136.623 52.6908 136.356 52.4824C136.089 52.2676 135.858 52.0397 135.663 51.7988H135.507C135.559 52.0592 135.598 52.3262 135.624 52.5996C135.65 52.873 135.663 53.14 135.663 53.4004V57.8047H132.684V42.082H135.106L135.526 43.498H135.663C135.858 43.2051 136.096 42.9349 136.376 42.6875C136.656 42.4401 136.991 42.2448 137.382 42.1016C137.779 41.9518 138.238 41.877 138.759 41.877ZM137.802 44.2598C137.281 44.2598 136.867 44.3672 136.561 44.582C136.255 44.7969 136.031 45.1191 135.888 45.5488C135.751 45.9785 135.676 46.5221 135.663 47.1797V47.502C135.663 48.2051 135.728 48.8008 135.858 49.2891C135.995 49.7773 136.22 50.1484 136.532 50.4023C136.851 50.6562 137.287 50.7832 137.841 50.7832C138.296 50.7832 138.671 50.6562 138.964 50.4023C139.257 50.1484 139.475 49.7773 139.618 49.2891C139.768 48.7943 139.843 48.1921 139.843 47.4824C139.843 46.4147 139.677 45.6107 139.345 45.0703C139.012 44.5299 138.498 44.2598 137.802 44.2598Z" fill="white"/>
<path d="M155.971 44.3184H153.393V53H150.414V44.3184H148.774V42.8828L150.414 42.082V41.2812C150.414 40.3503 150.571 39.6276 150.883 39.1133C151.202 38.5924 151.648 38.2279 152.221 38.0195C152.801 37.8047 153.484 37.6973 154.272 37.6973C154.851 37.6973 155.379 37.7461 155.854 37.8438C156.329 37.9349 156.717 38.0391 157.016 38.1562L156.254 40.3438C156.026 40.2721 155.779 40.207 155.512 40.1484C155.245 40.0898 154.939 40.0605 154.594 40.0605C154.177 40.0605 153.871 40.1875 153.676 40.4414C153.487 40.6888 153.393 41.0078 153.393 41.3984V42.082H155.971V44.3184Z" fill="white"/>
<path d="M167.312 47.5215C167.312 48.4329 167.188 49.2402 166.941 49.9434C166.7 50.6465 166.345 51.2422 165.876 51.7305C165.414 52.2122 164.854 52.5768 164.196 52.8242C163.545 53.0716 162.81 53.1953 161.989 53.1953C161.221 53.1953 160.515 53.0716 159.87 52.8242C159.232 52.5768 158.676 52.2122 158.2 51.7305C157.732 51.2422 157.367 50.6465 157.107 49.9434C156.853 49.2402 156.726 48.4329 156.726 47.5215C156.726 46.3105 156.941 45.2852 157.37 44.4453C157.8 43.6055 158.412 42.9674 159.206 42.5312C160.001 42.0951 160.948 41.877 162.048 41.877C163.07 41.877 163.975 42.0951 164.763 42.5312C165.557 42.9674 166.179 43.6055 166.628 44.4453C167.084 45.2852 167.312 46.3105 167.312 47.5215ZM159.763 47.5215C159.763 48.2376 159.841 48.8398 159.997 49.3281C160.154 49.8164 160.398 50.1842 160.73 50.4316C161.062 50.679 161.495 50.8027 162.029 50.8027C162.556 50.8027 162.982 50.679 163.308 50.4316C163.64 50.1842 163.881 49.8164 164.03 49.3281C164.187 48.8398 164.265 48.2376 164.265 47.5215C164.265 46.7988 164.187 46.1999 164.03 45.7246C163.881 45.2428 163.64 44.8815 163.308 44.6406C162.976 44.3997 162.543 44.2793 162.009 44.2793C161.221 44.2793 160.648 44.5495 160.29 45.0898C159.939 45.6302 159.763 46.4408 159.763 47.5215Z" fill="white"/>
<path d="M175.566 41.877C175.716 41.877 175.889 41.8867 176.084 41.9062C176.286 41.9193 176.449 41.9388 176.572 41.9648L176.348 44.7578C176.25 44.7253 176.11 44.7025 175.928 44.6895C175.752 44.6699 175.599 44.6602 175.469 44.6602C175.085 44.6602 174.71 44.709 174.346 44.8066C173.988 44.9043 173.665 45.0638 173.379 45.2852C173.092 45.5 172.865 45.7865 172.695 46.1445C172.533 46.4961 172.451 46.929 172.451 47.4434V53H169.473V42.082H171.729L172.168 43.918H172.314C172.529 43.5469 172.796 43.2083 173.115 42.9023C173.441 42.5898 173.809 42.3424 174.219 42.1602C174.635 41.9714 175.085 41.877 175.566 41.877Z" fill="white"/>
<path d="M189.185 44.3184H186.607V53H183.629V44.3184H181.988V42.8828L183.629 42.082V41.2812C183.629 40.3503 183.785 39.6276 184.097 39.1133C184.416 38.5924 184.862 38.2279 185.435 38.0195C186.015 37.8047 186.698 37.6973 187.486 37.6973C188.065 37.6973 188.593 37.7461 189.068 37.8438C189.543 37.9349 189.931 38.0391 190.23 38.1562L189.468 40.3438C189.24 40.2721 188.993 40.207 188.726 40.1484C188.459 40.0898 188.153 40.0605 187.808 40.0605C187.392 40.0605 187.086 40.1875 186.89 40.4414C186.701 40.6888 186.607 41.0078 186.607 41.3984V42.082H189.185V44.3184Z" fill="white"/>
<path d="M196.698 41.877C196.847 41.877 197.02 41.8867 197.215 41.9062C197.417 41.9193 197.58 41.9388 197.704 41.9648L197.479 44.7578C197.381 44.7253 197.241 44.7025 197.059 44.6895C196.883 44.6699 196.73 44.6602 196.6 44.6602C196.216 44.6602 195.842 44.709 195.477 44.8066C195.119 44.9043 194.797 45.0638 194.51 45.2852C194.224 45.5 193.996 45.7865 193.827 46.1445C193.664 46.4961 193.582 46.929 193.582 47.4434V53H190.604V42.082H192.86L193.299 43.918H193.446C193.661 43.5469 193.927 43.2083 194.246 42.9023C194.572 42.5898 194.94 42.3424 195.35 42.1602C195.767 41.9714 196.216 41.877 196.698 41.877Z" fill="white"/>
<path d="M203.888 41.877C204.897 41.877 205.766 42.0723 206.495 42.4629C207.224 42.847 207.788 43.4069 208.185 44.1426C208.582 44.8783 208.78 45.7767 208.78 46.8379V48.2832H201.739C201.772 49.123 202.023 49.7839 202.491 50.2656C202.967 50.7409 203.624 50.9785 204.464 50.9785C205.161 50.9785 205.799 50.9069 206.378 50.7637C206.958 50.6204 207.553 50.4056 208.165 50.1191V52.4238C207.625 52.6908 207.058 52.8861 206.466 53.0098C205.88 53.1335 205.167 53.1953 204.327 53.1953C203.234 53.1953 202.264 52.9935 201.417 52.5898C200.577 52.1862 199.917 51.571 199.435 50.7441C198.96 49.9173 198.722 48.8757 198.722 47.6191C198.722 46.3431 198.937 45.2819 199.366 44.4355C199.803 43.5827 200.408 42.9447 201.183 42.5215C201.958 42.0918 202.859 41.877 203.888 41.877ZM203.907 43.9961C203.328 43.9961 202.846 44.1816 202.462 44.5527C202.085 44.9238 201.866 45.5065 201.808 46.3008H205.988C205.981 45.8581 205.9 45.4642 205.743 45.1191C205.594 44.7741 205.366 44.5007 205.06 44.2988C204.76 44.097 204.376 43.9961 203.907 43.9961Z" fill="white"/>
<path d="M215.404 41.877C216.413 41.877 217.283 42.0723 218.012 42.4629C218.741 42.847 219.304 43.4069 219.701 44.1426C220.098 44.8783 220.297 45.7767 220.297 46.8379V48.2832H213.256C213.288 49.123 213.539 49.7839 214.008 50.2656C214.483 50.7409 215.141 50.9785 215.98 50.9785C216.677 50.9785 217.315 50.9069 217.895 50.7637C218.474 50.6204 219.07 50.4056 219.682 50.1191V52.4238C219.141 52.6908 218.575 52.8861 217.982 53.0098C217.396 53.1335 216.684 53.1953 215.844 53.1953C214.75 53.1953 213.78 52.9935 212.934 52.5898C212.094 52.1862 211.433 51.571 210.951 50.7441C210.476 49.9173 210.238 48.8757 210.238 47.6191C210.238 46.3431 210.453 45.2819 210.883 44.4355C211.319 43.5827 211.924 42.9447 212.699 42.5215C213.474 42.0918 214.376 41.877 215.404 41.877ZM215.424 43.9961C214.844 43.9961 214.363 44.1816 213.979 44.5527C213.601 44.9238 213.383 45.5065 213.324 46.3008H217.504C217.497 45.8581 217.416 45.4642 217.26 45.1191C217.11 44.7741 216.882 44.5007 216.576 44.2988C216.277 44.097 215.893 43.9961 215.424 43.9961Z" fill="white"/>
<path d="M231.914 50.8223C232.239 50.8223 232.555 50.7897 232.861 50.7246C233.173 50.6595 233.483 50.5781 233.789 50.4805V52.6973C233.47 52.8405 233.073 52.9577 232.597 53.0488C232.129 53.1465 231.614 53.1953 231.054 53.1953C230.403 53.1953 229.817 53.0911 229.296 52.8828C228.782 52.668 228.375 52.3001 228.076 51.7793C227.783 51.252 227.636 50.5195 227.636 49.582V44.3184H226.211V43.0586L227.851 42.0625L228.711 39.7578H230.615V42.082H233.671V44.3184H230.615V49.582C230.615 49.9987 230.732 50.3112 230.966 50.5195C231.207 50.7214 231.523 50.8223 231.914 50.8223Z" fill="white"/>
<path d="M241.799 41.877C241.949 41.877 242.121 41.8867 242.317 41.9062C242.519 41.9193 242.681 41.9388 242.805 41.9648L242.58 44.7578C242.483 44.7253 242.343 44.7025 242.161 44.6895C241.985 44.6699 241.832 44.6602 241.702 44.6602C241.317 44.6602 240.943 44.709 240.579 44.8066C240.22 44.9043 239.898 45.0638 239.612 45.2852C239.325 45.5 239.097 45.7865 238.928 46.1445C238.765 46.4961 238.684 46.929 238.684 47.4434V53H235.705V42.082H237.961L238.401 43.918H238.547C238.762 43.5469 239.029 43.2083 239.348 42.9023C239.674 42.5898 240.041 42.3424 240.452 42.1602C240.868 41.9714 241.317 41.877 241.799 41.877Z" fill="white"/>
<path d="M247.466 42.082V53H244.488V42.082H247.466ZM245.982 37.8047C246.424 37.8047 246.805 37.9089 247.124 38.1172C247.443 38.319 247.603 38.6999 247.603 39.2598C247.603 39.8132 247.443 40.1973 247.124 40.4121C246.805 40.6204 246.424 40.7246 245.982 40.7246C245.532 40.7246 245.148 40.6204 244.829 40.4121C244.517 40.1973 244.361 39.8132 244.361 39.2598C244.361 38.6999 244.517 38.319 244.829 38.1172C245.148 37.9089 245.532 37.8047 245.982 37.8047Z" fill="white"/>
<path d="M254.773 41.8574C256.238 41.8574 257.361 42.1764 258.143 42.8145C258.924 43.4525 259.314 44.4225 259.314 45.7246V53H257.234L256.658 51.5156H256.58C256.268 51.9062 255.949 52.2253 255.623 52.4727C255.298 52.7201 254.923 52.9023 254.5 53.0195C254.077 53.1367 253.562 53.1953 252.957 53.1953C252.312 53.1953 251.733 53.0716 251.219 52.8242C250.711 52.5768 250.311 52.1992 250.018 51.6914C249.725 51.1771 249.578 50.526 249.578 49.7383C249.578 48.5794 249.985 47.7266 250.799 47.1797C251.613 46.6263 252.833 46.3203 254.461 46.2617L256.355 46.2031V45.7246C256.355 45.1517 256.206 44.7318 255.906 44.4648C255.607 44.1979 255.19 44.0645 254.656 44.0645C254.129 44.0645 253.611 44.1393 253.104 44.2891C252.596 44.4388 252.088 44.6276 251.58 44.8555L250.594 42.8438C251.173 42.5378 251.821 42.2969 252.537 42.1211C253.26 41.9453 254.005 41.8574 254.773 41.8574ZM256.355 47.9414L255.203 47.9805C254.24 48.0065 253.569 48.179 253.191 48.498C252.82 48.8171 252.635 49.237 252.635 49.7578C252.635 50.2135 252.768 50.5391 253.035 50.7344C253.302 50.9232 253.65 51.0176 254.08 51.0176C254.718 51.0176 255.255 50.8288 255.691 50.4512C256.134 50.0736 256.355 49.5365 256.355 48.8398V47.9414Z" fill="white"/>
<path d="M265.069 53H262.091V37.8047H265.069V53Z" fill="white"/>
<defs>
<filter id="filter0_d_12803_47137" x="0" y="0" width="340" height="90" filterUnits="userSpaceOnUse" color-interpolation-filters="sRGB">
<feFlood flood-opacity="0" result="BackgroundImageFix"/>
<feColorMatrix in="SourceAlpha" type="matrix" values="0 0 0 0 0 0 0 0 0 0 0 0 0 0 0 0 0 0 127 0" result="hardAlpha"/>
<feOffset/>
<feGaussianBlur stdDeviation="10"/>
<feComposite in2="hardAlpha" operator="out"/>
<feColorMatrix type="matrix" values="0 0 0 0 1 0 0 0 0 1 0 0 0 0 1 0 0 0 1 0"/>
<feBlend mode="darken" in2="BackgroundImageFix" result="effect1_dropShadow_12803_47137"/>
<feBlend mode="normal" in="SourceGraphic" in2="effect1_dropShadow_12803_47137" result="shape"/>
</filter>
<linearGradient id="paint0_linear_12803_47137" x1="-114.783" y1="89.7674" x2="310.938" y2="-16.3541" gradientUnits="userSpaceOnUse">
<stop stop-color="#004CB6"/>
<stop offset="1" stop-color="#009AF9"/>
</linearGradient>
</defs>
</svg>
