<svg width="400" height="400" viewBox="0 0 400 400" fill="none" xmlns="http://www.w3.org/2000/svg">
<rect x="53" y="91" width="293.274" height="218" rx="5" fill="#BFE0FF"/>
<g clip-path="url(#clip0_12756_1248)">
<path d="M257.596 150.62C263.63 148.456 271.245 150.148 276.116 154.736C282.505 160.753 283.196 170.782 281.711 178.16C280.025 186.541 275.52 193.045 269.954 195.133C267.067 196.216 263.725 196.188 260.12 195.085L266.98 206.588C267.872 208.083 269.501 209.012 271.231 209.012H287.207C291.71 209.012 295.374 212.692 295.374 217.217C295.374 221.741 291.71 225.422 287.207 225.422H269.379C264.127 225.422 259.234 223.057 255.954 218.933L248.749 209.873C245.612 214.736 242.036 219.336 238.094 223.601L249.583 229.611C253.967 231.904 256.697 236.237 256.887 241.201C257.077 246.169 254.681 250.701 250.48 253.325L220.3 272.169C218.742 273.142 217.003 273.609 215.281 273.608C212.288 273.608 209.346 272.2 207.496 269.594L207.401 269.461C205.866 267.299 205.291 264.568 205.822 261.966C206.351 259.373 207.943 257.094 210.189 255.713L227.47 245.09L218.028 240.34L191.111 267.93C189.237 269.851 186.739 270.824 184.234 270.824C182 270.824 179.76 270.05 177.952 268.483C175.938 266.737 174.724 264.204 174.622 261.533C174.52 258.862 175.538 256.243 177.414 254.348C187.354 244.304 201.947 229.566 205.088 226.395C205.067 226.287 205.041 226.181 205.022 226.072C204.074 220.669 205.689 215.292 209.451 211.317L229.445 190.199L219.505 187.699C217.828 187.277 216.025 187.78 214.801 189.011L203.504 200.375C201.961 201.927 199.909 202.782 197.725 202.782C195.542 202.782 193.49 201.927 191.946 200.375C188.768 197.178 188.768 191.976 191.946 188.779L205.13 175.517C208.476 172.151 213.092 170.521 217.796 171.048L244.398 174.021C244.057 163.255 249.191 153.636 257.596 150.62ZM258.465 216.94C261.133 220.294 265.111 222.218 269.379 222.218H287.207C289.942 222.218 292.167 219.974 292.167 217.217C292.167 214.459 289.942 212.215 287.207 212.215H271.231C268.377 212.215 265.693 210.688 264.226 208.227L256.521 195.309C254.783 199.327 252.779 203.238 250.544 206.978L258.465 216.94ZM179.693 256.601C178.419 257.888 177.756 259.596 177.826 261.412C177.895 263.227 178.686 264.879 180.053 266.064C182.606 268.276 186.454 268.114 188.815 265.695L215.023 238.83L214.159 238.395C210.497 236.553 207.705 233.551 206.145 229.881C201.442 234.631 188.671 247.53 179.693 256.601ZM217.439 174.231C213.714 173.815 210.056 175.106 207.404 177.775L194.221 191.037C192.28 192.989 192.28 196.166 194.221 198.117C195.157 199.06 196.401 199.578 197.724 199.578C199.047 199.578 200.292 199.06 201.228 198.117L212.525 186.753C214.543 184.723 217.517 183.895 220.287 184.592L237.899 189.022C238.758 189.238 239.279 190.108 239.063 190.966C238.847 191.824 237.976 192.345 237.117 192.128L233.009 191.095L211.78 213.519C208.721 216.75 207.409 221.124 208.179 225.519C208.947 229.897 211.652 233.546 215.602 235.533L230.679 243.117L236.668 239.434C237.423 238.97 238.41 239.206 238.874 239.959C239.338 240.713 239.103 241.699 238.348 242.163L211.869 258.442C210.353 259.374 209.32 260.853 208.963 262.606C208.603 264.368 208.978 266.144 210.016 267.607L210.11 267.74C212.045 270.465 215.774 271.217 218.6 269.452L248.781 250.608C251.995 248.6 253.828 245.129 253.683 241.323C253.538 237.52 251.449 234.203 248.095 232.449L227.276 221.558C226.491 221.147 226.188 220.179 226.599 219.396C227.01 218.612 227.978 218.309 228.763 218.72L235.148 222.06C239.776 217.143 243.896 211.75 247.391 206.008C250.256 201.301 252.739 196.306 254.771 191.159C254.938 190.736 255.278 190.403 255.705 190.245C256.132 190.086 256.606 190.117 257.009 190.329C260.168 191.99 264.782 193.651 268.826 192.134C273.297 190.457 277.12 184.724 278.568 177.528C279.882 170.992 279.351 162.185 273.917 157.066C269.889 153.272 263.623 151.861 258.679 153.635C251.992 156.034 246.612 164.628 247.688 175.637C247.69 175.66 247.693 175.683 247.695 175.706C247.836 177.116 248.078 178.564 248.442 180.045C248.653 180.904 248.127 181.772 247.267 181.983C246.41 182.193 245.539 181.668 245.328 180.809C245.038 179.628 244.819 178.447 244.662 177.274L217.439 174.231ZM216.879 129.204H299.397C300.282 129.204 301 128.486 301 127.602C301 126.717 300.282 126 299.397 126H216.879C215.993 126 215.275 126.717 215.275 127.602C215.275 128.486 215.993 129.204 216.879 129.204ZM99 142.695C99 143.58 99.7178 144.297 100.603 144.297H269.39C270.276 144.297 270.993 143.58 270.993 142.695C270.993 141.81 270.276 141.093 269.39 141.093H100.603C99.7178 141.093 99 141.81 99 142.695ZM99 157.788C99 158.673 99.7178 159.39 100.603 159.39H239.384C240.269 159.39 240.987 158.673 240.987 157.788C240.987 156.903 240.269 156.186 239.384 156.186H100.603C99.7178 156.186 99 156.903 99 157.788ZM99 180.427C99 181.312 99.7178 182.029 100.603 182.029H188.747C189.633 182.029 190.351 181.312 190.351 180.427C190.351 179.543 189.633 178.825 188.747 178.825H100.603C99.7178 178.825 99 179.543 99 180.427ZM99 197.407C99 198.292 99.7178 199.009 100.603 199.009H169.993C170.879 199.009 171.597 198.292 171.597 197.407C171.597 196.522 170.879 195.805 169.993 195.805H100.603C99.7178 195.805 99 196.522 99 197.407ZM99 214.387C99 215.271 99.7178 215.988 100.603 215.988H196.249C197.135 215.988 197.853 215.271 197.853 214.387C197.853 213.502 197.135 212.785 196.249 212.785H100.603C99.7178 212.785 99 213.502 99 214.387ZM99 231.366C99 232.251 99.7178 232.968 100.603 232.968H164.367C165.252 232.968 165.97 232.251 165.97 231.366C165.97 230.482 165.252 229.764 164.367 229.764H100.603C99.7178 229.764 99 230.482 99 231.366ZM99 246.459C99 247.344 99.7178 248.061 100.603 248.061H173.744C174.63 248.061 175.348 247.344 175.348 246.459C175.348 245.575 174.63 244.857 173.744 244.857H100.603C99.7178 244.857 99 245.575 99 246.459ZM99 265.325C99 266.21 99.7178 266.927 100.603 266.927H164.367C165.252 266.927 165.97 266.21 165.97 265.325C165.97 264.441 165.252 263.724 164.367 263.724H100.603C99.7178 263.724 99 264.441 99 265.325ZM99 286.078C99 286.963 99.7178 287.68 100.603 287.68H250.636C251.522 287.68 252.239 286.963 252.239 286.078C252.239 285.194 251.522 284.476 250.636 284.476H100.603C99.7178 284.476 99 285.194 99 286.078ZM301 297.398C301 296.514 300.282 295.796 299.397 295.796H209.377C208.492 295.796 207.774 296.514 207.774 297.398C207.774 298.283 208.492 299 209.377 299H299.397C300.282 299 301 298.283 301 297.398Z" fill="#418DFE"/>
</g>
<path d="M53 96C53 93.2386 55.2386 91 58 91H341.274C344.035 91 346.274 93.2386 346.274 96V114.462H53V96Z" fill="#3B68D7"/>
<circle cx="66.1009" cy="103.101" r="7.10089" fill="#FF0000"/>
<circle cx="89.7664" cy="103.101" r="7.10089" fill="#FFAA1D"/>
<circle cx="113.44" cy="103.101" r="7.10089" fill="#34C900"/>
<circle cx="199.5" cy="200.5" r="33" fill="white" fill-opacity="0.5" stroke="#3947B7"/>
<circle cx="199.5" cy="200.5" r="31" stroke="#3947B7" stroke-width="5"/>
<rect x="188.08" y="182.228" width="7.61364" height="36.5455" rx="3.80682" fill="#3947B7"/>
<rect x="204.068" y="182.227" width="7.61364" height="36.5455" rx="3.80682" fill="#3947B7"/>
<defs>
<clipPath id="clip0_12756_1248">
<rect width="202" height="173" fill="white" transform="matrix(-1 0 0 1 301 126)"/>
</clipPath>
</defs>
</svg>
