<svg width="150" height="150" viewBox="0 0 150 150" fill="none" xmlns="http://www.w3.org/2000/svg">
<path fill-rule="evenodd" clip-rule="evenodd" d="M88.0518 129.597C88.845 128.803 88.845 127.518 88.0518 126.726L65.0707 103.745C64.8823 103.556 64.6584 103.406 64.412 103.304C64.1655 103.201 63.9013 103.149 63.6345 103.149C63.3677 103.149 63.1035 103.201 62.857 103.304C62.6105 103.406 62.3867 103.556 62.1983 103.745L52.1441 113.797C51.9332 114.008 51.7713 114.263 51.67 114.544C51.5687 114.825 51.5304 115.125 51.5578 115.422C51.5853 115.719 51.678 116.006 51.8293 116.264C51.9807 116.521 52.1869 116.741 52.4333 116.91L79.7231 135.582C80.1139 135.85 80.5861 135.973 81.058 135.929C81.5298 135.886 81.9716 135.678 82.3066 135.343L88.0518 129.597Z" fill="#418DFE"/>
<path fill-rule="evenodd" clip-rule="evenodd" d="M31.6277 74.1672C31.4536 74.5445 31.3994 74.9661 31.4724 75.3751C31.5453 75.7842 31.742 76.1611 32.0358 76.4549L62.1983 106.616C62.4922 106.91 62.8689 107.107 63.2779 107.18C63.6868 107.253 64.1084 107.199 64.4858 107.025L101.83 89.7875C102.127 89.6504 102.387 89.4435 102.587 89.1844C102.787 88.9254 102.921 88.6218 102.978 88.2996C103.035 87.9775 103.014 87.6463 102.916 87.3342C102.818 87.0221 102.646 86.7383 102.414 86.507L52.1441 36.2361C51.9126 36.005 51.6286 35.8333 51.3164 35.7356C51.0042 35.6379 50.673 35.6171 50.351 35.675C50.0287 35.7316 49.7249 35.8656 49.4658 36.0655C49.2067 36.2654 49 36.5252 48.8634 36.8227L31.6277 74.1672Z" fill="#418DFE"/>
<path fill-rule="evenodd" clip-rule="evenodd" d="M34.9085 73.5807C34.5273 73.2002 34.0107 72.9866 33.4721 72.9866C32.9335 72.9866 32.417 73.2002 32.0358 73.5807C32.0358 73.5807 26.737 78.8797 20.9043 84.712C11.7819 93.8348 11.7819 108.625 20.9043 117.748C30.0266 126.871 44.8171 126.871 53.9395 117.748C59.7722 111.915 65.0707 106.616 65.0707 106.616C65.2594 106.428 65.4091 106.204 65.5112 105.958C65.6133 105.711 65.6658 105.447 65.6658 105.181C65.6658 104.914 65.6133 104.65 65.5112 104.403C65.4091 104.157 65.2594 103.933 65.0707 103.745L34.9085 73.5807Z" fill="#418DFE"/>
<path fill-rule="evenodd" clip-rule="evenodd" d="M19.2054 86.6035C19.7376 85.9432 20.3047 85.3117 20.9043 84.7119C26.737 78.8796 32.0358 73.5806 32.0358 73.5806C32.417 73.2002 32.9335 72.9865 33.4721 72.9865C34.0107 72.9865 34.5273 73.2002 34.9085 73.5806L65.0708 103.745C65.2594 103.933 65.4091 104.157 65.5112 104.403C65.6133 104.65 65.6659 104.914 65.6659 105.181C65.6659 105.447 65.6133 105.711 65.5112 105.958C65.4091 106.204 65.2594 106.428 65.0708 106.616C65.0708 106.616 59.7722 111.915 53.9395 117.748C53.34 118.348 52.7085 118.915 52.0476 119.446L19.2054 86.6035ZM47.8348 43.4191C58.2689 53.8521 84.7998 80.3828 95.2338 90.8183C98.4076 93.9896 103.552 93.9896 106.723 90.8183V90.8158C109.897 87.6445 109.897 82.5003 106.723 79.3265C96.2903 68.8935 69.7591 42.3628 59.3254 31.9273C56.1525 28.756 51.0084 28.756 47.8356 31.9273C47.8353 31.9273 47.8351 31.9273 47.8348 31.9298C44.662 35.1011 44.662 40.2453 47.8348 43.4191Z" fill="#E5F3FF"/>
<path fill-rule="evenodd" clip-rule="evenodd" d="M65.0708 83.6354C64.6896 83.2549 64.1731 83.0412 63.6345 83.0412C63.096 83.0412 62.5795 83.2549 62.1983 83.6354L57.8893 87.9441C57.0961 88.7389 57.0961 90.0236 57.8893 90.8158L65.0708 97.9988C65.452 98.3793 65.9685 98.593 66.5071 98.593C67.0457 98.593 67.5623 98.3793 67.9435 97.9988L72.2525 93.69C72.6334 93.3088 72.8474 92.7919 72.8474 92.2529C72.8474 91.714 72.6334 91.1971 72.2525 90.8158L65.0708 83.6354ZM77.9979 85.0727L70.8161 77.8912C70.0245 77.0993 68.7364 77.0985 67.9437 77.8912C67.151 78.6839 67.1518 79.972 67.9437 80.7639L75.1252 87.9454C75.9169 88.7371 77.2052 88.7381 77.9979 87.9454C78.7906 87.1527 78.7896 85.8644 77.9979 85.0727Z" fill="#FFD550"/>
<path fill-rule="evenodd" clip-rule="evenodd" d="M95.3125 50.625H85.1562C84.6175 50.625 84.1009 50.411 83.7199 50.0301C83.339 49.6491 83.125 49.1325 83.125 48.5938V16.0938C83.125 15.555 83.339 15.0384 83.7199 14.6574C84.1009 14.2765 84.6175 14.0625 85.1562 14.0625H133.906C135.029 14.0625 135.938 14.9715 135.938 16.0938V48.5938C135.938 49.716 135.029 50.625 133.906 50.625H106.446L98.9307 60.0195C98.6672 60.3477 98.3085 60.5862 97.9039 60.7021C97.4993 60.8181 97.0687 60.8058 96.6714 60.667C96.2743 60.5275 95.9302 60.2682 95.6868 59.9248C95.4434 59.5814 95.3126 59.1709 95.3125 58.75V50.625Z" fill="#B3E5FC"/>
<path fill-rule="evenodd" clip-rule="evenodd" d="M83.125 26.25V16.0938C83.125 15.555 83.339 15.0384 83.7199 14.6574C84.1009 14.2765 84.6175 14.0625 85.1562 14.0625H133.906C135.029 14.0625 135.938 14.9715 135.938 16.0938V26.25H83.125Z" fill="#61D6A0"/>
</svg>
