<svg width="150" height="150" viewBox="0 0 150 150" fill="none" xmlns="http://www.w3.org/2000/svg">
<path d="M66.3574 15.0252C77.6679 14.5391 115.893 20.8691 111.697 52.1482C110.414 61.7246 104.386 68.3868 94.9057 70.6328C81.7314 73.7548 71.5098 78.1902 73.8071 95.2331C76.1044 112.276 55.6817 122.713 40.0485 117.67C34.6814 115.859 29.7237 113.009 25.459 109.281C21.1943 105.553 17.7062 101.022 15.1943 95.9449C7.75479 80.381 7.99464 59.2119 17.9443 42.3833C27.926 25.5008 42.6652 16.0437 66.3574 15.0252Z" fill="#BFE0FF"/>
<path d="M64.7155 43.8018C69.4271 43.8018 73.2465 39.9823 73.2465 35.2708C73.2465 30.5592 69.4271 26.7397 64.7155 26.7397C60.0039 26.7397 56.1845 30.5592 56.1845 35.2708C56.1845 39.9823 60.0039 43.8018 64.7155 43.8018Z" fill="#FFC639"/>
<path d="M89.6493 55.1651C94.3609 55.1651 98.1804 51.3456 98.1804 46.6341C98.1804 41.9225 94.3609 38.103 89.6493 38.103C84.9378 38.103 81.1183 41.9225 81.1183 46.6341C81.1183 51.3456 84.9378 55.1651 89.6493 55.1651Z" fill="#61D6A0"/>
<path d="M40.5911 55.1651C45.3026 55.1651 49.1221 51.3456 49.1221 46.6341C49.1221 41.9225 45.3026 38.103 40.5911 38.103C35.8795 38.103 32.0601 41.9225 32.0601 46.6341C32.0601 51.3456 35.8795 55.1651 40.5911 55.1651Z" fill="#584360"/>
<path d="M31.3302 83.0169C36.0418 83.0169 39.8613 79.1974 39.8613 74.4859C39.8613 69.7743 36.0418 65.9548 31.3302 65.9548C26.6187 65.9548 22.7992 69.7743 22.7992 74.4859C22.7992 79.1974 26.6187 83.0169 31.3302 83.0169Z" fill="#FF736C"/>
<path d="M48.6013 106.882C53.8421 106.882 58.0905 102.634 58.0905 97.393C58.0905 92.1523 53.8421 87.9038 48.6013 87.9038C43.3606 87.9038 39.1122 92.1523 39.1122 97.393C39.1122 102.634 43.3606 106.882 48.6013 106.882Z" fill="white"/>
<path d="M138.714 33.7381C147.693 37.5515 106.714 106.884 106.714 106.884L100.261 103.759C100.261 103.759 129.418 29.7913 138.714 33.7381Z" fill="#419BFF"/>
<path d="M115.602 91.2953C110.535 100.402 106.713 106.88 106.713 106.88L100.261 103.763C100.261 103.763 103.019 96.7595 107.11 87.1908L115.602 91.2953Z" fill="#3B68D7"/>
<path d="M106.714 106.883L100.261 103.759C91.0615 106.791 88.8759 110.693 84.8688 118.955C82.8345 123.157 78.6389 125.331 75.0064 126.452C74.6586 126.56 74.3568 126.781 74.1488 127.08C73.9407 127.378 73.8384 127.738 73.858 128.102C73.8776 128.465 74.018 128.812 74.2569 129.087C74.4958 129.362 74.8196 129.549 75.177 129.619C81.2022 131.349 87.6295 131.048 93.4666 128.762C102.358 125.457 107.368 112.836 106.714 106.883Z" fill="#97CEFF"/>
<path d="M93.4704 128.762C87.6326 131.046 81.2058 131.348 75.1795 129.621C74.8228 129.551 74.4995 129.364 74.2608 129.09C74.022 128.816 73.8812 128.47 73.8606 128.107C73.84 127.744 73.9408 127.384 74.1471 127.085C74.3534 126.786 74.6534 126.563 75 126.453C78.6428 125.324 82.8371 123.157 84.8637 118.95C85.5307 117.577 86.1335 116.333 86.7492 115.191C85.6205 118.937 87.8908 122.708 91.8158 122.515C95.4893 122.328 96.9003 126.492 93.4704 128.762ZM28.3865 126.977C28.1761 128.541 26.778 130.904 25.3915 130.717C24.8418 130.625 24.3183 130.416 23.8565 130.104C23.3946 129.793 23.0053 129.385 22.7147 128.909C22.4242 128.434 22.2394 127.901 22.1727 127.348C22.1061 126.795 22.1592 126.234 22.3285 125.703C22.721 124.174 23.4829 123.431 24.8694 123.619C26.256 123.806 28.5969 125.407 28.3865 126.977ZM62.1733 128.65C53.6589 127.919 39.6483 126.23 38.5286 129.991C36.7226 136.054 50.9333 136.952 57.7057 134.49C64.4782 132.029 66.0995 128.988 62.1733 128.65Z" fill="#FF736C"/>
<path d="M115.602 92.5767C115.408 92.5762 115.218 92.5323 115.044 92.4484L106.552 88.3438C106.396 88.2736 106.255 88.1726 106.139 88.047C106.022 87.9215 105.931 87.7737 105.873 87.6126C105.814 87.4515 105.788 87.2803 105.797 87.1091C105.806 86.9378 105.849 86.7701 105.923 86.6157C105.998 86.4614 106.103 86.3235 106.231 86.2104C106.36 86.0972 106.51 86.011 106.673 85.9568C106.836 85.9027 107.008 85.8817 107.179 85.8952C107.35 85.9086 107.516 85.9562 107.668 86.035L116.16 90.1396C116.421 90.2661 116.631 90.4775 116.757 90.7391C116.882 91.0008 116.916 91.2973 116.851 91.5802C116.786 91.8632 116.627 92.1157 116.4 92.2967C116.173 92.4777 115.892 92.5764 115.602 92.5767Z" fill="#584360"/>
</svg>
