<svg width="150" height="150" viewBox="0 0 150 150" fill="none" xmlns="http://www.w3.org/2000/svg">
<path d="M77.0791 78.2742V119.991C77.0791 121.097 76.1865 121.989 75.0805 121.989C73.9745 121.989 73.0821 121.097 73.0821 119.991V78.2742C73.0821 77.1681 73.9745 76.2756 75.0805 76.2756C76.1865 76.2756 77.0791 77.1681 77.0791 78.2742ZM51.0985 78.2742V105.555C51.0985 109.048 48.2656 111.9 44.7537 111.9H30.9582C29.8522 111.9 28.9597 111.007 28.9597 109.901C28.9597 108.796 29.8522 107.903 30.9582 107.903H44.7537C46.0537 107.903 47.1015 106.835 47.1015 105.555V78.2742C47.1015 77.1681 47.994 76.2756 49.0999 76.2756C50.2059 76.2756 51.0985 77.1681 51.0985 78.2742ZM119.222 109.901C119.222 111.007 118.33 111.9 117.224 111.9H105.427C101.915 111.9 99.082 109.048 99.082 105.555V78.2742C99.082 77.1681 99.9746 76.2756 101.081 76.2756C102.187 76.2756 103.079 77.1681 103.079 78.2742V105.555C103.079 106.835 104.127 107.903 105.427 107.903H117.224C118.33 107.903 119.222 108.796 119.222 109.901Z" fill="#EFEFEF"/>
<path opacity="0.15" d="M51.0983 78.2742V88.1699H47.1013V78.2742C47.1013 77.1681 47.9939 76.2756 49.0998 76.2756C50.2057 76.2756 51.0983 77.1681 51.0983 78.2742ZM77.079 78.2742V88.1699H73.0819V78.2742C73.0819 77.1681 73.9744 76.2756 75.0804 76.2756C76.1864 76.2756 77.079 77.1681 77.079 78.2742ZM103.079 78.2742V88.1699H99.0819V78.2742C99.0819 77.1681 99.9744 76.2756 101.08 76.2756C102.186 76.2756 103.079 77.1681 103.079 78.2742Z" fill="#0B1114"/>
<path d="M137.179 65.6356C137.179 75.9736 128.816 84.2968 118.498 84.2968H31.6813C21.3835 84.2968 13 75.9736 13 65.6356C13 56.6674 19.3481 49.1506 27.7918 47.3774C27.2678 45.342 26.9859 43.2259 26.9859 41.0493C26.9859 27.225 38.2309 16 52.0352 16C62.6152 16 71.6838 22.5899 75.3517 31.8804C79.4023 26.7817 85.6697 23.5168 92.7029 23.5168C104.976 23.5168 114.911 33.4518 114.911 45.7248C114.911 46.2488 114.891 46.7728 114.871 47.3169C116.039 47.0753 117.269 46.9543 118.498 46.9543C128.816 46.9543 137.179 55.3375 137.179 65.6356Z" fill="#A4C9FF"/>
<path d="M84.8268 123.717C84.8268 129.083 80.4786 133.431 75.0897 133.431C69.724 133.431 65.3523 129.083 65.3523 123.717C65.3523 118.328 69.724 113.98 75.0897 113.98C80.4786 113.98 84.8268 118.328 84.8268 123.717Z" fill="#F95353"/>
<path d="M37.0219 111.001C37.0219 116.367 32.6737 120.716 27.2848 120.716C21.919 120.716 17.5474 116.367 17.5474 111.001C17.5474 105.612 21.919 101.264 27.2848 101.264C32.6737 101.264 37.0219 105.612 37.0219 111.001Z" fill="#0072C6"/>
<path d="M113.157 111.001C113.157 116.367 117.505 120.716 122.894 120.716C128.26 120.716 132.632 116.367 132.632 111.001C132.632 105.612 128.26 101.264 122.894 101.264C117.505 101.264 113.157 105.612 113.157 111.001Z" fill="#FFD550"/>
</svg>
